<?xml version="1.0" encoding="utf-8" standalone="no"?>
<!DOCTYPE svg PUBLIC "-//W3C//DTD SVG 1.1//EN"
  "http://www.w3.org/Graphics/SVG/1.1/DTD/svg11.dtd">
<svg xmlns:xlink="http://www.w3.org/1999/xlink" width="864pt" height="576pt" viewBox="0 0 864 576" xmlns="http://www.w3.org/2000/svg" version="1.1">
 <metadata>
  <rdf:RDF xmlns:dc="http://purl.org/dc/elements/1.1/" xmlns:cc="http://creativecommons.org/ns#" xmlns:rdf="http://www.w3.org/1999/02/22-rdf-syntax-ns#">
   <cc:Work>
    <dc:type rdf:resource="http://purl.org/dc/dcmitype/StillImage"/>
    <dc:date>2025-05-01T10:09:54.371906</dc:date>
    <dc:format>image/svg+xml</dc:format>
    <dc:creator>
     <cc:Agent>
      <dc:title>Matplotlib v3.9.2, https://matplotlib.org/</dc:title>
     </cc:Agent>
    </dc:creator>
   </cc:Work>
  </rdf:RDF>
 </metadata>
 <defs>
  <style type="text/css">*{stroke-linejoin: round; stroke-linecap: butt}</style>
 </defs>
 <g id="figure_1">
  <g id="patch_1">
   <path d="M 0 576 
L 864 576 
L 864 0 
L 0 0 
z
" style="fill: #ffffff"/>
  </g>
  <g id="axes_1">
   <g id="patch_2">
    <path d="M 47.81 251.44 
L 418.635 251.44 
L 418.635 25.44 
L 47.81 25.44 
z
" style="fill: #ffffff"/>
   </g>
   <g id="matplotlib.axis_1">
    <g id="xtick_1">
     <g id="line2d_1">
      <defs>
       <path id="m200f37fe67" d="M 0 0 
L 0 3.5 
" style="stroke: #000000; stroke-width: 0.8"/>
      </defs>
      <g>
       <use xlink:href="#m200f37fe67" x="47.81" y="251.44" style="stroke: #000000; stroke-width: 0.8"/>
      </g>
     </g>
     <g id="text_1">
      <!-- 0.0 -->
      <g transform="translate(39.858438 266.038437) scale(0.1 -0.1)">
       <defs>
        <path id="DejaVuSans-30" d="M 2034 4250 
Q 1547 4250 1301 3770 
Q 1056 3291 1056 2328 
Q 1056 1369 1301 889 
Q 1547 409 2034 409 
Q 2525 409 2770 889 
Q 3016 1369 3016 2328 
Q 3016 3291 2770 3770 
Q 2525 4250 2034 4250 
z
M 2034 4750 
Q 2819 4750 3233 4129 
Q 3647 3509 3647 2328 
Q 3647 1150 3233 529 
Q 2819 -91 2034 -91 
Q 1250 -91 836 529 
Q 422 1150 422 2328 
Q 422 3509 836 4129 
Q 1250 4750 2034 4750 
z
" transform="scale(0.015625)"/>
        <path id="DejaVuSans-2e" d="M 684 794 
L 1344 794 
L 1344 0 
L 684 0 
L 684 794 
z
" transform="scale(0.015625)"/>
       </defs>
       <use xlink:href="#DejaVuSans-30"/>
       <use xlink:href="#DejaVuSans-2e" x="63.623047"/>
       <use xlink:href="#DejaVuSans-30" x="95.410156"/>
      </g>
     </g>
    </g>
    <g id="xtick_2">
     <g id="line2d_2">
      <g>
       <use xlink:href="#m200f37fe67" x="121.975" y="251.44" style="stroke: #000000; stroke-width: 0.8"/>
      </g>
     </g>
     <g id="text_2">
      <!-- 0.2 -->
      <g transform="translate(114.023438 266.038437) scale(0.1 -0.1)">
       <defs>
        <path id="DejaVuSans-32" d="M 1228 531 
L 3431 531 
L 3431 0 
L 469 0 
L 469 531 
Q 828 903 1448 1529 
Q 2069 2156 2228 2338 
Q 2531 2678 2651 2914 
Q 2772 3150 2772 3378 
Q 2772 3750 2511 3984 
Q 2250 4219 1831 4219 
Q 1534 4219 1204 4116 
Q 875 4013 500 3803 
L 500 4441 
Q 881 4594 1212 4672 
Q 1544 4750 1819 4750 
Q 2544 4750 2975 4387 
Q 3406 4025 3406 3419 
Q 3406 3131 3298 2873 
Q 3191 2616 2906 2266 
Q 2828 2175 2409 1742 
Q 1991 1309 1228 531 
z
" transform="scale(0.015625)"/>
       </defs>
       <use xlink:href="#DejaVuSans-30"/>
       <use xlink:href="#DejaVuSans-2e" x="63.623047"/>
       <use xlink:href="#DejaVuSans-32" x="95.410156"/>
      </g>
     </g>
    </g>
    <g id="xtick_3">
     <g id="line2d_3">
      <g>
       <use xlink:href="#m200f37fe67" x="196.14" y="251.44" style="stroke: #000000; stroke-width: 0.8"/>
      </g>
     </g>
     <g id="text_3">
      <!-- 0.4 -->
      <g transform="translate(188.188438 266.038437) scale(0.1 -0.1)">
       <defs>
        <path id="DejaVuSans-34" d="M 2419 4116 
L 825 1625 
L 2419 1625 
L 2419 4116 
z
M 2253 4666 
L 3047 4666 
L 3047 1625 
L 3713 1625 
L 3713 1100 
L 3047 1100 
L 3047 0 
L 2419 0 
L 2419 1100 
L 313 1100 
L 313 1709 
L 2253 4666 
z
" transform="scale(0.015625)"/>
       </defs>
       <use xlink:href="#DejaVuSans-30"/>
       <use xlink:href="#DejaVuSans-2e" x="63.623047"/>
       <use xlink:href="#DejaVuSans-34" x="95.410156"/>
      </g>
     </g>
    </g>
    <g id="xtick_4">
     <g id="line2d_4">
      <g>
       <use xlink:href="#m200f37fe67" x="270.305" y="251.44" style="stroke: #000000; stroke-width: 0.8"/>
      </g>
     </g>
     <g id="text_4">
      <!-- 0.6 -->
      <g transform="translate(262.353438 266.038437) scale(0.1 -0.1)">
       <defs>
        <path id="DejaVuSans-36" d="M 2113 2584 
Q 1688 2584 1439 2293 
Q 1191 2003 1191 1497 
Q 1191 994 1439 701 
Q 1688 409 2113 409 
Q 2538 409 2786 701 
Q 3034 994 3034 1497 
Q 3034 2003 2786 2293 
Q 2538 2584 2113 2584 
z
M 3366 4563 
L 3366 3988 
Q 3128 4100 2886 4159 
Q 2644 4219 2406 4219 
Q 1781 4219 1451 3797 
Q 1122 3375 1075 2522 
Q 1259 2794 1537 2939 
Q 1816 3084 2150 3084 
Q 2853 3084 3261 2657 
Q 3669 2231 3669 1497 
Q 3669 778 3244 343 
Q 2819 -91 2113 -91 
Q 1303 -91 875 529 
Q 447 1150 447 2328 
Q 447 3434 972 4092 
Q 1497 4750 2381 4750 
Q 2619 4750 2861 4703 
Q 3103 4656 3366 4563 
z
" transform="scale(0.015625)"/>
       </defs>
       <use xlink:href="#DejaVuSans-30"/>
       <use xlink:href="#DejaVuSans-2e" x="63.623047"/>
       <use xlink:href="#DejaVuSans-36" x="95.410156"/>
      </g>
     </g>
    </g>
    <g id="xtick_5">
     <g id="line2d_5">
      <g>
       <use xlink:href="#m200f37fe67" x="344.47" y="251.44" style="stroke: #000000; stroke-width: 0.8"/>
      </g>
     </g>
     <g id="text_5">
      <!-- 0.8 -->
      <g transform="translate(336.518438 266.038437) scale(0.1 -0.1)">
       <defs>
        <path id="DejaVuSans-38" d="M 2034 2216 
Q 1584 2216 1326 1975 
Q 1069 1734 1069 1313 
Q 1069 891 1326 650 
Q 1584 409 2034 409 
Q 2484 409 2743 651 
Q 3003 894 3003 1313 
Q 3003 1734 2745 1975 
Q 2488 2216 2034 2216 
z
M 1403 2484 
Q 997 2584 770 2862 
Q 544 3141 544 3541 
Q 544 4100 942 4425 
Q 1341 4750 2034 4750 
Q 2731 4750 3128 4425 
Q 3525 4100 3525 3541 
Q 3525 3141 3298 2862 
Q 3072 2584 2669 2484 
Q 3125 2378 3379 2068 
Q 3634 1759 3634 1313 
Q 3634 634 3220 271 
Q 2806 -91 2034 -91 
Q 1263 -91 848 271 
Q 434 634 434 1313 
Q 434 1759 690 2068 
Q 947 2378 1403 2484 
z
M 1172 3481 
Q 1172 3119 1398 2916 
Q 1625 2713 2034 2713 
Q 2441 2713 2670 2916 
Q 2900 3119 2900 3481 
Q 2900 3844 2670 4047 
Q 2441 4250 2034 4250 
Q 1625 4250 1398 4047 
Q 1172 3844 1172 3481 
z
" transform="scale(0.015625)"/>
       </defs>
       <use xlink:href="#DejaVuSans-30"/>
       <use xlink:href="#DejaVuSans-2e" x="63.623047"/>
       <use xlink:href="#DejaVuSans-38" x="95.410156"/>
      </g>
     </g>
    </g>
    <g id="xtick_6">
     <g id="line2d_6">
      <g>
       <use xlink:href="#m200f37fe67" x="418.635" y="251.44" style="stroke: #000000; stroke-width: 0.8"/>
      </g>
     </g>
     <g id="text_6">
      <!-- 1.0 -->
      <g transform="translate(410.683437 266.038437) scale(0.1 -0.1)">
       <defs>
        <path id="DejaVuSans-31" d="M 794 531 
L 1825 531 
L 1825 4091 
L 703 3866 
L 703 4441 
L 1819 4666 
L 2450 4666 
L 2450 531 
L 3481 531 
L 3481 0 
L 794 0 
L 794 531 
z
" transform="scale(0.015625)"/>
       </defs>
       <use xlink:href="#DejaVuSans-31"/>
       <use xlink:href="#DejaVuSans-2e" x="63.623047"/>
       <use xlink:href="#DejaVuSans-30" x="95.410156"/>
      </g>
     </g>
    </g>
    <g id="text_7">
     <!-- False Positive Rate -->
     <g transform="translate(186.756094 279.716563) scale(0.1 -0.1)">
      <defs>
       <path id="DejaVuSans-46" d="M 628 4666 
L 3309 4666 
L 3309 4134 
L 1259 4134 
L 1259 2759 
L 3109 2759 
L 3109 2228 
L 1259 2228 
L 1259 0 
L 628 0 
L 628 4666 
z
" transform="scale(0.015625)"/>
       <path id="DejaVuSans-61" d="M 2194 1759 
Q 1497 1759 1228 1600 
Q 959 1441 959 1056 
Q 959 750 1161 570 
Q 1363 391 1709 391 
Q 2188 391 2477 730 
Q 2766 1069 2766 1631 
L 2766 1759 
L 2194 1759 
z
M 3341 1997 
L 3341 0 
L 2766 0 
L 2766 531 
Q 2569 213 2275 61 
Q 1981 -91 1556 -91 
Q 1019 -91 701 211 
Q 384 513 384 1019 
Q 384 1609 779 1909 
Q 1175 2209 1959 2209 
L 2766 2209 
L 2766 2266 
Q 2766 2663 2505 2880 
Q 2244 3097 1772 3097 
Q 1472 3097 1187 3025 
Q 903 2953 641 2809 
L 641 3341 
Q 956 3463 1253 3523 
Q 1550 3584 1831 3584 
Q 2591 3584 2966 3190 
Q 3341 2797 3341 1997 
z
" transform="scale(0.015625)"/>
       <path id="DejaVuSans-6c" d="M 603 4863 
L 1178 4863 
L 1178 0 
L 603 0 
L 603 4863 
z
" transform="scale(0.015625)"/>
       <path id="DejaVuSans-73" d="M 2834 3397 
L 2834 2853 
Q 2591 2978 2328 3040 
Q 2066 3103 1784 3103 
Q 1356 3103 1142 2972 
Q 928 2841 928 2578 
Q 928 2378 1081 2264 
Q 1234 2150 1697 2047 
L 1894 2003 
Q 2506 1872 2764 1633 
Q 3022 1394 3022 966 
Q 3022 478 2636 193 
Q 2250 -91 1575 -91 
Q 1294 -91 989 -36 
Q 684 19 347 128 
L 347 722 
Q 666 556 975 473 
Q 1284 391 1588 391 
Q 1994 391 2212 530 
Q 2431 669 2431 922 
Q 2431 1156 2273 1281 
Q 2116 1406 1581 1522 
L 1381 1569 
Q 847 1681 609 1914 
Q 372 2147 372 2553 
Q 372 3047 722 3315 
Q 1072 3584 1716 3584 
Q 2034 3584 2315 3537 
Q 2597 3491 2834 3397 
z
" transform="scale(0.015625)"/>
       <path id="DejaVuSans-65" d="M 3597 1894 
L 3597 1613 
L 953 1613 
Q 991 1019 1311 708 
Q 1631 397 2203 397 
Q 2534 397 2845 478 
Q 3156 559 3463 722 
L 3463 178 
Q 3153 47 2828 -22 
Q 2503 -91 2169 -91 
Q 1331 -91 842 396 
Q 353 884 353 1716 
Q 353 2575 817 3079 
Q 1281 3584 2069 3584 
Q 2775 3584 3186 3129 
Q 3597 2675 3597 1894 
z
M 3022 2063 
Q 3016 2534 2758 2815 
Q 2500 3097 2075 3097 
Q 1594 3097 1305 2825 
Q 1016 2553 972 2059 
L 3022 2063 
z
" transform="scale(0.015625)"/>
       <path id="DejaVuSans-20" transform="scale(0.015625)"/>
       <path id="DejaVuSans-50" d="M 1259 4147 
L 1259 2394 
L 2053 2394 
Q 2494 2394 2734 2622 
Q 2975 2850 2975 3272 
Q 2975 3691 2734 3919 
Q 2494 4147 2053 4147 
L 1259 4147 
z
M 628 4666 
L 2053 4666 
Q 2838 4666 3239 4311 
Q 3641 3956 3641 3272 
Q 3641 2581 3239 2228 
Q 2838 1875 2053 1875 
L 1259 1875 
L 1259 0 
L 628 0 
L 628 4666 
z
" transform="scale(0.015625)"/>
       <path id="DejaVuSans-6f" d="M 1959 3097 
Q 1497 3097 1228 2736 
Q 959 2375 959 1747 
Q 959 1119 1226 758 
Q 1494 397 1959 397 
Q 2419 397 2687 759 
Q 2956 1122 2956 1747 
Q 2956 2369 2687 2733 
Q 2419 3097 1959 3097 
z
M 1959 3584 
Q 2709 3584 3137 3096 
Q 3566 2609 3566 1747 
Q 3566 888 3137 398 
Q 2709 -91 1959 -91 
Q 1206 -91 779 398 
Q 353 888 353 1747 
Q 353 2609 779 3096 
Q 1206 3584 1959 3584 
z
" transform="scale(0.015625)"/>
       <path id="DejaVuSans-69" d="M 603 3500 
L 1178 3500 
L 1178 0 
L 603 0 
L 603 3500 
z
M 603 4863 
L 1178 4863 
L 1178 4134 
L 603 4134 
L 603 4863 
z
" transform="scale(0.015625)"/>
       <path id="DejaVuSans-74" d="M 1172 4494 
L 1172 3500 
L 2356 3500 
L 2356 3053 
L 1172 3053 
L 1172 1153 
Q 1172 725 1289 603 
Q 1406 481 1766 481 
L 2356 481 
L 2356 0 
L 1766 0 
Q 1100 0 847 248 
Q 594 497 594 1153 
L 594 3053 
L 172 3053 
L 172 3500 
L 594 3500 
L 594 4494 
L 1172 4494 
z
" transform="scale(0.015625)"/>
       <path id="DejaVuSans-76" d="M 191 3500 
L 800 3500 
L 1894 563 
L 2988 3500 
L 3597 3500 
L 2284 0 
L 1503 0 
L 191 3500 
z
" transform="scale(0.015625)"/>
       <path id="DejaVuSans-52" d="M 2841 2188 
Q 3044 2119 3236 1894 
Q 3428 1669 3622 1275 
L 4263 0 
L 3584 0 
L 2988 1197 
Q 2756 1666 2539 1819 
Q 2322 1972 1947 1972 
L 1259 1972 
L 1259 0 
L 628 0 
L 628 4666 
L 2053 4666 
Q 2853 4666 3247 4331 
Q 3641 3997 3641 3322 
Q 3641 2881 3436 2590 
Q 3231 2300 2841 2188 
z
M 1259 4147 
L 1259 2491 
L 2053 2491 
Q 2509 2491 2742 2702 
Q 2975 2913 2975 3322 
Q 2975 3731 2742 3939 
Q 2509 4147 2053 4147 
L 1259 4147 
z
" transform="scale(0.015625)"/>
      </defs>
      <use xlink:href="#DejaVuSans-46"/>
      <use xlink:href="#DejaVuSans-61" x="48.394531"/>
      <use xlink:href="#DejaVuSans-6c" x="109.673828"/>
      <use xlink:href="#DejaVuSans-73" x="137.457031"/>
      <use xlink:href="#DejaVuSans-65" x="189.556641"/>
      <use xlink:href="#DejaVuSans-20" x="251.080078"/>
      <use xlink:href="#DejaVuSans-50" x="282.867188"/>
      <use xlink:href="#DejaVuSans-6f" x="339.544922"/>
      <use xlink:href="#DejaVuSans-73" x="400.726562"/>
      <use xlink:href="#DejaVuSans-69" x="452.826172"/>
      <use xlink:href="#DejaVuSans-74" x="480.609375"/>
      <use xlink:href="#DejaVuSans-69" x="519.818359"/>
      <use xlink:href="#DejaVuSans-76" x="547.601562"/>
      <use xlink:href="#DejaVuSans-65" x="606.78125"/>
      <use xlink:href="#DejaVuSans-20" x="668.304688"/>
      <use xlink:href="#DejaVuSans-52" x="700.091797"/>
      <use xlink:href="#DejaVuSans-61" x="767.324219"/>
      <use xlink:href="#DejaVuSans-74" x="828.603516"/>
      <use xlink:href="#DejaVuSans-65" x="867.8125"/>
     </g>
    </g>
   </g>
   <g id="matplotlib.axis_2">
    <g id="ytick_1">
     <g id="line2d_7">
      <defs>
       <path id="madc6b5bcc7" d="M 0 0 
L -3.5 0 
" style="stroke: #000000; stroke-width: 0.8"/>
      </defs>
      <g>
       <use xlink:href="#madc6b5bcc7" x="47.81" y="251.44" style="stroke: #000000; stroke-width: 0.8"/>
      </g>
     </g>
     <g id="text_8">
      <!-- 0.0 -->
      <g transform="translate(24.906875 255.239219) scale(0.1 -0.1)">
       <use xlink:href="#DejaVuSans-30"/>
       <use xlink:href="#DejaVuSans-2e" x="63.623047"/>
       <use xlink:href="#DejaVuSans-30" x="95.410156"/>
      </g>
     </g>
    </g>
    <g id="ytick_2">
     <g id="line2d_8">
      <g>
       <use xlink:href="#madc6b5bcc7" x="47.81" y="208.392381" style="stroke: #000000; stroke-width: 0.8"/>
      </g>
     </g>
     <g id="text_9">
      <!-- 0.2 -->
      <g transform="translate(24.906875 212.1916) scale(0.1 -0.1)">
       <use xlink:href="#DejaVuSans-30"/>
       <use xlink:href="#DejaVuSans-2e" x="63.623047"/>
       <use xlink:href="#DejaVuSans-32" x="95.410156"/>
      </g>
     </g>
    </g>
    <g id="ytick_3">
     <g id="line2d_9">
      <g>
       <use xlink:href="#madc6b5bcc7" x="47.81" y="165.344762" style="stroke: #000000; stroke-width: 0.8"/>
      </g>
     </g>
     <g id="text_10">
      <!-- 0.4 -->
      <g transform="translate(24.906875 169.143981) scale(0.1 -0.1)">
       <use xlink:href="#DejaVuSans-30"/>
       <use xlink:href="#DejaVuSans-2e" x="63.623047"/>
       <use xlink:href="#DejaVuSans-34" x="95.410156"/>
      </g>
     </g>
    </g>
    <g id="ytick_4">
     <g id="line2d_10">
      <g>
       <use xlink:href="#madc6b5bcc7" x="47.81" y="122.297143" style="stroke: #000000; stroke-width: 0.8"/>
      </g>
     </g>
     <g id="text_11">
      <!-- 0.6 -->
      <g transform="translate(24.906875 126.096362) scale(0.1 -0.1)">
       <use xlink:href="#DejaVuSans-30"/>
       <use xlink:href="#DejaVuSans-2e" x="63.623047"/>
       <use xlink:href="#DejaVuSans-36" x="95.410156"/>
      </g>
     </g>
    </g>
    <g id="ytick_5">
     <g id="line2d_11">
      <g>
       <use xlink:href="#madc6b5bcc7" x="47.81" y="79.249524" style="stroke: #000000; stroke-width: 0.8"/>
      </g>
     </g>
     <g id="text_12">
      <!-- 0.8 -->
      <g transform="translate(24.906875 83.048743) scale(0.1 -0.1)">
       <use xlink:href="#DejaVuSans-30"/>
       <use xlink:href="#DejaVuSans-2e" x="63.623047"/>
       <use xlink:href="#DejaVuSans-38" x="95.410156"/>
      </g>
     </g>
    </g>
    <g id="ytick_6">
     <g id="line2d_12">
      <g>
       <use xlink:href="#madc6b5bcc7" x="47.81" y="36.201905" style="stroke: #000000; stroke-width: 0.8"/>
      </g>
     </g>
     <g id="text_13">
      <!-- 1.0 -->
      <g transform="translate(24.906875 40.001124) scale(0.1 -0.1)">
       <use xlink:href="#DejaVuSans-31"/>
       <use xlink:href="#DejaVuSans-2e" x="63.623047"/>
       <use xlink:href="#DejaVuSans-30" x="95.410156"/>
      </g>
     </g>
    </g>
    <g id="text_14">
     <!-- True Positive Rate -->
     <g transform="translate(18.827187 182.969687) rotate(-90) scale(0.1 -0.1)">
      <defs>
       <path id="DejaVuSans-54" d="M -19 4666 
L 3928 4666 
L 3928 4134 
L 2272 4134 
L 2272 0 
L 1638 0 
L 1638 4134 
L -19 4134 
L -19 4666 
z
" transform="scale(0.015625)"/>
       <path id="DejaVuSans-72" d="M 2631 2963 
Q 2534 3019 2420 3045 
Q 2306 3072 2169 3072 
Q 1681 3072 1420 2755 
Q 1159 2438 1159 1844 
L 1159 0 
L 581 0 
L 581 3500 
L 1159 3500 
L 1159 2956 
Q 1341 3275 1631 3429 
Q 1922 3584 2338 3584 
Q 2397 3584 2469 3576 
Q 2541 3569 2628 3553 
L 2631 2963 
z
" transform="scale(0.015625)"/>
       <path id="DejaVuSans-75" d="M 544 1381 
L 544 3500 
L 1119 3500 
L 1119 1403 
Q 1119 906 1312 657 
Q 1506 409 1894 409 
Q 2359 409 2629 706 
Q 2900 1003 2900 1516 
L 2900 3500 
L 3475 3500 
L 3475 0 
L 2900 0 
L 2900 538 
Q 2691 219 2414 64 
Q 2138 -91 1772 -91 
Q 1169 -91 856 284 
Q 544 659 544 1381 
z
M 1991 3584 
L 1991 3584 
z
" transform="scale(0.015625)"/>
      </defs>
      <use xlink:href="#DejaVuSans-54"/>
      <use xlink:href="#DejaVuSans-72" x="46.333984"/>
      <use xlink:href="#DejaVuSans-75" x="87.447266"/>
      <use xlink:href="#DejaVuSans-65" x="150.826172"/>
      <use xlink:href="#DejaVuSans-20" x="212.349609"/>
      <use xlink:href="#DejaVuSans-50" x="244.136719"/>
      <use xlink:href="#DejaVuSans-6f" x="300.814453"/>
      <use xlink:href="#DejaVuSans-73" x="361.996094"/>
      <use xlink:href="#DejaVuSans-69" x="414.095703"/>
      <use xlink:href="#DejaVuSans-74" x="441.878906"/>
      <use xlink:href="#DejaVuSans-69" x="481.087891"/>
      <use xlink:href="#DejaVuSans-76" x="508.871094"/>
      <use xlink:href="#DejaVuSans-65" x="568.050781"/>
      <use xlink:href="#DejaVuSans-20" x="629.574219"/>
      <use xlink:href="#DejaVuSans-52" x="661.361328"/>
      <use xlink:href="#DejaVuSans-61" x="728.59375"/>
      <use xlink:href="#DejaVuSans-74" x="789.873047"/>
      <use xlink:href="#DejaVuSans-65" x="829.082031"/>
     </g>
    </g>
   </g>
   <g id="line2d_13">
    <path d="M 47.81 251.44 
L 47.81 250.384911 
L 47.81 137.49042 
L 52.564167 137.49042 
L 52.564167 123.774267 
L 62.0725 123.774267 
L 62.0725 113.22338 
L 66.826667 113.22338 
L 66.826667 107.947937 
L 71.580833 107.947937 
L 71.580833 72.074921 
L 76.335 72.074921 
L 76.335 71.019832 
L 100.105833 71.019832 
L 100.105833 67.854566 
L 104.86 67.854566 
L 104.86 66.799477 
L 109.614167 66.799477 
L 109.614167 65.744388 
L 114.368333 65.744388 
L 114.368333 60.468945 
L 119.1225 60.468945 
L 119.1225 59.413856 
L 123.876667 59.413856 
L 123.876667 48.862969 
L 133.385 48.862969 
L 133.385 46.752792 
L 138.139167 46.752792 
L 138.139167 44.642614 
L 142.893333 44.642614 
L 142.893333 42.532437 
L 152.401667 42.532437 
L 152.401667 40.42226 
L 161.91 40.42226 
L 161.91 38.312082 
L 195.189167 38.312082 
L 195.189167 37.256993 
L 223.714167 37.256993 
L 223.714167 36.201905 
L 418.635 36.201905 
" clip-path="url(#p1b4ed06c64)" style="fill: none; stroke: #1f77b4; stroke-width: 1.5; stroke-linecap: square"/>
   </g>
   <g id="line2d_14">
    <path d="M 47.81 251.44 
L 47.81 247.219645 
L 47.81 238.778936 
L 121.975 238.778936 
L 121.975 234.558581 
L 159.0575 234.558581 
L 159.0575 230.338226 
L 177.59875 230.338226 
L 177.59875 213.456807 
L 196.14 213.456807 
L 196.14 183.914323 
L 214.68125 183.914323 
L 214.68125 171.253259 
L 233.2225 171.253259 
L 233.2225 162.812549 
L 251.76375 162.812549 
L 251.76375 154.371839 
L 270.305 154.371839 
L 270.305 145.93113 
L 288.84625 145.93113 
L 288.84625 65.744388 
L 307.3875 65.744388 
L 307.3875 61.524034 
L 344.47 61.524034 
L 344.47 57.303679 
L 381.5525 57.303679 
L 381.5525 44.642614 
L 400.09375 44.642614 
L 400.09375 36.201905 
L 418.635 36.201905 
" clip-path="url(#p1b4ed06c64)" style="fill: none; stroke: #ff7f0e; stroke-width: 1.5; stroke-linecap: square"/>
   </g>
   <g id="line2d_15">
    <path d="M 47.81 251.44 
L 418.635 36.201905 
" clip-path="url(#p1b4ed06c64)" style="fill: none; stroke-dasharray: 5.55,2.4; stroke-dashoffset: 0; stroke: #000000; stroke-width: 1.5"/>
   </g>
   <g id="patch_3">
    <path d="M 47.81 251.44 
L 47.81 25.44 
" style="fill: none; stroke: #000000; stroke-width: 0.8; stroke-linejoin: miter; stroke-linecap: square"/>
   </g>
   <g id="patch_4">
    <path d="M 418.635 251.44 
L 418.635 25.44 
" style="fill: none; stroke: #000000; stroke-width: 0.8; stroke-linejoin: miter; stroke-linecap: square"/>
   </g>
   <g id="patch_5">
    <path d="M 47.81 251.44 
L 418.635 251.44 
" style="fill: none; stroke: #000000; stroke-width: 0.8; stroke-linejoin: miter; stroke-linecap: square"/>
   </g>
   <g id="patch_6">
    <path d="M 47.81 25.44 
L 418.635 25.44 
" style="fill: none; stroke: #000000; stroke-width: 0.8; stroke-linejoin: miter; stroke-linecap: square"/>
   </g>
   <g id="text_15">
    <!-- ROC Curve -->
    <g transform="translate(200.531875 19.44) scale(0.12 -0.12)">
     <defs>
      <path id="DejaVuSans-4f" d="M 2522 4238 
Q 1834 4238 1429 3725 
Q 1025 3213 1025 2328 
Q 1025 1447 1429 934 
Q 1834 422 2522 422 
Q 3209 422 3611 934 
Q 4013 1447 4013 2328 
Q 4013 3213 3611 3725 
Q 3209 4238 2522 4238 
z
M 2522 4750 
Q 3503 4750 4090 4092 
Q 4678 3434 4678 2328 
Q 4678 1225 4090 567 
Q 3503 -91 2522 -91 
Q 1538 -91 948 565 
Q 359 1222 359 2328 
Q 359 3434 948 4092 
Q 1538 4750 2522 4750 
z
" transform="scale(0.015625)"/>
      <path id="DejaVuSans-43" d="M 4122 4306 
L 4122 3641 
Q 3803 3938 3442 4084 
Q 3081 4231 2675 4231 
Q 1875 4231 1450 3742 
Q 1025 3253 1025 2328 
Q 1025 1406 1450 917 
Q 1875 428 2675 428 
Q 3081 428 3442 575 
Q 3803 722 4122 1019 
L 4122 359 
Q 3791 134 3420 21 
Q 3050 -91 2638 -91 
Q 1578 -91 968 557 
Q 359 1206 359 2328 
Q 359 3453 968 4101 
Q 1578 4750 2638 4750 
Q 3056 4750 3426 4639 
Q 3797 4528 4122 4306 
z
" transform="scale(0.015625)"/>
     </defs>
     <use xlink:href="#DejaVuSans-52"/>
     <use xlink:href="#DejaVuSans-4f" x="69.482422"/>
     <use xlink:href="#DejaVuSans-43" x="148.193359"/>
     <use xlink:href="#DejaVuSans-20" x="218.017578"/>
     <use xlink:href="#DejaVuSans-43" x="249.804688"/>
     <use xlink:href="#DejaVuSans-75" x="319.628906"/>
     <use xlink:href="#DejaVuSans-72" x="383.007812"/>
     <use xlink:href="#DejaVuSans-76" x="424.121094"/>
     <use xlink:href="#DejaVuSans-65" x="483.300781"/>
    </g>
   </g>
   <g id="legend_1">
    <g id="patch_7">
     <path d="M 287.235 246.44 
L 411.635 246.44 
Q 413.635 246.44 413.635 244.44 
L 413.635 216.08375 
Q 413.635 214.08375 411.635 214.08375 
L 287.235 214.08375 
Q 285.235 214.08375 285.235 216.08375 
L 285.235 244.44 
Q 285.235 246.44 287.235 246.44 
z
" style="fill: #ffffff; opacity: 0.8; stroke: #cccccc; stroke-linejoin: miter"/>
    </g>
    <g id="line2d_16">
     <path d="M 289.235 222.182187 
L 299.235 222.182187 
L 309.235 222.182187 
" style="fill: none; stroke: #1f77b4; stroke-width: 1.5; stroke-linecap: square"/>
    </g>
    <g id="text_16">
     <!-- train (AUC = 0.95) -->
     <g transform="translate(317.235 225.682187) scale(0.1 -0.1)">
      <defs>
       <path id="DejaVuSans-6e" d="M 3513 2113 
L 3513 0 
L 2938 0 
L 2938 2094 
Q 2938 2591 2744 2837 
Q 2550 3084 2163 3084 
Q 1697 3084 1428 2787 
Q 1159 2491 1159 1978 
L 1159 0 
L 581 0 
L 581 3500 
L 1159 3500 
L 1159 2956 
Q 1366 3272 1645 3428 
Q 1925 3584 2291 3584 
Q 2894 3584 3203 3211 
Q 3513 2838 3513 2113 
z
" transform="scale(0.015625)"/>
       <path id="DejaVuSans-28" d="M 1984 4856 
Q 1566 4138 1362 3434 
Q 1159 2731 1159 2009 
Q 1159 1288 1364 580 
Q 1569 -128 1984 -844 
L 1484 -844 
Q 1016 -109 783 600 
Q 550 1309 550 2009 
Q 550 2706 781 3412 
Q 1013 4119 1484 4856 
L 1984 4856 
z
" transform="scale(0.015625)"/>
       <path id="DejaVuSans-41" d="M 2188 4044 
L 1331 1722 
L 3047 1722 
L 2188 4044 
z
M 1831 4666 
L 2547 4666 
L 4325 0 
L 3669 0 
L 3244 1197 
L 1141 1197 
L 716 0 
L 50 0 
L 1831 4666 
z
" transform="scale(0.015625)"/>
       <path id="DejaVuSans-55" d="M 556 4666 
L 1191 4666 
L 1191 1831 
Q 1191 1081 1462 751 
Q 1734 422 2344 422 
Q 2950 422 3222 751 
Q 3494 1081 3494 1831 
L 3494 4666 
L 4128 4666 
L 4128 1753 
Q 4128 841 3676 375 
Q 3225 -91 2344 -91 
Q 1459 -91 1007 375 
Q 556 841 556 1753 
L 556 4666 
z
" transform="scale(0.015625)"/>
       <path id="DejaVuSans-3d" d="M 678 2906 
L 4684 2906 
L 4684 2381 
L 678 2381 
L 678 2906 
z
M 678 1631 
L 4684 1631 
L 4684 1100 
L 678 1100 
L 678 1631 
z
" transform="scale(0.015625)"/>
       <path id="DejaVuSans-39" d="M 703 97 
L 703 672 
Q 941 559 1184 500 
Q 1428 441 1663 441 
Q 2288 441 2617 861 
Q 2947 1281 2994 2138 
Q 2813 1869 2534 1725 
Q 2256 1581 1919 1581 
Q 1219 1581 811 2004 
Q 403 2428 403 3163 
Q 403 3881 828 4315 
Q 1253 4750 1959 4750 
Q 2769 4750 3195 4129 
Q 3622 3509 3622 2328 
Q 3622 1225 3098 567 
Q 2575 -91 1691 -91 
Q 1453 -91 1209 -44 
Q 966 3 703 97 
z
M 1959 2075 
Q 2384 2075 2632 2365 
Q 2881 2656 2881 3163 
Q 2881 3666 2632 3958 
Q 2384 4250 1959 4250 
Q 1534 4250 1286 3958 
Q 1038 3666 1038 3163 
Q 1038 2656 1286 2365 
Q 1534 2075 1959 2075 
z
" transform="scale(0.015625)"/>
       <path id="DejaVuSans-35" d="M 691 4666 
L 3169 4666 
L 3169 4134 
L 1269 4134 
L 1269 2991 
Q 1406 3038 1543 3061 
Q 1681 3084 1819 3084 
Q 2600 3084 3056 2656 
Q 3513 2228 3513 1497 
Q 3513 744 3044 326 
Q 2575 -91 1722 -91 
Q 1428 -91 1123 -41 
Q 819 9 494 109 
L 494 744 
Q 775 591 1075 516 
Q 1375 441 1709 441 
Q 2250 441 2565 725 
Q 2881 1009 2881 1497 
Q 2881 1984 2565 2268 
Q 2250 2553 1709 2553 
Q 1456 2553 1204 2497 
Q 953 2441 691 2322 
L 691 4666 
z
" transform="scale(0.015625)"/>
       <path id="DejaVuSans-29" d="M 513 4856 
L 1013 4856 
Q 1481 4119 1714 3412 
Q 1947 2706 1947 2009 
Q 1947 1309 1714 600 
Q 1481 -109 1013 -844 
L 513 -844 
Q 928 -128 1133 580 
Q 1338 1288 1338 2009 
Q 1338 2731 1133 3434 
Q 928 4138 513 4856 
z
" transform="scale(0.015625)"/>
      </defs>
      <use xlink:href="#DejaVuSans-74"/>
      <use xlink:href="#DejaVuSans-72" x="39.208984"/>
      <use xlink:href="#DejaVuSans-61" x="80.322266"/>
      <use xlink:href="#DejaVuSans-69" x="141.601562"/>
      <use xlink:href="#DejaVuSans-6e" x="169.384766"/>
      <use xlink:href="#DejaVuSans-20" x="232.763672"/>
      <use xlink:href="#DejaVuSans-28" x="264.550781"/>
      <use xlink:href="#DejaVuSans-41" x="303.564453"/>
      <use xlink:href="#DejaVuSans-55" x="371.972656"/>
      <use xlink:href="#DejaVuSans-43" x="445.166016"/>
      <use xlink:href="#DejaVuSans-20" x="514.990234"/>
      <use xlink:href="#DejaVuSans-3d" x="546.777344"/>
      <use xlink:href="#DejaVuSans-20" x="630.566406"/>
      <use xlink:href="#DejaVuSans-30" x="662.353516"/>
      <use xlink:href="#DejaVuSans-2e" x="725.976562"/>
      <use xlink:href="#DejaVuSans-39" x="757.763672"/>
      <use xlink:href="#DejaVuSans-35" x="821.386719"/>
      <use xlink:href="#DejaVuSans-29" x="885.009766"/>
     </g>
    </g>
    <g id="line2d_17">
     <path d="M 289.235 236.860313 
L 299.235 236.860313 
L 309.235 236.860313 
" style="fill: none; stroke: #ff7f0e; stroke-width: 1.5; stroke-linecap: square"/>
    </g>
    <g id="text_17">
     <!-- test (AUC = 0.45) -->
     <g transform="translate(317.235 240.360313) scale(0.1 -0.1)">
      <use xlink:href="#DejaVuSans-74"/>
      <use xlink:href="#DejaVuSans-65" x="39.208984"/>
      <use xlink:href="#DejaVuSans-73" x="100.732422"/>
      <use xlink:href="#DejaVuSans-74" x="152.832031"/>
      <use xlink:href="#DejaVuSans-20" x="192.041016"/>
      <use xlink:href="#DejaVuSans-28" x="223.828125"/>
      <use xlink:href="#DejaVuSans-41" x="262.841797"/>
      <use xlink:href="#DejaVuSans-55" x="331.25"/>
      <use xlink:href="#DejaVuSans-43" x="404.443359"/>
      <use xlink:href="#DejaVuSans-20" x="474.267578"/>
      <use xlink:href="#DejaVuSans-3d" x="506.054688"/>
      <use xlink:href="#DejaVuSans-20" x="589.84375"/>
      <use xlink:href="#DejaVuSans-30" x="621.630859"/>
      <use xlink:href="#DejaVuSans-2e" x="685.253906"/>
      <use xlink:href="#DejaVuSans-34" x="717.041016"/>
      <use xlink:href="#DejaVuSans-35" x="780.664062"/>
      <use xlink:href="#DejaVuSans-29" x="844.287109"/>
     </g>
    </g>
   </g>
  </g>
  <g id="axes_2">
   <g id="patch_8">
    <path d="M 474.41 251.44 
L 845.235 251.44 
L 845.235 25.44 
L 474.41 25.44 
z
" style="fill: #ffffff"/>
   </g>
   <g id="matplotlib.axis_3">
    <g id="xtick_7">
     <g id="line2d_18">
      <g>
       <use xlink:href="#m200f37fe67" x="474.41" y="251.44" style="stroke: #000000; stroke-width: 0.8"/>
      </g>
     </g>
     <g id="text_18">
      <!-- 0.0 -->
      <g transform="translate(466.458437 266.038437) scale(0.1 -0.1)">
       <use xlink:href="#DejaVuSans-30"/>
       <use xlink:href="#DejaVuSans-2e" x="63.623047"/>
       <use xlink:href="#DejaVuSans-30" x="95.410156"/>
      </g>
     </g>
    </g>
    <g id="xtick_8">
     <g id="line2d_19">
      <g>
       <use xlink:href="#m200f37fe67" x="548.575" y="251.44" style="stroke: #000000; stroke-width: 0.8"/>
      </g>
     </g>
     <g id="text_19">
      <!-- 0.2 -->
      <g transform="translate(540.623437 266.038437) scale(0.1 -0.1)">
       <use xlink:href="#DejaVuSans-30"/>
       <use xlink:href="#DejaVuSans-2e" x="63.623047"/>
       <use xlink:href="#DejaVuSans-32" x="95.410156"/>
      </g>
     </g>
    </g>
    <g id="xtick_9">
     <g id="line2d_20">
      <g>
       <use xlink:href="#m200f37fe67" x="622.74" y="251.44" style="stroke: #000000; stroke-width: 0.8"/>
      </g>
     </g>
     <g id="text_20">
      <!-- 0.4 -->
      <g transform="translate(614.788437 266.038437) scale(0.1 -0.1)">
       <use xlink:href="#DejaVuSans-30"/>
       <use xlink:href="#DejaVuSans-2e" x="63.623047"/>
       <use xlink:href="#DejaVuSans-34" x="95.410156"/>
      </g>
     </g>
    </g>
    <g id="xtick_10">
     <g id="line2d_21">
      <g>
       <use xlink:href="#m200f37fe67" x="696.905" y="251.44" style="stroke: #000000; stroke-width: 0.8"/>
      </g>
     </g>
     <g id="text_21">
      <!-- 0.6 -->
      <g transform="translate(688.953437 266.038437) scale(0.1 -0.1)">
       <use xlink:href="#DejaVuSans-30"/>
       <use xlink:href="#DejaVuSans-2e" x="63.623047"/>
       <use xlink:href="#DejaVuSans-36" x="95.410156"/>
      </g>
     </g>
    </g>
    <g id="xtick_11">
     <g id="line2d_22">
      <g>
       <use xlink:href="#m200f37fe67" x="771.07" y="251.44" style="stroke: #000000; stroke-width: 0.8"/>
      </g>
     </g>
     <g id="text_22">
      <!-- 0.8 -->
      <g transform="translate(763.118437 266.038437) scale(0.1 -0.1)">
       <use xlink:href="#DejaVuSans-30"/>
       <use xlink:href="#DejaVuSans-2e" x="63.623047"/>
       <use xlink:href="#DejaVuSans-38" x="95.410156"/>
      </g>
     </g>
    </g>
    <g id="xtick_12">
     <g id="line2d_23">
      <g>
       <use xlink:href="#m200f37fe67" x="845.235" y="251.44" style="stroke: #000000; stroke-width: 0.8"/>
      </g>
     </g>
     <g id="text_23">
      <!-- 1.0 -->
      <g transform="translate(837.283437 266.038437) scale(0.1 -0.1)">
       <use xlink:href="#DejaVuSans-31"/>
       <use xlink:href="#DejaVuSans-2e" x="63.623047"/>
       <use xlink:href="#DejaVuSans-30" x="95.410156"/>
      </g>
     </g>
    </g>
    <g id="text_24">
     <!-- Recall -->
     <g transform="translate(644.905313 279.716563) scale(0.1 -0.1)">
      <defs>
       <path id="DejaVuSans-63" d="M 3122 3366 
L 3122 2828 
Q 2878 2963 2633 3030 
Q 2388 3097 2138 3097 
Q 1578 3097 1268 2742 
Q 959 2388 959 1747 
Q 959 1106 1268 751 
Q 1578 397 2138 397 
Q 2388 397 2633 464 
Q 2878 531 3122 666 
L 3122 134 
Q 2881 22 2623 -34 
Q 2366 -91 2075 -91 
Q 1284 -91 818 406 
Q 353 903 353 1747 
Q 353 2603 823 3093 
Q 1294 3584 2113 3584 
Q 2378 3584 2631 3529 
Q 2884 3475 3122 3366 
z
" transform="scale(0.015625)"/>
      </defs>
      <use xlink:href="#DejaVuSans-52"/>
      <use xlink:href="#DejaVuSans-65" x="64.982422"/>
      <use xlink:href="#DejaVuSans-63" x="126.505859"/>
      <use xlink:href="#DejaVuSans-61" x="181.486328"/>
      <use xlink:href="#DejaVuSans-6c" x="242.765625"/>
      <use xlink:href="#DejaVuSans-6c" x="270.548828"/>
     </g>
    </g>
   </g>
   <g id="matplotlib.axis_4">
    <g id="ytick_7">
     <g id="line2d_24">
      <g>
       <use xlink:href="#madc6b5bcc7" x="474.41" y="251.44" style="stroke: #000000; stroke-width: 0.8"/>
      </g>
     </g>
     <g id="text_25">
      <!-- 0.0 -->
      <g transform="translate(451.506875 255.239219) scale(0.1 -0.1)">
       <use xlink:href="#DejaVuSans-30"/>
       <use xlink:href="#DejaVuSans-2e" x="63.623047"/>
       <use xlink:href="#DejaVuSans-30" x="95.410156"/>
      </g>
     </g>
    </g>
    <g id="ytick_8">
     <g id="line2d_25">
      <g>
       <use xlink:href="#madc6b5bcc7" x="474.41" y="208.392381" style="stroke: #000000; stroke-width: 0.8"/>
      </g>
     </g>
     <g id="text_26">
      <!-- 0.2 -->
      <g transform="translate(451.506875 212.1916) scale(0.1 -0.1)">
       <use xlink:href="#DejaVuSans-30"/>
       <use xlink:href="#DejaVuSans-2e" x="63.623047"/>
       <use xlink:href="#DejaVuSans-32" x="95.410156"/>
      </g>
     </g>
    </g>
    <g id="ytick_9">
     <g id="line2d_26">
      <g>
       <use xlink:href="#madc6b5bcc7" x="474.41" y="165.344762" style="stroke: #000000; stroke-width: 0.8"/>
      </g>
     </g>
     <g id="text_27">
      <!-- 0.4 -->
      <g transform="translate(451.506875 169.143981) scale(0.1 -0.1)">
       <use xlink:href="#DejaVuSans-30"/>
       <use xlink:href="#DejaVuSans-2e" x="63.623047"/>
       <use xlink:href="#DejaVuSans-34" x="95.410156"/>
      </g>
     </g>
    </g>
    <g id="ytick_10">
     <g id="line2d_27">
      <g>
       <use xlink:href="#madc6b5bcc7" x="474.41" y="122.297143" style="stroke: #000000; stroke-width: 0.8"/>
      </g>
     </g>
     <g id="text_28">
      <!-- 0.6 -->
      <g transform="translate(451.506875 126.096362) scale(0.1 -0.1)">
       <use xlink:href="#DejaVuSans-30"/>
       <use xlink:href="#DejaVuSans-2e" x="63.623047"/>
       <use xlink:href="#DejaVuSans-36" x="95.410156"/>
      </g>
     </g>
    </g>
    <g id="ytick_11">
     <g id="line2d_28">
      <g>
       <use xlink:href="#madc6b5bcc7" x="474.41" y="79.249524" style="stroke: #000000; stroke-width: 0.8"/>
      </g>
     </g>
     <g id="text_29">
      <!-- 0.8 -->
      <g transform="translate(451.506875 83.048743) scale(0.1 -0.1)">
       <use xlink:href="#DejaVuSans-30"/>
       <use xlink:href="#DejaVuSans-2e" x="63.623047"/>
       <use xlink:href="#DejaVuSans-38" x="95.410156"/>
      </g>
     </g>
    </g>
    <g id="ytick_12">
     <g id="line2d_29">
      <g>
       <use xlink:href="#madc6b5bcc7" x="474.41" y="36.201905" style="stroke: #000000; stroke-width: 0.8"/>
      </g>
     </g>
     <g id="text_30">
      <!-- 1.0 -->
      <g transform="translate(451.506875 40.001124) scale(0.1 -0.1)">
       <use xlink:href="#DejaVuSans-31"/>
       <use xlink:href="#DejaVuSans-2e" x="63.623047"/>
       <use xlink:href="#DejaVuSans-30" x="95.410156"/>
      </g>
     </g>
    </g>
    <g id="text_31">
     <!-- Precision -->
     <g transform="translate(445.427188 160.747031) rotate(-90) scale(0.1 -0.1)">
      <use xlink:href="#DejaVuSans-50"/>
      <use xlink:href="#DejaVuSans-72" x="58.552734"/>
      <use xlink:href="#DejaVuSans-65" x="97.416016"/>
      <use xlink:href="#DejaVuSans-63" x="158.939453"/>
      <use xlink:href="#DejaVuSans-69" x="213.919922"/>
      <use xlink:href="#DejaVuSans-73" x="241.703125"/>
      <use xlink:href="#DejaVuSans-69" x="293.802734"/>
      <use xlink:href="#DejaVuSans-6f" x="321.585938"/>
      <use xlink:href="#DejaVuSans-6e" x="382.767578"/>
     </g>
    </g>
   </g>
   <g id="line2d_30">
    <path d="M 845.235 95.735846 
L 845.235 69.246758 
L 843.41723 69.384444 
L 843.41723 64.716353 
L 841.599461 64.838733 
L 841.599461 59.059048 
L 837.963922 59.263129 
L 837.963922 57.531806 
L 834.328382 57.725714 
L 834.328382 55.948519 
L 830.692843 56.131358 
L 830.692843 55.222946 
L 827.057304 55.401547 
L 827.057304 54.476837 
L 823.421765 54.650884 
L 823.421765 52.758681 
L 805.244069 53.594882 
L 805.244069 52.590592 
L 803.426299 52.674208 
L 803.426299 51.654896 
L 794.337451 52.061554 
L 794.337451 51.006641 
L 792.519681 51.08539 
L 792.519681 50.013975 
L 790.701912 50.088233 
L 790.701912 48.999846 
L 785.248603 49.210801 
L 785.248603 43.498111 
L 783.430833 43.539567 
L 783.430833 42.351565 
L 743.439902 43.235829 
L 721.626667 43.834461 
L 721.626667 42.351565 
L 712.537819 42.57933 
L 712.537819 41.020668 
L 694.360123 41.409278 
L 694.360123 37.966151 
L 670.729118 38.176566 
L 670.729118 36.201905 
L 474.41 36.201905 
L 474.41 36.201905 
" clip-path="url(#pbda88edbda)" style="fill: none; stroke: #1f77b4; stroke-width: 1.5; stroke-linecap: square"/>
   </g>
   <g id="line2d_31">
    <path d="M 845.235 96.832354 
L 845.235 94.623673 
L 837.963922 95.470366 
L 830.692843 96.341961 
L 830.692843 94.027065 
L 823.421765 94.903203 
L 816.150686 95.8063 
L 808.879608 96.737619 
L 808.879608 94.282026 
L 808.879608 91.74722 
L 801.608529 92.657799 
L 801.608529 90.011429 
L 801.608529 87.275351 
L 794.337451 88.155928 
L 794.337451 85.291295 
L 787.066373 86.167891 
L 779.795294 87.076364 
L 772.524216 88.018483 
L 765.253137 88.996155 
L 757.982059 90.011429 
L 750.71098 91.066517 
L 743.439902 92.16381 
L 736.168824 93.305889 
L 728.897745 94.495556 
L 721.626667 95.735846 
L 714.355588 97.030062 
L 707.08451 98.381799 
L 699.813431 99.794978 
L 692.542353 101.273887 
L 685.271275 102.82322 
L 678.000196 104.44813 
L 670.729118 106.154286 
L 663.458039 107.947937 
L 656.186961 109.83599 
L 656.186961 106.008855 
L 648.915882 107.947937 
L 641.644804 109.997823 
L 641.644804 105.837759 
L 634.373725 107.947937 
L 627.102647 110.19 
L 627.102647 105.633548 
L 619.831569 107.947937 
L 612.56049 110.421938 
L 612.56049 105.385578 
L 605.289412 107.947937 
L 598.018333 110.707399 
L 590.747255 113.687619 
L 590.747255 107.947937 
L 583.476176 111.067329 
L 576.205098 114.470303 
L 568.93402 118.19737 
L 561.662941 122.297143 
L 554.391863 126.828471 
L 547.120784 131.86328 
L 539.849706 137.49042 
L 539.849706 130.368571 
L 532.578627 136.646349 
L 525.307549 143.820952 
L 518.036471 152.099341 
L 510.765392 161.75746 
L 510.765392 153.604502 
L 503.494314 165.344762 
L 503.494314 155.778624 
L 503.494314 143.820952 
L 496.223235 159.195102 
L 496.223235 143.820952 
L 496.223235 122.297143 
L 496.223235 90.011429 
L 496.223235 36.201905 
L 488.952157 36.201905 
L 481.681078 36.201905 
L 474.41 36.201905 
" clip-path="url(#pbda88edbda)" style="fill: none; stroke: #ff7f0e; stroke-width: 1.5; stroke-linecap: square"/>
   </g>
   <g id="patch_9">
    <path d="M 474.41 251.44 
L 474.41 25.44 
" style="fill: none; stroke: #000000; stroke-width: 0.8; stroke-linejoin: miter; stroke-linecap: square"/>
   </g>
   <g id="patch_10">
    <path d="M 845.235 251.44 
L 845.235 25.44 
" style="fill: none; stroke: #000000; stroke-width: 0.8; stroke-linejoin: miter; stroke-linecap: square"/>
   </g>
   <g id="patch_11">
    <path d="M 474.41 251.44 
L 845.235 251.44 
" style="fill: none; stroke: #000000; stroke-width: 0.8; stroke-linejoin: miter; stroke-linecap: square"/>
   </g>
   <g id="patch_12">
    <path d="M 474.41 25.44 
L 845.235 25.44 
" style="fill: none; stroke: #000000; stroke-width: 0.8; stroke-linejoin: miter; stroke-linecap: square"/>
   </g>
   <g id="text_32">
    <!-- Precision-Recall Curve -->
    <g transform="translate(593.38 19.44) scale(0.12 -0.12)">
     <defs>
      <path id="DejaVuSans-2d" d="M 313 2009 
L 1997 2009 
L 1997 1497 
L 313 1497 
L 313 2009 
z
" transform="scale(0.015625)"/>
     </defs>
     <use xlink:href="#DejaVuSans-50"/>
     <use xlink:href="#DejaVuSans-72" x="58.552734"/>
     <use xlink:href="#DejaVuSans-65" x="97.416016"/>
     <use xlink:href="#DejaVuSans-63" x="158.939453"/>
     <use xlink:href="#DejaVuSans-69" x="213.919922"/>
     <use xlink:href="#DejaVuSans-73" x="241.703125"/>
     <use xlink:href="#DejaVuSans-69" x="293.802734"/>
     <use xlink:href="#DejaVuSans-6f" x="321.585938"/>
     <use xlink:href="#DejaVuSans-6e" x="382.767578"/>
     <use xlink:href="#DejaVuSans-2d" x="446.146484"/>
     <use xlink:href="#DejaVuSans-52" x="482.230469"/>
     <use xlink:href="#DejaVuSans-65" x="547.212891"/>
     <use xlink:href="#DejaVuSans-63" x="608.736328"/>
     <use xlink:href="#DejaVuSans-61" x="663.716797"/>
     <use xlink:href="#DejaVuSans-6c" x="724.996094"/>
     <use xlink:href="#DejaVuSans-6c" x="752.779297"/>
     <use xlink:href="#DejaVuSans-20" x="780.5625"/>
     <use xlink:href="#DejaVuSans-43" x="812.349609"/>
     <use xlink:href="#DejaVuSans-75" x="882.173828"/>
     <use xlink:href="#DejaVuSans-72" x="945.552734"/>
     <use xlink:href="#DejaVuSans-76" x="986.666016"/>
     <use xlink:href="#DejaVuSans-65" x="1045.845703"/>
    </g>
   </g>
   <g id="legend_2">
    <g id="patch_13">
     <path d="M 481.41 246.44 
L 605.81 246.44 
Q 607.81 246.44 607.81 244.44 
L 607.81 216.08375 
Q 607.81 214.08375 605.81 214.08375 
L 481.41 214.08375 
Q 479.41 214.08375 479.41 216.08375 
L 479.41 244.44 
Q 479.41 246.44 481.41 246.44 
z
" style="fill: #ffffff; opacity: 0.8; stroke: #cccccc; stroke-linejoin: miter"/>
    </g>
    <g id="line2d_32">
     <path d="M 483.41 222.182187 
L 493.41 222.182187 
L 503.41 222.182187 
" style="fill: none; stroke: #1f77b4; stroke-width: 1.5; stroke-linecap: square"/>
    </g>
    <g id="text_33">
     <!-- train (AUC = 0.98) -->
     <g transform="translate(511.41 225.682187) scale(0.1 -0.1)">
      <use xlink:href="#DejaVuSans-74"/>
      <use xlink:href="#DejaVuSans-72" x="39.208984"/>
      <use xlink:href="#DejaVuSans-61" x="80.322266"/>
      <use xlink:href="#DejaVuSans-69" x="141.601562"/>
      <use xlink:href="#DejaVuSans-6e" x="169.384766"/>
      <use xlink:href="#DejaVuSans-20" x="232.763672"/>
      <use xlink:href="#DejaVuSans-28" x="264.550781"/>
      <use xlink:href="#DejaVuSans-41" x="303.564453"/>
      <use xlink:href="#DejaVuSans-55" x="371.972656"/>
      <use xlink:href="#DejaVuSans-43" x="445.166016"/>
      <use xlink:href="#DejaVuSans-20" x="514.990234"/>
      <use xlink:href="#DejaVuSans-3d" x="546.777344"/>
      <use xlink:href="#DejaVuSans-20" x="630.566406"/>
      <use xlink:href="#DejaVuSans-30" x="662.353516"/>
      <use xlink:href="#DejaVuSans-2e" x="725.976562"/>
      <use xlink:href="#DejaVuSans-39" x="757.763672"/>
      <use xlink:href="#DejaVuSans-38" x="821.386719"/>
      <use xlink:href="#DejaVuSans-29" x="885.009766"/>
     </g>
    </g>
    <g id="line2d_33">
     <path d="M 483.41 236.860313 
L 493.41 236.860313 
L 503.41 236.860313 
" style="fill: none; stroke: #ff7f0e; stroke-width: 1.5; stroke-linecap: square"/>
    </g>
    <g id="text_34">
     <!-- test (AUC = 0.69) -->
     <g transform="translate(511.41 240.360313) scale(0.1 -0.1)">
      <use xlink:href="#DejaVuSans-74"/>
      <use xlink:href="#DejaVuSans-65" x="39.208984"/>
      <use xlink:href="#DejaVuSans-73" x="100.732422"/>
      <use xlink:href="#DejaVuSans-74" x="152.832031"/>
      <use xlink:href="#DejaVuSans-20" x="192.041016"/>
      <use xlink:href="#DejaVuSans-28" x="223.828125"/>
      <use xlink:href="#DejaVuSans-41" x="262.841797"/>
      <use xlink:href="#DejaVuSans-55" x="331.25"/>
      <use xlink:href="#DejaVuSans-43" x="404.443359"/>
      <use xlink:href="#DejaVuSans-20" x="474.267578"/>
      <use xlink:href="#DejaVuSans-3d" x="506.054688"/>
      <use xlink:href="#DejaVuSans-20" x="589.84375"/>
      <use xlink:href="#DejaVuSans-30" x="621.630859"/>
      <use xlink:href="#DejaVuSans-2e" x="685.253906"/>
      <use xlink:href="#DejaVuSans-36" x="717.041016"/>
      <use xlink:href="#DejaVuSans-39" x="780.664062"/>
      <use xlink:href="#DejaVuSans-29" x="844.287109"/>
     </g>
    </g>
   </g>
  </g>
  <g id="axes_3">
   <g id="patch_14">
    <path d="M 47.81 534.04 
L 418.635 534.04 
L 418.635 308.04 
L 47.81 308.04 
z
" style="fill: #ffffff"/>
   </g>
   <g id="matplotlib.axis_5">
    <g id="xtick_13">
     <g id="line2d_34">
      <g>
       <use xlink:href="#m200f37fe67" x="77.841899" y="534.04" style="stroke: #000000; stroke-width: 0.8"/>
      </g>
     </g>
     <g id="text_35">
      <!-- −0.5 -->
      <g transform="translate(65.700493 548.638438) scale(0.1 -0.1)">
       <defs>
        <path id="DejaVuSans-2212" d="M 678 2272 
L 4684 2272 
L 4684 1741 
L 678 1741 
L 678 2272 
z
" transform="scale(0.015625)"/>
       </defs>
       <use xlink:href="#DejaVuSans-2212"/>
       <use xlink:href="#DejaVuSans-30" x="83.789062"/>
       <use xlink:href="#DejaVuSans-2e" x="147.412109"/>
       <use xlink:href="#DejaVuSans-35" x="179.199219"/>
      </g>
     </g>
    </g>
    <g id="xtick_14">
     <g id="line2d_35">
      <g>
       <use xlink:href="#m200f37fe67" x="155.544653" y="534.04" style="stroke: #000000; stroke-width: 0.8"/>
      </g>
     </g>
     <g id="text_36">
      <!-- 0.0 -->
      <g transform="translate(147.59309 548.638438) scale(0.1 -0.1)">
       <use xlink:href="#DejaVuSans-30"/>
       <use xlink:href="#DejaVuSans-2e" x="63.623047"/>
       <use xlink:href="#DejaVuSans-30" x="95.410156"/>
      </g>
     </g>
    </g>
    <g id="xtick_15">
     <g id="line2d_36">
      <g>
       <use xlink:href="#m200f37fe67" x="233.247406" y="534.04" style="stroke: #000000; stroke-width: 0.8"/>
      </g>
     </g>
     <g id="text_37">
      <!-- 0.5 -->
      <g transform="translate(225.295843 548.638438) scale(0.1 -0.1)">
       <use xlink:href="#DejaVuSans-30"/>
       <use xlink:href="#DejaVuSans-2e" x="63.623047"/>
       <use xlink:href="#DejaVuSans-35" x="95.410156"/>
      </g>
     </g>
    </g>
    <g id="xtick_16">
     <g id="line2d_37">
      <g>
       <use xlink:href="#m200f37fe67" x="310.950159" y="534.04" style="stroke: #000000; stroke-width: 0.8"/>
      </g>
     </g>
     <g id="text_38">
      <!-- 1.0 -->
      <g transform="translate(302.998597 548.638438) scale(0.1 -0.1)">
       <use xlink:href="#DejaVuSans-31"/>
       <use xlink:href="#DejaVuSans-2e" x="63.623047"/>
       <use xlink:href="#DejaVuSans-30" x="95.410156"/>
      </g>
     </g>
    </g>
    <g id="xtick_17">
     <g id="line2d_38">
      <g>
       <use xlink:href="#m200f37fe67" x="388.652913" y="534.04" style="stroke: #000000; stroke-width: 0.8"/>
      </g>
     </g>
     <g id="text_39">
      <!-- 1.5 -->
      <g transform="translate(380.70135 548.638438) scale(0.1 -0.1)">
       <use xlink:href="#DejaVuSans-31"/>
       <use xlink:href="#DejaVuSans-2e" x="63.623047"/>
       <use xlink:href="#DejaVuSans-35" x="95.410156"/>
      </g>
     </g>
    </g>
    <g id="text_40">
     <!-- Predicted Probability -->
     <g transform="translate(181.734219 562.316563) scale(0.1 -0.1)">
      <defs>
       <path id="DejaVuSans-64" d="M 2906 2969 
L 2906 4863 
L 3481 4863 
L 3481 0 
L 2906 0 
L 2906 525 
Q 2725 213 2448 61 
Q 2172 -91 1784 -91 
Q 1150 -91 751 415 
Q 353 922 353 1747 
Q 353 2572 751 3078 
Q 1150 3584 1784 3584 
Q 2172 3584 2448 3432 
Q 2725 3281 2906 2969 
z
M 947 1747 
Q 947 1113 1208 752 
Q 1469 391 1925 391 
Q 2381 391 2643 752 
Q 2906 1113 2906 1747 
Q 2906 2381 2643 2742 
Q 2381 3103 1925 3103 
Q 1469 3103 1208 2742 
Q 947 2381 947 1747 
z
" transform="scale(0.015625)"/>
       <path id="DejaVuSans-62" d="M 3116 1747 
Q 3116 2381 2855 2742 
Q 2594 3103 2138 3103 
Q 1681 3103 1420 2742 
Q 1159 2381 1159 1747 
Q 1159 1113 1420 752 
Q 1681 391 2138 391 
Q 2594 391 2855 752 
Q 3116 1113 3116 1747 
z
M 1159 2969 
Q 1341 3281 1617 3432 
Q 1894 3584 2278 3584 
Q 2916 3584 3314 3078 
Q 3713 2572 3713 1747 
Q 3713 922 3314 415 
Q 2916 -91 2278 -91 
Q 1894 -91 1617 61 
Q 1341 213 1159 525 
L 1159 0 
L 581 0 
L 581 4863 
L 1159 4863 
L 1159 2969 
z
" transform="scale(0.015625)"/>
       <path id="DejaVuSans-79" d="M 2059 -325 
Q 1816 -950 1584 -1140 
Q 1353 -1331 966 -1331 
L 506 -1331 
L 506 -850 
L 844 -850 
Q 1081 -850 1212 -737 
Q 1344 -625 1503 -206 
L 1606 56 
L 191 3500 
L 800 3500 
L 1894 763 
L 2988 3500 
L 3597 3500 
L 2059 -325 
z
" transform="scale(0.015625)"/>
      </defs>
      <use xlink:href="#DejaVuSans-50"/>
      <use xlink:href="#DejaVuSans-72" x="58.552734"/>
      <use xlink:href="#DejaVuSans-65" x="97.416016"/>
      <use xlink:href="#DejaVuSans-64" x="158.939453"/>
      <use xlink:href="#DejaVuSans-69" x="222.416016"/>
      <use xlink:href="#DejaVuSans-63" x="250.199219"/>
      <use xlink:href="#DejaVuSans-74" x="305.179688"/>
      <use xlink:href="#DejaVuSans-65" x="344.388672"/>
      <use xlink:href="#DejaVuSans-64" x="405.912109"/>
      <use xlink:href="#DejaVuSans-20" x="469.388672"/>
      <use xlink:href="#DejaVuSans-50" x="501.175781"/>
      <use xlink:href="#DejaVuSans-72" x="559.728516"/>
      <use xlink:href="#DejaVuSans-6f" x="598.591797"/>
      <use xlink:href="#DejaVuSans-62" x="659.773438"/>
      <use xlink:href="#DejaVuSans-61" x="723.25"/>
      <use xlink:href="#DejaVuSans-62" x="784.529297"/>
      <use xlink:href="#DejaVuSans-69" x="848.005859"/>
      <use xlink:href="#DejaVuSans-6c" x="875.789062"/>
      <use xlink:href="#DejaVuSans-69" x="903.572266"/>
      <use xlink:href="#DejaVuSans-74" x="931.355469"/>
      <use xlink:href="#DejaVuSans-79" x="970.564453"/>
     </g>
    </g>
   </g>
   <g id="matplotlib.axis_6">
    <g id="ytick_13">
     <g id="line2d_39">
      <g>
       <use xlink:href="#madc6b5bcc7" x="47.81" y="534.04" style="stroke: #000000; stroke-width: 0.8"/>
      </g>
     </g>
     <g id="text_41">
      <!-- 0 -->
      <g transform="translate(34.4475 537.839219) scale(0.1 -0.1)">
       <use xlink:href="#DejaVuSans-30"/>
      </g>
     </g>
    </g>
    <g id="ytick_14">
     <g id="line2d_40">
      <g>
       <use xlink:href="#madc6b5bcc7" x="47.81" y="488.312062" style="stroke: #000000; stroke-width: 0.8"/>
      </g>
     </g>
     <g id="text_42">
      <!-- 1 -->
      <g transform="translate(34.4475 492.111281) scale(0.1 -0.1)">
       <use xlink:href="#DejaVuSans-31"/>
      </g>
     </g>
    </g>
    <g id="ytick_15">
     <g id="line2d_41">
      <g>
       <use xlink:href="#madc6b5bcc7" x="47.81" y="442.584124" style="stroke: #000000; stroke-width: 0.8"/>
      </g>
     </g>
     <g id="text_43">
      <!-- 2 -->
      <g transform="translate(34.4475 446.383343) scale(0.1 -0.1)">
       <use xlink:href="#DejaVuSans-32"/>
      </g>
     </g>
    </g>
    <g id="ytick_16">
     <g id="line2d_42">
      <g>
       <use xlink:href="#madc6b5bcc7" x="47.81" y="396.856186" style="stroke: #000000; stroke-width: 0.8"/>
      </g>
     </g>
     <g id="text_44">
      <!-- 3 -->
      <g transform="translate(34.4475 400.655405) scale(0.1 -0.1)">
       <defs>
        <path id="DejaVuSans-33" d="M 2597 2516 
Q 3050 2419 3304 2112 
Q 3559 1806 3559 1356 
Q 3559 666 3084 287 
Q 2609 -91 1734 -91 
Q 1441 -91 1130 -33 
Q 819 25 488 141 
L 488 750 
Q 750 597 1062 519 
Q 1375 441 1716 441 
Q 2309 441 2620 675 
Q 2931 909 2931 1356 
Q 2931 1769 2642 2001 
Q 2353 2234 1838 2234 
L 1294 2234 
L 1294 2753 
L 1863 2753 
Q 2328 2753 2575 2939 
Q 2822 3125 2822 3475 
Q 2822 3834 2567 4026 
Q 2313 4219 1838 4219 
Q 1578 4219 1281 4162 
Q 984 4106 628 3988 
L 628 4550 
Q 988 4650 1302 4700 
Q 1616 4750 1894 4750 
Q 2613 4750 3031 4423 
Q 3450 4097 3450 3541 
Q 3450 3153 3228 2886 
Q 3006 2619 2597 2516 
z
" transform="scale(0.015625)"/>
       </defs>
       <use xlink:href="#DejaVuSans-33"/>
      </g>
     </g>
    </g>
    <g id="ytick_17">
     <g id="line2d_43">
      <g>
       <use xlink:href="#madc6b5bcc7" x="47.81" y="351.128248" style="stroke: #000000; stroke-width: 0.8"/>
      </g>
     </g>
     <g id="text_45">
      <!-- 4 -->
      <g transform="translate(34.4475 354.927467) scale(0.1 -0.1)">
       <use xlink:href="#DejaVuSans-34"/>
      </g>
     </g>
    </g>
    <g id="text_46">
     <!-- Density -->
     <g transform="translate(28.367813 440.048594) rotate(-90) scale(0.1 -0.1)">
      <defs>
       <path id="DejaVuSans-44" d="M 1259 4147 
L 1259 519 
L 2022 519 
Q 2988 519 3436 956 
Q 3884 1394 3884 2338 
Q 3884 3275 3436 3711 
Q 2988 4147 2022 4147 
L 1259 4147 
z
M 628 4666 
L 1925 4666 
Q 3281 4666 3915 4102 
Q 4550 3538 4550 2338 
Q 4550 1131 3912 565 
Q 3275 0 1925 0 
L 628 0 
L 628 4666 
z
" transform="scale(0.015625)"/>
      </defs>
      <use xlink:href="#DejaVuSans-44"/>
      <use xlink:href="#DejaVuSans-65" x="77.001953"/>
      <use xlink:href="#DejaVuSans-6e" x="138.525391"/>
      <use xlink:href="#DejaVuSans-73" x="201.904297"/>
      <use xlink:href="#DejaVuSans-69" x="254.003906"/>
      <use xlink:href="#DejaVuSans-74" x="281.787109"/>
      <use xlink:href="#DejaVuSans-79" x="320.996094"/>
     </g>
    </g>
   </g>
   <g id="line2d_44">
    <path d="M 155.988367 534.022025 
L 163.253964 533.880916 
L 167.794961 533.607116 
L 173.244159 533.038735 
L 179.601556 532.383024 
L 183.234354 532.219448 
L 189.591751 532.221273 
L 196.857347 532.13076 
L 206.847542 531.814334 
L 209.572141 531.457237 
L 212.296739 530.83478 
L 215.021338 529.931606 
L 217.745937 528.790171 
L 221.378735 527.010562 
L 225.011533 524.991397 
L 227.736132 523.236334 
L 229.552531 521.877861 
L 231.36893 520.315378 
L 233.185329 518.513717 
L 235.001728 516.461061 
L 237.726327 512.973334 
L 243.175524 505.701733 
L 244.991923 503.717236 
L 246.808323 502.203235 
L 247.716522 501.658533 
L 248.624722 501.268405 
L 249.532921 501.038209 
L 250.441121 500.969561 
L 251.34932 501.060355 
L 252.25752 501.3049 
L 253.165719 501.694191 
L 254.982119 502.856544 
L 256.798518 504.423545 
L 259.523116 507.198884 
L 262.247715 509.986464 
L 264.064114 511.57802 
L 265.880513 512.780512 
L 266.788713 513.194744 
L 267.696912 513.465541 
L 268.605112 513.581171 
L 269.513311 513.531976 
L 270.421511 513.310469 
L 271.32971 512.911373 
L 272.23791 512.331555 
L 273.14611 511.569862 
L 274.054309 510.626838 
L 274.962509 509.504317 
L 276.778908 506.731325 
L 278.595307 503.268848 
L 280.411706 499.112242 
L 282.228105 494.208084 
L 284.044504 488.431012 
L 285.860903 481.57028 
L 287.677302 473.333838 
L 289.493702 463.377938 
L 291.310101 451.368407 
L 293.1265 437.074634 
L 294.942899 420.488198 
L 296.759298 401.945797 
L 301.300296 353.265212 
L 303.116695 336.857195 
L 304.024894 330.219673 
L 304.933094 324.921244 
L 305.841294 321.154322 
L 306.749493 319.076345 
L 307.657693 318.801049 
L 308.565892 320.391622 
L 309.474092 323.856237 
L 310.382291 329.146363 
L 311.290491 336.15801 
L 312.19869 344.735892 
L 314.015089 365.755786 
L 315.831489 390.246747 
L 319.464287 441.096132 
L 321.280686 463.81492 
L 323.097085 483.163364 
L 324.913484 498.70996 
L 325.821684 505.065506 
L 326.729883 510.53062 
L 327.638083 515.16846 
L 328.546282 519.053414 
L 329.454482 522.2662 
L 330.362681 524.889616 
L 331.270881 527.005039 
L 332.179081 528.689732 
L 333.08728 530.014932 
L 333.99548 531.04465 
L 334.903679 531.835083 
L 335.811879 532.434534 
L 336.720078 532.883706 
L 336.720078 532.883706 
" clip-path="url(#pc13212087a)" style="fill: none; stroke: #1f77b4; stroke-width: 1.5; stroke-linecap: square"/>
   </g>
   <g id="line2d_45">
    <path d="M 97.573077 533.591151 
L 101.574745 533.204066 
L 105.576413 532.546115 
L 108.244192 531.889759 
L 110.91197 531.000935 
L 113.579749 529.822081 
L 116.247528 528.291077 
L 118.915306 526.344597 
L 121.583085 523.922768 
L 124.250864 520.975008 
L 126.918642 517.466721 
L 129.586421 513.386298 
L 132.254199 508.75167 
L 134.921978 503.615546 
L 138.923646 495.179411 
L 148.260871 474.801032 
L 150.92865 469.677449 
L 153.596429 465.23277 
L 154.930318 463.319301 
L 156.264207 461.636115 
L 157.598096 460.197975 
L 158.931986 459.016473 
L 160.265875 458.099814 
L 161.599764 457.452666 
L 162.933654 457.076098 
L 164.267543 456.96759 
L 165.601432 457.121128 
L 166.935322 457.527376 
L 168.269211 458.17391 
L 169.6031 459.045528 
L 170.93699 460.124598 
L 172.270879 461.391463 
L 174.938658 464.402408 
L 177.606436 467.897226 
L 181.608104 473.643531 
L 186.943661 481.373981 
L 189.61144 484.971776 
L 192.279219 488.272342 
L 194.946997 491.226277 
L 197.614776 493.81249 
L 200.282555 496.033007 
L 202.950333 497.906852 
L 205.618112 499.463809 
L 208.285891 500.738755 
L 210.953669 501.767059 
L 213.621448 502.581322 
L 216.289226 503.209528 
L 220.290894 503.851705 
L 224.292562 504.185123 
L 228.29423 504.258497 
L 232.295898 504.124735 
L 240.299234 503.542559 
L 245.634791 503.269657 
L 249.636459 503.340236 
L 252.304238 503.584174 
L 254.972017 504.015853 
L 257.639795 504.649321 
L 260.307574 505.485754 
L 262.975353 506.512562 
L 266.97702 508.349972 
L 272.312578 511.138951 
L 278.982024 514.63479 
L 282.983692 516.495571 
L 286.98536 518.092878 
L 290.987028 519.433216 
L 296.322585 520.932926 
L 308.327589 524.148068 
L 314.997036 526.230631 
L 325.66815 529.620287 
L 331.003708 531.034702 
L 335.005376 531.892576 
L 339.007044 532.567113 
L 344.342601 533.204686 
L 349.678158 533.600173 
L 356.347605 533.862389 
L 363.017051 533.9762 
L 363.017051 533.9762 
" clip-path="url(#pc13212087a)" style="fill: none; stroke: #ff7f0e; stroke-width: 1.5; stroke-linecap: square"/>
   </g>
   <g id="line2d_46">
    <path d="M 96.190789 533.983327 
L 107.228721 533.772804 
L 114.127428 533.432672 
L 119.646393 532.959205 
L 125.165359 532.246844 
L 130.684324 531.261572 
L 136.20329 530.010553 
L 143.101997 528.171627 
L 154.139928 525.164034 
L 159.658894 523.927586 
L 163.798118 523.204312 
L 167.937342 522.677126 
L 172.076567 522.344373 
L 177.595532 522.169116 
L 183.114498 522.224961 
L 198.291653 522.572287 
L 202.430878 522.415466 
L 206.570102 522.016301 
L 210.709326 521.308988 
L 213.468809 520.64003 
L 216.228292 519.800897 
L 218.987774 518.787195 
L 221.747257 517.600816 
L 225.886481 515.518168 
L 230.025706 513.124919 
L 235.544671 509.601773 
L 249.342085 500.57562 
L 261.759758 492.83142 
L 264.519241 490.867125 
L 267.278724 488.680922 
L 270.038206 486.211668 
L 272.797689 483.412119 
L 275.557172 480.25801 
L 278.316655 476.756435 
L 281.076138 472.952426 
L 286.595103 464.82545 
L 290.734328 458.870862 
L 293.49381 455.328096 
L 294.873552 453.763997 
L 296.253293 452.373039 
L 297.633035 451.180221 
L 299.012776 450.208911 
L 300.392517 449.480318 
L 301.772259 449.012996 
L 303.152 448.822396 
L 304.531742 448.92049 
L 305.911483 449.315451 
L 307.291224 450.011436 
L 308.670966 451.008445 
L 310.050707 452.302285 
L 311.430449 453.884624 
L 312.81019 455.743144 
L 314.189931 457.861785 
L 316.949414 462.79851 
L 319.708897 468.50561 
L 322.46838 474.761431 
L 333.506311 500.665865 
L 336.265794 506.381001 
L 339.025277 511.525646 
L 341.78476 516.041696 
L 344.544242 519.911011 
L 347.303725 523.149162 
L 350.063208 525.797675 
L 352.822691 527.915824 
L 355.582174 529.572864 
L 358.341656 530.841316 
L 361.101139 531.791704 
L 363.860622 532.488838 
L 366.620105 532.989574 
L 370.759329 533.474782 
L 370.759329 533.474782 
" clip-path="url(#pc13212087a)" style="fill: none; stroke: #2ca02c; stroke-width: 1.5; stroke-linecap: square"/>
   </g>
   <g id="line2d_47">
    <path d="M 64.665682 533.960507 
L 78.217989 533.755667 
L 88.382219 533.389061 
L 96.852411 532.844861 
L 103.628564 532.197646 
L 110.404718 531.328875 
L 117.180871 530.226892 
L 123.957025 528.905374 
L 132.427217 527.00805 
L 147.673562 523.26804 
L 181.55433 514.995476 
L 191.71856 512.584717 
L 198.494713 511.209397 
L 203.576828 510.408489 
L 208.658944 509.87211 
L 213.741059 509.637969 
L 218.823174 509.708563 
L 223.905289 510.040958 
L 240.845673 511.503142 
L 244.233749 511.468246 
L 247.621826 511.186245 
L 251.009903 510.603252 
L 254.39798 509.674386 
L 257.786056 508.367287 
L 261.174133 506.6653 
L 264.56221 504.570086 
L 267.950287 502.103447 
L 271.338363 499.308176 
L 274.72644 496.247755 
L 281.502594 489.678406 
L 286.584709 484.77813 
L 289.972786 481.745089 
L 293.360862 479.038275 
L 296.748939 476.769164 
L 298.442977 475.830022 
L 300.137016 475.035652 
L 301.831054 474.395287 
L 303.525093 473.916698 
L 305.219131 473.606081 
L 306.913169 473.467981 
L 308.607208 473.505232 
L 310.301246 473.718924 
L 311.995284 474.108401 
L 313.689323 474.671283 
L 315.383361 475.403512 
L 317.077399 476.299428 
L 318.771438 477.351862 
L 320.465476 478.552255 
L 323.853553 481.356565 
L 327.24163 484.62163 
L 330.629706 488.244565 
L 335.711822 494.110582 
L 345.876052 506.090241 
L 349.264129 509.82449 
L 352.652205 513.315737 
L 356.040282 516.520112 
L 359.428359 519.409891 
L 362.816436 521.972274 
L 366.204512 524.207524 
L 369.592589 526.126694 
L 372.980666 527.749157 
L 376.368743 529.100148 
L 379.756819 530.208476 
L 383.144896 531.104511 
L 386.532973 531.818538 
L 391.615088 532.610968 
L 396.697203 533.145873 
L 401.779318 533.495865 
L 401.779318 533.495865 
" clip-path="url(#pc13212087a)" style="fill: none; stroke: #d62728; stroke-width: 1.5; stroke-linecap: square"/>
   </g>
   <g id="patch_15">
    <path d="M 47.81 534.04 
L 47.81 308.04 
" style="fill: none; stroke: #000000; stroke-width: 0.8; stroke-linejoin: miter; stroke-linecap: square"/>
   </g>
   <g id="patch_16">
    <path d="M 418.635 534.04 
L 418.635 308.04 
" style="fill: none; stroke: #000000; stroke-width: 0.8; stroke-linejoin: miter; stroke-linecap: square"/>
   </g>
   <g id="patch_17">
    <path d="M 47.81 534.04 
L 418.635 534.04 
" style="fill: none; stroke: #000000; stroke-width: 0.8; stroke-linejoin: miter; stroke-linecap: square"/>
   </g>
   <g id="patch_18">
    <path d="M 47.81 308.04 
L 418.635 308.04 
" style="fill: none; stroke: #000000; stroke-width: 0.8; stroke-linejoin: miter; stroke-linecap: square"/>
   </g>
   <g id="text_47">
    <!-- Probability Distribution -->
    <g transform="translate(164.598437 302.04) scale(0.12 -0.12)">
     <use xlink:href="#DejaVuSans-50"/>
     <use xlink:href="#DejaVuSans-72" x="58.552734"/>
     <use xlink:href="#DejaVuSans-6f" x="97.416016"/>
     <use xlink:href="#DejaVuSans-62" x="158.597656"/>
     <use xlink:href="#DejaVuSans-61" x="222.074219"/>
     <use xlink:href="#DejaVuSans-62" x="283.353516"/>
     <use xlink:href="#DejaVuSans-69" x="346.830078"/>
     <use xlink:href="#DejaVuSans-6c" x="374.613281"/>
     <use xlink:href="#DejaVuSans-69" x="402.396484"/>
     <use xlink:href="#DejaVuSans-74" x="430.179688"/>
     <use xlink:href="#DejaVuSans-79" x="469.388672"/>
     <use xlink:href="#DejaVuSans-20" x="528.568359"/>
     <use xlink:href="#DejaVuSans-44" x="560.355469"/>
     <use xlink:href="#DejaVuSans-69" x="637.357422"/>
     <use xlink:href="#DejaVuSans-73" x="665.140625"/>
     <use xlink:href="#DejaVuSans-74" x="717.240234"/>
     <use xlink:href="#DejaVuSans-72" x="756.449219"/>
     <use xlink:href="#DejaVuSans-69" x="797.5625"/>
     <use xlink:href="#DejaVuSans-62" x="825.345703"/>
     <use xlink:href="#DejaVuSans-75" x="888.822266"/>
     <use xlink:href="#DejaVuSans-74" x="952.201172"/>
     <use xlink:href="#DejaVuSans-69" x="991.410156"/>
     <use xlink:href="#DejaVuSans-6f" x="1019.193359"/>
     <use xlink:href="#DejaVuSans-6e" x="1080.375"/>
    </g>
   </g>
   <g id="legend_3">
    <g id="patch_19">
     <path d="M 54.81 374.7525 
L 152.775625 374.7525 
Q 154.775625 374.7525 154.775625 372.7525 
L 154.775625 315.04 
Q 154.775625 313.04 152.775625 313.04 
L 54.81 313.04 
Q 52.81 313.04 52.81 315.04 
L 52.81 372.7525 
Q 52.81 374.7525 54.81 374.7525 
z
" style="fill: #ffffff; opacity: 0.8; stroke: #cccccc; stroke-linejoin: miter"/>
    </g>
    <g id="line2d_48">
     <path d="M 56.81 321.138438 
L 66.81 321.138438 
L 76.81 321.138438 
" style="fill: none; stroke: #1f77b4; stroke-width: 1.5; stroke-linecap: square"/>
    </g>
    <g id="text_48">
     <!-- train active -->
     <g transform="translate(84.81 324.638438) scale(0.1 -0.1)">
      <use xlink:href="#DejaVuSans-74"/>
      <use xlink:href="#DejaVuSans-72" x="39.208984"/>
      <use xlink:href="#DejaVuSans-61" x="80.322266"/>
      <use xlink:href="#DejaVuSans-69" x="141.601562"/>
      <use xlink:href="#DejaVuSans-6e" x="169.384766"/>
      <use xlink:href="#DejaVuSans-20" x="232.763672"/>
      <use xlink:href="#DejaVuSans-61" x="264.550781"/>
      <use xlink:href="#DejaVuSans-63" x="325.830078"/>
      <use xlink:href="#DejaVuSans-74" x="380.810547"/>
      <use xlink:href="#DejaVuSans-69" x="420.019531"/>
      <use xlink:href="#DejaVuSans-76" x="447.802734"/>
      <use xlink:href="#DejaVuSans-65" x="506.982422"/>
     </g>
    </g>
    <g id="line2d_49">
     <path d="M 56.81 335.816563 
L 66.81 335.816563 
L 76.81 335.816563 
" style="fill: none; stroke: #ff7f0e; stroke-width: 1.5; stroke-linecap: square"/>
    </g>
    <g id="text_49">
     <!-- train inactive -->
     <g transform="translate(84.81 339.316563) scale(0.1 -0.1)">
      <use xlink:href="#DejaVuSans-74"/>
      <use xlink:href="#DejaVuSans-72" x="39.208984"/>
      <use xlink:href="#DejaVuSans-61" x="80.322266"/>
      <use xlink:href="#DejaVuSans-69" x="141.601562"/>
      <use xlink:href="#DejaVuSans-6e" x="169.384766"/>
      <use xlink:href="#DejaVuSans-20" x="232.763672"/>
      <use xlink:href="#DejaVuSans-69" x="264.550781"/>
      <use xlink:href="#DejaVuSans-6e" x="292.333984"/>
      <use xlink:href="#DejaVuSans-61" x="355.712891"/>
      <use xlink:href="#DejaVuSans-63" x="416.992188"/>
      <use xlink:href="#DejaVuSans-74" x="471.972656"/>
      <use xlink:href="#DejaVuSans-69" x="511.181641"/>
      <use xlink:href="#DejaVuSans-76" x="538.964844"/>
      <use xlink:href="#DejaVuSans-65" x="598.144531"/>
     </g>
    </g>
    <g id="line2d_50">
     <path d="M 56.81 350.494687 
L 66.81 350.494687 
L 76.81 350.494687 
" style="fill: none; stroke: #2ca02c; stroke-width: 1.5; stroke-linecap: square"/>
    </g>
    <g id="text_50">
     <!-- test active -->
     <g transform="translate(84.81 353.994687) scale(0.1 -0.1)">
      <use xlink:href="#DejaVuSans-74"/>
      <use xlink:href="#DejaVuSans-65" x="39.208984"/>
      <use xlink:href="#DejaVuSans-73" x="100.732422"/>
      <use xlink:href="#DejaVuSans-74" x="152.832031"/>
      <use xlink:href="#DejaVuSans-20" x="192.041016"/>
      <use xlink:href="#DejaVuSans-61" x="223.828125"/>
      <use xlink:href="#DejaVuSans-63" x="285.107422"/>
      <use xlink:href="#DejaVuSans-74" x="340.087891"/>
      <use xlink:href="#DejaVuSans-69" x="379.296875"/>
      <use xlink:href="#DejaVuSans-76" x="407.080078"/>
      <use xlink:href="#DejaVuSans-65" x="466.259766"/>
     </g>
    </g>
    <g id="line2d_51">
     <path d="M 56.81 365.172813 
L 66.81 365.172813 
L 76.81 365.172813 
" style="fill: none; stroke: #d62728; stroke-width: 1.5; stroke-linecap: square"/>
    </g>
    <g id="text_51">
     <!-- test inactive -->
     <g transform="translate(84.81 368.672813) scale(0.1 -0.1)">
      <use xlink:href="#DejaVuSans-74"/>
      <use xlink:href="#DejaVuSans-65" x="39.208984"/>
      <use xlink:href="#DejaVuSans-73" x="100.732422"/>
      <use xlink:href="#DejaVuSans-74" x="152.832031"/>
      <use xlink:href="#DejaVuSans-20" x="192.041016"/>
      <use xlink:href="#DejaVuSans-69" x="223.828125"/>
      <use xlink:href="#DejaVuSans-6e" x="251.611328"/>
      <use xlink:href="#DejaVuSans-61" x="314.990234"/>
      <use xlink:href="#DejaVuSans-63" x="376.269531"/>
      <use xlink:href="#DejaVuSans-74" x="431.25"/>
      <use xlink:href="#DejaVuSans-69" x="470.458984"/>
      <use xlink:href="#DejaVuSans-76" x="498.242188"/>
      <use xlink:href="#DejaVuSans-65" x="557.421875"/>
     </g>
    </g>
   </g>
  </g>
  <g id="axes_4">
   <g id="table_1">
    <g id="patch_20">
     <path d="M 474.41 421.04 
L 548.575 421.04 
L 548.575 407.587619 
L 474.41 407.587619 
z
" style="fill: #ffffff; stroke: #000000; stroke-linejoin: miter"/>
    </g>
    <g id="text_52">
     <!-- Accuracy -->
     <g transform="translate(488.664375 417.073185) scale(0.1 -0.1)">
      <use xlink:href="#DejaVuSans-41"/>
      <use xlink:href="#DejaVuSans-63" x="66.658203"/>
      <use xlink:href="#DejaVuSans-63" x="121.638672"/>
      <use xlink:href="#DejaVuSans-75" x="176.619141"/>
      <use xlink:href="#DejaVuSans-72" x="239.998047"/>
      <use xlink:href="#DejaVuSans-61" x="281.111328"/>
      <use xlink:href="#DejaVuSans-63" x="342.390625"/>
      <use xlink:href="#DejaVuSans-79" x="397.371094"/>
     </g>
    </g>
    <g id="patch_21">
     <path d="M 548.575 421.04 
L 622.74 421.04 
L 622.74 407.587619 
L 548.575 407.587619 
z
" style="fill: #ffffff; stroke: #000000; stroke-linejoin: miter"/>
    </g>
    <g id="text_53">
     <!-- Precision -->
     <g transform="translate(563.350469 417.073185) scale(0.1 -0.1)">
      <use xlink:href="#DejaVuSans-50"/>
      <use xlink:href="#DejaVuSans-72" x="58.552734"/>
      <use xlink:href="#DejaVuSans-65" x="97.416016"/>
      <use xlink:href="#DejaVuSans-63" x="158.939453"/>
      <use xlink:href="#DejaVuSans-69" x="213.919922"/>
      <use xlink:href="#DejaVuSans-73" x="241.703125"/>
      <use xlink:href="#DejaVuSans-69" x="293.802734"/>
      <use xlink:href="#DejaVuSans-6f" x="321.585938"/>
      <use xlink:href="#DejaVuSans-6e" x="382.767578"/>
     </g>
    </g>
    <g id="patch_22">
     <path d="M 622.74 421.04 
L 696.905 421.04 
L 696.905 407.587619 
L 622.74 407.587619 
z
" style="fill: #ffffff; stroke: #000000; stroke-linejoin: miter"/>
    </g>
    <g id="text_54">
     <!-- Recall -->
     <g transform="translate(644.905313 417.073185) scale(0.1 -0.1)">
      <use xlink:href="#DejaVuSans-52"/>
      <use xlink:href="#DejaVuSans-65" x="64.982422"/>
      <use xlink:href="#DejaVuSans-63" x="126.505859"/>
      <use xlink:href="#DejaVuSans-61" x="181.486328"/>
      <use xlink:href="#DejaVuSans-6c" x="242.765625"/>
      <use xlink:href="#DejaVuSans-6c" x="270.548828"/>
     </g>
    </g>
    <g id="patch_23">
     <path d="M 696.905 421.04 
L 771.07 421.04 
L 771.07 407.587619 
L 696.905 407.587619 
z
" style="fill: #ffffff; stroke: #000000; stroke-linejoin: miter"/>
    </g>
    <g id="text_55">
     <!-- F1 -->
     <g transform="translate(727.930469 417.073185) scale(0.1 -0.1)">
      <use xlink:href="#DejaVuSans-46"/>
      <use xlink:href="#DejaVuSans-31" x="57.519531"/>
     </g>
    </g>
    <g id="patch_24">
     <path d="M 771.07 421.04 
L 845.235 421.04 
L 845.235 407.587619 
L 771.07 407.587619 
z
" style="fill: #ffffff; stroke: #000000; stroke-linejoin: miter"/>
    </g>
    <g id="text_56">
     <!-- ROC AUC -->
     <g transform="translate(785.090781 417.073185) scale(0.1 -0.1)">
      <use xlink:href="#DejaVuSans-52"/>
      <use xlink:href="#DejaVuSans-4f" x="69.482422"/>
      <use xlink:href="#DejaVuSans-43" x="148.193359"/>
      <use xlink:href="#DejaVuSans-20" x="218.017578"/>
      <use xlink:href="#DejaVuSans-41" x="249.804688"/>
      <use xlink:href="#DejaVuSans-55" x="318.212891"/>
      <use xlink:href="#DejaVuSans-43" x="391.40625"/>
     </g>
    </g>
    <g id="patch_25">
     <path d="M 450.78125 434.492381 
L 474.41 434.492381 
L 474.41 421.04 
L 450.78125 421.04 
z
" style="fill: #ffffff; stroke: #000000; stroke-linejoin: miter"/>
    </g>
    <g id="text_57">
     <!-- Test -->
     <g transform="translate(453.144125 430.525565) scale(0.1 -0.1)">
      <use xlink:href="#DejaVuSans-54"/>
      <use xlink:href="#DejaVuSans-65" x="44.083984"/>
      <use xlink:href="#DejaVuSans-73" x="105.607422"/>
      <use xlink:href="#DejaVuSans-74" x="157.707031"/>
     </g>
    </g>
    <g id="patch_26">
     <path d="M 474.41 434.492381 
L 548.575 434.492381 
L 548.575 421.04 
L 474.41 421.04 
z
" style="fill: #ffffff; stroke: #000000; stroke-linejoin: miter"/>
    </g>
    <g id="text_58">
     <!-- 0.72 -->
     <g transform="translate(518.892875 430.525565) scale(0.1 -0.1)">
      <defs>
       <path id="DejaVuSans-37" d="M 525 4666 
L 3525 4666 
L 3525 4397 
L 1831 0 
L 1172 0 
L 2766 4134 
L 525 4134 
L 525 4666 
z
" transform="scale(0.015625)"/>
      </defs>
      <use xlink:href="#DejaVuSans-30"/>
      <use xlink:href="#DejaVuSans-2e" x="63.623047"/>
      <use xlink:href="#DejaVuSans-37" x="95.410156"/>
      <use xlink:href="#DejaVuSans-32" x="159.033203"/>
     </g>
    </g>
    <g id="patch_27">
     <path d="M 548.575 434.492381 
L 622.74 434.492381 
L 622.74 421.04 
L 548.575 421.04 
z
" style="fill: #ffffff; stroke: #000000; stroke-linejoin: miter"/>
    </g>
    <g id="text_59">
     <!-- 0.77 -->
     <g transform="translate(593.057875 430.525565) scale(0.1 -0.1)">
      <use xlink:href="#DejaVuSans-30"/>
      <use xlink:href="#DejaVuSans-2e" x="63.623047"/>
      <use xlink:href="#DejaVuSans-37" x="95.410156"/>
      <use xlink:href="#DejaVuSans-37" x="159.033203"/>
     </g>
    </g>
    <g id="patch_28">
     <path d="M 622.74 434.492381 
L 696.905 434.492381 
L 696.905 421.04 
L 622.74 421.04 
z
" style="fill: #ffffff; stroke: #000000; stroke-linejoin: miter"/>
    </g>
    <g id="text_60">
     <!-- 0.86 -->
     <g transform="translate(667.222875 430.525565) scale(0.1 -0.1)">
      <use xlink:href="#DejaVuSans-30"/>
      <use xlink:href="#DejaVuSans-2e" x="63.623047"/>
      <use xlink:href="#DejaVuSans-38" x="95.410156"/>
      <use xlink:href="#DejaVuSans-36" x="159.033203"/>
     </g>
    </g>
    <g id="patch_29">
     <path d="M 696.905 434.492381 
L 771.07 434.492381 
L 771.07 421.04 
L 696.905 421.04 
z
" style="fill: #ffffff; stroke: #000000; stroke-linejoin: miter"/>
    </g>
    <g id="text_61">
     <!-- 0.81 -->
     <g transform="translate(741.387875 430.525565) scale(0.1 -0.1)">
      <use xlink:href="#DejaVuSans-30"/>
      <use xlink:href="#DejaVuSans-2e" x="63.623047"/>
      <use xlink:href="#DejaVuSans-38" x="95.410156"/>
      <use xlink:href="#DejaVuSans-31" x="159.033203"/>
     </g>
    </g>
    <g id="patch_30">
     <path d="M 771.07 434.492381 
L 845.235 434.492381 
L 845.235 421.04 
L 771.07 421.04 
z
" style="fill: #ffffff; stroke: #000000; stroke-linejoin: miter"/>
    </g>
    <g id="text_62">
     <!-- 0.55 -->
     <g transform="translate(815.552875 430.525565) scale(0.1 -0.1)">
      <use xlink:href="#DejaVuSans-30"/>
      <use xlink:href="#DejaVuSans-2e" x="63.623047"/>
      <use xlink:href="#DejaVuSans-35" x="95.410156"/>
      <use xlink:href="#DejaVuSans-35" x="159.033203"/>
     </g>
    </g>
   </g>
  </g>
 </g>
 <defs>
  <clipPath id="p1b4ed06c64">
   <rect x="47.81" y="25.44" width="370.825" height="226"/>
  </clipPath>
  <clipPath id="pbda88edbda">
   <rect x="474.41" y="25.44" width="370.825" height="226"/>
  </clipPath>
  <clipPath id="pc13212087a">
   <rect x="47.81" y="308.04" width="370.825" height="226"/>
  </clipPath>
 </defs>
</svg>
