<?xml version="1.0" encoding="utf-8" standalone="no"?>
<!DOCTYPE svg PUBLIC "-//W3C//DTD SVG 1.1//EN"
  "http://www.w3.org/Graphics/SVG/1.1/DTD/svg11.dtd">
<svg xmlns:xlink="http://www.w3.org/1999/xlink" width="864pt" height="576pt" viewBox="0 0 864 576" xmlns="http://www.w3.org/2000/svg" version="1.1">
 <metadata>
  <rdf:RDF xmlns:dc="http://purl.org/dc/elements/1.1/" xmlns:cc="http://creativecommons.org/ns#" xmlns:rdf="http://www.w3.org/1999/02/22-rdf-syntax-ns#">
   <cc:Work>
    <dc:type rdf:resource="http://purl.org/dc/dcmitype/StillImage"/>
    <dc:date>2025-05-01T09:40:12.975460</dc:date>
    <dc:format>image/svg+xml</dc:format>
    <dc:creator>
     <cc:Agent>
      <dc:title>Matplotlib v3.9.2, https://matplotlib.org/</dc:title>
     </cc:Agent>
    </dc:creator>
   </cc:Work>
  </rdf:RDF>
 </metadata>
 <defs>
  <style type="text/css">*{stroke-linejoin: round; stroke-linecap: butt}</style>
 </defs>
 <g id="figure_1">
  <g id="patch_1">
   <path d="M 0 576 
L 864 576 
L 864 0 
L 0 0 
z
" style="fill: #ffffff"/>
  </g>
  <g id="axes_1">
   <g id="patch_2">
    <path d="M 47.81 251.44 
L 418.635 251.44 
L 418.635 25.44 
L 47.81 25.44 
z
" style="fill: #ffffff"/>
   </g>
   <g id="matplotlib.axis_1">
    <g id="xtick_1">
     <g id="line2d_1">
      <defs>
       <path id="m77cf122e00" d="M 0 0 
L 0 3.5 
" style="stroke: #000000; stroke-width: 0.8"/>
      </defs>
      <g>
       <use xlink:href="#m77cf122e00" x="47.81" y="251.44" style="stroke: #000000; stroke-width: 0.8"/>
      </g>
     </g>
     <g id="text_1">
      <!-- 0.0 -->
      <g transform="translate(39.858438 266.038437) scale(0.1 -0.1)">
       <defs>
        <path id="DejaVuSans-30" d="M 2034 4250 
Q 1547 4250 1301 3770 
Q 1056 3291 1056 2328 
Q 1056 1369 1301 889 
Q 1547 409 2034 409 
Q 2525 409 2770 889 
Q 3016 1369 3016 2328 
Q 3016 3291 2770 3770 
Q 2525 4250 2034 4250 
z
M 2034 4750 
Q 2819 4750 3233 4129 
Q 3647 3509 3647 2328 
Q 3647 1150 3233 529 
Q 2819 -91 2034 -91 
Q 1250 -91 836 529 
Q 422 1150 422 2328 
Q 422 3509 836 4129 
Q 1250 4750 2034 4750 
z
" transform="scale(0.015625)"/>
        <path id="DejaVuSans-2e" d="M 684 794 
L 1344 794 
L 1344 0 
L 684 0 
L 684 794 
z
" transform="scale(0.015625)"/>
       </defs>
       <use xlink:href="#DejaVuSans-30"/>
       <use xlink:href="#DejaVuSans-2e" x="63.623047"/>
       <use xlink:href="#DejaVuSans-30" x="95.410156"/>
      </g>
     </g>
    </g>
    <g id="xtick_2">
     <g id="line2d_2">
      <g>
       <use xlink:href="#m77cf122e00" x="121.975" y="251.44" style="stroke: #000000; stroke-width: 0.8"/>
      </g>
     </g>
     <g id="text_2">
      <!-- 0.2 -->
      <g transform="translate(114.023438 266.038437) scale(0.1 -0.1)">
       <defs>
        <path id="DejaVuSans-32" d="M 1228 531 
L 3431 531 
L 3431 0 
L 469 0 
L 469 531 
Q 828 903 1448 1529 
Q 2069 2156 2228 2338 
Q 2531 2678 2651 2914 
Q 2772 3150 2772 3378 
Q 2772 3750 2511 3984 
Q 2250 4219 1831 4219 
Q 1534 4219 1204 4116 
Q 875 4013 500 3803 
L 500 4441 
Q 881 4594 1212 4672 
Q 1544 4750 1819 4750 
Q 2544 4750 2975 4387 
Q 3406 4025 3406 3419 
Q 3406 3131 3298 2873 
Q 3191 2616 2906 2266 
Q 2828 2175 2409 1742 
Q 1991 1309 1228 531 
z
" transform="scale(0.015625)"/>
       </defs>
       <use xlink:href="#DejaVuSans-30"/>
       <use xlink:href="#DejaVuSans-2e" x="63.623047"/>
       <use xlink:href="#DejaVuSans-32" x="95.410156"/>
      </g>
     </g>
    </g>
    <g id="xtick_3">
     <g id="line2d_3">
      <g>
       <use xlink:href="#m77cf122e00" x="196.14" y="251.44" style="stroke: #000000; stroke-width: 0.8"/>
      </g>
     </g>
     <g id="text_3">
      <!-- 0.4 -->
      <g transform="translate(188.188438 266.038437) scale(0.1 -0.1)">
       <defs>
        <path id="DejaVuSans-34" d="M 2419 4116 
L 825 1625 
L 2419 1625 
L 2419 4116 
z
M 2253 4666 
L 3047 4666 
L 3047 1625 
L 3713 1625 
L 3713 1100 
L 3047 1100 
L 3047 0 
L 2419 0 
L 2419 1100 
L 313 1100 
L 313 1709 
L 2253 4666 
z
" transform="scale(0.015625)"/>
       </defs>
       <use xlink:href="#DejaVuSans-30"/>
       <use xlink:href="#DejaVuSans-2e" x="63.623047"/>
       <use xlink:href="#DejaVuSans-34" x="95.410156"/>
      </g>
     </g>
    </g>
    <g id="xtick_4">
     <g id="line2d_4">
      <g>
       <use xlink:href="#m77cf122e00" x="270.305" y="251.44" style="stroke: #000000; stroke-width: 0.8"/>
      </g>
     </g>
     <g id="text_4">
      <!-- 0.6 -->
      <g transform="translate(262.353438 266.038437) scale(0.1 -0.1)">
       <defs>
        <path id="DejaVuSans-36" d="M 2113 2584 
Q 1688 2584 1439 2293 
Q 1191 2003 1191 1497 
Q 1191 994 1439 701 
Q 1688 409 2113 409 
Q 2538 409 2786 701 
Q 3034 994 3034 1497 
Q 3034 2003 2786 2293 
Q 2538 2584 2113 2584 
z
M 3366 4563 
L 3366 3988 
Q 3128 4100 2886 4159 
Q 2644 4219 2406 4219 
Q 1781 4219 1451 3797 
Q 1122 3375 1075 2522 
Q 1259 2794 1537 2939 
Q 1816 3084 2150 3084 
Q 2853 3084 3261 2657 
Q 3669 2231 3669 1497 
Q 3669 778 3244 343 
Q 2819 -91 2113 -91 
Q 1303 -91 875 529 
Q 447 1150 447 2328 
Q 447 3434 972 4092 
Q 1497 4750 2381 4750 
Q 2619 4750 2861 4703 
Q 3103 4656 3366 4563 
z
" transform="scale(0.015625)"/>
       </defs>
       <use xlink:href="#DejaVuSans-30"/>
       <use xlink:href="#DejaVuSans-2e" x="63.623047"/>
       <use xlink:href="#DejaVuSans-36" x="95.410156"/>
      </g>
     </g>
    </g>
    <g id="xtick_5">
     <g id="line2d_5">
      <g>
       <use xlink:href="#m77cf122e00" x="344.47" y="251.44" style="stroke: #000000; stroke-width: 0.8"/>
      </g>
     </g>
     <g id="text_5">
      <!-- 0.8 -->
      <g transform="translate(336.518438 266.038437) scale(0.1 -0.1)">
       <defs>
        <path id="DejaVuSans-38" d="M 2034 2216 
Q 1584 2216 1326 1975 
Q 1069 1734 1069 1313 
Q 1069 891 1326 650 
Q 1584 409 2034 409 
Q 2484 409 2743 651 
Q 3003 894 3003 1313 
Q 3003 1734 2745 1975 
Q 2488 2216 2034 2216 
z
M 1403 2484 
Q 997 2584 770 2862 
Q 544 3141 544 3541 
Q 544 4100 942 4425 
Q 1341 4750 2034 4750 
Q 2731 4750 3128 4425 
Q 3525 4100 3525 3541 
Q 3525 3141 3298 2862 
Q 3072 2584 2669 2484 
Q 3125 2378 3379 2068 
Q 3634 1759 3634 1313 
Q 3634 634 3220 271 
Q 2806 -91 2034 -91 
Q 1263 -91 848 271 
Q 434 634 434 1313 
Q 434 1759 690 2068 
Q 947 2378 1403 2484 
z
M 1172 3481 
Q 1172 3119 1398 2916 
Q 1625 2713 2034 2713 
Q 2441 2713 2670 2916 
Q 2900 3119 2900 3481 
Q 2900 3844 2670 4047 
Q 2441 4250 2034 4250 
Q 1625 4250 1398 4047 
Q 1172 3844 1172 3481 
z
" transform="scale(0.015625)"/>
       </defs>
       <use xlink:href="#DejaVuSans-30"/>
       <use xlink:href="#DejaVuSans-2e" x="63.623047"/>
       <use xlink:href="#DejaVuSans-38" x="95.410156"/>
      </g>
     </g>
    </g>
    <g id="xtick_6">
     <g id="line2d_6">
      <g>
       <use xlink:href="#m77cf122e00" x="418.635" y="251.44" style="stroke: #000000; stroke-width: 0.8"/>
      </g>
     </g>
     <g id="text_6">
      <!-- 1.0 -->
      <g transform="translate(410.683437 266.038437) scale(0.1 -0.1)">
       <defs>
        <path id="DejaVuSans-31" d="M 794 531 
L 1825 531 
L 1825 4091 
L 703 3866 
L 703 4441 
L 1819 4666 
L 2450 4666 
L 2450 531 
L 3481 531 
L 3481 0 
L 794 0 
L 794 531 
z
" transform="scale(0.015625)"/>
       </defs>
       <use xlink:href="#DejaVuSans-31"/>
       <use xlink:href="#DejaVuSans-2e" x="63.623047"/>
       <use xlink:href="#DejaVuSans-30" x="95.410156"/>
      </g>
     </g>
    </g>
    <g id="text_7">
     <!-- False Positive Rate -->
     <g transform="translate(186.756094 279.716563) scale(0.1 -0.1)">
      <defs>
       <path id="DejaVuSans-46" d="M 628 4666 
L 3309 4666 
L 3309 4134 
L 1259 4134 
L 1259 2759 
L 3109 2759 
L 3109 2228 
L 1259 2228 
L 1259 0 
L 628 0 
L 628 4666 
z
" transform="scale(0.015625)"/>
       <path id="DejaVuSans-61" d="M 2194 1759 
Q 1497 1759 1228 1600 
Q 959 1441 959 1056 
Q 959 750 1161 570 
Q 1363 391 1709 391 
Q 2188 391 2477 730 
Q 2766 1069 2766 1631 
L 2766 1759 
L 2194 1759 
z
M 3341 1997 
L 3341 0 
L 2766 0 
L 2766 531 
Q 2569 213 2275 61 
Q 1981 -91 1556 -91 
Q 1019 -91 701 211 
Q 384 513 384 1019 
Q 384 1609 779 1909 
Q 1175 2209 1959 2209 
L 2766 2209 
L 2766 2266 
Q 2766 2663 2505 2880 
Q 2244 3097 1772 3097 
Q 1472 3097 1187 3025 
Q 903 2953 641 2809 
L 641 3341 
Q 956 3463 1253 3523 
Q 1550 3584 1831 3584 
Q 2591 3584 2966 3190 
Q 3341 2797 3341 1997 
z
" transform="scale(0.015625)"/>
       <path id="DejaVuSans-6c" d="M 603 4863 
L 1178 4863 
L 1178 0 
L 603 0 
L 603 4863 
z
" transform="scale(0.015625)"/>
       <path id="DejaVuSans-73" d="M 2834 3397 
L 2834 2853 
Q 2591 2978 2328 3040 
Q 2066 3103 1784 3103 
Q 1356 3103 1142 2972 
Q 928 2841 928 2578 
Q 928 2378 1081 2264 
Q 1234 2150 1697 2047 
L 1894 2003 
Q 2506 1872 2764 1633 
Q 3022 1394 3022 966 
Q 3022 478 2636 193 
Q 2250 -91 1575 -91 
Q 1294 -91 989 -36 
Q 684 19 347 128 
L 347 722 
Q 666 556 975 473 
Q 1284 391 1588 391 
Q 1994 391 2212 530 
Q 2431 669 2431 922 
Q 2431 1156 2273 1281 
Q 2116 1406 1581 1522 
L 1381 1569 
Q 847 1681 609 1914 
Q 372 2147 372 2553 
Q 372 3047 722 3315 
Q 1072 3584 1716 3584 
Q 2034 3584 2315 3537 
Q 2597 3491 2834 3397 
z
" transform="scale(0.015625)"/>
       <path id="DejaVuSans-65" d="M 3597 1894 
L 3597 1613 
L 953 1613 
Q 991 1019 1311 708 
Q 1631 397 2203 397 
Q 2534 397 2845 478 
Q 3156 559 3463 722 
L 3463 178 
Q 3153 47 2828 -22 
Q 2503 -91 2169 -91 
Q 1331 -91 842 396 
Q 353 884 353 1716 
Q 353 2575 817 3079 
Q 1281 3584 2069 3584 
Q 2775 3584 3186 3129 
Q 3597 2675 3597 1894 
z
M 3022 2063 
Q 3016 2534 2758 2815 
Q 2500 3097 2075 3097 
Q 1594 3097 1305 2825 
Q 1016 2553 972 2059 
L 3022 2063 
z
" transform="scale(0.015625)"/>
       <path id="DejaVuSans-20" transform="scale(0.015625)"/>
       <path id="DejaVuSans-50" d="M 1259 4147 
L 1259 2394 
L 2053 2394 
Q 2494 2394 2734 2622 
Q 2975 2850 2975 3272 
Q 2975 3691 2734 3919 
Q 2494 4147 2053 4147 
L 1259 4147 
z
M 628 4666 
L 2053 4666 
Q 2838 4666 3239 4311 
Q 3641 3956 3641 3272 
Q 3641 2581 3239 2228 
Q 2838 1875 2053 1875 
L 1259 1875 
L 1259 0 
L 628 0 
L 628 4666 
z
" transform="scale(0.015625)"/>
       <path id="DejaVuSans-6f" d="M 1959 3097 
Q 1497 3097 1228 2736 
Q 959 2375 959 1747 
Q 959 1119 1226 758 
Q 1494 397 1959 397 
Q 2419 397 2687 759 
Q 2956 1122 2956 1747 
Q 2956 2369 2687 2733 
Q 2419 3097 1959 3097 
z
M 1959 3584 
Q 2709 3584 3137 3096 
Q 3566 2609 3566 1747 
Q 3566 888 3137 398 
Q 2709 -91 1959 -91 
Q 1206 -91 779 398 
Q 353 888 353 1747 
Q 353 2609 779 3096 
Q 1206 3584 1959 3584 
z
" transform="scale(0.015625)"/>
       <path id="DejaVuSans-69" d="M 603 3500 
L 1178 3500 
L 1178 0 
L 603 0 
L 603 3500 
z
M 603 4863 
L 1178 4863 
L 1178 4134 
L 603 4134 
L 603 4863 
z
" transform="scale(0.015625)"/>
       <path id="DejaVuSans-74" d="M 1172 4494 
L 1172 3500 
L 2356 3500 
L 2356 3053 
L 1172 3053 
L 1172 1153 
Q 1172 725 1289 603 
Q 1406 481 1766 481 
L 2356 481 
L 2356 0 
L 1766 0 
Q 1100 0 847 248 
Q 594 497 594 1153 
L 594 3053 
L 172 3053 
L 172 3500 
L 594 3500 
L 594 4494 
L 1172 4494 
z
" transform="scale(0.015625)"/>
       <path id="DejaVuSans-76" d="M 191 3500 
L 800 3500 
L 1894 563 
L 2988 3500 
L 3597 3500 
L 2284 0 
L 1503 0 
L 191 3500 
z
" transform="scale(0.015625)"/>
       <path id="DejaVuSans-52" d="M 2841 2188 
Q 3044 2119 3236 1894 
Q 3428 1669 3622 1275 
L 4263 0 
L 3584 0 
L 2988 1197 
Q 2756 1666 2539 1819 
Q 2322 1972 1947 1972 
L 1259 1972 
L 1259 0 
L 628 0 
L 628 4666 
L 2053 4666 
Q 2853 4666 3247 4331 
Q 3641 3997 3641 3322 
Q 3641 2881 3436 2590 
Q 3231 2300 2841 2188 
z
M 1259 4147 
L 1259 2491 
L 2053 2491 
Q 2509 2491 2742 2702 
Q 2975 2913 2975 3322 
Q 2975 3731 2742 3939 
Q 2509 4147 2053 4147 
L 1259 4147 
z
" transform="scale(0.015625)"/>
      </defs>
      <use xlink:href="#DejaVuSans-46"/>
      <use xlink:href="#DejaVuSans-61" x="48.394531"/>
      <use xlink:href="#DejaVuSans-6c" x="109.673828"/>
      <use xlink:href="#DejaVuSans-73" x="137.457031"/>
      <use xlink:href="#DejaVuSans-65" x="189.556641"/>
      <use xlink:href="#DejaVuSans-20" x="251.080078"/>
      <use xlink:href="#DejaVuSans-50" x="282.867188"/>
      <use xlink:href="#DejaVuSans-6f" x="339.544922"/>
      <use xlink:href="#DejaVuSans-73" x="400.726562"/>
      <use xlink:href="#DejaVuSans-69" x="452.826172"/>
      <use xlink:href="#DejaVuSans-74" x="480.609375"/>
      <use xlink:href="#DejaVuSans-69" x="519.818359"/>
      <use xlink:href="#DejaVuSans-76" x="547.601562"/>
      <use xlink:href="#DejaVuSans-65" x="606.78125"/>
      <use xlink:href="#DejaVuSans-20" x="668.304688"/>
      <use xlink:href="#DejaVuSans-52" x="700.091797"/>
      <use xlink:href="#DejaVuSans-61" x="767.324219"/>
      <use xlink:href="#DejaVuSans-74" x="828.603516"/>
      <use xlink:href="#DejaVuSans-65" x="867.8125"/>
     </g>
    </g>
   </g>
   <g id="matplotlib.axis_2">
    <g id="ytick_1">
     <g id="line2d_7">
      <defs>
       <path id="m85eb2ae67d" d="M 0 0 
L -3.5 0 
" style="stroke: #000000; stroke-width: 0.8"/>
      </defs>
      <g>
       <use xlink:href="#m85eb2ae67d" x="47.81" y="251.44" style="stroke: #000000; stroke-width: 0.8"/>
      </g>
     </g>
     <g id="text_8">
      <!-- 0.0 -->
      <g transform="translate(24.906875 255.239219) scale(0.1 -0.1)">
       <use xlink:href="#DejaVuSans-30"/>
       <use xlink:href="#DejaVuSans-2e" x="63.623047"/>
       <use xlink:href="#DejaVuSans-30" x="95.410156"/>
      </g>
     </g>
    </g>
    <g id="ytick_2">
     <g id="line2d_8">
      <g>
       <use xlink:href="#m85eb2ae67d" x="47.81" y="208.392381" style="stroke: #000000; stroke-width: 0.8"/>
      </g>
     </g>
     <g id="text_9">
      <!-- 0.2 -->
      <g transform="translate(24.906875 212.1916) scale(0.1 -0.1)">
       <use xlink:href="#DejaVuSans-30"/>
       <use xlink:href="#DejaVuSans-2e" x="63.623047"/>
       <use xlink:href="#DejaVuSans-32" x="95.410156"/>
      </g>
     </g>
    </g>
    <g id="ytick_3">
     <g id="line2d_9">
      <g>
       <use xlink:href="#m85eb2ae67d" x="47.81" y="165.344762" style="stroke: #000000; stroke-width: 0.8"/>
      </g>
     </g>
     <g id="text_10">
      <!-- 0.4 -->
      <g transform="translate(24.906875 169.143981) scale(0.1 -0.1)">
       <use xlink:href="#DejaVuSans-30"/>
       <use xlink:href="#DejaVuSans-2e" x="63.623047"/>
       <use xlink:href="#DejaVuSans-34" x="95.410156"/>
      </g>
     </g>
    </g>
    <g id="ytick_4">
     <g id="line2d_10">
      <g>
       <use xlink:href="#m85eb2ae67d" x="47.81" y="122.297143" style="stroke: #000000; stroke-width: 0.8"/>
      </g>
     </g>
     <g id="text_11">
      <!-- 0.6 -->
      <g transform="translate(24.906875 126.096362) scale(0.1 -0.1)">
       <use xlink:href="#DejaVuSans-30"/>
       <use xlink:href="#DejaVuSans-2e" x="63.623047"/>
       <use xlink:href="#DejaVuSans-36" x="95.410156"/>
      </g>
     </g>
    </g>
    <g id="ytick_5">
     <g id="line2d_11">
      <g>
       <use xlink:href="#m85eb2ae67d" x="47.81" y="79.249524" style="stroke: #000000; stroke-width: 0.8"/>
      </g>
     </g>
     <g id="text_12">
      <!-- 0.8 -->
      <g transform="translate(24.906875 83.048743) scale(0.1 -0.1)">
       <use xlink:href="#DejaVuSans-30"/>
       <use xlink:href="#DejaVuSans-2e" x="63.623047"/>
       <use xlink:href="#DejaVuSans-38" x="95.410156"/>
      </g>
     </g>
    </g>
    <g id="ytick_6">
     <g id="line2d_12">
      <g>
       <use xlink:href="#m85eb2ae67d" x="47.81" y="36.201905" style="stroke: #000000; stroke-width: 0.8"/>
      </g>
     </g>
     <g id="text_13">
      <!-- 1.0 -->
      <g transform="translate(24.906875 40.001124) scale(0.1 -0.1)">
       <use xlink:href="#DejaVuSans-31"/>
       <use xlink:href="#DejaVuSans-2e" x="63.623047"/>
       <use xlink:href="#DejaVuSans-30" x="95.410156"/>
      </g>
     </g>
    </g>
    <g id="text_14">
     <!-- True Positive Rate -->
     <g transform="translate(18.827187 182.969687) rotate(-90) scale(0.1 -0.1)">
      <defs>
       <path id="DejaVuSans-54" d="M -19 4666 
L 3928 4666 
L 3928 4134 
L 2272 4134 
L 2272 0 
L 1638 0 
L 1638 4134 
L -19 4134 
L -19 4666 
z
" transform="scale(0.015625)"/>
       <path id="DejaVuSans-72" d="M 2631 2963 
Q 2534 3019 2420 3045 
Q 2306 3072 2169 3072 
Q 1681 3072 1420 2755 
Q 1159 2438 1159 1844 
L 1159 0 
L 581 0 
L 581 3500 
L 1159 3500 
L 1159 2956 
Q 1341 3275 1631 3429 
Q 1922 3584 2338 3584 
Q 2397 3584 2469 3576 
Q 2541 3569 2628 3553 
L 2631 2963 
z
" transform="scale(0.015625)"/>
       <path id="DejaVuSans-75" d="M 544 1381 
L 544 3500 
L 1119 3500 
L 1119 1403 
Q 1119 906 1312 657 
Q 1506 409 1894 409 
Q 2359 409 2629 706 
Q 2900 1003 2900 1516 
L 2900 3500 
L 3475 3500 
L 3475 0 
L 2900 0 
L 2900 538 
Q 2691 219 2414 64 
Q 2138 -91 1772 -91 
Q 1169 -91 856 284 
Q 544 659 544 1381 
z
M 1991 3584 
L 1991 3584 
z
" transform="scale(0.015625)"/>
      </defs>
      <use xlink:href="#DejaVuSans-54"/>
      <use xlink:href="#DejaVuSans-72" x="46.333984"/>
      <use xlink:href="#DejaVuSans-75" x="87.447266"/>
      <use xlink:href="#DejaVuSans-65" x="150.826172"/>
      <use xlink:href="#DejaVuSans-20" x="212.349609"/>
      <use xlink:href="#DejaVuSans-50" x="244.136719"/>
      <use xlink:href="#DejaVuSans-6f" x="300.814453"/>
      <use xlink:href="#DejaVuSans-73" x="361.996094"/>
      <use xlink:href="#DejaVuSans-69" x="414.095703"/>
      <use xlink:href="#DejaVuSans-74" x="441.878906"/>
      <use xlink:href="#DejaVuSans-69" x="481.087891"/>
      <use xlink:href="#DejaVuSans-76" x="508.871094"/>
      <use xlink:href="#DejaVuSans-65" x="568.050781"/>
      <use xlink:href="#DejaVuSans-20" x="629.574219"/>
      <use xlink:href="#DejaVuSans-52" x="661.361328"/>
      <use xlink:href="#DejaVuSans-61" x="728.59375"/>
      <use xlink:href="#DejaVuSans-74" x="789.873047"/>
      <use xlink:href="#DejaVuSans-65" x="829.082031"/>
     </g>
    </g>
   </g>
   <g id="line2d_13">
    <path d="M 47.81 251.44 
L 47.81 250.230797 
L 47.81 247.812392 
L 53.184275 247.812392 
L 53.184275 246.603189 
L 58.558551 246.603189 
L 58.558551 242.975581 
L 63.932826 242.975581 
L 63.932826 232.092755 
L 69.307101 232.092755 
L 69.307101 222.419133 
L 80.055652 222.419133 
L 80.055652 217.582322 
L 85.429928 217.582322 
L 85.429928 207.9087 
L 90.804203 207.9087 
L 90.804203 190.979861 
L 96.178478 190.979861 
L 96.178478 184.933847 
L 106.927029 184.933847 
L 106.927029 171.632616 
L 112.301304 171.632616 
L 112.301304 169.214211 
L 117.67558 169.214211 
L 117.67558 168.005008 
L 123.049855 168.005008 
L 123.049855 165.586602 
L 128.42413 165.586602 
L 128.42413 164.3774 
L 133.798406 164.3774 
L 133.798406 161.958994 
L 139.172681 161.958994 
L 139.172681 159.540589 
L 144.546957 159.540589 
L 144.546957 155.91298 
L 149.921232 155.91298 
L 149.921232 152.285372 
L 155.295507 152.285372 
L 155.295507 149.866966 
L 160.669783 149.866966 
L 160.669783 142.61175 
L 166.044058 142.61175 
L 166.044058 141.402547 
L 171.418333 141.402547 
L 171.418333 137.774938 
L 182.166884 137.774938 
L 182.166884 135.356533 
L 187.541159 135.356533 
L 187.541159 134.14733 
L 192.915435 134.14733 
L 192.915435 131.728925 
L 203.663986 131.728925 
L 203.663986 124.473708 
L 209.038261 124.473708 
L 209.038261 123.264505 
L 214.412536 123.264505 
L 214.412536 118.427694 
L 225.161087 118.427694 
L 225.161087 117.218491 
L 235.909638 117.218491 
L 235.909638 113.590883 
L 246.658188 113.590883 
L 246.658188 109.963274 
L 257.406739 109.963274 
L 257.406739 107.544869 
L 262.781014 107.544869 
L 262.781014 105.126463 
L 273.529565 105.126463 
L 273.529565 102.708058 
L 278.903841 102.708058 
L 278.903841 100.289652 
L 300.400942 100.289652 
L 300.400942 97.871247 
L 311.149493 97.871247 
L 311.149493 93.034436 
L 321.898043 93.034436 
L 321.898043 89.406827 
L 327.272319 89.406827 
L 327.272319 74.896394 
L 338.02087 74.896394 
L 338.02087 72.477988 
L 343.395145 72.477988 
L 343.395145 64.013569 
L 354.143696 64.013569 
L 354.143696 62.804366 
L 359.517971 62.804366 
L 359.517971 59.176758 
L 364.892246 59.176758 
L 364.892246 54.339946 
L 375.640797 54.339946 
L 375.640797 53.130744 
L 381.015072 53.130744 
L 381.015072 50.712338 
L 386.389348 50.712338 
L 386.389348 48.293933 
L 391.763623 48.293933 
L 391.763623 37.411108 
L 397.137899 37.411108 
L 397.137899 36.201905 
L 418.635 36.201905 
" clip-path="url(#p0290e68ed0)" style="fill: none; stroke: #1f77b4; stroke-width: 1.5; stroke-linecap: square"/>
   </g>
   <g id="line2d_14">
    <path d="M 47.81 251.44 
L 60.597069 251.44 
L 60.597069 240.2588 
L 60.597069 234.6682 
L 60.597069 217.896401 
L 86.171207 217.896401 
L 86.171207 178.762202 
L 98.958276 178.762202 
L 98.958276 167.581002 
L 111.745345 167.581002 
L 111.745345 156.399802 
L 137.319483 156.399802 
L 137.319483 125.651503 
L 150.106552 125.651503 
L 150.106552 122.856203 
L 162.893621 122.856203 
L 162.893621 120.060903 
L 175.68069 120.060903 
L 175.68069 117.265603 
L 214.041897 117.265603 
L 214.041897 114.470303 
L 226.828966 111.675003 
L 226.828966 100.493803 
L 252.403103 100.493803 
L 252.403103 89.312604 
L 265.190172 89.312604 
L 265.190172 80.926704 
L 277.977241 80.926704 
L 277.977241 78.131404 
L 290.76431 78.131404 
L 290.76431 69.745504 
L 329.125517 69.745504 
L 329.125517 66.950204 
L 354.699655 66.950204 
L 354.699655 64.154904 
L 367.486724 64.154904 
L 367.486724 58.564304 
L 380.273793 58.564304 
L 380.273793 52.973704 
L 393.060862 52.973704 
L 393.060862 47.383105 
L 405.847931 47.383105 
L 405.847931 41.792505 
L 418.635 41.792505 
L 418.635 36.201905 
" clip-path="url(#p0290e68ed0)" style="fill: none; stroke: #ff7f0e; stroke-width: 1.5; stroke-linecap: square"/>
   </g>
   <g id="line2d_15">
    <path d="M 47.81 251.44 
L 418.635 36.201905 
" clip-path="url(#p0290e68ed0)" style="fill: none; stroke-dasharray: 5.55,2.4; stroke-dashoffset: 0; stroke: #000000; stroke-width: 1.5"/>
   </g>
   <g id="patch_3">
    <path d="M 47.81 251.44 
L 47.81 25.44 
" style="fill: none; stroke: #000000; stroke-width: 0.8; stroke-linejoin: miter; stroke-linecap: square"/>
   </g>
   <g id="patch_4">
    <path d="M 418.635 251.44 
L 418.635 25.44 
" style="fill: none; stroke: #000000; stroke-width: 0.8; stroke-linejoin: miter; stroke-linecap: square"/>
   </g>
   <g id="patch_5">
    <path d="M 47.81 251.44 
L 418.635 251.44 
" style="fill: none; stroke: #000000; stroke-width: 0.8; stroke-linejoin: miter; stroke-linecap: square"/>
   </g>
   <g id="patch_6">
    <path d="M 47.81 25.44 
L 418.635 25.44 
" style="fill: none; stroke: #000000; stroke-width: 0.8; stroke-linejoin: miter; stroke-linecap: square"/>
   </g>
   <g id="text_15">
    <!-- ROC Curve -->
    <g transform="translate(200.531875 19.44) scale(0.12 -0.12)">
     <defs>
      <path id="DejaVuSans-4f" d="M 2522 4238 
Q 1834 4238 1429 3725 
Q 1025 3213 1025 2328 
Q 1025 1447 1429 934 
Q 1834 422 2522 422 
Q 3209 422 3611 934 
Q 4013 1447 4013 2328 
Q 4013 3213 3611 3725 
Q 3209 4238 2522 4238 
z
M 2522 4750 
Q 3503 4750 4090 4092 
Q 4678 3434 4678 2328 
Q 4678 1225 4090 567 
Q 3503 -91 2522 -91 
Q 1538 -91 948 565 
Q 359 1222 359 2328 
Q 359 3434 948 4092 
Q 1538 4750 2522 4750 
z
" transform="scale(0.015625)"/>
      <path id="DejaVuSans-43" d="M 4122 4306 
L 4122 3641 
Q 3803 3938 3442 4084 
Q 3081 4231 2675 4231 
Q 1875 4231 1450 3742 
Q 1025 3253 1025 2328 
Q 1025 1406 1450 917 
Q 1875 428 2675 428 
Q 3081 428 3442 575 
Q 3803 722 4122 1019 
L 4122 359 
Q 3791 134 3420 21 
Q 3050 -91 2638 -91 
Q 1578 -91 968 557 
Q 359 1206 359 2328 
Q 359 3453 968 4101 
Q 1578 4750 2638 4750 
Q 3056 4750 3426 4639 
Q 3797 4528 4122 4306 
z
" transform="scale(0.015625)"/>
     </defs>
     <use xlink:href="#DejaVuSans-52"/>
     <use xlink:href="#DejaVuSans-4f" x="69.482422"/>
     <use xlink:href="#DejaVuSans-43" x="148.193359"/>
     <use xlink:href="#DejaVuSans-20" x="218.017578"/>
     <use xlink:href="#DejaVuSans-43" x="249.804688"/>
     <use xlink:href="#DejaVuSans-75" x="319.628906"/>
     <use xlink:href="#DejaVuSans-72" x="383.007812"/>
     <use xlink:href="#DejaVuSans-76" x="424.121094"/>
     <use xlink:href="#DejaVuSans-65" x="483.300781"/>
    </g>
   </g>
   <g id="legend_1">
    <g id="patch_7">
     <path d="M 287.235 246.44 
L 411.635 246.44 
Q 413.635 246.44 413.635 244.44 
L 413.635 216.08375 
Q 413.635 214.08375 411.635 214.08375 
L 287.235 214.08375 
Q 285.235 214.08375 285.235 216.08375 
L 285.235 244.44 
Q 285.235 246.44 287.235 246.44 
z
" style="fill: #ffffff; opacity: 0.8; stroke: #cccccc; stroke-linejoin: miter"/>
    </g>
    <g id="line2d_16">
     <path d="M 289.235 222.182187 
L 299.235 222.182187 
L 309.235 222.182187 
" style="fill: none; stroke: #1f77b4; stroke-width: 1.5; stroke-linecap: square"/>
    </g>
    <g id="text_16">
     <!-- train (AUC = 0.60) -->
     <g transform="translate(317.235 225.682187) scale(0.1 -0.1)">
      <defs>
       <path id="DejaVuSans-6e" d="M 3513 2113 
L 3513 0 
L 2938 0 
L 2938 2094 
Q 2938 2591 2744 2837 
Q 2550 3084 2163 3084 
Q 1697 3084 1428 2787 
Q 1159 2491 1159 1978 
L 1159 0 
L 581 0 
L 581 3500 
L 1159 3500 
L 1159 2956 
Q 1366 3272 1645 3428 
Q 1925 3584 2291 3584 
Q 2894 3584 3203 3211 
Q 3513 2838 3513 2113 
z
" transform="scale(0.015625)"/>
       <path id="DejaVuSans-28" d="M 1984 4856 
Q 1566 4138 1362 3434 
Q 1159 2731 1159 2009 
Q 1159 1288 1364 580 
Q 1569 -128 1984 -844 
L 1484 -844 
Q 1016 -109 783 600 
Q 550 1309 550 2009 
Q 550 2706 781 3412 
Q 1013 4119 1484 4856 
L 1984 4856 
z
" transform="scale(0.015625)"/>
       <path id="DejaVuSans-41" d="M 2188 4044 
L 1331 1722 
L 3047 1722 
L 2188 4044 
z
M 1831 4666 
L 2547 4666 
L 4325 0 
L 3669 0 
L 3244 1197 
L 1141 1197 
L 716 0 
L 50 0 
L 1831 4666 
z
" transform="scale(0.015625)"/>
       <path id="DejaVuSans-55" d="M 556 4666 
L 1191 4666 
L 1191 1831 
Q 1191 1081 1462 751 
Q 1734 422 2344 422 
Q 2950 422 3222 751 
Q 3494 1081 3494 1831 
L 3494 4666 
L 4128 4666 
L 4128 1753 
Q 4128 841 3676 375 
Q 3225 -91 2344 -91 
Q 1459 -91 1007 375 
Q 556 841 556 1753 
L 556 4666 
z
" transform="scale(0.015625)"/>
       <path id="DejaVuSans-3d" d="M 678 2906 
L 4684 2906 
L 4684 2381 
L 678 2381 
L 678 2906 
z
M 678 1631 
L 4684 1631 
L 4684 1100 
L 678 1100 
L 678 1631 
z
" transform="scale(0.015625)"/>
       <path id="DejaVuSans-29" d="M 513 4856 
L 1013 4856 
Q 1481 4119 1714 3412 
Q 1947 2706 1947 2009 
Q 1947 1309 1714 600 
Q 1481 -109 1013 -844 
L 513 -844 
Q 928 -128 1133 580 
Q 1338 1288 1338 2009 
Q 1338 2731 1133 3434 
Q 928 4138 513 4856 
z
" transform="scale(0.015625)"/>
      </defs>
      <use xlink:href="#DejaVuSans-74"/>
      <use xlink:href="#DejaVuSans-72" x="39.208984"/>
      <use xlink:href="#DejaVuSans-61" x="80.322266"/>
      <use xlink:href="#DejaVuSans-69" x="141.601562"/>
      <use xlink:href="#DejaVuSans-6e" x="169.384766"/>
      <use xlink:href="#DejaVuSans-20" x="232.763672"/>
      <use xlink:href="#DejaVuSans-28" x="264.550781"/>
      <use xlink:href="#DejaVuSans-41" x="303.564453"/>
      <use xlink:href="#DejaVuSans-55" x="371.972656"/>
      <use xlink:href="#DejaVuSans-43" x="445.166016"/>
      <use xlink:href="#DejaVuSans-20" x="514.990234"/>
      <use xlink:href="#DejaVuSans-3d" x="546.777344"/>
      <use xlink:href="#DejaVuSans-20" x="630.566406"/>
      <use xlink:href="#DejaVuSans-30" x="662.353516"/>
      <use xlink:href="#DejaVuSans-2e" x="725.976562"/>
      <use xlink:href="#DejaVuSans-36" x="757.763672"/>
      <use xlink:href="#DejaVuSans-30" x="821.386719"/>
      <use xlink:href="#DejaVuSans-29" x="885.009766"/>
     </g>
    </g>
    <g id="line2d_17">
     <path d="M 289.235 236.860313 
L 299.235 236.860313 
L 309.235 236.860313 
" style="fill: none; stroke: #ff7f0e; stroke-width: 1.5; stroke-linecap: square"/>
    </g>
    <g id="text_17">
     <!-- test (AUC = 0.65) -->
     <g transform="translate(317.235 240.360313) scale(0.1 -0.1)">
      <defs>
       <path id="DejaVuSans-35" d="M 691 4666 
L 3169 4666 
L 3169 4134 
L 1269 4134 
L 1269 2991 
Q 1406 3038 1543 3061 
Q 1681 3084 1819 3084 
Q 2600 3084 3056 2656 
Q 3513 2228 3513 1497 
Q 3513 744 3044 326 
Q 2575 -91 1722 -91 
Q 1428 -91 1123 -41 
Q 819 9 494 109 
L 494 744 
Q 775 591 1075 516 
Q 1375 441 1709 441 
Q 2250 441 2565 725 
Q 2881 1009 2881 1497 
Q 2881 1984 2565 2268 
Q 2250 2553 1709 2553 
Q 1456 2553 1204 2497 
Q 953 2441 691 2322 
L 691 4666 
z
" transform="scale(0.015625)"/>
      </defs>
      <use xlink:href="#DejaVuSans-74"/>
      <use xlink:href="#DejaVuSans-65" x="39.208984"/>
      <use xlink:href="#DejaVuSans-73" x="100.732422"/>
      <use xlink:href="#DejaVuSans-74" x="152.832031"/>
      <use xlink:href="#DejaVuSans-20" x="192.041016"/>
      <use xlink:href="#DejaVuSans-28" x="223.828125"/>
      <use xlink:href="#DejaVuSans-41" x="262.841797"/>
      <use xlink:href="#DejaVuSans-55" x="331.25"/>
      <use xlink:href="#DejaVuSans-43" x="404.443359"/>
      <use xlink:href="#DejaVuSans-20" x="474.267578"/>
      <use xlink:href="#DejaVuSans-3d" x="506.054688"/>
      <use xlink:href="#DejaVuSans-20" x="589.84375"/>
      <use xlink:href="#DejaVuSans-30" x="621.630859"/>
      <use xlink:href="#DejaVuSans-2e" x="685.253906"/>
      <use xlink:href="#DejaVuSans-36" x="717.041016"/>
      <use xlink:href="#DejaVuSans-35" x="780.664062"/>
      <use xlink:href="#DejaVuSans-29" x="844.287109"/>
     </g>
    </g>
   </g>
  </g>
  <g id="axes_2">
   <g id="patch_8">
    <path d="M 474.41 251.44 
L 845.235 251.44 
L 845.235 25.44 
L 474.41 25.44 
z
" style="fill: #ffffff"/>
   </g>
   <g id="matplotlib.axis_3">
    <g id="xtick_7">
     <g id="line2d_18">
      <g>
       <use xlink:href="#m77cf122e00" x="474.41" y="251.44" style="stroke: #000000; stroke-width: 0.8"/>
      </g>
     </g>
     <g id="text_18">
      <!-- 0.0 -->
      <g transform="translate(466.458437 266.038437) scale(0.1 -0.1)">
       <use xlink:href="#DejaVuSans-30"/>
       <use xlink:href="#DejaVuSans-2e" x="63.623047"/>
       <use xlink:href="#DejaVuSans-30" x="95.410156"/>
      </g>
     </g>
    </g>
    <g id="xtick_8">
     <g id="line2d_19">
      <g>
       <use xlink:href="#m77cf122e00" x="548.575" y="251.44" style="stroke: #000000; stroke-width: 0.8"/>
      </g>
     </g>
     <g id="text_19">
      <!-- 0.2 -->
      <g transform="translate(540.623437 266.038437) scale(0.1 -0.1)">
       <use xlink:href="#DejaVuSans-30"/>
       <use xlink:href="#DejaVuSans-2e" x="63.623047"/>
       <use xlink:href="#DejaVuSans-32" x="95.410156"/>
      </g>
     </g>
    </g>
    <g id="xtick_9">
     <g id="line2d_20">
      <g>
       <use xlink:href="#m77cf122e00" x="622.74" y="251.44" style="stroke: #000000; stroke-width: 0.8"/>
      </g>
     </g>
     <g id="text_20">
      <!-- 0.4 -->
      <g transform="translate(614.788437 266.038437) scale(0.1 -0.1)">
       <use xlink:href="#DejaVuSans-30"/>
       <use xlink:href="#DejaVuSans-2e" x="63.623047"/>
       <use xlink:href="#DejaVuSans-34" x="95.410156"/>
      </g>
     </g>
    </g>
    <g id="xtick_10">
     <g id="line2d_21">
      <g>
       <use xlink:href="#m77cf122e00" x="696.905" y="251.44" style="stroke: #000000; stroke-width: 0.8"/>
      </g>
     </g>
     <g id="text_21">
      <!-- 0.6 -->
      <g transform="translate(688.953437 266.038437) scale(0.1 -0.1)">
       <use xlink:href="#DejaVuSans-30"/>
       <use xlink:href="#DejaVuSans-2e" x="63.623047"/>
       <use xlink:href="#DejaVuSans-36" x="95.410156"/>
      </g>
     </g>
    </g>
    <g id="xtick_11">
     <g id="line2d_22">
      <g>
       <use xlink:href="#m77cf122e00" x="771.07" y="251.44" style="stroke: #000000; stroke-width: 0.8"/>
      </g>
     </g>
     <g id="text_22">
      <!-- 0.8 -->
      <g transform="translate(763.118437 266.038437) scale(0.1 -0.1)">
       <use xlink:href="#DejaVuSans-30"/>
       <use xlink:href="#DejaVuSans-2e" x="63.623047"/>
       <use xlink:href="#DejaVuSans-38" x="95.410156"/>
      </g>
     </g>
    </g>
    <g id="xtick_12">
     <g id="line2d_23">
      <g>
       <use xlink:href="#m77cf122e00" x="845.235" y="251.44" style="stroke: #000000; stroke-width: 0.8"/>
      </g>
     </g>
     <g id="text_23">
      <!-- 1.0 -->
      <g transform="translate(837.283437 266.038437) scale(0.1 -0.1)">
       <use xlink:href="#DejaVuSans-31"/>
       <use xlink:href="#DejaVuSans-2e" x="63.623047"/>
       <use xlink:href="#DejaVuSans-30" x="95.410156"/>
      </g>
     </g>
    </g>
    <g id="text_24">
     <!-- Recall -->
     <g transform="translate(644.905313 279.716563) scale(0.1 -0.1)">
      <defs>
       <path id="DejaVuSans-63" d="M 3122 3366 
L 3122 2828 
Q 2878 2963 2633 3030 
Q 2388 3097 2138 3097 
Q 1578 3097 1268 2742 
Q 959 2388 959 1747 
Q 959 1106 1268 751 
Q 1578 397 2138 397 
Q 2388 397 2633 464 
Q 2878 531 3122 666 
L 3122 134 
Q 2881 22 2623 -34 
Q 2366 -91 2075 -91 
Q 1284 -91 818 406 
Q 353 903 353 1747 
Q 353 2603 823 3093 
Q 1294 3584 2113 3584 
Q 2378 3584 2631 3529 
Q 2884 3475 3122 3366 
z
" transform="scale(0.015625)"/>
      </defs>
      <use xlink:href="#DejaVuSans-52"/>
      <use xlink:href="#DejaVuSans-65" x="64.982422"/>
      <use xlink:href="#DejaVuSans-63" x="126.505859"/>
      <use xlink:href="#DejaVuSans-61" x="181.486328"/>
      <use xlink:href="#DejaVuSans-6c" x="242.765625"/>
      <use xlink:href="#DejaVuSans-6c" x="270.548828"/>
     </g>
    </g>
   </g>
   <g id="matplotlib.axis_4">
    <g id="ytick_7">
     <g id="line2d_24">
      <g>
       <use xlink:href="#m85eb2ae67d" x="474.41" y="251.44" style="stroke: #000000; stroke-width: 0.8"/>
      </g>
     </g>
     <g id="text_25">
      <!-- 0.0 -->
      <g transform="translate(451.506875 255.239219) scale(0.1 -0.1)">
       <use xlink:href="#DejaVuSans-30"/>
       <use xlink:href="#DejaVuSans-2e" x="63.623047"/>
       <use xlink:href="#DejaVuSans-30" x="95.410156"/>
      </g>
     </g>
    </g>
    <g id="ytick_8">
     <g id="line2d_25">
      <g>
       <use xlink:href="#m85eb2ae67d" x="474.41" y="208.392381" style="stroke: #000000; stroke-width: 0.8"/>
      </g>
     </g>
     <g id="text_26">
      <!-- 0.2 -->
      <g transform="translate(451.506875 212.1916) scale(0.1 -0.1)">
       <use xlink:href="#DejaVuSans-30"/>
       <use xlink:href="#DejaVuSans-2e" x="63.623047"/>
       <use xlink:href="#DejaVuSans-32" x="95.410156"/>
      </g>
     </g>
    </g>
    <g id="ytick_9">
     <g id="line2d_26">
      <g>
       <use xlink:href="#m85eb2ae67d" x="474.41" y="165.344762" style="stroke: #000000; stroke-width: 0.8"/>
      </g>
     </g>
     <g id="text_27">
      <!-- 0.4 -->
      <g transform="translate(451.506875 169.143981) scale(0.1 -0.1)">
       <use xlink:href="#DejaVuSans-30"/>
       <use xlink:href="#DejaVuSans-2e" x="63.623047"/>
       <use xlink:href="#DejaVuSans-34" x="95.410156"/>
      </g>
     </g>
    </g>
    <g id="ytick_10">
     <g id="line2d_27">
      <g>
       <use xlink:href="#m85eb2ae67d" x="474.41" y="122.297143" style="stroke: #000000; stroke-width: 0.8"/>
      </g>
     </g>
     <g id="text_28">
      <!-- 0.6 -->
      <g transform="translate(451.506875 126.096362) scale(0.1 -0.1)">
       <use xlink:href="#DejaVuSans-30"/>
       <use xlink:href="#DejaVuSans-2e" x="63.623047"/>
       <use xlink:href="#DejaVuSans-36" x="95.410156"/>
      </g>
     </g>
    </g>
    <g id="ytick_11">
     <g id="line2d_28">
      <g>
       <use xlink:href="#m85eb2ae67d" x="474.41" y="79.249524" style="stroke: #000000; stroke-width: 0.8"/>
      </g>
     </g>
     <g id="text_29">
      <!-- 0.8 -->
      <g transform="translate(451.506875 83.048743) scale(0.1 -0.1)">
       <use xlink:href="#DejaVuSans-30"/>
       <use xlink:href="#DejaVuSans-2e" x="63.623047"/>
       <use xlink:href="#DejaVuSans-38" x="95.410156"/>
      </g>
     </g>
    </g>
    <g id="ytick_12">
     <g id="line2d_29">
      <g>
       <use xlink:href="#m85eb2ae67d" x="474.41" y="36.201905" style="stroke: #000000; stroke-width: 0.8"/>
      </g>
     </g>
     <g id="text_30">
      <!-- 1.0 -->
      <g transform="translate(451.506875 40.001124) scale(0.1 -0.1)">
       <use xlink:href="#DejaVuSans-31"/>
       <use xlink:href="#DejaVuSans-2e" x="63.623047"/>
       <use xlink:href="#DejaVuSans-30" x="95.410156"/>
      </g>
     </g>
    </g>
    <g id="text_31">
     <!-- Precision -->
     <g transform="translate(445.427188 160.747031) rotate(-90) scale(0.1 -0.1)">
      <use xlink:href="#DejaVuSans-50"/>
      <use xlink:href="#DejaVuSans-72" x="58.552734"/>
      <use xlink:href="#DejaVuSans-65" x="97.416016"/>
      <use xlink:href="#DejaVuSans-63" x="158.939453"/>
      <use xlink:href="#DejaVuSans-69" x="213.919922"/>
      <use xlink:href="#DejaVuSans-73" x="241.703125"/>
      <use xlink:href="#DejaVuSans-69" x="293.802734"/>
      <use xlink:href="#DejaVuSans-6f" x="321.585938"/>
      <use xlink:href="#DejaVuSans-6e" x="382.767578"/>
     </g>
    </g>
   </g>
   <g id="line2d_30">
    <path d="M 845.235 96.329146 
L 845.235 93.775881 
L 843.151713 94.01379 
L 843.151713 93.360569 
L 824.402135 95.577931 
L 824.402135 94.903203 
L 820.235562 95.415879 
L 820.235562 94.731562 
L 816.068989 95.249524 
L 816.068989 94.555344 
L 813.985702 94.81585 
L 813.985702 93.404822 
L 805.652556 94.454417 
L 805.652556 93.730981 
L 799.402697 94.537463 
L 799.402697 93.800832 
L 797.31941 94.072525 
L 797.31941 92.573787 
L 782.736404 94.517645 
L 782.736404 93.740802 
L 778.569831 94.31619 
L 778.569831 92.729081 
L 759.820253 95.420852 
L 753.570393 96.375996 
L 753.570393 95.537812 
L 747.320534 96.515877 
L 747.320534 94.794497 
L 738.987388 96.126147 
L 738.987388 94.34093 
L 734.820815 95.016966 
L 734.820815 91.292608 
L 730.654242 91.956351 
L 730.654242 90.989784 
L 726.487669 91.662027 
L 726.487669 89.677208 
L 722.321096 90.349853 
L 722.321096 89.330295 
L 718.154522 90.011429 
L 718.154522 87.914954 
L 711.904663 88.942365 
L 711.904663 86.761189 
L 705.654803 87.800078 
L 705.654803 85.527302 
L 703.571517 85.872234 
L 703.571517 83.523755 
L 695.238371 84.905415 
L 695.238371 83.680896 
L 693.155084 84.032593 
L 693.155084 82.783284 
L 680.655365 84.966786 
L 680.655365 82.324354 
L 676.488792 83.068264 
L 676.488792 81.699388 
L 674.405506 82.072319 
L 674.405506 80.672586 
L 670.238933 81.419992 
L 670.238933 78.513667 
L 663.989073 79.627135 
L 663.989073 78.106667 
L 661.905787 78.480816 
L 661.905787 76.922625 
L 649.406067 79.249524 
L 649.406067 77.593846 
L 645.239494 78.405453 
L 645.239494 76.69224 
L 638.989635 77.93174 
L 638.989635 76.142995 
L 632.739775 77.41771 
L 632.739775 75.546503 
L 628.573202 76.411219 
L 628.573202 74.466455 
L 624.406629 75.336104 
L 624.406629 73.311921 
L 622.323343 73.743433 
L 622.323343 71.652885 
L 618.15677 72.507126 
L 618.15677 70.325017 
L 616.073483 70.74629 
L 616.073483 68.487619 
L 611.90691 69.315458 
L 611.90691 66.950204 
L 601.490478 69.085503 
L 593.157331 71.019832 
L 588.990758 72.074921 
L 588.990758 66.469762 
L 580.657612 68.487619 
L 578.574326 69.034835 
L 578.574326 65.889918 
L 572.324466 67.509264 
L 566.074607 69.315458 
L 559.824747 71.342818 
L 553.574888 73.634617 
L 549.408315 75.336104 
L 549.408315 71.240664 
L 545.241742 72.949872 
L 541.075169 74.834383 
L 536.908596 76.922625 
L 532.742022 79.249524 
L 532.742022 74.185098 
L 528.575449 76.559048 
L 524.408876 79.249524 
L 524.408876 66.950204 
L 520.242303 69.315458 
L 516.07573 72.074921 
L 513.992444 73.634617 
L 511.909157 75.336104 
L 509.825871 77.199637 
L 507.742584 79.249524 
L 507.742584 70.186867 
L 505.659298 72.074921 
L 503.576011 74.185098 
L 501.492725 76.559048 
L 499.409438 79.249524 
L 497.326152 82.324354 
L 495.242865 85.872234 
L 493.159579 90.011429 
L 491.076292 94.903203 
L 488.993006 100.773333 
L 488.993006 84.032593 
L 486.909719 90.011429 
L 484.826433 97.698503 
L 482.743146 107.947937 
L 482.743146 79.249524 
L 480.65986 90.011429 
L 480.65986 36.201905 
L 474.41 36.201905 
L 474.41 36.201905 
" clip-path="url(#pb6e56ee364)" style="fill: none; stroke: #1f77b4; stroke-width: 1.5; stroke-linecap: square"/>
   </g>
   <g id="line2d_31">
    <path d="M 845.235 95.087799 
L 840.419091 95.648617 
L 835.603182 96.22022 
L 835.603182 94.713232 
L 830.787273 95.286872 
L 825.971364 95.871872 
L 825.971364 94.31619 
L 821.155455 94.903203 
L 816.339545 95.502196 
L 816.339545 93.89459 
L 811.523636 94.495556 
L 806.707727 95.109173 
L 806.707727 93.446079 
L 801.891818 94.061608 
L 797.075909 94.690518 
L 797.075909 92.967996 
L 792.26 93.59873 
L 792.26 91.825233 
L 792.26 90.011429 
L 787.444091 90.629929 
L 787.444091 88.760044 
L 787.444091 86.846162 
L 787.444091 84.886712 
L 782.628182 85.473276 
L 777.812273 86.074146 
L 772.996364 86.689853 
L 772.996364 84.630476 
L 768.180455 85.243496 
L 768.180455 83.112772 
L 763.364545 83.722004 
L 758.548636 84.347268 
L 753.732727 84.989206 
L 753.732727 82.739871 
L 748.916818 83.377378 
L 744.100909 84.032593 
L 739.285 84.706264 
L 734.469091 85.399184 
L 734.469091 82.992795 
L 734.469091 80.51563 
L 729.653182 81.177029 
L 724.837273 81.85847 
L 720.021364 82.560879 
L 715.205455 83.285238 
L 710.389545 81.332473 
L 705.573636 82.072319 
L 705.573636 79.249524 
L 705.573636 76.331041 
L 705.573636 73.311921 
L 700.757727 73.962974 
L 700.757727 70.793741 
L 695.941818 71.422684 
L 695.941818 68.08903 
L 691.125909 68.690674 
L 691.125909 65.176264 
L 686.31 65.744388 
L 681.494091 66.335238 
L 676.678182 66.950204 
L 671.862273 67.590794 
L 667.046364 68.258642 
L 662.230455 68.955528 
L 657.414545 69.683386 
L 652.598636 70.444329 
L 647.782727 71.240664 
L 642.966818 72.074921 
L 638.150909 72.949872 
L 638.150909 68.487619 
L 638.150909 63.796532 
L 633.335 64.522707 
L 628.519091 65.288134 
L 623.703182 66.096085 
L 618.887273 66.950204 
L 618.887273 61.524034 
L 614.071364 62.291371 
L 609.255455 63.106667 
L 604.439545 63.974562 
L 599.623636 64.900317 
L 599.623636 58.467915 
L 594.807727 59.263129 
L 589.991818 60.117249 
L 585.175909 61.03707 
L 580.36 62.030476 
L 575.544091 63.106667 
L 570.728182 64.276439 
L 565.912273 65.552554 
L 561.096364 66.950204 
L 556.280455 68.487619 
L 551.464545 70.186867 
L 546.648636 72.074921 
L 541.832727 74.185098 
L 537.016818 76.559048 
L 532.200909 79.249524 
L 532.200909 66.950204 
L 532.200909 52.758681 
L 527.385 54.138413 
L 522.569091 55.769004 
L 517.753182 57.725714 
L 512.937273 60.117249 
L 508.121364 63.106667 
L 503.305455 66.950204 
L 493.673636 79.249524 
L 488.857727 90.011429 
L 484.041818 107.947937 
L 479.225909 143.820952 
L 474.41 251.44 
L 474.41 36.201905 
" clip-path="url(#pb6e56ee364)" style="fill: none; stroke: #ff7f0e; stroke-width: 1.5; stroke-linecap: square"/>
   </g>
   <g id="patch_9">
    <path d="M 474.41 251.44 
L 474.41 25.44 
" style="fill: none; stroke: #000000; stroke-width: 0.8; stroke-linejoin: miter; stroke-linecap: square"/>
   </g>
   <g id="patch_10">
    <path d="M 845.235 251.44 
L 845.235 25.44 
" style="fill: none; stroke: #000000; stroke-width: 0.8; stroke-linejoin: miter; stroke-linecap: square"/>
   </g>
   <g id="patch_11">
    <path d="M 474.41 251.44 
L 845.235 251.44 
" style="fill: none; stroke: #000000; stroke-width: 0.8; stroke-linejoin: miter; stroke-linecap: square"/>
   </g>
   <g id="patch_12">
    <path d="M 474.41 25.44 
L 845.235 25.44 
" style="fill: none; stroke: #000000; stroke-width: 0.8; stroke-linejoin: miter; stroke-linecap: square"/>
   </g>
   <g id="text_32">
    <!-- Precision-Recall Curve -->
    <g transform="translate(593.38 19.44) scale(0.12 -0.12)">
     <defs>
      <path id="DejaVuSans-2d" d="M 313 2009 
L 1997 2009 
L 1997 1497 
L 313 1497 
L 313 2009 
z
" transform="scale(0.015625)"/>
     </defs>
     <use xlink:href="#DejaVuSans-50"/>
     <use xlink:href="#DejaVuSans-72" x="58.552734"/>
     <use xlink:href="#DejaVuSans-65" x="97.416016"/>
     <use xlink:href="#DejaVuSans-63" x="158.939453"/>
     <use xlink:href="#DejaVuSans-69" x="213.919922"/>
     <use xlink:href="#DejaVuSans-73" x="241.703125"/>
     <use xlink:href="#DejaVuSans-69" x="293.802734"/>
     <use xlink:href="#DejaVuSans-6f" x="321.585938"/>
     <use xlink:href="#DejaVuSans-6e" x="382.767578"/>
     <use xlink:href="#DejaVuSans-2d" x="446.146484"/>
     <use xlink:href="#DejaVuSans-52" x="482.230469"/>
     <use xlink:href="#DejaVuSans-65" x="547.212891"/>
     <use xlink:href="#DejaVuSans-63" x="608.736328"/>
     <use xlink:href="#DejaVuSans-61" x="663.716797"/>
     <use xlink:href="#DejaVuSans-6c" x="724.996094"/>
     <use xlink:href="#DejaVuSans-6c" x="752.779297"/>
     <use xlink:href="#DejaVuSans-20" x="780.5625"/>
     <use xlink:href="#DejaVuSans-43" x="812.349609"/>
     <use xlink:href="#DejaVuSans-75" x="882.173828"/>
     <use xlink:href="#DejaVuSans-72" x="945.552734"/>
     <use xlink:href="#DejaVuSans-76" x="986.666016"/>
     <use xlink:href="#DejaVuSans-65" x="1045.845703"/>
    </g>
   </g>
   <g id="legend_2">
    <g id="patch_13">
     <path d="M 481.41 246.44 
L 605.81 246.44 
Q 607.81 246.44 607.81 244.44 
L 607.81 216.08375 
Q 607.81 214.08375 605.81 214.08375 
L 481.41 214.08375 
Q 479.41 214.08375 479.41 216.08375 
L 479.41 244.44 
Q 479.41 246.44 481.41 246.44 
z
" style="fill: #ffffff; opacity: 0.8; stroke: #cccccc; stroke-linejoin: miter"/>
    </g>
    <g id="line2d_32">
     <path d="M 483.41 222.182187 
L 493.41 222.182187 
L 503.41 222.182187 
" style="fill: none; stroke: #1f77b4; stroke-width: 1.5; stroke-linecap: square"/>
    </g>
    <g id="text_33">
     <!-- train (AUC = 0.79) -->
     <g transform="translate(511.41 225.682187) scale(0.1 -0.1)">
      <defs>
       <path id="DejaVuSans-37" d="M 525 4666 
L 3525 4666 
L 3525 4397 
L 1831 0 
L 1172 0 
L 2766 4134 
L 525 4134 
L 525 4666 
z
" transform="scale(0.015625)"/>
       <path id="DejaVuSans-39" d="M 703 97 
L 703 672 
Q 941 559 1184 500 
Q 1428 441 1663 441 
Q 2288 441 2617 861 
Q 2947 1281 2994 2138 
Q 2813 1869 2534 1725 
Q 2256 1581 1919 1581 
Q 1219 1581 811 2004 
Q 403 2428 403 3163 
Q 403 3881 828 4315 
Q 1253 4750 1959 4750 
Q 2769 4750 3195 4129 
Q 3622 3509 3622 2328 
Q 3622 1225 3098 567 
Q 2575 -91 1691 -91 
Q 1453 -91 1209 -44 
Q 966 3 703 97 
z
M 1959 2075 
Q 2384 2075 2632 2365 
Q 2881 2656 2881 3163 
Q 2881 3666 2632 3958 
Q 2384 4250 1959 4250 
Q 1534 4250 1286 3958 
Q 1038 3666 1038 3163 
Q 1038 2656 1286 2365 
Q 1534 2075 1959 2075 
z
" transform="scale(0.015625)"/>
      </defs>
      <use xlink:href="#DejaVuSans-74"/>
      <use xlink:href="#DejaVuSans-72" x="39.208984"/>
      <use xlink:href="#DejaVuSans-61" x="80.322266"/>
      <use xlink:href="#DejaVuSans-69" x="141.601562"/>
      <use xlink:href="#DejaVuSans-6e" x="169.384766"/>
      <use xlink:href="#DejaVuSans-20" x="232.763672"/>
      <use xlink:href="#DejaVuSans-28" x="264.550781"/>
      <use xlink:href="#DejaVuSans-41" x="303.564453"/>
      <use xlink:href="#DejaVuSans-55" x="371.972656"/>
      <use xlink:href="#DejaVuSans-43" x="445.166016"/>
      <use xlink:href="#DejaVuSans-20" x="514.990234"/>
      <use xlink:href="#DejaVuSans-3d" x="546.777344"/>
      <use xlink:href="#DejaVuSans-20" x="630.566406"/>
      <use xlink:href="#DejaVuSans-30" x="662.353516"/>
      <use xlink:href="#DejaVuSans-2e" x="725.976562"/>
      <use xlink:href="#DejaVuSans-37" x="757.763672"/>
      <use xlink:href="#DejaVuSans-39" x="821.386719"/>
      <use xlink:href="#DejaVuSans-29" x="885.009766"/>
     </g>
    </g>
    <g id="line2d_33">
     <path d="M 483.41 236.860313 
L 493.41 236.860313 
L 503.41 236.860313 
" style="fill: none; stroke: #ff7f0e; stroke-width: 1.5; stroke-linecap: square"/>
    </g>
    <g id="text_34">
     <!-- test (AUC = 0.81) -->
     <g transform="translate(511.41 240.360313) scale(0.1 -0.1)">
      <use xlink:href="#DejaVuSans-74"/>
      <use xlink:href="#DejaVuSans-65" x="39.208984"/>
      <use xlink:href="#DejaVuSans-73" x="100.732422"/>
      <use xlink:href="#DejaVuSans-74" x="152.832031"/>
      <use xlink:href="#DejaVuSans-20" x="192.041016"/>
      <use xlink:href="#DejaVuSans-28" x="223.828125"/>
      <use xlink:href="#DejaVuSans-41" x="262.841797"/>
      <use xlink:href="#DejaVuSans-55" x="331.25"/>
      <use xlink:href="#DejaVuSans-43" x="404.443359"/>
      <use xlink:href="#DejaVuSans-20" x="474.267578"/>
      <use xlink:href="#DejaVuSans-3d" x="506.054688"/>
      <use xlink:href="#DejaVuSans-20" x="589.84375"/>
      <use xlink:href="#DejaVuSans-30" x="621.630859"/>
      <use xlink:href="#DejaVuSans-2e" x="685.253906"/>
      <use xlink:href="#DejaVuSans-38" x="717.041016"/>
      <use xlink:href="#DejaVuSans-31" x="780.664062"/>
      <use xlink:href="#DejaVuSans-29" x="844.287109"/>
     </g>
    </g>
   </g>
  </g>
  <g id="axes_3">
   <g id="patch_14">
    <path d="M 47.81 534.04 
L 418.635 534.04 
L 418.635 308.04 
L 47.81 308.04 
z
" style="fill: #ffffff"/>
   </g>
   <g id="matplotlib.axis_5">
    <g id="xtick_13">
     <g id="line2d_34">
      <g>
       <use xlink:href="#m77cf122e00" x="116.318919" y="534.04" style="stroke: #000000; stroke-width: 0.8"/>
      </g>
     </g>
     <g id="text_35">
      <!-- 0.5 -->
      <g transform="translate(108.367356 548.638438) scale(0.1 -0.1)">
       <use xlink:href="#DejaVuSans-30"/>
       <use xlink:href="#DejaVuSans-2e" x="63.623047"/>
       <use xlink:href="#DejaVuSans-35" x="95.410156"/>
      </g>
     </g>
    </g>
    <g id="xtick_14">
     <g id="line2d_35">
      <g>
       <use xlink:href="#m77cf122e00" x="194.93659" y="534.04" style="stroke: #000000; stroke-width: 0.8"/>
      </g>
     </g>
     <g id="text_36">
      <!-- 0.6 -->
      <g transform="translate(186.985028 548.638438) scale(0.1 -0.1)">
       <use xlink:href="#DejaVuSans-30"/>
       <use xlink:href="#DejaVuSans-2e" x="63.623047"/>
       <use xlink:href="#DejaVuSans-36" x="95.410156"/>
      </g>
     </g>
    </g>
    <g id="xtick_15">
     <g id="line2d_36">
      <g>
       <use xlink:href="#m77cf122e00" x="273.554262" y="534.04" style="stroke: #000000; stroke-width: 0.8"/>
      </g>
     </g>
     <g id="text_37">
      <!-- 0.7 -->
      <g transform="translate(265.6027 548.638438) scale(0.1 -0.1)">
       <use xlink:href="#DejaVuSans-30"/>
       <use xlink:href="#DejaVuSans-2e" x="63.623047"/>
       <use xlink:href="#DejaVuSans-37" x="95.410156"/>
      </g>
     </g>
    </g>
    <g id="xtick_16">
     <g id="line2d_37">
      <g>
       <use xlink:href="#m77cf122e00" x="352.171934" y="534.04" style="stroke: #000000; stroke-width: 0.8"/>
      </g>
     </g>
     <g id="text_38">
      <!-- 0.8 -->
      <g transform="translate(344.220371 548.638438) scale(0.1 -0.1)">
       <use xlink:href="#DejaVuSans-30"/>
       <use xlink:href="#DejaVuSans-2e" x="63.623047"/>
       <use xlink:href="#DejaVuSans-38" x="95.410156"/>
      </g>
     </g>
    </g>
    <g id="text_39">
     <!-- Predicted Probability -->
     <g transform="translate(181.734219 562.316563) scale(0.1 -0.1)">
      <defs>
       <path id="DejaVuSans-64" d="M 2906 2969 
L 2906 4863 
L 3481 4863 
L 3481 0 
L 2906 0 
L 2906 525 
Q 2725 213 2448 61 
Q 2172 -91 1784 -91 
Q 1150 -91 751 415 
Q 353 922 353 1747 
Q 353 2572 751 3078 
Q 1150 3584 1784 3584 
Q 2172 3584 2448 3432 
Q 2725 3281 2906 2969 
z
M 947 1747 
Q 947 1113 1208 752 
Q 1469 391 1925 391 
Q 2381 391 2643 752 
Q 2906 1113 2906 1747 
Q 2906 2381 2643 2742 
Q 2381 3103 1925 3103 
Q 1469 3103 1208 2742 
Q 947 2381 947 1747 
z
" transform="scale(0.015625)"/>
       <path id="DejaVuSans-62" d="M 3116 1747 
Q 3116 2381 2855 2742 
Q 2594 3103 2138 3103 
Q 1681 3103 1420 2742 
Q 1159 2381 1159 1747 
Q 1159 1113 1420 752 
Q 1681 391 2138 391 
Q 2594 391 2855 752 
Q 3116 1113 3116 1747 
z
M 1159 2969 
Q 1341 3281 1617 3432 
Q 1894 3584 2278 3584 
Q 2916 3584 3314 3078 
Q 3713 2572 3713 1747 
Q 3713 922 3314 415 
Q 2916 -91 2278 -91 
Q 1894 -91 1617 61 
Q 1341 213 1159 525 
L 1159 0 
L 581 0 
L 581 4863 
L 1159 4863 
L 1159 2969 
z
" transform="scale(0.015625)"/>
       <path id="DejaVuSans-79" d="M 2059 -325 
Q 1816 -950 1584 -1140 
Q 1353 -1331 966 -1331 
L 506 -1331 
L 506 -850 
L 844 -850 
Q 1081 -850 1212 -737 
Q 1344 -625 1503 -206 
L 1606 56 
L 191 3500 
L 800 3500 
L 1894 763 
L 2988 3500 
L 3597 3500 
L 2059 -325 
z
" transform="scale(0.015625)"/>
      </defs>
      <use xlink:href="#DejaVuSans-50"/>
      <use xlink:href="#DejaVuSans-72" x="58.552734"/>
      <use xlink:href="#DejaVuSans-65" x="97.416016"/>
      <use xlink:href="#DejaVuSans-64" x="158.939453"/>
      <use xlink:href="#DejaVuSans-69" x="222.416016"/>
      <use xlink:href="#DejaVuSans-63" x="250.199219"/>
      <use xlink:href="#DejaVuSans-74" x="305.179688"/>
      <use xlink:href="#DejaVuSans-65" x="344.388672"/>
      <use xlink:href="#DejaVuSans-64" x="405.912109"/>
      <use xlink:href="#DejaVuSans-20" x="469.388672"/>
      <use xlink:href="#DejaVuSans-50" x="501.175781"/>
      <use xlink:href="#DejaVuSans-72" x="559.728516"/>
      <use xlink:href="#DejaVuSans-6f" x="598.591797"/>
      <use xlink:href="#DejaVuSans-62" x="659.773438"/>
      <use xlink:href="#DejaVuSans-61" x="723.25"/>
      <use xlink:href="#DejaVuSans-62" x="784.529297"/>
      <use xlink:href="#DejaVuSans-69" x="848.005859"/>
      <use xlink:href="#DejaVuSans-6c" x="875.789062"/>
      <use xlink:href="#DejaVuSans-69" x="903.572266"/>
      <use xlink:href="#DejaVuSans-74" x="931.355469"/>
      <use xlink:href="#DejaVuSans-79" x="970.564453"/>
     </g>
    </g>
   </g>
   <g id="matplotlib.axis_6">
    <g id="ytick_13">
     <g id="line2d_38">
      <g>
       <use xlink:href="#m85eb2ae67d" x="47.81" y="534.04" style="stroke: #000000; stroke-width: 0.8"/>
      </g>
     </g>
     <g id="text_40">
      <!-- 0 -->
      <g transform="translate(34.4475 537.839219) scale(0.1 -0.1)">
       <use xlink:href="#DejaVuSans-30"/>
      </g>
     </g>
    </g>
    <g id="ytick_14">
     <g id="line2d_39">
      <g>
       <use xlink:href="#m85eb2ae67d" x="47.81" y="504.752093" style="stroke: #000000; stroke-width: 0.8"/>
      </g>
     </g>
     <g id="text_41">
      <!-- 2 -->
      <g transform="translate(34.4475 508.551311) scale(0.1 -0.1)">
       <use xlink:href="#DejaVuSans-32"/>
      </g>
     </g>
    </g>
    <g id="ytick_15">
     <g id="line2d_40">
      <g>
       <use xlink:href="#m85eb2ae67d" x="47.81" y="475.464185" style="stroke: #000000; stroke-width: 0.8"/>
      </g>
     </g>
     <g id="text_42">
      <!-- 4 -->
      <g transform="translate(34.4475 479.263404) scale(0.1 -0.1)">
       <use xlink:href="#DejaVuSans-34"/>
      </g>
     </g>
    </g>
    <g id="ytick_16">
     <g id="line2d_41">
      <g>
       <use xlink:href="#m85eb2ae67d" x="47.81" y="446.176278" style="stroke: #000000; stroke-width: 0.8"/>
      </g>
     </g>
     <g id="text_43">
      <!-- 6 -->
      <g transform="translate(34.4475 449.975496) scale(0.1 -0.1)">
       <use xlink:href="#DejaVuSans-36"/>
      </g>
     </g>
    </g>
    <g id="ytick_17">
     <g id="line2d_42">
      <g>
       <use xlink:href="#m85eb2ae67d" x="47.81" y="416.88837" style="stroke: #000000; stroke-width: 0.8"/>
      </g>
     </g>
     <g id="text_44">
      <!-- 8 -->
      <g transform="translate(34.4475 420.687589) scale(0.1 -0.1)">
       <use xlink:href="#DejaVuSans-38"/>
      </g>
     </g>
    </g>
    <g id="ytick_18">
     <g id="line2d_43">
      <g>
       <use xlink:href="#m85eb2ae67d" x="47.81" y="387.600463" style="stroke: #000000; stroke-width: 0.8"/>
      </g>
     </g>
     <g id="text_45">
      <!-- 10 -->
      <g transform="translate(28.085 391.399681) scale(0.1 -0.1)">
       <use xlink:href="#DejaVuSans-31"/>
       <use xlink:href="#DejaVuSans-30" x="63.623047"/>
      </g>
     </g>
    </g>
    <g id="ytick_19">
     <g id="line2d_44">
      <g>
       <use xlink:href="#m85eb2ae67d" x="47.81" y="358.312555" style="stroke: #000000; stroke-width: 0.8"/>
      </g>
     </g>
     <g id="text_46">
      <!-- 12 -->
      <g transform="translate(28.085 362.111774) scale(0.1 -0.1)">
       <use xlink:href="#DejaVuSans-31"/>
       <use xlink:href="#DejaVuSans-32" x="63.623047"/>
      </g>
     </g>
    </g>
    <g id="ytick_20">
     <g id="line2d_45">
      <g>
       <use xlink:href="#m85eb2ae67d" x="47.81" y="329.024648" style="stroke: #000000; stroke-width: 0.8"/>
      </g>
     </g>
     <g id="text_47">
      <!-- 14 -->
      <g transform="translate(28.085 332.823866) scale(0.1 -0.1)">
       <use xlink:href="#DejaVuSans-31"/>
       <use xlink:href="#DejaVuSans-34" x="63.623047"/>
      </g>
     </g>
    </g>
    <g id="text_48">
     <!-- Density -->
     <g transform="translate(22.005312 440.048594) rotate(-90) scale(0.1 -0.1)">
      <defs>
       <path id="DejaVuSans-44" d="M 1259 4147 
L 1259 519 
L 2022 519 
Q 2988 519 3436 956 
Q 3884 1394 3884 2338 
Q 3884 3275 3436 3711 
Q 2988 4147 2022 4147 
L 1259 4147 
z
M 628 4666 
L 1925 4666 
Q 3281 4666 3915 4102 
Q 4550 3538 4550 2338 
Q 4550 1131 3912 565 
Q 3275 0 1925 0 
L 628 0 
L 628 4666 
z
" transform="scale(0.015625)"/>
      </defs>
      <use xlink:href="#DejaVuSans-44"/>
      <use xlink:href="#DejaVuSans-65" x="77.001953"/>
      <use xlink:href="#DejaVuSans-6e" x="138.525391"/>
      <use xlink:href="#DejaVuSans-73" x="201.904297"/>
      <use xlink:href="#DejaVuSans-69" x="254.003906"/>
      <use xlink:href="#DejaVuSans-74" x="281.787109"/>
      <use xlink:href="#DejaVuSans-79" x="320.996094"/>
     </g>
    </g>
   </g>
   <g id="line2d_46">
    <path d="M 119.620823 534.013826 
L 128.452055 533.868014 
L 133.498474 533.607422 
L 137.283288 533.233464 
L 141.068102 532.618545 
L 143.591312 532.027773 
L 146.114521 531.257836 
L 148.63773 530.28138 
L 151.16094 529.077008 
L 153.684149 527.633651 
L 156.207358 525.955196 
L 158.730568 524.064694 
L 162.515382 520.936412 
L 168.823405 515.61177 
L 171.346615 513.743537 
L 173.869824 512.186981 
L 176.393033 511.034571 
L 177.654638 510.632317 
L 178.916243 510.354202 
L 180.177847 510.203708 
L 181.439452 510.182106 
L 182.701057 510.288458 
L 183.962661 510.519695 
L 186.485871 511.334723 
L 189.00908 512.566311 
L 191.532289 514.13272 
L 195.317104 516.904445 
L 204.148336 523.750854 
L 206.671546 525.475129 
L 209.194755 527.0062 
L 211.717964 528.317106 
L 214.241174 529.392641 
L 216.764383 530.227593 
L 219.287592 530.824854 
L 221.810802 531.193352 
L 224.334011 531.345772 
L 226.857221 531.296078 
L 229.38043 531.05695 
L 231.903639 530.637402 
L 234.426849 530.040889 
L 236.950058 529.264208 
L 239.473267 528.297317 
L 241.996477 527.123982 
L 244.519686 525.722815 
L 247.042895 524.068088 
L 249.566105 522.129636 
L 252.089314 519.871368 
L 254.612523 517.24835 
L 257.135733 514.202959 
L 259.658942 510.661144 
L 262.182152 506.530121 
L 264.705361 501.698772 
L 267.22857 496.041661 
L 269.75178 489.426948 
L 272.274989 481.727861 
L 274.798198 472.836918 
L 277.321408 462.68186 
L 279.844617 451.242266 
L 282.367826 438.565903 
L 284.891036 424.783812 
L 288.67585 402.562029 
L 294.983873 364.69839 
L 297.507083 350.84366 
L 300.030292 338.696269 
L 301.291897 333.474626 
L 302.553501 328.930528 
L 303.815106 325.140859 
L 305.076711 322.176078 
L 306.338315 320.098355 
L 307.59992 318.959773 
L 308.861525 318.800658 
L 310.123129 319.648098 
L 311.384734 321.514719 
L 312.646339 324.397784 
L 313.907943 328.278655 
L 315.169548 333.122677 
L 316.431153 338.879497 
L 317.692757 345.483852 
L 318.954362 352.856789 
L 321.477571 369.534451 
L 324.000781 388.078732 
L 331.570409 445.87415 
L 334.093618 463.182341 
L 336.616828 478.561905 
L 339.140037 491.742839 
L 340.401642 497.478634 
L 341.663246 502.650466 
L 342.924851 507.274194 
L 344.186456 511.373128 
L 345.44806 514.976506 
L 346.709665 518.117993 
L 347.97127 520.834249 
L 349.232874 523.163614 
L 350.494479 525.14493 
L 351.756084 526.816547 
L 353.017688 528.215493 
L 354.279293 529.376836 
L 355.540898 530.333207 
L 356.802503 531.114494 
L 359.325712 532.25672 
L 361.848921 532.984027 
L 364.372131 533.432678 
L 368.156945 533.789309 
L 370.680154 533.90607 
L 370.680154 533.90607 
" clip-path="url(#p573ec27510)" style="fill: none; stroke: #1f77b4; stroke-width: 1.5; stroke-linecap: square"/>
   </g>
   <g id="line2d_47">
    <path d="M 64.665682 533.954934 
L 74.526392 533.726257 
L 81.100199 533.371513 
L 86.030554 532.928882 
L 90.960909 532.283889 
L 95.891264 531.3996 
L 100.821619 530.261023 
L 105.751974 528.887616 
L 112.32578 526.803087 
L 122.18649 523.669616 
L 127.116845 522.372138 
L 132.0472 521.379359 
L 136.977555 520.716481 
L 141.907911 520.341393 
L 148.481717 520.111289 
L 156.698976 519.819574 
L 161.629331 519.451446 
L 166.559686 518.89298 
L 182.994202 516.783472 
L 186.281106 516.662694 
L 189.568009 516.748462 
L 192.854912 517.065477 
L 196.141816 517.620553 
L 199.428719 518.400903 
L 202.715622 519.374292 
L 207.645977 521.083415 
L 215.863236 524.014061 
L 219.150139 524.984221 
L 222.437043 525.718287 
L 225.723946 526.139638 
L 229.010849 526.17549 
L 230.654301 526.026974 
L 232.297753 525.756058 
L 233.941204 525.354178 
L 235.584656 524.812693 
L 237.228108 524.122795 
L 238.871559 523.275445 
L 240.515011 522.261303 
L 242.158463 521.070688 
L 243.801914 519.693565 
L 245.445366 518.119553 
L 247.088818 516.337986 
L 248.732269 514.338013 
L 250.375721 512.108747 
L 252.019173 509.639473 
L 253.662624 506.919913 
L 255.306076 503.94055 
L 256.949528 500.69301 
L 258.592979 497.170494 
L 260.236431 493.368259 
L 263.523334 484.919054 
L 266.810238 475.368534 
L 270.097141 464.806307 
L 273.384044 453.402722 
L 278.314399 435.313305 
L 283.244754 417.18483 
L 286.531658 405.85804 
L 289.818561 395.739932 
L 291.462013 391.294502 
L 293.105465 387.338621 
L 294.748916 383.927114 
L 296.392368 381.108834 
L 298.03582 378.925495 
L 299.679271 377.410652 
L 301.322723 376.588858 
L 302.966175 376.475039 
L 304.609626 377.074096 
L 306.253078 378.380764 
L 307.89653 380.379707 
L 309.539981 383.045877 
L 311.183433 386.345092 
L 312.826885 390.234837 
L 314.470336 394.665243 
L 316.113788 399.580228 
L 319.400691 410.61607 
L 322.687595 422.818292 
L 334.191756 467.230367 
L 337.47866 478.63194 
L 340.765563 488.927738 
L 344.052466 497.982485 
L 345.695918 502.026402 
L 347.33937 505.748097 
L 348.982821 509.152806 
L 350.626273 512.249233 
L 352.269725 515.048986 
L 353.913176 517.566017 
L 355.556628 519.816082 
L 357.20008 521.816236 
L 358.843532 523.584369 
L 360.486983 525.138789 
L 362.130435 526.497848 
L 363.773887 527.679636 
L 365.417338 528.701709 
L 367.06079 529.580885 
L 370.347693 530.973176 
L 373.634597 531.971107 
L 376.9215 532.671237 
L 380.208403 533.152049 
L 385.138758 533.592978 
L 391.712565 533.873127 
L 391.712565 533.873127 
" clip-path="url(#p573ec27510)" style="fill: none; stroke: #ff7f0e; stroke-width: 1.5; stroke-linecap: square"/>
   </g>
   <g id="line2d_48">
    <path d="M 112.16294 533.989362 
L 120.268876 533.826921 
L 125.672834 533.546152 
L 129.725802 533.166226 
L 133.77877 532.569401 
L 137.831739 531.682807 
L 140.533717 530.896068 
L 143.235696 529.933207 
L 145.937675 528.784432 
L 148.639654 527.449053 
L 152.692622 525.123456 
L 156.74559 522.499835 
L 164.851527 517.086351 
L 167.553506 515.498748 
L 170.255484 514.151643 
L 172.957463 513.117471 
L 175.659442 512.455315 
L 178.361421 512.205334 
L 181.0634 512.38466 
L 183.765378 512.985335 
L 186.467357 513.974614 
L 189.169336 515.297648 
L 191.871315 516.882203 
L 195.924283 519.565466 
L 202.67923 524.140241 
L 206.732198 526.543313 
L 209.434177 527.89582 
L 212.136156 529.016562 
L 214.838135 529.895177 
L 217.540113 530.534537 
L 220.242092 530.948262 
L 222.944071 531.157924 
L 225.64605 531.190068 
L 229.699018 530.967137 
L 233.751986 530.493222 
L 237.804955 529.815734 
L 241.857923 528.912543 
L 244.559902 528.129383 
L 247.26188 527.127593 
L 249.963859 525.814361 
L 252.665838 524.070513 
L 254.016827 522.993128 
L 255.367817 521.752609 
L 256.718806 520.327954 
L 258.069796 518.69733 
L 259.420785 516.838355 
L 260.771774 514.728421 
L 262.122764 512.34507 
L 263.473753 509.66641 
L 264.824743 506.67158 
L 266.175732 503.341263 
L 267.526721 499.658233 
L 268.877711 495.607944 
L 270.2287 491.179137 
L 272.930679 481.161125 
L 275.632658 469.603474 
L 278.334637 456.596297 
L 281.036615 442.334975 
L 285.089584 419.296198 
L 290.493541 387.954483 
L 293.19552 373.311663 
L 295.897499 360.187711 
L 297.248488 354.385575 
L 298.599478 349.183961 
L 299.950467 344.64623 
L 301.301456 340.828546 
L 302.652446 337.778768 
L 304.003435 335.53552 
L 305.354425 334.12745 
L 306.705414 333.572694 
L 308.056403 333.878563 
L 309.407393 335.04145 
L 310.758382 337.046964 
L 312.109372 339.870266 
L 313.460361 343.476617 
L 314.81135 347.822101 
L 316.16234 352.854515 
L 317.513329 358.514393 
L 320.215308 371.449264 
L 322.917287 386.050817 
L 326.970255 409.736965 
L 332.374213 441.561538 
L 335.076192 456.446184 
L 337.77817 470.144712 
L 340.480149 482.416383 
L 343.182128 493.128405 
L 345.884107 502.24621 
L 347.235096 506.219542 
L 348.586086 509.817691 
L 349.937075 513.056348 
L 351.288064 515.953858 
L 352.639054 518.530594 
L 353.990043 520.808353 
L 355.341033 522.809803 
L 356.692022 524.557983 
L 358.043011 526.075853 
L 359.394001 527.385916 
L 360.74499 528.509898 
L 362.09598 529.468494 
L 364.797958 530.966048 
L 367.499937 532.017512 
L 370.201916 532.7383 
L 372.903895 533.22067 
L 376.956863 533.647814 
L 381.009831 533.861708 
L 381.009831 533.861708 
" clip-path="url(#p573ec27510)" style="fill: none; stroke: #2ca02c; stroke-width: 1.5; stroke-linecap: square"/>
   </g>
   <g id="line2d_49">
    <path d="M 112.820288 533.898831 
L 120.080565 533.631504 
L 125.888787 533.166521 
L 130.244953 532.574295 
L 134.601119 531.688341 
L 137.50523 530.896157 
L 140.409341 529.919788 
L 143.313452 528.746294 
L 146.217563 527.372074 
L 149.121674 525.805805 
L 153.47784 523.151722 
L 166.546339 514.754144 
L 169.45045 513.296633 
L 172.354561 512.163686 
L 175.258671 511.418157 
L 178.162782 511.102575 
L 179.614838 511.112714 
L 182.518949 511.468001 
L 185.423059 512.249917 
L 188.32717 513.413578 
L 191.231281 514.894229 
L 194.135392 516.613071 
L 199.943614 520.420188 
L 205.751835 524.173182 
L 208.655946 525.859904 
L 211.560057 527.355367 
L 214.464168 528.626717 
L 217.368279 529.650651 
L 220.27239 530.409396 
L 223.1765 530.885945 
L 226.080611 531.05903 
L 228.984722 530.898349 
L 231.888833 530.360472 
L 233.340888 529.932166 
L 234.792944 529.385885 
L 236.244999 528.711439 
L 237.697055 527.897556 
L 239.14911 526.931941 
L 240.601166 525.801381 
L 242.053221 524.491881 
L 243.505276 522.988839 
L 244.957332 521.277271 
L 246.409387 519.34206 
L 247.861443 517.168254 
L 249.313498 514.741397 
L 250.765554 512.047888 
L 252.217609 509.075378 
L 253.669664 505.813173 
L 255.12172 502.252667 
L 258.025831 494.215343 
L 260.929942 484.952533 
L 263.834052 474.51312 
L 266.738163 463.016099 
L 269.642274 450.65706 
L 275.450496 424.519337 
L 279.806662 405.181853 
L 282.710773 393.251143 
L 285.614884 382.630852 
L 287.066939 377.950763 
L 288.518995 373.758618 
L 289.97105 370.09993 
L 291.423106 367.01484 
L 292.875161 364.537342 
L 294.327216 362.69462 
L 295.779272 361.50651 
L 297.231327 360.985096 
L 298.683383 361.134471 
L 300.135438 361.950649 
L 301.587494 363.421646 
L 303.039549 365.527725 
L 304.491604 368.241795 
L 305.94366 371.529957 
L 307.395715 375.352188 
L 308.847771 379.663125 
L 310.299826 384.412956 
L 313.203937 395.013538 
L 316.108048 406.703408 
L 321.91627 431.53774 
L 326.272436 449.834035 
L 329.176547 461.267214 
L 332.080658 471.831217 
L 334.984768 481.392349 
L 337.888879 489.887727 
L 340.79299 497.314322 
L 343.697101 503.715538 
L 346.601212 509.167132 
L 349.505323 513.764036 
L 352.409434 517.609149 
L 355.313544 520.804718 
L 358.217655 523.446452 
L 361.121766 525.62017 
L 364.025877 527.400489 
L 366.929988 528.851011 
L 369.834099 530.025401 
L 372.73821 530.968874 
L 375.64232 531.719718 
L 379.998487 532.555045 
L 384.354653 533.121296 
L 390.162875 533.582745 
L 397.423152 533.866946 
L 401.779318 533.948643 
L 401.779318 533.948643 
" clip-path="url(#p573ec27510)" style="fill: none; stroke: #d62728; stroke-width: 1.5; stroke-linecap: square"/>
   </g>
   <g id="patch_15">
    <path d="M 47.81 534.04 
L 47.81 308.04 
" style="fill: none; stroke: #000000; stroke-width: 0.8; stroke-linejoin: miter; stroke-linecap: square"/>
   </g>
   <g id="patch_16">
    <path d="M 418.635 534.04 
L 418.635 308.04 
" style="fill: none; stroke: #000000; stroke-width: 0.8; stroke-linejoin: miter; stroke-linecap: square"/>
   </g>
   <g id="patch_17">
    <path d="M 47.81 534.04 
L 418.635 534.04 
" style="fill: none; stroke: #000000; stroke-width: 0.8; stroke-linejoin: miter; stroke-linecap: square"/>
   </g>
   <g id="patch_18">
    <path d="M 47.81 308.04 
L 418.635 308.04 
" style="fill: none; stroke: #000000; stroke-width: 0.8; stroke-linejoin: miter; stroke-linecap: square"/>
   </g>
   <g id="text_49">
    <!-- Probability Distribution -->
    <g transform="translate(164.598437 302.04) scale(0.12 -0.12)">
     <use xlink:href="#DejaVuSans-50"/>
     <use xlink:href="#DejaVuSans-72" x="58.552734"/>
     <use xlink:href="#DejaVuSans-6f" x="97.416016"/>
     <use xlink:href="#DejaVuSans-62" x="158.597656"/>
     <use xlink:href="#DejaVuSans-61" x="222.074219"/>
     <use xlink:href="#DejaVuSans-62" x="283.353516"/>
     <use xlink:href="#DejaVuSans-69" x="346.830078"/>
     <use xlink:href="#DejaVuSans-6c" x="374.613281"/>
     <use xlink:href="#DejaVuSans-69" x="402.396484"/>
     <use xlink:href="#DejaVuSans-74" x="430.179688"/>
     <use xlink:href="#DejaVuSans-79" x="469.388672"/>
     <use xlink:href="#DejaVuSans-20" x="528.568359"/>
     <use xlink:href="#DejaVuSans-44" x="560.355469"/>
     <use xlink:href="#DejaVuSans-69" x="637.357422"/>
     <use xlink:href="#DejaVuSans-73" x="665.140625"/>
     <use xlink:href="#DejaVuSans-74" x="717.240234"/>
     <use xlink:href="#DejaVuSans-72" x="756.449219"/>
     <use xlink:href="#DejaVuSans-69" x="797.5625"/>
     <use xlink:href="#DejaVuSans-62" x="825.345703"/>
     <use xlink:href="#DejaVuSans-75" x="888.822266"/>
     <use xlink:href="#DejaVuSans-74" x="952.201172"/>
     <use xlink:href="#DejaVuSans-69" x="991.410156"/>
     <use xlink:href="#DejaVuSans-6f" x="1019.193359"/>
     <use xlink:href="#DejaVuSans-6e" x="1080.375"/>
    </g>
   </g>
   <g id="legend_3">
    <g id="patch_19">
     <path d="M 54.81 374.7525 
L 152.775625 374.7525 
Q 154.775625 374.7525 154.775625 372.7525 
L 154.775625 315.04 
Q 154.775625 313.04 152.775625 313.04 
L 54.81 313.04 
Q 52.81 313.04 52.81 315.04 
L 52.81 372.7525 
Q 52.81 374.7525 54.81 374.7525 
z
" style="fill: #ffffff; opacity: 0.8; stroke: #cccccc; stroke-linejoin: miter"/>
    </g>
    <g id="line2d_50">
     <path d="M 56.81 321.138438 
L 66.81 321.138438 
L 76.81 321.138438 
" style="fill: none; stroke: #1f77b4; stroke-width: 1.5; stroke-linecap: square"/>
    </g>
    <g id="text_50">
     <!-- train active -->
     <g transform="translate(84.81 324.638438) scale(0.1 -0.1)">
      <use xlink:href="#DejaVuSans-74"/>
      <use xlink:href="#DejaVuSans-72" x="39.208984"/>
      <use xlink:href="#DejaVuSans-61" x="80.322266"/>
      <use xlink:href="#DejaVuSans-69" x="141.601562"/>
      <use xlink:href="#DejaVuSans-6e" x="169.384766"/>
      <use xlink:href="#DejaVuSans-20" x="232.763672"/>
      <use xlink:href="#DejaVuSans-61" x="264.550781"/>
      <use xlink:href="#DejaVuSans-63" x="325.830078"/>
      <use xlink:href="#DejaVuSans-74" x="380.810547"/>
      <use xlink:href="#DejaVuSans-69" x="420.019531"/>
      <use xlink:href="#DejaVuSans-76" x="447.802734"/>
      <use xlink:href="#DejaVuSans-65" x="506.982422"/>
     </g>
    </g>
    <g id="line2d_51">
     <path d="M 56.81 335.816563 
L 66.81 335.816563 
L 76.81 335.816563 
" style="fill: none; stroke: #ff7f0e; stroke-width: 1.5; stroke-linecap: square"/>
    </g>
    <g id="text_51">
     <!-- train inactive -->
     <g transform="translate(84.81 339.316563) scale(0.1 -0.1)">
      <use xlink:href="#DejaVuSans-74"/>
      <use xlink:href="#DejaVuSans-72" x="39.208984"/>
      <use xlink:href="#DejaVuSans-61" x="80.322266"/>
      <use xlink:href="#DejaVuSans-69" x="141.601562"/>
      <use xlink:href="#DejaVuSans-6e" x="169.384766"/>
      <use xlink:href="#DejaVuSans-20" x="232.763672"/>
      <use xlink:href="#DejaVuSans-69" x="264.550781"/>
      <use xlink:href="#DejaVuSans-6e" x="292.333984"/>
      <use xlink:href="#DejaVuSans-61" x="355.712891"/>
      <use xlink:href="#DejaVuSans-63" x="416.992188"/>
      <use xlink:href="#DejaVuSans-74" x="471.972656"/>
      <use xlink:href="#DejaVuSans-69" x="511.181641"/>
      <use xlink:href="#DejaVuSans-76" x="538.964844"/>
      <use xlink:href="#DejaVuSans-65" x="598.144531"/>
     </g>
    </g>
    <g id="line2d_52">
     <path d="M 56.81 350.494687 
L 66.81 350.494687 
L 76.81 350.494687 
" style="fill: none; stroke: #2ca02c; stroke-width: 1.5; stroke-linecap: square"/>
    </g>
    <g id="text_52">
     <!-- test active -->
     <g transform="translate(84.81 353.994687) scale(0.1 -0.1)">
      <use xlink:href="#DejaVuSans-74"/>
      <use xlink:href="#DejaVuSans-65" x="39.208984"/>
      <use xlink:href="#DejaVuSans-73" x="100.732422"/>
      <use xlink:href="#DejaVuSans-74" x="152.832031"/>
      <use xlink:href="#DejaVuSans-20" x="192.041016"/>
      <use xlink:href="#DejaVuSans-61" x="223.828125"/>
      <use xlink:href="#DejaVuSans-63" x="285.107422"/>
      <use xlink:href="#DejaVuSans-74" x="340.087891"/>
      <use xlink:href="#DejaVuSans-69" x="379.296875"/>
      <use xlink:href="#DejaVuSans-76" x="407.080078"/>
      <use xlink:href="#DejaVuSans-65" x="466.259766"/>
     </g>
    </g>
    <g id="line2d_53">
     <path d="M 56.81 365.172813 
L 66.81 365.172813 
L 76.81 365.172813 
" style="fill: none; stroke: #d62728; stroke-width: 1.5; stroke-linecap: square"/>
    </g>
    <g id="text_53">
     <!-- test inactive -->
     <g transform="translate(84.81 368.672813) scale(0.1 -0.1)">
      <use xlink:href="#DejaVuSans-74"/>
      <use xlink:href="#DejaVuSans-65" x="39.208984"/>
      <use xlink:href="#DejaVuSans-73" x="100.732422"/>
      <use xlink:href="#DejaVuSans-74" x="152.832031"/>
      <use xlink:href="#DejaVuSans-20" x="192.041016"/>
      <use xlink:href="#DejaVuSans-69" x="223.828125"/>
      <use xlink:href="#DejaVuSans-6e" x="251.611328"/>
      <use xlink:href="#DejaVuSans-61" x="314.990234"/>
      <use xlink:href="#DejaVuSans-63" x="376.269531"/>
      <use xlink:href="#DejaVuSans-74" x="431.25"/>
      <use xlink:href="#DejaVuSans-69" x="470.458984"/>
      <use xlink:href="#DejaVuSans-76" x="498.242188"/>
      <use xlink:href="#DejaVuSans-65" x="557.421875"/>
     </g>
    </g>
   </g>
  </g>
  <g id="axes_4">
   <g id="table_1">
    <g id="patch_20">
     <path d="M 474.41 421.04 
L 548.575 421.04 
L 548.575 407.587619 
L 474.41 407.587619 
z
" style="fill: #ffffff; stroke: #000000; stroke-linejoin: miter"/>
    </g>
    <g id="text_54">
     <!-- Accuracy -->
     <g transform="translate(488.664375 417.073185) scale(0.1 -0.1)">
      <use xlink:href="#DejaVuSans-41"/>
      <use xlink:href="#DejaVuSans-63" x="66.658203"/>
      <use xlink:href="#DejaVuSans-63" x="121.638672"/>
      <use xlink:href="#DejaVuSans-75" x="176.619141"/>
      <use xlink:href="#DejaVuSans-72" x="239.998047"/>
      <use xlink:href="#DejaVuSans-61" x="281.111328"/>
      <use xlink:href="#DejaVuSans-63" x="342.390625"/>
      <use xlink:href="#DejaVuSans-79" x="397.371094"/>
     </g>
    </g>
    <g id="patch_21">
     <path d="M 548.575 421.04 
L 622.74 421.04 
L 622.74 407.587619 
L 548.575 407.587619 
z
" style="fill: #ffffff; stroke: #000000; stroke-linejoin: miter"/>
    </g>
    <g id="text_55">
     <!-- Precision -->
     <g transform="translate(563.350469 417.073185) scale(0.1 -0.1)">
      <use xlink:href="#DejaVuSans-50"/>
      <use xlink:href="#DejaVuSans-72" x="58.552734"/>
      <use xlink:href="#DejaVuSans-65" x="97.416016"/>
      <use xlink:href="#DejaVuSans-63" x="158.939453"/>
      <use xlink:href="#DejaVuSans-69" x="213.919922"/>
      <use xlink:href="#DejaVuSans-73" x="241.703125"/>
      <use xlink:href="#DejaVuSans-69" x="293.802734"/>
      <use xlink:href="#DejaVuSans-6f" x="321.585938"/>
      <use xlink:href="#DejaVuSans-6e" x="382.767578"/>
     </g>
    </g>
    <g id="patch_22">
     <path d="M 622.74 421.04 
L 696.905 421.04 
L 696.905 407.587619 
L 622.74 407.587619 
z
" style="fill: #ffffff; stroke: #000000; stroke-linejoin: miter"/>
    </g>
    <g id="text_56">
     <!-- Recall -->
     <g transform="translate(644.905313 417.073185) scale(0.1 -0.1)">
      <use xlink:href="#DejaVuSans-52"/>
      <use xlink:href="#DejaVuSans-65" x="64.982422"/>
      <use xlink:href="#DejaVuSans-63" x="126.505859"/>
      <use xlink:href="#DejaVuSans-61" x="181.486328"/>
      <use xlink:href="#DejaVuSans-6c" x="242.765625"/>
      <use xlink:href="#DejaVuSans-6c" x="270.548828"/>
     </g>
    </g>
    <g id="patch_23">
     <path d="M 696.905 421.04 
L 771.07 421.04 
L 771.07 407.587619 
L 696.905 407.587619 
z
" style="fill: #ffffff; stroke: #000000; stroke-linejoin: miter"/>
    </g>
    <g id="text_57">
     <!-- F1 -->
     <g transform="translate(727.930469 417.073185) scale(0.1 -0.1)">
      <use xlink:href="#DejaVuSans-46"/>
      <use xlink:href="#DejaVuSans-31" x="57.519531"/>
     </g>
    </g>
    <g id="patch_24">
     <path d="M 771.07 421.04 
L 845.235 421.04 
L 845.235 407.587619 
L 771.07 407.587619 
z
" style="fill: #ffffff; stroke: #000000; stroke-linejoin: miter"/>
    </g>
    <g id="text_58">
     <!-- ROC AUC -->
     <g transform="translate(785.090781 417.073185) scale(0.1 -0.1)">
      <use xlink:href="#DejaVuSans-52"/>
      <use xlink:href="#DejaVuSans-4f" x="69.482422"/>
      <use xlink:href="#DejaVuSans-43" x="148.193359"/>
      <use xlink:href="#DejaVuSans-20" x="218.017578"/>
      <use xlink:href="#DejaVuSans-41" x="249.804688"/>
      <use xlink:href="#DejaVuSans-55" x="318.212891"/>
      <use xlink:href="#DejaVuSans-43" x="391.40625"/>
     </g>
    </g>
    <g id="patch_25">
     <path d="M 450.78125 434.492381 
L 474.41 434.492381 
L 474.41 421.04 
L 450.78125 421.04 
z
" style="fill: #ffffff; stroke: #000000; stroke-linejoin: miter"/>
    </g>
    <g id="text_59">
     <!-- Test -->
     <g transform="translate(453.144125 430.525565) scale(0.1 -0.1)">
      <use xlink:href="#DejaVuSans-54"/>
      <use xlink:href="#DejaVuSans-65" x="44.083984"/>
      <use xlink:href="#DejaVuSans-73" x="105.607422"/>
      <use xlink:href="#DejaVuSans-74" x="157.707031"/>
     </g>
    </g>
    <g id="patch_26">
     <path d="M 474.41 434.492381 
L 548.575 434.492381 
L 548.575 421.04 
L 474.41 421.04 
z
" style="fill: #ffffff; stroke: #000000; stroke-linejoin: miter"/>
    </g>
    <g id="text_60">
     <!-- 0.73 -->
     <g transform="translate(518.892875 430.525565) scale(0.1 -0.1)">
      <defs>
       <path id="DejaVuSans-33" d="M 2597 2516 
Q 3050 2419 3304 2112 
Q 3559 1806 3559 1356 
Q 3559 666 3084 287 
Q 2609 -91 1734 -91 
Q 1441 -91 1130 -33 
Q 819 25 488 141 
L 488 750 
Q 750 597 1062 519 
Q 1375 441 1716 441 
Q 2309 441 2620 675 
Q 2931 909 2931 1356 
Q 2931 1769 2642 2001 
Q 2353 2234 1838 2234 
L 1294 2234 
L 1294 2753 
L 1863 2753 
Q 2328 2753 2575 2939 
Q 2822 3125 2822 3475 
Q 2822 3834 2567 4026 
Q 2313 4219 1838 4219 
Q 1578 4219 1281 4162 
Q 984 4106 628 3988 
L 628 4550 
Q 988 4650 1302 4700 
Q 1616 4750 1894 4750 
Q 2613 4750 3031 4423 
Q 3450 4097 3450 3541 
Q 3450 3153 3228 2886 
Q 3006 2619 2597 2516 
z
" transform="scale(0.015625)"/>
      </defs>
      <use xlink:href="#DejaVuSans-30"/>
      <use xlink:href="#DejaVuSans-2e" x="63.623047"/>
      <use xlink:href="#DejaVuSans-37" x="95.410156"/>
      <use xlink:href="#DejaVuSans-33" x="159.033203"/>
     </g>
    </g>
    <g id="patch_27">
     <path d="M 548.575 434.492381 
L 622.74 434.492381 
L 622.74 421.04 
L 548.575 421.04 
z
" style="fill: #ffffff; stroke: #000000; stroke-linejoin: miter"/>
    </g>
    <g id="text_61">
     <!-- 0.73 -->
     <g transform="translate(593.057875 430.525565) scale(0.1 -0.1)">
      <use xlink:href="#DejaVuSans-30"/>
      <use xlink:href="#DejaVuSans-2e" x="63.623047"/>
      <use xlink:href="#DejaVuSans-37" x="95.410156"/>
      <use xlink:href="#DejaVuSans-33" x="159.033203"/>
     </g>
    </g>
    <g id="patch_28">
     <path d="M 622.74 434.492381 
L 696.905 434.492381 
L 696.905 421.04 
L 622.74 421.04 
z
" style="fill: #ffffff; stroke: #000000; stroke-linejoin: miter"/>
    </g>
    <g id="text_62">
     <!-- 1.00 -->
     <g transform="translate(667.222875 430.525565) scale(0.1 -0.1)">
      <use xlink:href="#DejaVuSans-31"/>
      <use xlink:href="#DejaVuSans-2e" x="63.623047"/>
      <use xlink:href="#DejaVuSans-30" x="95.410156"/>
      <use xlink:href="#DejaVuSans-30" x="159.033203"/>
     </g>
    </g>
    <g id="patch_29">
     <path d="M 696.905 434.492381 
L 771.07 434.492381 
L 771.07 421.04 
L 696.905 421.04 
z
" style="fill: #ffffff; stroke: #000000; stroke-linejoin: miter"/>
    </g>
    <g id="text_63">
     <!-- 0.84 -->
     <g transform="translate(741.387875 430.525565) scale(0.1 -0.1)">
      <use xlink:href="#DejaVuSans-30"/>
      <use xlink:href="#DejaVuSans-2e" x="63.623047"/>
      <use xlink:href="#DejaVuSans-38" x="95.410156"/>
      <use xlink:href="#DejaVuSans-34" x="159.033203"/>
     </g>
    </g>
    <g id="patch_30">
     <path d="M 771.07 434.492381 
L 845.235 434.492381 
L 845.235 421.04 
L 771.07 421.04 
z
" style="fill: #ffffff; stroke: #000000; stroke-linejoin: miter"/>
    </g>
    <g id="text_64">
     <!-- 0.35 -->
     <g transform="translate(815.552875 430.525565) scale(0.1 -0.1)">
      <use xlink:href="#DejaVuSans-30"/>
      <use xlink:href="#DejaVuSans-2e" x="63.623047"/>
      <use xlink:href="#DejaVuSans-33" x="95.410156"/>
      <use xlink:href="#DejaVuSans-35" x="159.033203"/>
     </g>
    </g>
   </g>
  </g>
 </g>
 <defs>
  <clipPath id="p0290e68ed0">
   <rect x="47.81" y="25.44" width="370.825" height="226"/>
  </clipPath>
  <clipPath id="pb6e56ee364">
   <rect x="474.41" y="25.44" width="370.825" height="226"/>
  </clipPath>
  <clipPath id="p573ec27510">
   <rect x="47.81" y="308.04" width="370.825" height="226"/>
  </clipPath>
 </defs>
</svg>
