<?xml version="1.0" encoding="utf-8" standalone="no"?>
<!DOCTYPE svg PUBLIC "-//W3C//DTD SVG 1.1//EN"
  "http://www.w3.org/Graphics/SVG/1.1/DTD/svg11.dtd">
<svg xmlns:xlink="http://www.w3.org/1999/xlink" width="864pt" height="576pt" viewBox="0 0 864 576" xmlns="http://www.w3.org/2000/svg" version="1.1">
 <metadata>
  <rdf:RDF xmlns:dc="http://purl.org/dc/elements/1.1/" xmlns:cc="http://creativecommons.org/ns#" xmlns:rdf="http://www.w3.org/1999/02/22-rdf-syntax-ns#">
   <cc:Work>
    <dc:type rdf:resource="http://purl.org/dc/dcmitype/StillImage"/>
    <dc:date>2025-05-01T09:40:09.695593</dc:date>
    <dc:format>image/svg+xml</dc:format>
    <dc:creator>
     <cc:Agent>
      <dc:title>Matplotlib v3.9.2, https://matplotlib.org/</dc:title>
     </cc:Agent>
    </dc:creator>
   </cc:Work>
  </rdf:RDF>
 </metadata>
 <defs>
  <style type="text/css">*{stroke-linejoin: round; stroke-linecap: butt}</style>
 </defs>
 <g id="figure_1">
  <g id="patch_1">
   <path d="M 0 576 
L 864 576 
L 864 0 
L 0 0 
z
" style="fill: #ffffff"/>
  </g>
  <g id="axes_1">
   <g id="patch_2">
    <path d="M 47.81 251.44 
L 418.635 251.44 
L 418.635 25.44 
L 47.81 25.44 
z
" style="fill: #ffffff"/>
   </g>
   <g id="matplotlib.axis_1">
    <g id="xtick_1">
     <g id="line2d_1">
      <defs>
       <path id="m74f332229a" d="M 0 0 
L 0 3.5 
" style="stroke: #000000; stroke-width: 0.8"/>
      </defs>
      <g>
       <use xlink:href="#m74f332229a" x="47.81" y="251.44" style="stroke: #000000; stroke-width: 0.8"/>
      </g>
     </g>
     <g id="text_1">
      <!-- 0.0 -->
      <g transform="translate(39.858438 266.038437) scale(0.1 -0.1)">
       <defs>
        <path id="DejaVuSans-30" d="M 2034 4250 
Q 1547 4250 1301 3770 
Q 1056 3291 1056 2328 
Q 1056 1369 1301 889 
Q 1547 409 2034 409 
Q 2525 409 2770 889 
Q 3016 1369 3016 2328 
Q 3016 3291 2770 3770 
Q 2525 4250 2034 4250 
z
M 2034 4750 
Q 2819 4750 3233 4129 
Q 3647 3509 3647 2328 
Q 3647 1150 3233 529 
Q 2819 -91 2034 -91 
Q 1250 -91 836 529 
Q 422 1150 422 2328 
Q 422 3509 836 4129 
Q 1250 4750 2034 4750 
z
" transform="scale(0.015625)"/>
        <path id="DejaVuSans-2e" d="M 684 794 
L 1344 794 
L 1344 0 
L 684 0 
L 684 794 
z
" transform="scale(0.015625)"/>
       </defs>
       <use xlink:href="#DejaVuSans-30"/>
       <use xlink:href="#DejaVuSans-2e" x="63.623047"/>
       <use xlink:href="#DejaVuSans-30" x="95.410156"/>
      </g>
     </g>
    </g>
    <g id="xtick_2">
     <g id="line2d_2">
      <g>
       <use xlink:href="#m74f332229a" x="121.975" y="251.44" style="stroke: #000000; stroke-width: 0.8"/>
      </g>
     </g>
     <g id="text_2">
      <!-- 0.2 -->
      <g transform="translate(114.023438 266.038437) scale(0.1 -0.1)">
       <defs>
        <path id="DejaVuSans-32" d="M 1228 531 
L 3431 531 
L 3431 0 
L 469 0 
L 469 531 
Q 828 903 1448 1529 
Q 2069 2156 2228 2338 
Q 2531 2678 2651 2914 
Q 2772 3150 2772 3378 
Q 2772 3750 2511 3984 
Q 2250 4219 1831 4219 
Q 1534 4219 1204 4116 
Q 875 4013 500 3803 
L 500 4441 
Q 881 4594 1212 4672 
Q 1544 4750 1819 4750 
Q 2544 4750 2975 4387 
Q 3406 4025 3406 3419 
Q 3406 3131 3298 2873 
Q 3191 2616 2906 2266 
Q 2828 2175 2409 1742 
Q 1991 1309 1228 531 
z
" transform="scale(0.015625)"/>
       </defs>
       <use xlink:href="#DejaVuSans-30"/>
       <use xlink:href="#DejaVuSans-2e" x="63.623047"/>
       <use xlink:href="#DejaVuSans-32" x="95.410156"/>
      </g>
     </g>
    </g>
    <g id="xtick_3">
     <g id="line2d_3">
      <g>
       <use xlink:href="#m74f332229a" x="196.14" y="251.44" style="stroke: #000000; stroke-width: 0.8"/>
      </g>
     </g>
     <g id="text_3">
      <!-- 0.4 -->
      <g transform="translate(188.188438 266.038437) scale(0.1 -0.1)">
       <defs>
        <path id="DejaVuSans-34" d="M 2419 4116 
L 825 1625 
L 2419 1625 
L 2419 4116 
z
M 2253 4666 
L 3047 4666 
L 3047 1625 
L 3713 1625 
L 3713 1100 
L 3047 1100 
L 3047 0 
L 2419 0 
L 2419 1100 
L 313 1100 
L 313 1709 
L 2253 4666 
z
" transform="scale(0.015625)"/>
       </defs>
       <use xlink:href="#DejaVuSans-30"/>
       <use xlink:href="#DejaVuSans-2e" x="63.623047"/>
       <use xlink:href="#DejaVuSans-34" x="95.410156"/>
      </g>
     </g>
    </g>
    <g id="xtick_4">
     <g id="line2d_4">
      <g>
       <use xlink:href="#m74f332229a" x="270.305" y="251.44" style="stroke: #000000; stroke-width: 0.8"/>
      </g>
     </g>
     <g id="text_4">
      <!-- 0.6 -->
      <g transform="translate(262.353438 266.038437) scale(0.1 -0.1)">
       <defs>
        <path id="DejaVuSans-36" d="M 2113 2584 
Q 1688 2584 1439 2293 
Q 1191 2003 1191 1497 
Q 1191 994 1439 701 
Q 1688 409 2113 409 
Q 2538 409 2786 701 
Q 3034 994 3034 1497 
Q 3034 2003 2786 2293 
Q 2538 2584 2113 2584 
z
M 3366 4563 
L 3366 3988 
Q 3128 4100 2886 4159 
Q 2644 4219 2406 4219 
Q 1781 4219 1451 3797 
Q 1122 3375 1075 2522 
Q 1259 2794 1537 2939 
Q 1816 3084 2150 3084 
Q 2853 3084 3261 2657 
Q 3669 2231 3669 1497 
Q 3669 778 3244 343 
Q 2819 -91 2113 -91 
Q 1303 -91 875 529 
Q 447 1150 447 2328 
Q 447 3434 972 4092 
Q 1497 4750 2381 4750 
Q 2619 4750 2861 4703 
Q 3103 4656 3366 4563 
z
" transform="scale(0.015625)"/>
       </defs>
       <use xlink:href="#DejaVuSans-30"/>
       <use xlink:href="#DejaVuSans-2e" x="63.623047"/>
       <use xlink:href="#DejaVuSans-36" x="95.410156"/>
      </g>
     </g>
    </g>
    <g id="xtick_5">
     <g id="line2d_5">
      <g>
       <use xlink:href="#m74f332229a" x="344.47" y="251.44" style="stroke: #000000; stroke-width: 0.8"/>
      </g>
     </g>
     <g id="text_5">
      <!-- 0.8 -->
      <g transform="translate(336.518438 266.038437) scale(0.1 -0.1)">
       <defs>
        <path id="DejaVuSans-38" d="M 2034 2216 
Q 1584 2216 1326 1975 
Q 1069 1734 1069 1313 
Q 1069 891 1326 650 
Q 1584 409 2034 409 
Q 2484 409 2743 651 
Q 3003 894 3003 1313 
Q 3003 1734 2745 1975 
Q 2488 2216 2034 2216 
z
M 1403 2484 
Q 997 2584 770 2862 
Q 544 3141 544 3541 
Q 544 4100 942 4425 
Q 1341 4750 2034 4750 
Q 2731 4750 3128 4425 
Q 3525 4100 3525 3541 
Q 3525 3141 3298 2862 
Q 3072 2584 2669 2484 
Q 3125 2378 3379 2068 
Q 3634 1759 3634 1313 
Q 3634 634 3220 271 
Q 2806 -91 2034 -91 
Q 1263 -91 848 271 
Q 434 634 434 1313 
Q 434 1759 690 2068 
Q 947 2378 1403 2484 
z
M 1172 3481 
Q 1172 3119 1398 2916 
Q 1625 2713 2034 2713 
Q 2441 2713 2670 2916 
Q 2900 3119 2900 3481 
Q 2900 3844 2670 4047 
Q 2441 4250 2034 4250 
Q 1625 4250 1398 4047 
Q 1172 3844 1172 3481 
z
" transform="scale(0.015625)"/>
       </defs>
       <use xlink:href="#DejaVuSans-30"/>
       <use xlink:href="#DejaVuSans-2e" x="63.623047"/>
       <use xlink:href="#DejaVuSans-38" x="95.410156"/>
      </g>
     </g>
    </g>
    <g id="xtick_6">
     <g id="line2d_6">
      <g>
       <use xlink:href="#m74f332229a" x="418.635" y="251.44" style="stroke: #000000; stroke-width: 0.8"/>
      </g>
     </g>
     <g id="text_6">
      <!-- 1.0 -->
      <g transform="translate(410.683437 266.038437) scale(0.1 -0.1)">
       <defs>
        <path id="DejaVuSans-31" d="M 794 531 
L 1825 531 
L 1825 4091 
L 703 3866 
L 703 4441 
L 1819 4666 
L 2450 4666 
L 2450 531 
L 3481 531 
L 3481 0 
L 794 0 
L 794 531 
z
" transform="scale(0.015625)"/>
       </defs>
       <use xlink:href="#DejaVuSans-31"/>
       <use xlink:href="#DejaVuSans-2e" x="63.623047"/>
       <use xlink:href="#DejaVuSans-30" x="95.410156"/>
      </g>
     </g>
    </g>
    <g id="text_7">
     <!-- False Positive Rate -->
     <g transform="translate(186.756094 279.716563) scale(0.1 -0.1)">
      <defs>
       <path id="DejaVuSans-46" d="M 628 4666 
L 3309 4666 
L 3309 4134 
L 1259 4134 
L 1259 2759 
L 3109 2759 
L 3109 2228 
L 1259 2228 
L 1259 0 
L 628 0 
L 628 4666 
z
" transform="scale(0.015625)"/>
       <path id="DejaVuSans-61" d="M 2194 1759 
Q 1497 1759 1228 1600 
Q 959 1441 959 1056 
Q 959 750 1161 570 
Q 1363 391 1709 391 
Q 2188 391 2477 730 
Q 2766 1069 2766 1631 
L 2766 1759 
L 2194 1759 
z
M 3341 1997 
L 3341 0 
L 2766 0 
L 2766 531 
Q 2569 213 2275 61 
Q 1981 -91 1556 -91 
Q 1019 -91 701 211 
Q 384 513 384 1019 
Q 384 1609 779 1909 
Q 1175 2209 1959 2209 
L 2766 2209 
L 2766 2266 
Q 2766 2663 2505 2880 
Q 2244 3097 1772 3097 
Q 1472 3097 1187 3025 
Q 903 2953 641 2809 
L 641 3341 
Q 956 3463 1253 3523 
Q 1550 3584 1831 3584 
Q 2591 3584 2966 3190 
Q 3341 2797 3341 1997 
z
" transform="scale(0.015625)"/>
       <path id="DejaVuSans-6c" d="M 603 4863 
L 1178 4863 
L 1178 0 
L 603 0 
L 603 4863 
z
" transform="scale(0.015625)"/>
       <path id="DejaVuSans-73" d="M 2834 3397 
L 2834 2853 
Q 2591 2978 2328 3040 
Q 2066 3103 1784 3103 
Q 1356 3103 1142 2972 
Q 928 2841 928 2578 
Q 928 2378 1081 2264 
Q 1234 2150 1697 2047 
L 1894 2003 
Q 2506 1872 2764 1633 
Q 3022 1394 3022 966 
Q 3022 478 2636 193 
Q 2250 -91 1575 -91 
Q 1294 -91 989 -36 
Q 684 19 347 128 
L 347 722 
Q 666 556 975 473 
Q 1284 391 1588 391 
Q 1994 391 2212 530 
Q 2431 669 2431 922 
Q 2431 1156 2273 1281 
Q 2116 1406 1581 1522 
L 1381 1569 
Q 847 1681 609 1914 
Q 372 2147 372 2553 
Q 372 3047 722 3315 
Q 1072 3584 1716 3584 
Q 2034 3584 2315 3537 
Q 2597 3491 2834 3397 
z
" transform="scale(0.015625)"/>
       <path id="DejaVuSans-65" d="M 3597 1894 
L 3597 1613 
L 953 1613 
Q 991 1019 1311 708 
Q 1631 397 2203 397 
Q 2534 397 2845 478 
Q 3156 559 3463 722 
L 3463 178 
Q 3153 47 2828 -22 
Q 2503 -91 2169 -91 
Q 1331 -91 842 396 
Q 353 884 353 1716 
Q 353 2575 817 3079 
Q 1281 3584 2069 3584 
Q 2775 3584 3186 3129 
Q 3597 2675 3597 1894 
z
M 3022 2063 
Q 3016 2534 2758 2815 
Q 2500 3097 2075 3097 
Q 1594 3097 1305 2825 
Q 1016 2553 972 2059 
L 3022 2063 
z
" transform="scale(0.015625)"/>
       <path id="DejaVuSans-20" transform="scale(0.015625)"/>
       <path id="DejaVuSans-50" d="M 1259 4147 
L 1259 2394 
L 2053 2394 
Q 2494 2394 2734 2622 
Q 2975 2850 2975 3272 
Q 2975 3691 2734 3919 
Q 2494 4147 2053 4147 
L 1259 4147 
z
M 628 4666 
L 2053 4666 
Q 2838 4666 3239 4311 
Q 3641 3956 3641 3272 
Q 3641 2581 3239 2228 
Q 2838 1875 2053 1875 
L 1259 1875 
L 1259 0 
L 628 0 
L 628 4666 
z
" transform="scale(0.015625)"/>
       <path id="DejaVuSans-6f" d="M 1959 3097 
Q 1497 3097 1228 2736 
Q 959 2375 959 1747 
Q 959 1119 1226 758 
Q 1494 397 1959 397 
Q 2419 397 2687 759 
Q 2956 1122 2956 1747 
Q 2956 2369 2687 2733 
Q 2419 3097 1959 3097 
z
M 1959 3584 
Q 2709 3584 3137 3096 
Q 3566 2609 3566 1747 
Q 3566 888 3137 398 
Q 2709 -91 1959 -91 
Q 1206 -91 779 398 
Q 353 888 353 1747 
Q 353 2609 779 3096 
Q 1206 3584 1959 3584 
z
" transform="scale(0.015625)"/>
       <path id="DejaVuSans-69" d="M 603 3500 
L 1178 3500 
L 1178 0 
L 603 0 
L 603 3500 
z
M 603 4863 
L 1178 4863 
L 1178 4134 
L 603 4134 
L 603 4863 
z
" transform="scale(0.015625)"/>
       <path id="DejaVuSans-74" d="M 1172 4494 
L 1172 3500 
L 2356 3500 
L 2356 3053 
L 1172 3053 
L 1172 1153 
Q 1172 725 1289 603 
Q 1406 481 1766 481 
L 2356 481 
L 2356 0 
L 1766 0 
Q 1100 0 847 248 
Q 594 497 594 1153 
L 594 3053 
L 172 3053 
L 172 3500 
L 594 3500 
L 594 4494 
L 1172 4494 
z
" transform="scale(0.015625)"/>
       <path id="DejaVuSans-76" d="M 191 3500 
L 800 3500 
L 1894 563 
L 2988 3500 
L 3597 3500 
L 2284 0 
L 1503 0 
L 191 3500 
z
" transform="scale(0.015625)"/>
       <path id="DejaVuSans-52" d="M 2841 2188 
Q 3044 2119 3236 1894 
Q 3428 1669 3622 1275 
L 4263 0 
L 3584 0 
L 2988 1197 
Q 2756 1666 2539 1819 
Q 2322 1972 1947 1972 
L 1259 1972 
L 1259 0 
L 628 0 
L 628 4666 
L 2053 4666 
Q 2853 4666 3247 4331 
Q 3641 3997 3641 3322 
Q 3641 2881 3436 2590 
Q 3231 2300 2841 2188 
z
M 1259 4147 
L 1259 2491 
L 2053 2491 
Q 2509 2491 2742 2702 
Q 2975 2913 2975 3322 
Q 2975 3731 2742 3939 
Q 2509 4147 2053 4147 
L 1259 4147 
z
" transform="scale(0.015625)"/>
      </defs>
      <use xlink:href="#DejaVuSans-46"/>
      <use xlink:href="#DejaVuSans-61" x="48.394531"/>
      <use xlink:href="#DejaVuSans-6c" x="109.673828"/>
      <use xlink:href="#DejaVuSans-73" x="137.457031"/>
      <use xlink:href="#DejaVuSans-65" x="189.556641"/>
      <use xlink:href="#DejaVuSans-20" x="251.080078"/>
      <use xlink:href="#DejaVuSans-50" x="282.867188"/>
      <use xlink:href="#DejaVuSans-6f" x="339.544922"/>
      <use xlink:href="#DejaVuSans-73" x="400.726562"/>
      <use xlink:href="#DejaVuSans-69" x="452.826172"/>
      <use xlink:href="#DejaVuSans-74" x="480.609375"/>
      <use xlink:href="#DejaVuSans-69" x="519.818359"/>
      <use xlink:href="#DejaVuSans-76" x="547.601562"/>
      <use xlink:href="#DejaVuSans-65" x="606.78125"/>
      <use xlink:href="#DejaVuSans-20" x="668.304688"/>
      <use xlink:href="#DejaVuSans-52" x="700.091797"/>
      <use xlink:href="#DejaVuSans-61" x="767.324219"/>
      <use xlink:href="#DejaVuSans-74" x="828.603516"/>
      <use xlink:href="#DejaVuSans-65" x="867.8125"/>
     </g>
    </g>
   </g>
   <g id="matplotlib.axis_2">
    <g id="ytick_1">
     <g id="line2d_7">
      <defs>
       <path id="ma08de70bcf" d="M 0 0 
L -3.5 0 
" style="stroke: #000000; stroke-width: 0.8"/>
      </defs>
      <g>
       <use xlink:href="#ma08de70bcf" x="47.81" y="251.44" style="stroke: #000000; stroke-width: 0.8"/>
      </g>
     </g>
     <g id="text_8">
      <!-- 0.0 -->
      <g transform="translate(24.906875 255.239219) scale(0.1 -0.1)">
       <use xlink:href="#DejaVuSans-30"/>
       <use xlink:href="#DejaVuSans-2e" x="63.623047"/>
       <use xlink:href="#DejaVuSans-30" x="95.410156"/>
      </g>
     </g>
    </g>
    <g id="ytick_2">
     <g id="line2d_8">
      <g>
       <use xlink:href="#ma08de70bcf" x="47.81" y="208.392381" style="stroke: #000000; stroke-width: 0.8"/>
      </g>
     </g>
     <g id="text_9">
      <!-- 0.2 -->
      <g transform="translate(24.906875 212.1916) scale(0.1 -0.1)">
       <use xlink:href="#DejaVuSans-30"/>
       <use xlink:href="#DejaVuSans-2e" x="63.623047"/>
       <use xlink:href="#DejaVuSans-32" x="95.410156"/>
      </g>
     </g>
    </g>
    <g id="ytick_3">
     <g id="line2d_9">
      <g>
       <use xlink:href="#ma08de70bcf" x="47.81" y="165.344762" style="stroke: #000000; stroke-width: 0.8"/>
      </g>
     </g>
     <g id="text_10">
      <!-- 0.4 -->
      <g transform="translate(24.906875 169.143981) scale(0.1 -0.1)">
       <use xlink:href="#DejaVuSans-30"/>
       <use xlink:href="#DejaVuSans-2e" x="63.623047"/>
       <use xlink:href="#DejaVuSans-34" x="95.410156"/>
      </g>
     </g>
    </g>
    <g id="ytick_4">
     <g id="line2d_10">
      <g>
       <use xlink:href="#ma08de70bcf" x="47.81" y="122.297143" style="stroke: #000000; stroke-width: 0.8"/>
      </g>
     </g>
     <g id="text_11">
      <!-- 0.6 -->
      <g transform="translate(24.906875 126.096362) scale(0.1 -0.1)">
       <use xlink:href="#DejaVuSans-30"/>
       <use xlink:href="#DejaVuSans-2e" x="63.623047"/>
       <use xlink:href="#DejaVuSans-36" x="95.410156"/>
      </g>
     </g>
    </g>
    <g id="ytick_5">
     <g id="line2d_11">
      <g>
       <use xlink:href="#ma08de70bcf" x="47.81" y="79.249524" style="stroke: #000000; stroke-width: 0.8"/>
      </g>
     </g>
     <g id="text_12">
      <!-- 0.8 -->
      <g transform="translate(24.906875 83.048743) scale(0.1 -0.1)">
       <use xlink:href="#DejaVuSans-30"/>
       <use xlink:href="#DejaVuSans-2e" x="63.623047"/>
       <use xlink:href="#DejaVuSans-38" x="95.410156"/>
      </g>
     </g>
    </g>
    <g id="ytick_6">
     <g id="line2d_12">
      <g>
       <use xlink:href="#ma08de70bcf" x="47.81" y="36.201905" style="stroke: #000000; stroke-width: 0.8"/>
      </g>
     </g>
     <g id="text_13">
      <!-- 1.0 -->
      <g transform="translate(24.906875 40.001124) scale(0.1 -0.1)">
       <use xlink:href="#DejaVuSans-31"/>
       <use xlink:href="#DejaVuSans-2e" x="63.623047"/>
       <use xlink:href="#DejaVuSans-30" x="95.410156"/>
      </g>
     </g>
    </g>
    <g id="text_14">
     <!-- True Positive Rate -->
     <g transform="translate(18.827187 182.969687) rotate(-90) scale(0.1 -0.1)">
      <defs>
       <path id="DejaVuSans-54" d="M -19 4666 
L 3928 4666 
L 3928 4134 
L 2272 4134 
L 2272 0 
L 1638 0 
L 1638 4134 
L -19 4134 
L -19 4666 
z
" transform="scale(0.015625)"/>
       <path id="DejaVuSans-72" d="M 2631 2963 
Q 2534 3019 2420 3045 
Q 2306 3072 2169 3072 
Q 1681 3072 1420 2755 
Q 1159 2438 1159 1844 
L 1159 0 
L 581 0 
L 581 3500 
L 1159 3500 
L 1159 2956 
Q 1341 3275 1631 3429 
Q 1922 3584 2338 3584 
Q 2397 3584 2469 3576 
Q 2541 3569 2628 3553 
L 2631 2963 
z
" transform="scale(0.015625)"/>
       <path id="DejaVuSans-75" d="M 544 1381 
L 544 3500 
L 1119 3500 
L 1119 1403 
Q 1119 906 1312 657 
Q 1506 409 1894 409 
Q 2359 409 2629 706 
Q 2900 1003 2900 1516 
L 2900 3500 
L 3475 3500 
L 3475 0 
L 2900 0 
L 2900 538 
Q 2691 219 2414 64 
Q 2138 -91 1772 -91 
Q 1169 -91 856 284 
Q 544 659 544 1381 
z
M 1991 3584 
L 1991 3584 
z
" transform="scale(0.015625)"/>
      </defs>
      <use xlink:href="#DejaVuSans-54"/>
      <use xlink:href="#DejaVuSans-72" x="46.333984"/>
      <use xlink:href="#DejaVuSans-75" x="87.447266"/>
      <use xlink:href="#DejaVuSans-65" x="150.826172"/>
      <use xlink:href="#DejaVuSans-20" x="212.349609"/>
      <use xlink:href="#DejaVuSans-50" x="244.136719"/>
      <use xlink:href="#DejaVuSans-6f" x="300.814453"/>
      <use xlink:href="#DejaVuSans-73" x="361.996094"/>
      <use xlink:href="#DejaVuSans-69" x="414.095703"/>
      <use xlink:href="#DejaVuSans-74" x="441.878906"/>
      <use xlink:href="#DejaVuSans-69" x="481.087891"/>
      <use xlink:href="#DejaVuSans-76" x="508.871094"/>
      <use xlink:href="#DejaVuSans-65" x="568.050781"/>
      <use xlink:href="#DejaVuSans-20" x="629.574219"/>
      <use xlink:href="#DejaVuSans-52" x="661.361328"/>
      <use xlink:href="#DejaVuSans-61" x="728.59375"/>
      <use xlink:href="#DejaVuSans-74" x="789.873047"/>
      <use xlink:href="#DejaVuSans-65" x="829.082031"/>
     </g>
    </g>
   </g>
   <g id="line2d_13">
    <path d="M 47.81 251.44 
L 47.81 250.230797 
L 47.81 247.812392 
L 53.184275 247.812392 
L 53.184275 217.582322 
L 63.932826 217.582322 
L 63.932826 190.979861 
L 69.307101 190.979861 
L 69.307101 187.352253 
L 74.681377 187.352253 
L 74.681377 182.515441 
L 85.429928 182.515441 
L 85.429928 176.469428 
L 90.804203 176.469428 
L 90.804203 163.168197 
L 101.552754 163.168197 
L 101.552754 136.565736 
L 106.927029 136.565736 
L 106.927029 131.728925 
L 112.301304 131.728925 
L 112.301304 130.519722 
L 117.67558 130.519722 
L 117.67558 122.055302 
L 123.049855 122.055302 
L 123.049855 116.009288 
L 128.42413 116.009288 
L 128.42413 107.544869 
L 133.798406 107.544869 
L 133.798406 106.335666 
L 139.172681 106.335666 
L 139.172681 103.917261 
L 144.546957 103.917261 
L 144.546957 102.708058 
L 149.921232 102.708058 
L 149.921232 100.289652 
L 155.295507 100.289652 
L 155.295507 96.662044 
L 160.669783 96.662044 
L 160.669783 93.034436 
L 166.044058 93.034436 
L 166.044058 91.825233 
L 171.418333 91.825233 
L 171.418333 84.570016 
L 176.792609 84.570016 
L 176.792609 80.942408 
L 182.166884 80.942408 
L 182.166884 79.733205 
L 187.541159 79.733205 
L 187.541159 68.85038 
L 209.038261 68.85038 
L 209.038261 67.641177 
L 214.412536 67.641177 
L 214.412536 64.013569 
L 225.161087 64.013569 
L 225.161087 62.804366 
L 235.909638 62.804366 
L 235.909638 60.38596 
L 241.283913 60.38596 
L 241.283913 59.176758 
L 252.032464 59.176758 
L 252.032464 56.758352 
L 268.15529 56.758352 
L 268.15529 51.921541 
L 273.529565 51.921541 
L 273.529565 44.666324 
L 295.026667 44.666324 
L 295.026667 43.457121 
L 300.400942 43.457121 
L 300.400942 42.247919 
L 311.149493 42.247919 
L 311.149493 41.038716 
L 332.646594 41.038716 
L 332.646594 39.829513 
L 364.892246 39.829513 
L 364.892246 38.62031 
L 386.389348 38.62031 
L 386.389348 37.411108 
L 391.763623 37.411108 
L 402.512174 37.411108 
L 402.512174 36.201905 
L 418.635 36.201905 
" clip-path="url(#p20284119e8)" style="fill: none; stroke: #1f77b4; stroke-width: 1.5; stroke-linecap: square"/>
   </g>
   <g id="line2d_14">
    <path d="M 47.81 251.44 
L 47.81 248.6447 
L 47.81 240.2588 
L 60.597069 240.2588 
L 60.597069 206.715201 
L 73.384138 206.715201 
L 73.384138 198.329301 
L 86.171207 198.329301 
L 86.171207 173.171602 
L 98.958276 173.171602 
L 98.958276 170.376302 
L 111.745345 170.376302 
L 111.745345 148.013902 
L 124.532414 148.013902 
L 124.532414 131.242103 
L 137.319483 131.242103 
L 137.319483 128.446803 
L 150.106552 128.446803 
L 150.106552 117.265603 
L 162.893621 117.265603 
L 162.893621 106.084403 
L 175.68069 106.084403 
L 175.68069 97.698503 
L 188.467759 97.698503 
L 188.467759 92.107904 
L 214.041897 92.107904 
L 214.041897 89.312604 
L 239.616034 89.312604 
L 239.616034 80.926704 
L 265.190172 80.926704 
L 265.190172 66.950204 
L 290.76431 66.950204 
L 290.76431 64.154904 
L 303.551379 64.154904 
L 303.551379 58.564304 
L 316.338448 58.564304 
L 316.338448 47.383105 
L 329.125517 47.383105 
L 329.125517 44.587805 
L 354.699655 44.587805 
L 354.699655 41.792505 
L 380.273793 41.792505 
L 380.273793 38.997205 
L 418.635 38.997205 
L 418.635 36.201905 
" clip-path="url(#p20284119e8)" style="fill: none; stroke: #ff7f0e; stroke-width: 1.5; stroke-linecap: square"/>
   </g>
   <g id="line2d_15">
    <path d="M 47.81 251.44 
L 418.635 36.201905 
" clip-path="url(#p20284119e8)" style="fill: none; stroke-dasharray: 5.55,2.4; stroke-dashoffset: 0; stroke: #000000; stroke-width: 1.5"/>
   </g>
   <g id="patch_3">
    <path d="M 47.81 251.44 
L 47.81 25.44 
" style="fill: none; stroke: #000000; stroke-width: 0.8; stroke-linejoin: miter; stroke-linecap: square"/>
   </g>
   <g id="patch_4">
    <path d="M 418.635 251.44 
L 418.635 25.44 
" style="fill: none; stroke: #000000; stroke-width: 0.8; stroke-linejoin: miter; stroke-linecap: square"/>
   </g>
   <g id="patch_5">
    <path d="M 47.81 251.44 
L 418.635 251.44 
" style="fill: none; stroke: #000000; stroke-width: 0.8; stroke-linejoin: miter; stroke-linecap: square"/>
   </g>
   <g id="patch_6">
    <path d="M 47.81 25.44 
L 418.635 25.44 
" style="fill: none; stroke: #000000; stroke-width: 0.8; stroke-linejoin: miter; stroke-linecap: square"/>
   </g>
   <g id="text_15">
    <!-- ROC Curve -->
    <g transform="translate(200.531875 19.44) scale(0.12 -0.12)">
     <defs>
      <path id="DejaVuSans-4f" d="M 2522 4238 
Q 1834 4238 1429 3725 
Q 1025 3213 1025 2328 
Q 1025 1447 1429 934 
Q 1834 422 2522 422 
Q 3209 422 3611 934 
Q 4013 1447 4013 2328 
Q 4013 3213 3611 3725 
Q 3209 4238 2522 4238 
z
M 2522 4750 
Q 3503 4750 4090 4092 
Q 4678 3434 4678 2328 
Q 4678 1225 4090 567 
Q 3503 -91 2522 -91 
Q 1538 -91 948 565 
Q 359 1222 359 2328 
Q 359 3434 948 4092 
Q 1538 4750 2522 4750 
z
" transform="scale(0.015625)"/>
      <path id="DejaVuSans-43" d="M 4122 4306 
L 4122 3641 
Q 3803 3938 3442 4084 
Q 3081 4231 2675 4231 
Q 1875 4231 1450 3742 
Q 1025 3253 1025 2328 
Q 1025 1406 1450 917 
Q 1875 428 2675 428 
Q 3081 428 3442 575 
Q 3803 722 4122 1019 
L 4122 359 
Q 3791 134 3420 21 
Q 3050 -91 2638 -91 
Q 1578 -91 968 557 
Q 359 1206 359 2328 
Q 359 3453 968 4101 
Q 1578 4750 2638 4750 
Q 3056 4750 3426 4639 
Q 3797 4528 4122 4306 
z
" transform="scale(0.015625)"/>
     </defs>
     <use xlink:href="#DejaVuSans-52"/>
     <use xlink:href="#DejaVuSans-4f" x="69.482422"/>
     <use xlink:href="#DejaVuSans-43" x="148.193359"/>
     <use xlink:href="#DejaVuSans-20" x="218.017578"/>
     <use xlink:href="#DejaVuSans-43" x="249.804688"/>
     <use xlink:href="#DejaVuSans-75" x="319.628906"/>
     <use xlink:href="#DejaVuSans-72" x="383.007812"/>
     <use xlink:href="#DejaVuSans-76" x="424.121094"/>
     <use xlink:href="#DejaVuSans-65" x="483.300781"/>
    </g>
   </g>
   <g id="legend_1">
    <g id="patch_7">
     <path d="M 287.235 246.44 
L 411.635 246.44 
Q 413.635 246.44 413.635 244.44 
L 413.635 216.08375 
Q 413.635 214.08375 411.635 214.08375 
L 287.235 214.08375 
Q 285.235 214.08375 285.235 216.08375 
L 285.235 244.44 
Q 285.235 246.44 287.235 246.44 
z
" style="fill: #ffffff; opacity: 0.8; stroke: #cccccc; stroke-linejoin: miter"/>
    </g>
    <g id="line2d_16">
     <path d="M 289.235 222.182187 
L 299.235 222.182187 
L 309.235 222.182187 
" style="fill: none; stroke: #1f77b4; stroke-width: 1.5; stroke-linecap: square"/>
    </g>
    <g id="text_16">
     <!-- train (AUC = 0.78) -->
     <g transform="translate(317.235 225.682187) scale(0.1 -0.1)">
      <defs>
       <path id="DejaVuSans-6e" d="M 3513 2113 
L 3513 0 
L 2938 0 
L 2938 2094 
Q 2938 2591 2744 2837 
Q 2550 3084 2163 3084 
Q 1697 3084 1428 2787 
Q 1159 2491 1159 1978 
L 1159 0 
L 581 0 
L 581 3500 
L 1159 3500 
L 1159 2956 
Q 1366 3272 1645 3428 
Q 1925 3584 2291 3584 
Q 2894 3584 3203 3211 
Q 3513 2838 3513 2113 
z
" transform="scale(0.015625)"/>
       <path id="DejaVuSans-28" d="M 1984 4856 
Q 1566 4138 1362 3434 
Q 1159 2731 1159 2009 
Q 1159 1288 1364 580 
Q 1569 -128 1984 -844 
L 1484 -844 
Q 1016 -109 783 600 
Q 550 1309 550 2009 
Q 550 2706 781 3412 
Q 1013 4119 1484 4856 
L 1984 4856 
z
" transform="scale(0.015625)"/>
       <path id="DejaVuSans-41" d="M 2188 4044 
L 1331 1722 
L 3047 1722 
L 2188 4044 
z
M 1831 4666 
L 2547 4666 
L 4325 0 
L 3669 0 
L 3244 1197 
L 1141 1197 
L 716 0 
L 50 0 
L 1831 4666 
z
" transform="scale(0.015625)"/>
       <path id="DejaVuSans-55" d="M 556 4666 
L 1191 4666 
L 1191 1831 
Q 1191 1081 1462 751 
Q 1734 422 2344 422 
Q 2950 422 3222 751 
Q 3494 1081 3494 1831 
L 3494 4666 
L 4128 4666 
L 4128 1753 
Q 4128 841 3676 375 
Q 3225 -91 2344 -91 
Q 1459 -91 1007 375 
Q 556 841 556 1753 
L 556 4666 
z
" transform="scale(0.015625)"/>
       <path id="DejaVuSans-3d" d="M 678 2906 
L 4684 2906 
L 4684 2381 
L 678 2381 
L 678 2906 
z
M 678 1631 
L 4684 1631 
L 4684 1100 
L 678 1100 
L 678 1631 
z
" transform="scale(0.015625)"/>
       <path id="DejaVuSans-37" d="M 525 4666 
L 3525 4666 
L 3525 4397 
L 1831 0 
L 1172 0 
L 2766 4134 
L 525 4134 
L 525 4666 
z
" transform="scale(0.015625)"/>
       <path id="DejaVuSans-29" d="M 513 4856 
L 1013 4856 
Q 1481 4119 1714 3412 
Q 1947 2706 1947 2009 
Q 1947 1309 1714 600 
Q 1481 -109 1013 -844 
L 513 -844 
Q 928 -128 1133 580 
Q 1338 1288 1338 2009 
Q 1338 2731 1133 3434 
Q 928 4138 513 4856 
z
" transform="scale(0.015625)"/>
      </defs>
      <use xlink:href="#DejaVuSans-74"/>
      <use xlink:href="#DejaVuSans-72" x="39.208984"/>
      <use xlink:href="#DejaVuSans-61" x="80.322266"/>
      <use xlink:href="#DejaVuSans-69" x="141.601562"/>
      <use xlink:href="#DejaVuSans-6e" x="169.384766"/>
      <use xlink:href="#DejaVuSans-20" x="232.763672"/>
      <use xlink:href="#DejaVuSans-28" x="264.550781"/>
      <use xlink:href="#DejaVuSans-41" x="303.564453"/>
      <use xlink:href="#DejaVuSans-55" x="371.972656"/>
      <use xlink:href="#DejaVuSans-43" x="445.166016"/>
      <use xlink:href="#DejaVuSans-20" x="514.990234"/>
      <use xlink:href="#DejaVuSans-3d" x="546.777344"/>
      <use xlink:href="#DejaVuSans-20" x="630.566406"/>
      <use xlink:href="#DejaVuSans-30" x="662.353516"/>
      <use xlink:href="#DejaVuSans-2e" x="725.976562"/>
      <use xlink:href="#DejaVuSans-37" x="757.763672"/>
      <use xlink:href="#DejaVuSans-38" x="821.386719"/>
      <use xlink:href="#DejaVuSans-29" x="885.009766"/>
     </g>
    </g>
    <g id="line2d_17">
     <path d="M 289.235 236.860313 
L 299.235 236.860313 
L 309.235 236.860313 
" style="fill: none; stroke: #ff7f0e; stroke-width: 1.5; stroke-linecap: square"/>
    </g>
    <g id="text_17">
     <!-- test (AUC = 0.71) -->
     <g transform="translate(317.235 240.360313) scale(0.1 -0.1)">
      <use xlink:href="#DejaVuSans-74"/>
      <use xlink:href="#DejaVuSans-65" x="39.208984"/>
      <use xlink:href="#DejaVuSans-73" x="100.732422"/>
      <use xlink:href="#DejaVuSans-74" x="152.832031"/>
      <use xlink:href="#DejaVuSans-20" x="192.041016"/>
      <use xlink:href="#DejaVuSans-28" x="223.828125"/>
      <use xlink:href="#DejaVuSans-41" x="262.841797"/>
      <use xlink:href="#DejaVuSans-55" x="331.25"/>
      <use xlink:href="#DejaVuSans-43" x="404.443359"/>
      <use xlink:href="#DejaVuSans-20" x="474.267578"/>
      <use xlink:href="#DejaVuSans-3d" x="506.054688"/>
      <use xlink:href="#DejaVuSans-20" x="589.84375"/>
      <use xlink:href="#DejaVuSans-30" x="621.630859"/>
      <use xlink:href="#DejaVuSans-2e" x="685.253906"/>
      <use xlink:href="#DejaVuSans-37" x="717.041016"/>
      <use xlink:href="#DejaVuSans-31" x="780.664062"/>
      <use xlink:href="#DejaVuSans-29" x="844.287109"/>
     </g>
    </g>
   </g>
  </g>
  <g id="axes_2">
   <g id="patch_8">
    <path d="M 474.41 251.44 
L 845.235 251.44 
L 845.235 25.44 
L 474.41 25.44 
z
" style="fill: #ffffff"/>
   </g>
   <g id="matplotlib.axis_3">
    <g id="xtick_7">
     <g id="line2d_18">
      <g>
       <use xlink:href="#m74f332229a" x="474.41" y="251.44" style="stroke: #000000; stroke-width: 0.8"/>
      </g>
     </g>
     <g id="text_18">
      <!-- 0.0 -->
      <g transform="translate(466.458437 266.038437) scale(0.1 -0.1)">
       <use xlink:href="#DejaVuSans-30"/>
       <use xlink:href="#DejaVuSans-2e" x="63.623047"/>
       <use xlink:href="#DejaVuSans-30" x="95.410156"/>
      </g>
     </g>
    </g>
    <g id="xtick_8">
     <g id="line2d_19">
      <g>
       <use xlink:href="#m74f332229a" x="548.575" y="251.44" style="stroke: #000000; stroke-width: 0.8"/>
      </g>
     </g>
     <g id="text_19">
      <!-- 0.2 -->
      <g transform="translate(540.623437 266.038437) scale(0.1 -0.1)">
       <use xlink:href="#DejaVuSans-30"/>
       <use xlink:href="#DejaVuSans-2e" x="63.623047"/>
       <use xlink:href="#DejaVuSans-32" x="95.410156"/>
      </g>
     </g>
    </g>
    <g id="xtick_9">
     <g id="line2d_20">
      <g>
       <use xlink:href="#m74f332229a" x="622.74" y="251.44" style="stroke: #000000; stroke-width: 0.8"/>
      </g>
     </g>
     <g id="text_20">
      <!-- 0.4 -->
      <g transform="translate(614.788437 266.038437) scale(0.1 -0.1)">
       <use xlink:href="#DejaVuSans-30"/>
       <use xlink:href="#DejaVuSans-2e" x="63.623047"/>
       <use xlink:href="#DejaVuSans-34" x="95.410156"/>
      </g>
     </g>
    </g>
    <g id="xtick_10">
     <g id="line2d_21">
      <g>
       <use xlink:href="#m74f332229a" x="696.905" y="251.44" style="stroke: #000000; stroke-width: 0.8"/>
      </g>
     </g>
     <g id="text_21">
      <!-- 0.6 -->
      <g transform="translate(688.953437 266.038437) scale(0.1 -0.1)">
       <use xlink:href="#DejaVuSans-30"/>
       <use xlink:href="#DejaVuSans-2e" x="63.623047"/>
       <use xlink:href="#DejaVuSans-36" x="95.410156"/>
      </g>
     </g>
    </g>
    <g id="xtick_11">
     <g id="line2d_22">
      <g>
       <use xlink:href="#m74f332229a" x="771.07" y="251.44" style="stroke: #000000; stroke-width: 0.8"/>
      </g>
     </g>
     <g id="text_22">
      <!-- 0.8 -->
      <g transform="translate(763.118437 266.038437) scale(0.1 -0.1)">
       <use xlink:href="#DejaVuSans-30"/>
       <use xlink:href="#DejaVuSans-2e" x="63.623047"/>
       <use xlink:href="#DejaVuSans-38" x="95.410156"/>
      </g>
     </g>
    </g>
    <g id="xtick_12">
     <g id="line2d_23">
      <g>
       <use xlink:href="#m74f332229a" x="845.235" y="251.44" style="stroke: #000000; stroke-width: 0.8"/>
      </g>
     </g>
     <g id="text_23">
      <!-- 1.0 -->
      <g transform="translate(837.283437 266.038437) scale(0.1 -0.1)">
       <use xlink:href="#DejaVuSans-31"/>
       <use xlink:href="#DejaVuSans-2e" x="63.623047"/>
       <use xlink:href="#DejaVuSans-30" x="95.410156"/>
      </g>
     </g>
    </g>
    <g id="text_24">
     <!-- Recall -->
     <g transform="translate(644.905313 279.716563) scale(0.1 -0.1)">
      <defs>
       <path id="DejaVuSans-63" d="M 3122 3366 
L 3122 2828 
Q 2878 2963 2633 3030 
Q 2388 3097 2138 3097 
Q 1578 3097 1268 2742 
Q 959 2388 959 1747 
Q 959 1106 1268 751 
Q 1578 397 2138 397 
Q 2388 397 2633 464 
Q 2878 531 3122 666 
L 3122 134 
Q 2881 22 2623 -34 
Q 2366 -91 2075 -91 
Q 1284 -91 818 406 
Q 353 903 353 1747 
Q 353 2603 823 3093 
Q 1294 3584 2113 3584 
Q 2378 3584 2631 3529 
Q 2884 3475 3122 3366 
z
" transform="scale(0.015625)"/>
      </defs>
      <use xlink:href="#DejaVuSans-52"/>
      <use xlink:href="#DejaVuSans-65" x="64.982422"/>
      <use xlink:href="#DejaVuSans-63" x="126.505859"/>
      <use xlink:href="#DejaVuSans-61" x="181.486328"/>
      <use xlink:href="#DejaVuSans-6c" x="242.765625"/>
      <use xlink:href="#DejaVuSans-6c" x="270.548828"/>
     </g>
    </g>
   </g>
   <g id="matplotlib.axis_4">
    <g id="ytick_7">
     <g id="line2d_24">
      <g>
       <use xlink:href="#ma08de70bcf" x="474.41" y="251.44" style="stroke: #000000; stroke-width: 0.8"/>
      </g>
     </g>
     <g id="text_25">
      <!-- 0.0 -->
      <g transform="translate(451.506875 255.239219) scale(0.1 -0.1)">
       <use xlink:href="#DejaVuSans-30"/>
       <use xlink:href="#DejaVuSans-2e" x="63.623047"/>
       <use xlink:href="#DejaVuSans-30" x="95.410156"/>
      </g>
     </g>
    </g>
    <g id="ytick_8">
     <g id="line2d_25">
      <g>
       <use xlink:href="#ma08de70bcf" x="474.41" y="208.392381" style="stroke: #000000; stroke-width: 0.8"/>
      </g>
     </g>
     <g id="text_26">
      <!-- 0.2 -->
      <g transform="translate(451.506875 212.1916) scale(0.1 -0.1)">
       <use xlink:href="#DejaVuSans-30"/>
       <use xlink:href="#DejaVuSans-2e" x="63.623047"/>
       <use xlink:href="#DejaVuSans-32" x="95.410156"/>
      </g>
     </g>
    </g>
    <g id="ytick_9">
     <g id="line2d_26">
      <g>
       <use xlink:href="#ma08de70bcf" x="474.41" y="165.344762" style="stroke: #000000; stroke-width: 0.8"/>
      </g>
     </g>
     <g id="text_27">
      <!-- 0.4 -->
      <g transform="translate(451.506875 169.143981) scale(0.1 -0.1)">
       <use xlink:href="#DejaVuSans-30"/>
       <use xlink:href="#DejaVuSans-2e" x="63.623047"/>
       <use xlink:href="#DejaVuSans-34" x="95.410156"/>
      </g>
     </g>
    </g>
    <g id="ytick_10">
     <g id="line2d_27">
      <g>
       <use xlink:href="#ma08de70bcf" x="474.41" y="122.297143" style="stroke: #000000; stroke-width: 0.8"/>
      </g>
     </g>
     <g id="text_28">
      <!-- 0.6 -->
      <g transform="translate(451.506875 126.096362) scale(0.1 -0.1)">
       <use xlink:href="#DejaVuSans-30"/>
       <use xlink:href="#DejaVuSans-2e" x="63.623047"/>
       <use xlink:href="#DejaVuSans-36" x="95.410156"/>
      </g>
     </g>
    </g>
    <g id="ytick_11">
     <g id="line2d_28">
      <g>
       <use xlink:href="#ma08de70bcf" x="474.41" y="79.249524" style="stroke: #000000; stroke-width: 0.8"/>
      </g>
     </g>
     <g id="text_29">
      <!-- 0.8 -->
      <g transform="translate(451.506875 83.048743) scale(0.1 -0.1)">
       <use xlink:href="#DejaVuSans-30"/>
       <use xlink:href="#DejaVuSans-2e" x="63.623047"/>
       <use xlink:href="#DejaVuSans-38" x="95.410156"/>
      </g>
     </g>
    </g>
    <g id="ytick_12">
     <g id="line2d_29">
      <g>
       <use xlink:href="#ma08de70bcf" x="474.41" y="36.201905" style="stroke: #000000; stroke-width: 0.8"/>
      </g>
     </g>
     <g id="text_30">
      <!-- 1.0 -->
      <g transform="translate(451.506875 40.001124) scale(0.1 -0.1)">
       <use xlink:href="#DejaVuSans-31"/>
       <use xlink:href="#DejaVuSans-2e" x="63.623047"/>
       <use xlink:href="#DejaVuSans-30" x="95.410156"/>
      </g>
     </g>
    </g>
    <g id="text_31">
     <!-- Precision -->
     <g transform="translate(445.427188 160.747031) rotate(-90) scale(0.1 -0.1)">
      <use xlink:href="#DejaVuSans-50"/>
      <use xlink:href="#DejaVuSans-72" x="58.552734"/>
      <use xlink:href="#DejaVuSans-65" x="97.416016"/>
      <use xlink:href="#DejaVuSans-63" x="158.939453"/>
      <use xlink:href="#DejaVuSans-69" x="213.919922"/>
      <use xlink:href="#DejaVuSans-73" x="241.703125"/>
      <use xlink:href="#DejaVuSans-69" x="293.802734"/>
      <use xlink:href="#DejaVuSans-6f" x="321.585938"/>
      <use xlink:href="#DejaVuSans-6e" x="382.767578"/>
     </g>
    </g>
   </g>
   <g id="line2d_30">
    <path d="M 845.235 96.329146 
L 845.235 94.422045 
L 843.151713 94.661634 
L 843.151713 92.701905 
L 841.068427 92.938306 
L 841.068427 90.240405 
L 838.98514 90.471339 
L 838.98514 86.235322 
L 836.901854 86.455733 
L 836.901854 83.496374 
L 834.818567 83.709412 
L 834.818567 82.184589 
L 832.735281 82.394555 
L 832.735281 81.619118 
L 830.651994 81.828413 
L 830.651994 78.643219 
L 818.152275 79.873402 
L 818.152275 79.040555 
L 809.819129 79.888845 
L 809.819129 77.302647 
L 805.652556 77.719913 
L 805.652556 75.938168 
L 803.56927 76.142995 
L 803.56927 75.23472 
L 799.402697 75.643441 
L 799.402697 73.783159 
L 797.31941 73.98306 
L 797.31941 72.074921 
L 791.069551 72.663003 
L 791.069551 71.680712 
L 788.986264 71.876727 
L 788.986264 67.8188 
L 770.236685 69.512562 
L 770.236685 68.423177 
L 768.153399 68.617281 
L 768.153399 67.509264 
L 761.903539 68.08903 
L 761.903539 66.950204 
L 749.40382 68.140461 
L 749.40382 66.950204 
L 747.320534 67.151173 
L 747.320534 65.938747 
L 741.070674 66.537475 
L 741.070674 65.288134 
L 734.820815 65.889918 
L 734.820815 64.601376 
L 730.654242 65.001368 
L 730.654242 63.679108 
L 728.570955 63.875374 
L 728.570955 62.525988 
L 724.404382 62.910282 
L 724.404382 61.524034 
L 722.321096 61.711605 
L 722.321096 60.295721 
L 707.73809 61.623727 
L 707.73809 60.117249 
L 697.321657 61.105486 
L 697.321657 59.519365 
L 682.738652 60.96381 
L 682.738652 59.263129 
L 680.655365 59.470888 
L 680.655365 57.725714 
L 672.322219 58.537934 
L 672.322219 56.700771 
L 657.739213 58.164976 
L 643.156208 59.854443 
L 630.656489 61.524034 
L 626.489916 62.134205 
L 626.489916 57.459988 
L 613.990197 59.160635 
L 603.573764 60.800544 
L 603.573764 58.037654 
L 593.157331 59.743571 
L 593.157331 53.559816 
L 584.824185 54.756913 
L 584.824185 51.306332 
L 578.574326 52.145467 
L 578.574326 48.385193 
L 568.157893 49.654286 
L 559.824747 50.877229 
L 551.491601 52.344762 
L 545.241742 53.653642 
L 538.991882 55.193501 
L 532.742022 57.031398 
L 532.742022 43.623908 
L 526.492163 44.480293 
L 520.242303 45.560083 
L 516.07573 46.451338 
L 511.909157 47.530226 
L 507.742584 48.862969 
L 503.576011 50.551111 
L 501.492725 51.576054 
L 499.409438 52.758681 
L 497.326152 54.138413 
L 495.242865 55.769004 
L 493.159579 57.725714 
L 491.076292 60.117249 
L 488.993006 63.106667 
L 486.909719 66.950204 
L 484.826433 72.074921 
L 482.743146 79.249524 
L 480.65986 90.011429 
L 480.65986 36.201905 
L 474.41 36.201905 
L 474.41 36.201905 
" clip-path="url(#p34366ddbaa)" style="fill: none; stroke: #1f77b4; stroke-width: 1.5; stroke-linecap: square"/>
   </g>
   <g id="line2d_31">
    <path d="M 845.235 95.087799 
L 840.419091 95.648617 
L 840.419091 94.150623 
L 840.419091 92.623541 
L 840.419091 91.066517 
L 835.603182 91.609731 
L 835.603182 90.011429 
L 835.603182 88.380837 
L 830.787273 88.913275 
L 830.787273 87.237742 
L 830.787273 85.527302 
L 825.971364 86.046516 
L 825.971364 84.287011 
L 821.155455 84.804055 
L 816.339545 85.33234 
L 811.523636 85.872234 
L 806.707727 86.424127 
L 806.707727 84.570016 
L 801.891818 85.119654 
L 797.075909 85.681927 
L 797.075909 83.754507 
L 792.26 84.31395 
L 792.26 82.324354 
L 792.26 80.286816 
L 787.444091 80.824437 
L 782.628182 81.375332 
L 777.812273 81.94 
L 772.996364 82.518963 
L 768.180455 83.112772 
L 768.180455 80.926704 
L 768.180455 78.683108 
L 763.364545 79.249524 
L 758.548636 79.831248 
L 753.732727 80.428911 
L 753.732727 78.053757 
L 753.732727 75.611697 
L 748.916818 76.174694 
L 748.916818 73.634617 
L 748.916818 71.019832 
L 739.285 72.074921 
L 739.285 69.315458 
L 734.469091 69.832857 
L 729.653182 70.366682 
L 724.837273 70.917727 
L 724.837273 67.958345 
L 720.021364 68.487619 
L 715.205455 69.034835 
L 710.389545 69.60092 
L 705.573636 70.186867 
L 705.573636 66.950204 
L 700.757727 67.509264 
L 695.941818 68.08903 
L 691.125909 68.690674 
L 686.31 69.315458 
L 686.31 65.744388 
L 681.494091 66.335238 
L 681.494091 62.55759 
L 676.678182 63.106667 
L 671.862273 63.679108 
L 667.046364 64.276439 
L 662.230455 64.900317 
L 657.414545 65.552554 
L 652.598636 66.235127 
L 652.598636 61.825488 
L 647.782727 62.450453 
L 642.966818 63.106667 
L 638.150909 63.796532 
L 633.335 64.522707 
L 628.519091 65.288134 
L 623.703182 66.096085 
L 618.887273 66.950204 
L 614.071364 67.854566 
L 614.071364 62.291371 
L 609.255455 63.106667 
L 609.255455 57.031398 
L 604.439545 57.725714 
L 599.623636 58.467915 
L 594.807727 59.263129 
L 589.991818 60.117249 
L 585.175909 61.03707 
L 580.36 62.030476 
L 575.544091 63.106667 
L 570.728182 64.276439 
L 565.912273 65.552554 
L 565.912273 56.700771 
L 561.096364 57.725714 
L 556.280455 58.858546 
L 551.464545 60.117249 
L 551.464545 48.862969 
L 546.648636 49.654286 
L 541.832727 50.551111 
L 537.016818 51.576054 
L 532.200909 52.758681 
L 527.385 54.138413 
L 522.569091 55.769004 
L 517.753182 57.725714 
L 512.937273 60.117249 
L 508.121364 63.106667 
L 503.305455 66.950204 
L 498.489545 72.074921 
L 493.673636 79.249524 
L 493.673636 36.201905 
L 488.857727 36.201905 
L 484.041818 36.201905 
L 479.225909 36.201905 
L 474.41 36.201905 
" clip-path="url(#p34366ddbaa)" style="fill: none; stroke: #ff7f0e; stroke-width: 1.5; stroke-linecap: square"/>
   </g>
   <g id="patch_9">
    <path d="M 474.41 251.44 
L 474.41 25.44 
" style="fill: none; stroke: #000000; stroke-width: 0.8; stroke-linejoin: miter; stroke-linecap: square"/>
   </g>
   <g id="patch_10">
    <path d="M 845.235 251.44 
L 845.235 25.44 
" style="fill: none; stroke: #000000; stroke-width: 0.8; stroke-linejoin: miter; stroke-linecap: square"/>
   </g>
   <g id="patch_11">
    <path d="M 474.41 251.44 
L 845.235 251.44 
" style="fill: none; stroke: #000000; stroke-width: 0.8; stroke-linejoin: miter; stroke-linecap: square"/>
   </g>
   <g id="patch_12">
    <path d="M 474.41 25.44 
L 845.235 25.44 
" style="fill: none; stroke: #000000; stroke-width: 0.8; stroke-linejoin: miter; stroke-linecap: square"/>
   </g>
   <g id="text_32">
    <!-- Precision-Recall Curve -->
    <g transform="translate(593.38 19.44) scale(0.12 -0.12)">
     <defs>
      <path id="DejaVuSans-2d" d="M 313 2009 
L 1997 2009 
L 1997 1497 
L 313 1497 
L 313 2009 
z
" transform="scale(0.015625)"/>
     </defs>
     <use xlink:href="#DejaVuSans-50"/>
     <use xlink:href="#DejaVuSans-72" x="58.552734"/>
     <use xlink:href="#DejaVuSans-65" x="97.416016"/>
     <use xlink:href="#DejaVuSans-63" x="158.939453"/>
     <use xlink:href="#DejaVuSans-69" x="213.919922"/>
     <use xlink:href="#DejaVuSans-73" x="241.703125"/>
     <use xlink:href="#DejaVuSans-69" x="293.802734"/>
     <use xlink:href="#DejaVuSans-6f" x="321.585938"/>
     <use xlink:href="#DejaVuSans-6e" x="382.767578"/>
     <use xlink:href="#DejaVuSans-2d" x="446.146484"/>
     <use xlink:href="#DejaVuSans-52" x="482.230469"/>
     <use xlink:href="#DejaVuSans-65" x="547.212891"/>
     <use xlink:href="#DejaVuSans-63" x="608.736328"/>
     <use xlink:href="#DejaVuSans-61" x="663.716797"/>
     <use xlink:href="#DejaVuSans-6c" x="724.996094"/>
     <use xlink:href="#DejaVuSans-6c" x="752.779297"/>
     <use xlink:href="#DejaVuSans-20" x="780.5625"/>
     <use xlink:href="#DejaVuSans-43" x="812.349609"/>
     <use xlink:href="#DejaVuSans-75" x="882.173828"/>
     <use xlink:href="#DejaVuSans-72" x="945.552734"/>
     <use xlink:href="#DejaVuSans-76" x="986.666016"/>
     <use xlink:href="#DejaVuSans-65" x="1045.845703"/>
    </g>
   </g>
   <g id="legend_2">
    <g id="patch_13">
     <path d="M 481.41 246.44 
L 605.81 246.44 
Q 607.81 246.44 607.81 244.44 
L 607.81 216.08375 
Q 607.81 214.08375 605.81 214.08375 
L 481.41 214.08375 
Q 479.41 214.08375 479.41 216.08375 
L 479.41 244.44 
Q 479.41 246.44 481.41 246.44 
z
" style="fill: #ffffff; opacity: 0.8; stroke: #cccccc; stroke-linejoin: miter"/>
    </g>
    <g id="line2d_32">
     <path d="M 483.41 222.182187 
L 493.41 222.182187 
L 503.41 222.182187 
" style="fill: none; stroke: #1f77b4; stroke-width: 1.5; stroke-linecap: square"/>
    </g>
    <g id="text_33">
     <!-- train (AUC = 0.88) -->
     <g transform="translate(511.41 225.682187) scale(0.1 -0.1)">
      <use xlink:href="#DejaVuSans-74"/>
      <use xlink:href="#DejaVuSans-72" x="39.208984"/>
      <use xlink:href="#DejaVuSans-61" x="80.322266"/>
      <use xlink:href="#DejaVuSans-69" x="141.601562"/>
      <use xlink:href="#DejaVuSans-6e" x="169.384766"/>
      <use xlink:href="#DejaVuSans-20" x="232.763672"/>
      <use xlink:href="#DejaVuSans-28" x="264.550781"/>
      <use xlink:href="#DejaVuSans-41" x="303.564453"/>
      <use xlink:href="#DejaVuSans-55" x="371.972656"/>
      <use xlink:href="#DejaVuSans-43" x="445.166016"/>
      <use xlink:href="#DejaVuSans-20" x="514.990234"/>
      <use xlink:href="#DejaVuSans-3d" x="546.777344"/>
      <use xlink:href="#DejaVuSans-20" x="630.566406"/>
      <use xlink:href="#DejaVuSans-30" x="662.353516"/>
      <use xlink:href="#DejaVuSans-2e" x="725.976562"/>
      <use xlink:href="#DejaVuSans-38" x="757.763672"/>
      <use xlink:href="#DejaVuSans-38" x="821.386719"/>
      <use xlink:href="#DejaVuSans-29" x="885.009766"/>
     </g>
    </g>
    <g id="line2d_33">
     <path d="M 483.41 236.860313 
L 493.41 236.860313 
L 503.41 236.860313 
" style="fill: none; stroke: #ff7f0e; stroke-width: 1.5; stroke-linecap: square"/>
    </g>
    <g id="text_34">
     <!-- test (AUC = 0.86) -->
     <g transform="translate(511.41 240.360313) scale(0.1 -0.1)">
      <use xlink:href="#DejaVuSans-74"/>
      <use xlink:href="#DejaVuSans-65" x="39.208984"/>
      <use xlink:href="#DejaVuSans-73" x="100.732422"/>
      <use xlink:href="#DejaVuSans-74" x="152.832031"/>
      <use xlink:href="#DejaVuSans-20" x="192.041016"/>
      <use xlink:href="#DejaVuSans-28" x="223.828125"/>
      <use xlink:href="#DejaVuSans-41" x="262.841797"/>
      <use xlink:href="#DejaVuSans-55" x="331.25"/>
      <use xlink:href="#DejaVuSans-43" x="404.443359"/>
      <use xlink:href="#DejaVuSans-20" x="474.267578"/>
      <use xlink:href="#DejaVuSans-3d" x="506.054688"/>
      <use xlink:href="#DejaVuSans-20" x="589.84375"/>
      <use xlink:href="#DejaVuSans-30" x="621.630859"/>
      <use xlink:href="#DejaVuSans-2e" x="685.253906"/>
      <use xlink:href="#DejaVuSans-38" x="717.041016"/>
      <use xlink:href="#DejaVuSans-36" x="780.664062"/>
      <use xlink:href="#DejaVuSans-29" x="844.287109"/>
     </g>
    </g>
   </g>
  </g>
  <g id="axes_3">
   <g id="patch_14">
    <path d="M 47.81 534.04 
L 418.635 534.04 
L 418.635 308.04 
L 47.81 308.04 
z
" style="fill: #ffffff"/>
   </g>
   <g id="matplotlib.axis_5">
    <g id="xtick_13">
     <g id="line2d_34">
      <g>
       <use xlink:href="#m74f332229a" x="83.740675" y="534.04" style="stroke: #000000; stroke-width: 0.8"/>
      </g>
     </g>
     <g id="text_35">
      <!-- 0.0 -->
      <g transform="translate(75.789113 548.638438) scale(0.1 -0.1)">
       <use xlink:href="#DejaVuSans-30"/>
       <use xlink:href="#DejaVuSans-2e" x="63.623047"/>
       <use xlink:href="#DejaVuSans-30" x="95.410156"/>
      </g>
     </g>
    </g>
    <g id="xtick_14">
     <g id="line2d_35">
      <g>
       <use xlink:href="#m74f332229a" x="135.922284" y="534.04" style="stroke: #000000; stroke-width: 0.8"/>
      </g>
     </g>
     <g id="text_36">
      <!-- 0.2 -->
      <g transform="translate(127.970721 548.638438) scale(0.1 -0.1)">
       <use xlink:href="#DejaVuSans-30"/>
       <use xlink:href="#DejaVuSans-2e" x="63.623047"/>
       <use xlink:href="#DejaVuSans-32" x="95.410156"/>
      </g>
     </g>
    </g>
    <g id="xtick_15">
     <g id="line2d_36">
      <g>
       <use xlink:href="#m74f332229a" x="188.103892" y="534.04" style="stroke: #000000; stroke-width: 0.8"/>
      </g>
     </g>
     <g id="text_37">
      <!-- 0.4 -->
      <g transform="translate(180.15233 548.638438) scale(0.1 -0.1)">
       <use xlink:href="#DejaVuSans-30"/>
       <use xlink:href="#DejaVuSans-2e" x="63.623047"/>
       <use xlink:href="#DejaVuSans-34" x="95.410156"/>
      </g>
     </g>
    </g>
    <g id="xtick_16">
     <g id="line2d_37">
      <g>
       <use xlink:href="#m74f332229a" x="240.285501" y="534.04" style="stroke: #000000; stroke-width: 0.8"/>
      </g>
     </g>
     <g id="text_38">
      <!-- 0.6 -->
      <g transform="translate(232.333938 548.638438) scale(0.1 -0.1)">
       <use xlink:href="#DejaVuSans-30"/>
       <use xlink:href="#DejaVuSans-2e" x="63.623047"/>
       <use xlink:href="#DejaVuSans-36" x="95.410156"/>
      </g>
     </g>
    </g>
    <g id="xtick_17">
     <g id="line2d_38">
      <g>
       <use xlink:href="#m74f332229a" x="292.467109" y="534.04" style="stroke: #000000; stroke-width: 0.8"/>
      </g>
     </g>
     <g id="text_39">
      <!-- 0.8 -->
      <g transform="translate(284.515547 548.638438) scale(0.1 -0.1)">
       <use xlink:href="#DejaVuSans-30"/>
       <use xlink:href="#DejaVuSans-2e" x="63.623047"/>
       <use xlink:href="#DejaVuSans-38" x="95.410156"/>
      </g>
     </g>
    </g>
    <g id="xtick_18">
     <g id="line2d_39">
      <g>
       <use xlink:href="#m74f332229a" x="344.648717" y="534.04" style="stroke: #000000; stroke-width: 0.8"/>
      </g>
     </g>
     <g id="text_40">
      <!-- 1.0 -->
      <g transform="translate(336.697155 548.638438) scale(0.1 -0.1)">
       <use xlink:href="#DejaVuSans-31"/>
       <use xlink:href="#DejaVuSans-2e" x="63.623047"/>
       <use xlink:href="#DejaVuSans-30" x="95.410156"/>
      </g>
     </g>
    </g>
    <g id="xtick_19">
     <g id="line2d_40">
      <g>
       <use xlink:href="#m74f332229a" x="396.830326" y="534.04" style="stroke: #000000; stroke-width: 0.8"/>
      </g>
     </g>
     <g id="text_41">
      <!-- 1.2 -->
      <g transform="translate(388.878763 548.638438) scale(0.1 -0.1)">
       <use xlink:href="#DejaVuSans-31"/>
       <use xlink:href="#DejaVuSans-2e" x="63.623047"/>
       <use xlink:href="#DejaVuSans-32" x="95.410156"/>
      </g>
     </g>
    </g>
    <g id="text_42">
     <!-- Predicted Probability -->
     <g transform="translate(181.734219 562.316563) scale(0.1 -0.1)">
      <defs>
       <path id="DejaVuSans-64" d="M 2906 2969 
L 2906 4863 
L 3481 4863 
L 3481 0 
L 2906 0 
L 2906 525 
Q 2725 213 2448 61 
Q 2172 -91 1784 -91 
Q 1150 -91 751 415 
Q 353 922 353 1747 
Q 353 2572 751 3078 
Q 1150 3584 1784 3584 
Q 2172 3584 2448 3432 
Q 2725 3281 2906 2969 
z
M 947 1747 
Q 947 1113 1208 752 
Q 1469 391 1925 391 
Q 2381 391 2643 752 
Q 2906 1113 2906 1747 
Q 2906 2381 2643 2742 
Q 2381 3103 1925 3103 
Q 1469 3103 1208 2742 
Q 947 2381 947 1747 
z
" transform="scale(0.015625)"/>
       <path id="DejaVuSans-62" d="M 3116 1747 
Q 3116 2381 2855 2742 
Q 2594 3103 2138 3103 
Q 1681 3103 1420 2742 
Q 1159 2381 1159 1747 
Q 1159 1113 1420 752 
Q 1681 391 2138 391 
Q 2594 391 2855 752 
Q 3116 1113 3116 1747 
z
M 1159 2969 
Q 1341 3281 1617 3432 
Q 1894 3584 2278 3584 
Q 2916 3584 3314 3078 
Q 3713 2572 3713 1747 
Q 3713 922 3314 415 
Q 2916 -91 2278 -91 
Q 1894 -91 1617 61 
Q 1341 213 1159 525 
L 1159 0 
L 581 0 
L 581 4863 
L 1159 4863 
L 1159 2969 
z
" transform="scale(0.015625)"/>
       <path id="DejaVuSans-79" d="M 2059 -325 
Q 1816 -950 1584 -1140 
Q 1353 -1331 966 -1331 
L 506 -1331 
L 506 -850 
L 844 -850 
Q 1081 -850 1212 -737 
Q 1344 -625 1503 -206 
L 1606 56 
L 191 3500 
L 800 3500 
L 1894 763 
L 2988 3500 
L 3597 3500 
L 2059 -325 
z
" transform="scale(0.015625)"/>
      </defs>
      <use xlink:href="#DejaVuSans-50"/>
      <use xlink:href="#DejaVuSans-72" x="58.552734"/>
      <use xlink:href="#DejaVuSans-65" x="97.416016"/>
      <use xlink:href="#DejaVuSans-64" x="158.939453"/>
      <use xlink:href="#DejaVuSans-69" x="222.416016"/>
      <use xlink:href="#DejaVuSans-63" x="250.199219"/>
      <use xlink:href="#DejaVuSans-74" x="305.179688"/>
      <use xlink:href="#DejaVuSans-65" x="344.388672"/>
      <use xlink:href="#DejaVuSans-64" x="405.912109"/>
      <use xlink:href="#DejaVuSans-20" x="469.388672"/>
      <use xlink:href="#DejaVuSans-50" x="501.175781"/>
      <use xlink:href="#DejaVuSans-72" x="559.728516"/>
      <use xlink:href="#DejaVuSans-6f" x="598.591797"/>
      <use xlink:href="#DejaVuSans-62" x="659.773438"/>
      <use xlink:href="#DejaVuSans-61" x="723.25"/>
      <use xlink:href="#DejaVuSans-62" x="784.529297"/>
      <use xlink:href="#DejaVuSans-69" x="848.005859"/>
      <use xlink:href="#DejaVuSans-6c" x="875.789062"/>
      <use xlink:href="#DejaVuSans-69" x="903.572266"/>
      <use xlink:href="#DejaVuSans-74" x="931.355469"/>
      <use xlink:href="#DejaVuSans-79" x="970.564453"/>
     </g>
    </g>
   </g>
   <g id="matplotlib.axis_6">
    <g id="ytick_13">
     <g id="line2d_41">
      <g>
       <use xlink:href="#ma08de70bcf" x="47.81" y="534.04" style="stroke: #000000; stroke-width: 0.8"/>
      </g>
     </g>
     <g id="text_43">
      <!-- 0.0 -->
      <g transform="translate(24.906875 537.839219) scale(0.1 -0.1)">
       <use xlink:href="#DejaVuSans-30"/>
       <use xlink:href="#DejaVuSans-2e" x="63.623047"/>
       <use xlink:href="#DejaVuSans-30" x="95.410156"/>
      </g>
     </g>
    </g>
    <g id="ytick_14">
     <g id="line2d_42">
      <g>
       <use xlink:href="#ma08de70bcf" x="47.81" y="500.238975" style="stroke: #000000; stroke-width: 0.8"/>
      </g>
     </g>
     <g id="text_44">
      <!-- 0.5 -->
      <g transform="translate(24.906875 504.038194) scale(0.1 -0.1)">
       <defs>
        <path id="DejaVuSans-35" d="M 691 4666 
L 3169 4666 
L 3169 4134 
L 1269 4134 
L 1269 2991 
Q 1406 3038 1543 3061 
Q 1681 3084 1819 3084 
Q 2600 3084 3056 2656 
Q 3513 2228 3513 1497 
Q 3513 744 3044 326 
Q 2575 -91 1722 -91 
Q 1428 -91 1123 -41 
Q 819 9 494 109 
L 494 744 
Q 775 591 1075 516 
Q 1375 441 1709 441 
Q 2250 441 2565 725 
Q 2881 1009 2881 1497 
Q 2881 1984 2565 2268 
Q 2250 2553 1709 2553 
Q 1456 2553 1204 2497 
Q 953 2441 691 2322 
L 691 4666 
z
" transform="scale(0.015625)"/>
       </defs>
       <use xlink:href="#DejaVuSans-30"/>
       <use xlink:href="#DejaVuSans-2e" x="63.623047"/>
       <use xlink:href="#DejaVuSans-35" x="95.410156"/>
      </g>
     </g>
    </g>
    <g id="ytick_15">
     <g id="line2d_43">
      <g>
       <use xlink:href="#ma08de70bcf" x="47.81" y="466.437951" style="stroke: #000000; stroke-width: 0.8"/>
      </g>
     </g>
     <g id="text_45">
      <!-- 1.0 -->
      <g transform="translate(24.906875 470.23717) scale(0.1 -0.1)">
       <use xlink:href="#DejaVuSans-31"/>
       <use xlink:href="#DejaVuSans-2e" x="63.623047"/>
       <use xlink:href="#DejaVuSans-30" x="95.410156"/>
      </g>
     </g>
    </g>
    <g id="ytick_16">
     <g id="line2d_44">
      <g>
       <use xlink:href="#ma08de70bcf" x="47.81" y="432.636926" style="stroke: #000000; stroke-width: 0.8"/>
      </g>
     </g>
     <g id="text_46">
      <!-- 1.5 -->
      <g transform="translate(24.906875 436.436145) scale(0.1 -0.1)">
       <use xlink:href="#DejaVuSans-31"/>
       <use xlink:href="#DejaVuSans-2e" x="63.623047"/>
       <use xlink:href="#DejaVuSans-35" x="95.410156"/>
      </g>
     </g>
    </g>
    <g id="ytick_17">
     <g id="line2d_45">
      <g>
       <use xlink:href="#ma08de70bcf" x="47.81" y="398.835902" style="stroke: #000000; stroke-width: 0.8"/>
      </g>
     </g>
     <g id="text_47">
      <!-- 2.0 -->
      <g transform="translate(24.906875 402.635121) scale(0.1 -0.1)">
       <use xlink:href="#DejaVuSans-32"/>
       <use xlink:href="#DejaVuSans-2e" x="63.623047"/>
       <use xlink:href="#DejaVuSans-30" x="95.410156"/>
      </g>
     </g>
    </g>
    <g id="ytick_18">
     <g id="line2d_46">
      <g>
       <use xlink:href="#ma08de70bcf" x="47.81" y="365.034877" style="stroke: #000000; stroke-width: 0.8"/>
      </g>
     </g>
     <g id="text_48">
      <!-- 2.5 -->
      <g transform="translate(24.906875 368.834096) scale(0.1 -0.1)">
       <use xlink:href="#DejaVuSans-32"/>
       <use xlink:href="#DejaVuSans-2e" x="63.623047"/>
       <use xlink:href="#DejaVuSans-35" x="95.410156"/>
      </g>
     </g>
    </g>
    <g id="ytick_19">
     <g id="line2d_47">
      <g>
       <use xlink:href="#ma08de70bcf" x="47.81" y="331.233853" style="stroke: #000000; stroke-width: 0.8"/>
      </g>
     </g>
     <g id="text_49">
      <!-- 3.0 -->
      <g transform="translate(24.906875 335.033072) scale(0.1 -0.1)">
       <defs>
        <path id="DejaVuSans-33" d="M 2597 2516 
Q 3050 2419 3304 2112 
Q 3559 1806 3559 1356 
Q 3559 666 3084 287 
Q 2609 -91 1734 -91 
Q 1441 -91 1130 -33 
Q 819 25 488 141 
L 488 750 
Q 750 597 1062 519 
Q 1375 441 1716 441 
Q 2309 441 2620 675 
Q 2931 909 2931 1356 
Q 2931 1769 2642 2001 
Q 2353 2234 1838 2234 
L 1294 2234 
L 1294 2753 
L 1863 2753 
Q 2328 2753 2575 2939 
Q 2822 3125 2822 3475 
Q 2822 3834 2567 4026 
Q 2313 4219 1838 4219 
Q 1578 4219 1281 4162 
Q 984 4106 628 3988 
L 628 4550 
Q 988 4650 1302 4700 
Q 1616 4750 1894 4750 
Q 2613 4750 3031 4423 
Q 3450 4097 3450 3541 
Q 3450 3153 3228 2886 
Q 3006 2619 2597 2516 
z
" transform="scale(0.015625)"/>
       </defs>
       <use xlink:href="#DejaVuSans-33"/>
       <use xlink:href="#DejaVuSans-2e" x="63.623047"/>
       <use xlink:href="#DejaVuSans-30" x="95.410156"/>
      </g>
     </g>
    </g>
    <g id="text_50">
     <!-- Density -->
     <g transform="translate(18.827187 440.048594) rotate(-90) scale(0.1 -0.1)">
      <defs>
       <path id="DejaVuSans-44" d="M 1259 4147 
L 1259 519 
L 2022 519 
Q 2988 519 3436 956 
Q 3884 1394 3884 2338 
Q 3884 3275 3436 3711 
Q 2988 4147 2022 4147 
L 1259 4147 
z
M 628 4666 
L 1925 4666 
Q 3281 4666 3915 4102 
Q 4550 3538 4550 2338 
Q 4550 1131 3912 565 
Q 3275 0 1925 0 
L 628 0 
L 628 4666 
z
" transform="scale(0.015625)"/>
      </defs>
      <use xlink:href="#DejaVuSans-44"/>
      <use xlink:href="#DejaVuSans-65" x="77.001953"/>
      <use xlink:href="#DejaVuSans-6e" x="138.525391"/>
      <use xlink:href="#DejaVuSans-73" x="201.904297"/>
      <use xlink:href="#DejaVuSans-69" x="254.003906"/>
      <use xlink:href="#DejaVuSans-74" x="281.787109"/>
      <use xlink:href="#DejaVuSans-79" x="320.996094"/>
     </g>
    </g>
   </g>
   <g id="line2d_48">
    <path d="M 118.987729 534.002594 
L 126.850997 533.826762 
L 132.093175 533.48958 
L 136.024809 533.034839 
L 139.956443 532.364864 
L 143.888077 531.487139 
L 155.682978 528.613444 
L 158.304068 528.213238 
L 160.925157 527.973094 
L 164.856791 527.904034 
L 170.098969 528.162346 
L 175.341148 528.363464 
L 177.962237 528.275368 
L 180.583326 527.990844 
L 183.204415 527.474459 
L 185.825504 526.701697 
L 188.446594 525.652283 
L 191.067683 524.302679 
L 193.688772 522.620607 
L 196.309861 520.563991 
L 198.930951 518.085557 
L 201.55204 515.14283 
L 204.173129 511.711759 
L 206.794218 507.801017 
L 209.415307 503.463348 
L 213.346941 496.390971 
L 219.899664 484.437619 
L 222.520754 480.093839 
L 225.141843 476.178393 
L 227.762932 472.713092 
L 230.384021 469.631968 
L 238.247289 460.959766 
L 240.868378 457.54168 
L 243.489467 453.575321 
L 246.110557 449.008973 
L 248.731646 443.887429 
L 252.66328 435.432473 
L 257.905458 423.384924 
L 261.837092 413.866625 
L 264.458181 407.047657 
L 267.07927 399.595084 
L 269.70036 391.321107 
L 272.321449 382.156309 
L 274.942538 372.210699 
L 282.805806 341.583532 
L 285.426895 332.986637 
L 286.737439 329.314178 
L 288.047984 326.135796 
L 289.358529 323.496187 
L 290.669073 321.428337 
L 291.979618 319.952916 
L 293.290163 319.078149 
L 294.600707 318.800124 
L 295.911252 319.103481 
L 297.221796 319.962458 
L 298.532341 321.342215 
L 299.842886 323.200418 
L 301.15343 325.489034 
L 302.463975 328.156289 
L 305.085064 334.413492 
L 307.706153 341.563253 
L 311.637787 353.261876 
L 315.569421 365.679172 
L 318.19051 374.423489 
L 320.811599 383.757628 
L 323.432689 393.90665 
L 326.053778 405.035253 
L 328.674867 417.172697 
L 332.606501 436.898912 
L 339.159224 470.557142 
L 341.780313 482.887298 
L 344.401402 493.948496 
L 347.022492 503.495277 
L 348.333036 507.664504 
L 349.643581 511.429138 
L 350.954125 514.797366 
L 352.26467 517.783709 
L 353.575215 520.407817 
L 354.885759 522.693235 
L 356.196304 524.666221 
L 357.506848 526.354646 
L 358.817393 527.78702 
L 360.127938 528.991659 
L 361.438482 529.996009 
L 362.749027 530.82612 
L 364.059571 531.506255 
L 366.680661 532.503326 
L 369.30175 533.138698 
L 371.922839 533.529244 
L 375.854473 533.83616 
L 379.786107 533.965111 
L 379.786107 533.965111 
" clip-path="url(#paafe0c3d28)" style="fill: none; stroke: #1f77b4; stroke-width: 1.5; stroke-linecap: square"/>
   </g>
   <g id="line2d_49">
    <path d="M 64.665682 533.977008 
L 74.668673 533.784561 
L 81.337334 533.465488 
L 86.33883 533.048716 
L 91.340326 532.415692 
L 96.341822 531.506861 
L 99.676152 530.721305 
L 103.010483 529.777324 
L 106.344813 528.666106 
L 109.679144 527.382198 
L 113.013474 525.922872 
L 116.347805 524.287023 
L 119.682135 522.473887 
L 123.016466 520.481937 
L 126.350796 518.308325 
L 129.685127 515.949115 
L 133.019457 513.400289 
L 136.353788 510.659279 
L 141.355284 506.189281 
L 146.35678 501.305634 
L 151.358275 496.038204 
L 156.359771 490.41132 
L 161.361267 484.422462 
L 166.362763 478.035679 
L 171.364258 471.203657 
L 176.365754 463.916876 
L 183.034415 453.655985 
L 191.370242 440.758644 
L 194.704572 435.891973 
L 198.038903 431.334954 
L 201.373233 427.156428 
L 204.707564 423.396641 
L 208.041894 420.066866 
L 211.376225 417.154893 
L 214.710555 414.634939 
L 218.044886 412.479433 
L 221.379216 410.669627 
L 224.713547 409.202348 
L 228.047877 408.091263 
L 231.382208 407.362459 
L 234.716538 407.045725 
L 238.050869 407.163973 
L 241.385199 407.723744 
L 244.71953 408.709337 
L 248.05386 410.082103 
L 251.388191 411.785046 
L 254.722521 413.751557 
L 259.724017 417.05508 
L 264.725513 420.641855 
L 269.727009 424.4511 
L 274.728505 428.532 
L 278.062835 431.464211 
L 281.397166 434.618466 
L 284.731496 438.038143 
L 288.065827 441.75808 
L 291.400157 445.799801 
L 294.734488 450.168275 
L 298.068818 454.850194 
L 303.070314 462.386346 
L 308.07181 470.374268 
L 321.409132 491.962468 
L 326.410628 499.422744 
L 329.744958 504.03357 
L 333.079289 508.307049 
L 336.413619 512.217158 
L 339.74795 515.749532 
L 343.08228 518.899945 
L 346.416611 521.672749 
L 349.750941 524.079502 
L 353.085272 526.137826 
L 356.419602 527.870443 
L 359.753933 529.30426 
L 363.088263 530.46938 
L 366.422594 531.397985 
L 369.756924 532.123091 
L 374.75842 532.900027 
L 379.759916 533.393957 
L 386.428577 533.759838 
L 394.764403 533.953518 
L 396.431569 533.972852 
L 396.431569 533.972852 
" clip-path="url(#paafe0c3d28)" style="fill: none; stroke: #ff7f0e; stroke-width: 1.5; stroke-linecap: square"/>
   </g>
   <g id="line2d_50">
    <path d="M 85.597381 533.976079 
L 93.303317 533.796392 
L 99.468066 533.440329 
L 104.091628 532.972453 
L 108.71519 532.293967 
L 114.879939 531.090945 
L 124.127062 529.159827 
L 127.209436 528.686534 
L 130.291811 528.384425 
L 133.374185 528.286101 
L 136.45656 528.402382 
L 139.538934 528.720291 
L 144.162496 529.495285 
L 159.574368 532.514787 
L 164.19793 533.010765 
L 168.821492 533.195802 
L 171.903866 533.125594 
L 174.986241 532.878579 
L 178.068615 532.426878 
L 181.15099 531.734438 
L 184.233364 530.759107 
L 187.315739 529.456298 
L 190.398113 527.783555 
L 193.480487 525.70533 
L 196.562862 523.197358 
L 199.645236 520.25034 
L 202.727611 516.872868 
L 205.809985 513.093632 
L 208.89236 508.962677 
L 213.515921 502.267013 
L 230.468981 476.943531 
L 235.092543 470.137374 
L 238.174917 465.246943 
L 241.257292 459.807054 
L 244.339666 453.59802 
L 247.422041 446.464025 
L 250.504415 438.360931 
L 253.58679 429.389027 
L 258.210351 414.891216 
L 262.833913 400.382784 
L 265.916287 391.480454 
L 268.998662 383.66691 
L 270.539849 380.25555 
L 272.081036 377.199503 
L 273.622224 374.503014 
L 275.163411 372.158947 
L 276.704598 370.149745 
L 278.245785 368.448989 
L 279.786972 367.023451 
L 281.32816 365.835518 
L 282.869347 364.845814 
L 285.951721 363.310553 
L 289.034096 362.163146 
L 292.11647 361.261193 
L 295.198845 360.600118 
L 296.740032 360.393509 
L 298.281219 360.299422 
L 299.822407 360.344565 
L 301.363594 360.556617 
L 302.904781 360.962239 
L 304.445968 361.58532 
L 305.987155 362.445582 
L 307.528343 363.557637 
L 309.06953 364.930539 
L 310.610717 366.567841 
L 312.151904 368.468099 
L 313.693092 370.625754 
L 315.234279 373.032279 
L 316.775466 375.677445 
L 319.857841 381.641778 
L 322.940215 388.446966 
L 326.022589 396.052841 
L 329.104964 404.450957 
L 332.187338 413.643239 
L 335.269713 423.607588 
L 338.352087 434.262978 
L 342.975649 451.161378 
L 349.140398 473.928297 
L 352.222772 484.652992 
L 355.305147 494.509673 
L 358.387521 503.255742 
L 359.928709 507.161926 
L 361.469896 510.742737 
L 363.011083 513.995429 
L 364.55227 516.923099 
L 366.093458 519.5341 
L 367.634645 521.841317 
L 369.175832 523.861347 
L 370.717019 525.61365 
L 372.258206 527.119691 
L 373.799394 528.402126 
L 375.340581 529.484059 
L 376.881768 530.388391 
L 378.422955 531.137272 
L 381.50533 532.251066 
L 384.587704 532.974021 
L 387.670079 533.426103 
L 392.29364 533.788514 
L 392.29364 533.788514 
" clip-path="url(#paafe0c3d28)" style="fill: none; stroke: #2ca02c; stroke-width: 1.5; stroke-linecap: square"/>
   </g>
   <g id="line2d_51">
    <path d="M 111.747973 533.866739 
L 119.035193 533.55267 
L 123.407524 533.184664 
L 127.779856 532.602108 
L 132.152188 531.723878 
L 135.067076 530.93124 
L 137.981964 529.944049 
L 140.896852 528.741255 
L 143.81174 527.307503 
L 146.726628 525.635159 
L 149.641516 523.725777 
L 152.556403 521.590673 
L 156.928735 518.011568 
L 161.301067 514.068174 
L 167.130843 508.422074 
L 172.960619 502.479158 
L 178.790394 496.222111 
L 183.162726 491.203342 
L 187.535058 485.775751 
L 191.90739 479.852654 
L 196.279722 473.426153 
L 200.652054 466.592066 
L 213.769049 445.680348 
L 218.141381 439.189237 
L 223.971157 430.959671 
L 231.258376 420.641304 
L 235.630708 413.937764 
L 238.545596 409.130501 
L 242.917928 401.413055 
L 253.120036 382.772115 
L 256.034924 378.108173 
L 257.492368 376.032222 
L 258.949811 374.166899 
L 260.407255 372.540475 
L 261.864699 371.179042 
L 263.322143 370.105865 
L 264.779587 369.340806 
L 266.237031 368.899831 
L 267.694475 368.794614 
L 269.151919 369.032252 
L 270.609363 369.615114 
L 272.066807 370.540801 
L 273.524251 371.802249 
L 274.981695 373.387947 
L 276.439139 375.282276 
L 277.896583 377.465949 
L 279.354027 379.916537 
L 282.268915 385.516682 
L 285.183802 391.86419 
L 289.556134 402.291388 
L 301.215686 431.000696 
L 305.588018 441.052427 
L 309.96035 450.546979 
L 314.332681 459.530102 
L 318.705013 468.063302 
L 323.077345 476.179285 
L 327.449677 483.867781 
L 331.822009 491.085117 
L 336.194341 497.774541 
L 339.109229 501.91506 
L 342.024116 505.786664 
L 344.939004 509.381826 
L 347.853892 512.696523 
L 350.76878 515.729715 
L 353.683668 518.482836 
L 356.598556 520.959463 
L 359.513444 523.16525 
L 362.428332 525.108071 
L 365.34322 526.798277 
L 368.258107 528.2489 
L 371.172995 529.475695 
L 374.087883 530.496936 
L 377.002771 531.332942 
L 381.375103 532.287212 
L 385.747435 532.94807 
L 390.119767 533.386416 
L 395.949542 533.730759 
L 401.779318 533.904256 
L 401.779318 533.904256 
" clip-path="url(#paafe0c3d28)" style="fill: none; stroke: #d62728; stroke-width: 1.5; stroke-linecap: square"/>
   </g>
   <g id="patch_15">
    <path d="M 47.81 534.04 
L 47.81 308.04 
" style="fill: none; stroke: #000000; stroke-width: 0.8; stroke-linejoin: miter; stroke-linecap: square"/>
   </g>
   <g id="patch_16">
    <path d="M 418.635 534.04 
L 418.635 308.04 
" style="fill: none; stroke: #000000; stroke-width: 0.8; stroke-linejoin: miter; stroke-linecap: square"/>
   </g>
   <g id="patch_17">
    <path d="M 47.81 534.04 
L 418.635 534.04 
" style="fill: none; stroke: #000000; stroke-width: 0.8; stroke-linejoin: miter; stroke-linecap: square"/>
   </g>
   <g id="patch_18">
    <path d="M 47.81 308.04 
L 418.635 308.04 
" style="fill: none; stroke: #000000; stroke-width: 0.8; stroke-linejoin: miter; stroke-linecap: square"/>
   </g>
   <g id="text_51">
    <!-- Probability Distribution -->
    <g transform="translate(164.598437 302.04) scale(0.12 -0.12)">
     <use xlink:href="#DejaVuSans-50"/>
     <use xlink:href="#DejaVuSans-72" x="58.552734"/>
     <use xlink:href="#DejaVuSans-6f" x="97.416016"/>
     <use xlink:href="#DejaVuSans-62" x="158.597656"/>
     <use xlink:href="#DejaVuSans-61" x="222.074219"/>
     <use xlink:href="#DejaVuSans-62" x="283.353516"/>
     <use xlink:href="#DejaVuSans-69" x="346.830078"/>
     <use xlink:href="#DejaVuSans-6c" x="374.613281"/>
     <use xlink:href="#DejaVuSans-69" x="402.396484"/>
     <use xlink:href="#DejaVuSans-74" x="430.179688"/>
     <use xlink:href="#DejaVuSans-79" x="469.388672"/>
     <use xlink:href="#DejaVuSans-20" x="528.568359"/>
     <use xlink:href="#DejaVuSans-44" x="560.355469"/>
     <use xlink:href="#DejaVuSans-69" x="637.357422"/>
     <use xlink:href="#DejaVuSans-73" x="665.140625"/>
     <use xlink:href="#DejaVuSans-74" x="717.240234"/>
     <use xlink:href="#DejaVuSans-72" x="756.449219"/>
     <use xlink:href="#DejaVuSans-69" x="797.5625"/>
     <use xlink:href="#DejaVuSans-62" x="825.345703"/>
     <use xlink:href="#DejaVuSans-75" x="888.822266"/>
     <use xlink:href="#DejaVuSans-74" x="952.201172"/>
     <use xlink:href="#DejaVuSans-69" x="991.410156"/>
     <use xlink:href="#DejaVuSans-6f" x="1019.193359"/>
     <use xlink:href="#DejaVuSans-6e" x="1080.375"/>
    </g>
   </g>
   <g id="legend_3">
    <g id="patch_19">
     <path d="M 54.81 374.7525 
L 152.775625 374.7525 
Q 154.775625 374.7525 154.775625 372.7525 
L 154.775625 315.04 
Q 154.775625 313.04 152.775625 313.04 
L 54.81 313.04 
Q 52.81 313.04 52.81 315.04 
L 52.81 372.7525 
Q 52.81 374.7525 54.81 374.7525 
z
" style="fill: #ffffff; opacity: 0.8; stroke: #cccccc; stroke-linejoin: miter"/>
    </g>
    <g id="line2d_52">
     <path d="M 56.81 321.138438 
L 66.81 321.138438 
L 76.81 321.138438 
" style="fill: none; stroke: #1f77b4; stroke-width: 1.5; stroke-linecap: square"/>
    </g>
    <g id="text_52">
     <!-- train active -->
     <g transform="translate(84.81 324.638438) scale(0.1 -0.1)">
      <use xlink:href="#DejaVuSans-74"/>
      <use xlink:href="#DejaVuSans-72" x="39.208984"/>
      <use xlink:href="#DejaVuSans-61" x="80.322266"/>
      <use xlink:href="#DejaVuSans-69" x="141.601562"/>
      <use xlink:href="#DejaVuSans-6e" x="169.384766"/>
      <use xlink:href="#DejaVuSans-20" x="232.763672"/>
      <use xlink:href="#DejaVuSans-61" x="264.550781"/>
      <use xlink:href="#DejaVuSans-63" x="325.830078"/>
      <use xlink:href="#DejaVuSans-74" x="380.810547"/>
      <use xlink:href="#DejaVuSans-69" x="420.019531"/>
      <use xlink:href="#DejaVuSans-76" x="447.802734"/>
      <use xlink:href="#DejaVuSans-65" x="506.982422"/>
     </g>
    </g>
    <g id="line2d_53">
     <path d="M 56.81 335.816563 
L 66.81 335.816563 
L 76.81 335.816563 
" style="fill: none; stroke: #ff7f0e; stroke-width: 1.5; stroke-linecap: square"/>
    </g>
    <g id="text_53">
     <!-- train inactive -->
     <g transform="translate(84.81 339.316563) scale(0.1 -0.1)">
      <use xlink:href="#DejaVuSans-74"/>
      <use xlink:href="#DejaVuSans-72" x="39.208984"/>
      <use xlink:href="#DejaVuSans-61" x="80.322266"/>
      <use xlink:href="#DejaVuSans-69" x="141.601562"/>
      <use xlink:href="#DejaVuSans-6e" x="169.384766"/>
      <use xlink:href="#DejaVuSans-20" x="232.763672"/>
      <use xlink:href="#DejaVuSans-69" x="264.550781"/>
      <use xlink:href="#DejaVuSans-6e" x="292.333984"/>
      <use xlink:href="#DejaVuSans-61" x="355.712891"/>
      <use xlink:href="#DejaVuSans-63" x="416.992188"/>
      <use xlink:href="#DejaVuSans-74" x="471.972656"/>
      <use xlink:href="#DejaVuSans-69" x="511.181641"/>
      <use xlink:href="#DejaVuSans-76" x="538.964844"/>
      <use xlink:href="#DejaVuSans-65" x="598.144531"/>
     </g>
    </g>
    <g id="line2d_54">
     <path d="M 56.81 350.494687 
L 66.81 350.494687 
L 76.81 350.494687 
" style="fill: none; stroke: #2ca02c; stroke-width: 1.5; stroke-linecap: square"/>
    </g>
    <g id="text_54">
     <!-- test active -->
     <g transform="translate(84.81 353.994687) scale(0.1 -0.1)">
      <use xlink:href="#DejaVuSans-74"/>
      <use xlink:href="#DejaVuSans-65" x="39.208984"/>
      <use xlink:href="#DejaVuSans-73" x="100.732422"/>
      <use xlink:href="#DejaVuSans-74" x="152.832031"/>
      <use xlink:href="#DejaVuSans-20" x="192.041016"/>
      <use xlink:href="#DejaVuSans-61" x="223.828125"/>
      <use xlink:href="#DejaVuSans-63" x="285.107422"/>
      <use xlink:href="#DejaVuSans-74" x="340.087891"/>
      <use xlink:href="#DejaVuSans-69" x="379.296875"/>
      <use xlink:href="#DejaVuSans-76" x="407.080078"/>
      <use xlink:href="#DejaVuSans-65" x="466.259766"/>
     </g>
    </g>
    <g id="line2d_55">
     <path d="M 56.81 365.172813 
L 66.81 365.172813 
L 76.81 365.172813 
" style="fill: none; stroke: #d62728; stroke-width: 1.5; stroke-linecap: square"/>
    </g>
    <g id="text_55">
     <!-- test inactive -->
     <g transform="translate(84.81 368.672813) scale(0.1 -0.1)">
      <use xlink:href="#DejaVuSans-74"/>
      <use xlink:href="#DejaVuSans-65" x="39.208984"/>
      <use xlink:href="#DejaVuSans-73" x="100.732422"/>
      <use xlink:href="#DejaVuSans-74" x="152.832031"/>
      <use xlink:href="#DejaVuSans-20" x="192.041016"/>
      <use xlink:href="#DejaVuSans-69" x="223.828125"/>
      <use xlink:href="#DejaVuSans-6e" x="251.611328"/>
      <use xlink:href="#DejaVuSans-61" x="314.990234"/>
      <use xlink:href="#DejaVuSans-63" x="376.269531"/>
      <use xlink:href="#DejaVuSans-74" x="431.25"/>
      <use xlink:href="#DejaVuSans-69" x="470.458984"/>
      <use xlink:href="#DejaVuSans-76" x="498.242188"/>
      <use xlink:href="#DejaVuSans-65" x="557.421875"/>
     </g>
    </g>
   </g>
  </g>
  <g id="axes_4">
   <g id="table_1">
    <g id="patch_20">
     <path d="M 474.41 421.04 
L 548.575 421.04 
L 548.575 407.587619 
L 474.41 407.587619 
z
" style="fill: #ffffff; stroke: #000000; stroke-linejoin: miter"/>
    </g>
    <g id="text_56">
     <!-- Accuracy -->
     <g transform="translate(488.664375 417.073185) scale(0.1 -0.1)">
      <use xlink:href="#DejaVuSans-41"/>
      <use xlink:href="#DejaVuSans-63" x="66.658203"/>
      <use xlink:href="#DejaVuSans-63" x="121.638672"/>
      <use xlink:href="#DejaVuSans-75" x="176.619141"/>
      <use xlink:href="#DejaVuSans-72" x="239.998047"/>
      <use xlink:href="#DejaVuSans-61" x="281.111328"/>
      <use xlink:href="#DejaVuSans-63" x="342.390625"/>
      <use xlink:href="#DejaVuSans-79" x="397.371094"/>
     </g>
    </g>
    <g id="patch_21">
     <path d="M 548.575 421.04 
L 622.74 421.04 
L 622.74 407.587619 
L 548.575 407.587619 
z
" style="fill: #ffffff; stroke: #000000; stroke-linejoin: miter"/>
    </g>
    <g id="text_57">
     <!-- Precision -->
     <g transform="translate(563.350469 417.073185) scale(0.1 -0.1)">
      <use xlink:href="#DejaVuSans-50"/>
      <use xlink:href="#DejaVuSans-72" x="58.552734"/>
      <use xlink:href="#DejaVuSans-65" x="97.416016"/>
      <use xlink:href="#DejaVuSans-63" x="158.939453"/>
      <use xlink:href="#DejaVuSans-69" x="213.919922"/>
      <use xlink:href="#DejaVuSans-73" x="241.703125"/>
      <use xlink:href="#DejaVuSans-69" x="293.802734"/>
      <use xlink:href="#DejaVuSans-6f" x="321.585938"/>
      <use xlink:href="#DejaVuSans-6e" x="382.767578"/>
     </g>
    </g>
    <g id="patch_22">
     <path d="M 622.74 421.04 
L 696.905 421.04 
L 696.905 407.587619 
L 622.74 407.587619 
z
" style="fill: #ffffff; stroke: #000000; stroke-linejoin: miter"/>
    </g>
    <g id="text_58">
     <!-- Recall -->
     <g transform="translate(644.905313 417.073185) scale(0.1 -0.1)">
      <use xlink:href="#DejaVuSans-52"/>
      <use xlink:href="#DejaVuSans-65" x="64.982422"/>
      <use xlink:href="#DejaVuSans-63" x="126.505859"/>
      <use xlink:href="#DejaVuSans-61" x="181.486328"/>
      <use xlink:href="#DejaVuSans-6c" x="242.765625"/>
      <use xlink:href="#DejaVuSans-6c" x="270.548828"/>
     </g>
    </g>
    <g id="patch_23">
     <path d="M 696.905 421.04 
L 771.07 421.04 
L 771.07 407.587619 
L 696.905 407.587619 
z
" style="fill: #ffffff; stroke: #000000; stroke-linejoin: miter"/>
    </g>
    <g id="text_59">
     <!-- F1 -->
     <g transform="translate(727.930469 417.073185) scale(0.1 -0.1)">
      <use xlink:href="#DejaVuSans-46"/>
      <use xlink:href="#DejaVuSans-31" x="57.519531"/>
     </g>
    </g>
    <g id="patch_24">
     <path d="M 771.07 421.04 
L 845.235 421.04 
L 845.235 407.587619 
L 771.07 407.587619 
z
" style="fill: #ffffff; stroke: #000000; stroke-linejoin: miter"/>
    </g>
    <g id="text_60">
     <!-- ROC AUC -->
     <g transform="translate(785.090781 417.073185) scale(0.1 -0.1)">
      <use xlink:href="#DejaVuSans-52"/>
      <use xlink:href="#DejaVuSans-4f" x="69.482422"/>
      <use xlink:href="#DejaVuSans-43" x="148.193359"/>
      <use xlink:href="#DejaVuSans-20" x="218.017578"/>
      <use xlink:href="#DejaVuSans-41" x="249.804688"/>
      <use xlink:href="#DejaVuSans-55" x="318.212891"/>
      <use xlink:href="#DejaVuSans-43" x="391.40625"/>
     </g>
    </g>
    <g id="patch_25">
     <path d="M 450.78125 434.492381 
L 474.41 434.492381 
L 474.41 421.04 
L 450.78125 421.04 
z
" style="fill: #ffffff; stroke: #000000; stroke-linejoin: miter"/>
    </g>
    <g id="text_61">
     <!-- Test -->
     <g transform="translate(453.144125 430.525565) scale(0.1 -0.1)">
      <use xlink:href="#DejaVuSans-54"/>
      <use xlink:href="#DejaVuSans-65" x="44.083984"/>
      <use xlink:href="#DejaVuSans-73" x="105.607422"/>
      <use xlink:href="#DejaVuSans-74" x="157.707031"/>
     </g>
    </g>
    <g id="patch_26">
     <path d="M 474.41 434.492381 
L 548.575 434.492381 
L 548.575 421.04 
L 474.41 421.04 
z
" style="fill: #ffffff; stroke: #000000; stroke-linejoin: miter"/>
    </g>
    <g id="text_62">
     <!-- 0.75 -->
     <g transform="translate(518.892875 430.525565) scale(0.1 -0.1)">
      <use xlink:href="#DejaVuSans-30"/>
      <use xlink:href="#DejaVuSans-2e" x="63.623047"/>
      <use xlink:href="#DejaVuSans-37" x="95.410156"/>
      <use xlink:href="#DejaVuSans-35" x="159.033203"/>
     </g>
    </g>
    <g id="patch_27">
     <path d="M 548.575 434.492381 
L 622.74 434.492381 
L 622.74 421.04 
L 548.575 421.04 
z
" style="fill: #ffffff; stroke: #000000; stroke-linejoin: miter"/>
    </g>
    <g id="text_63">
     <!-- 0.76 -->
     <g transform="translate(593.057875 430.525565) scale(0.1 -0.1)">
      <use xlink:href="#DejaVuSans-30"/>
      <use xlink:href="#DejaVuSans-2e" x="63.623047"/>
      <use xlink:href="#DejaVuSans-37" x="95.410156"/>
      <use xlink:href="#DejaVuSans-36" x="159.033203"/>
     </g>
    </g>
    <g id="patch_28">
     <path d="M 622.74 434.492381 
L 696.905 434.492381 
L 696.905 421.04 
L 622.74 421.04 
z
" style="fill: #ffffff; stroke: #000000; stroke-linejoin: miter"/>
    </g>
    <g id="text_64">
     <!-- 0.97 -->
     <g transform="translate(667.222875 430.525565) scale(0.1 -0.1)">
      <defs>
       <path id="DejaVuSans-39" d="M 703 97 
L 703 672 
Q 941 559 1184 500 
Q 1428 441 1663 441 
Q 2288 441 2617 861 
Q 2947 1281 2994 2138 
Q 2813 1869 2534 1725 
Q 2256 1581 1919 1581 
Q 1219 1581 811 2004 
Q 403 2428 403 3163 
Q 403 3881 828 4315 
Q 1253 4750 1959 4750 
Q 2769 4750 3195 4129 
Q 3622 3509 3622 2328 
Q 3622 1225 3098 567 
Q 2575 -91 1691 -91 
Q 1453 -91 1209 -44 
Q 966 3 703 97 
z
M 1959 2075 
Q 2384 2075 2632 2365 
Q 2881 2656 2881 3163 
Q 2881 3666 2632 3958 
Q 2384 4250 1959 4250 
Q 1534 4250 1286 3958 
Q 1038 3666 1038 3163 
Q 1038 2656 1286 2365 
Q 1534 2075 1959 2075 
z
" transform="scale(0.015625)"/>
      </defs>
      <use xlink:href="#DejaVuSans-30"/>
      <use xlink:href="#DejaVuSans-2e" x="63.623047"/>
      <use xlink:href="#DejaVuSans-39" x="95.410156"/>
      <use xlink:href="#DejaVuSans-37" x="159.033203"/>
     </g>
    </g>
    <g id="patch_29">
     <path d="M 696.905 434.492381 
L 771.07 434.492381 
L 771.07 421.04 
L 696.905 421.04 
z
" style="fill: #ffffff; stroke: #000000; stroke-linejoin: miter"/>
    </g>
    <g id="text_65">
     <!-- 0.85 -->
     <g transform="translate(741.387875 430.525565) scale(0.1 -0.1)">
      <use xlink:href="#DejaVuSans-30"/>
      <use xlink:href="#DejaVuSans-2e" x="63.623047"/>
      <use xlink:href="#DejaVuSans-38" x="95.410156"/>
      <use xlink:href="#DejaVuSans-35" x="159.033203"/>
     </g>
    </g>
    <g id="patch_30">
     <path d="M 771.07 434.492381 
L 845.235 434.492381 
L 845.235 421.04 
L 771.07 421.04 
z
" style="fill: #ffffff; stroke: #000000; stroke-linejoin: miter"/>
    </g>
    <g id="text_66">
     <!-- 0.29 -->
     <g transform="translate(815.552875 430.525565) scale(0.1 -0.1)">
      <use xlink:href="#DejaVuSans-30"/>
      <use xlink:href="#DejaVuSans-2e" x="63.623047"/>
      <use xlink:href="#DejaVuSans-32" x="95.410156"/>
      <use xlink:href="#DejaVuSans-39" x="159.033203"/>
     </g>
    </g>
   </g>
  </g>
 </g>
 <defs>
  <clipPath id="p20284119e8">
   <rect x="47.81" y="25.44" width="370.825" height="226"/>
  </clipPath>
  <clipPath id="p34366ddbaa">
   <rect x="474.41" y="25.44" width="370.825" height="226"/>
  </clipPath>
  <clipPath id="paafe0c3d28">
   <rect x="47.81" y="308.04" width="370.825" height="226"/>
  </clipPath>
 </defs>
</svg>
