<?xml version="1.0" encoding="utf-8" standalone="no"?>
<!DOCTYPE svg PUBLIC "-//W3C//DTD SVG 1.1//EN"
  "http://www.w3.org/Graphics/SVG/1.1/DTD/svg11.dtd">
<svg xmlns:xlink="http://www.w3.org/1999/xlink" width="864pt" height="576pt" viewBox="0 0 864 576" xmlns="http://www.w3.org/2000/svg" version="1.1">
 <metadata>
  <rdf:RDF xmlns:dc="http://purl.org/dc/elements/1.1/" xmlns:cc="http://creativecommons.org/ns#" xmlns:rdf="http://www.w3.org/1999/02/22-rdf-syntax-ns#">
   <cc:Work>
    <dc:type rdf:resource="http://purl.org/dc/dcmitype/StillImage"/>
    <dc:date>2025-05-01T09:40:20.131972</dc:date>
    <dc:format>image/svg+xml</dc:format>
    <dc:creator>
     <cc:Agent>
      <dc:title>Matplotlib v3.9.2, https://matplotlib.org/</dc:title>
     </cc:Agent>
    </dc:creator>
   </cc:Work>
  </rdf:RDF>
 </metadata>
 <defs>
  <style type="text/css">*{stroke-linejoin: round; stroke-linecap: butt}</style>
 </defs>
 <g id="figure_1">
  <g id="patch_1">
   <path d="M 0 576 
L 864 576 
L 864 0 
L 0 0 
z
" style="fill: #ffffff"/>
  </g>
  <g id="axes_1">
   <g id="patch_2">
    <path d="M 47.81 251.44 
L 418.635 251.44 
L 418.635 25.44 
L 47.81 25.44 
z
" style="fill: #ffffff"/>
   </g>
   <g id="matplotlib.axis_1">
    <g id="xtick_1">
     <g id="line2d_1">
      <defs>
       <path id="m456c7a0894" d="M 0 0 
L 0 3.5 
" style="stroke: #000000; stroke-width: 0.8"/>
      </defs>
      <g>
       <use xlink:href="#m456c7a0894" x="47.81" y="251.44" style="stroke: #000000; stroke-width: 0.8"/>
      </g>
     </g>
     <g id="text_1">
      <!-- 0.0 -->
      <g transform="translate(39.858438 266.038437) scale(0.1 -0.1)">
       <defs>
        <path id="DejaVuSans-30" d="M 2034 4250 
Q 1547 4250 1301 3770 
Q 1056 3291 1056 2328 
Q 1056 1369 1301 889 
Q 1547 409 2034 409 
Q 2525 409 2770 889 
Q 3016 1369 3016 2328 
Q 3016 3291 2770 3770 
Q 2525 4250 2034 4250 
z
M 2034 4750 
Q 2819 4750 3233 4129 
Q 3647 3509 3647 2328 
Q 3647 1150 3233 529 
Q 2819 -91 2034 -91 
Q 1250 -91 836 529 
Q 422 1150 422 2328 
Q 422 3509 836 4129 
Q 1250 4750 2034 4750 
z
" transform="scale(0.015625)"/>
        <path id="DejaVuSans-2e" d="M 684 794 
L 1344 794 
L 1344 0 
L 684 0 
L 684 794 
z
" transform="scale(0.015625)"/>
       </defs>
       <use xlink:href="#DejaVuSans-30"/>
       <use xlink:href="#DejaVuSans-2e" x="63.623047"/>
       <use xlink:href="#DejaVuSans-30" x="95.410156"/>
      </g>
     </g>
    </g>
    <g id="xtick_2">
     <g id="line2d_2">
      <g>
       <use xlink:href="#m456c7a0894" x="121.975" y="251.44" style="stroke: #000000; stroke-width: 0.8"/>
      </g>
     </g>
     <g id="text_2">
      <!-- 0.2 -->
      <g transform="translate(114.023438 266.038437) scale(0.1 -0.1)">
       <defs>
        <path id="DejaVuSans-32" d="M 1228 531 
L 3431 531 
L 3431 0 
L 469 0 
L 469 531 
Q 828 903 1448 1529 
Q 2069 2156 2228 2338 
Q 2531 2678 2651 2914 
Q 2772 3150 2772 3378 
Q 2772 3750 2511 3984 
Q 2250 4219 1831 4219 
Q 1534 4219 1204 4116 
Q 875 4013 500 3803 
L 500 4441 
Q 881 4594 1212 4672 
Q 1544 4750 1819 4750 
Q 2544 4750 2975 4387 
Q 3406 4025 3406 3419 
Q 3406 3131 3298 2873 
Q 3191 2616 2906 2266 
Q 2828 2175 2409 1742 
Q 1991 1309 1228 531 
z
" transform="scale(0.015625)"/>
       </defs>
       <use xlink:href="#DejaVuSans-30"/>
       <use xlink:href="#DejaVuSans-2e" x="63.623047"/>
       <use xlink:href="#DejaVuSans-32" x="95.410156"/>
      </g>
     </g>
    </g>
    <g id="xtick_3">
     <g id="line2d_3">
      <g>
       <use xlink:href="#m456c7a0894" x="196.14" y="251.44" style="stroke: #000000; stroke-width: 0.8"/>
      </g>
     </g>
     <g id="text_3">
      <!-- 0.4 -->
      <g transform="translate(188.188438 266.038437) scale(0.1 -0.1)">
       <defs>
        <path id="DejaVuSans-34" d="M 2419 4116 
L 825 1625 
L 2419 1625 
L 2419 4116 
z
M 2253 4666 
L 3047 4666 
L 3047 1625 
L 3713 1625 
L 3713 1100 
L 3047 1100 
L 3047 0 
L 2419 0 
L 2419 1100 
L 313 1100 
L 313 1709 
L 2253 4666 
z
" transform="scale(0.015625)"/>
       </defs>
       <use xlink:href="#DejaVuSans-30"/>
       <use xlink:href="#DejaVuSans-2e" x="63.623047"/>
       <use xlink:href="#DejaVuSans-34" x="95.410156"/>
      </g>
     </g>
    </g>
    <g id="xtick_4">
     <g id="line2d_4">
      <g>
       <use xlink:href="#m456c7a0894" x="270.305" y="251.44" style="stroke: #000000; stroke-width: 0.8"/>
      </g>
     </g>
     <g id="text_4">
      <!-- 0.6 -->
      <g transform="translate(262.353438 266.038437) scale(0.1 -0.1)">
       <defs>
        <path id="DejaVuSans-36" d="M 2113 2584 
Q 1688 2584 1439 2293 
Q 1191 2003 1191 1497 
Q 1191 994 1439 701 
Q 1688 409 2113 409 
Q 2538 409 2786 701 
Q 3034 994 3034 1497 
Q 3034 2003 2786 2293 
Q 2538 2584 2113 2584 
z
M 3366 4563 
L 3366 3988 
Q 3128 4100 2886 4159 
Q 2644 4219 2406 4219 
Q 1781 4219 1451 3797 
Q 1122 3375 1075 2522 
Q 1259 2794 1537 2939 
Q 1816 3084 2150 3084 
Q 2853 3084 3261 2657 
Q 3669 2231 3669 1497 
Q 3669 778 3244 343 
Q 2819 -91 2113 -91 
Q 1303 -91 875 529 
Q 447 1150 447 2328 
Q 447 3434 972 4092 
Q 1497 4750 2381 4750 
Q 2619 4750 2861 4703 
Q 3103 4656 3366 4563 
z
" transform="scale(0.015625)"/>
       </defs>
       <use xlink:href="#DejaVuSans-30"/>
       <use xlink:href="#DejaVuSans-2e" x="63.623047"/>
       <use xlink:href="#DejaVuSans-36" x="95.410156"/>
      </g>
     </g>
    </g>
    <g id="xtick_5">
     <g id="line2d_5">
      <g>
       <use xlink:href="#m456c7a0894" x="344.47" y="251.44" style="stroke: #000000; stroke-width: 0.8"/>
      </g>
     </g>
     <g id="text_5">
      <!-- 0.8 -->
      <g transform="translate(336.518438 266.038437) scale(0.1 -0.1)">
       <defs>
        <path id="DejaVuSans-38" d="M 2034 2216 
Q 1584 2216 1326 1975 
Q 1069 1734 1069 1313 
Q 1069 891 1326 650 
Q 1584 409 2034 409 
Q 2484 409 2743 651 
Q 3003 894 3003 1313 
Q 3003 1734 2745 1975 
Q 2488 2216 2034 2216 
z
M 1403 2484 
Q 997 2584 770 2862 
Q 544 3141 544 3541 
Q 544 4100 942 4425 
Q 1341 4750 2034 4750 
Q 2731 4750 3128 4425 
Q 3525 4100 3525 3541 
Q 3525 3141 3298 2862 
Q 3072 2584 2669 2484 
Q 3125 2378 3379 2068 
Q 3634 1759 3634 1313 
Q 3634 634 3220 271 
Q 2806 -91 2034 -91 
Q 1263 -91 848 271 
Q 434 634 434 1313 
Q 434 1759 690 2068 
Q 947 2378 1403 2484 
z
M 1172 3481 
Q 1172 3119 1398 2916 
Q 1625 2713 2034 2713 
Q 2441 2713 2670 2916 
Q 2900 3119 2900 3481 
Q 2900 3844 2670 4047 
Q 2441 4250 2034 4250 
Q 1625 4250 1398 4047 
Q 1172 3844 1172 3481 
z
" transform="scale(0.015625)"/>
       </defs>
       <use xlink:href="#DejaVuSans-30"/>
       <use xlink:href="#DejaVuSans-2e" x="63.623047"/>
       <use xlink:href="#DejaVuSans-38" x="95.410156"/>
      </g>
     </g>
    </g>
    <g id="xtick_6">
     <g id="line2d_6">
      <g>
       <use xlink:href="#m456c7a0894" x="418.635" y="251.44" style="stroke: #000000; stroke-width: 0.8"/>
      </g>
     </g>
     <g id="text_6">
      <!-- 1.0 -->
      <g transform="translate(410.683437 266.038437) scale(0.1 -0.1)">
       <defs>
        <path id="DejaVuSans-31" d="M 794 531 
L 1825 531 
L 1825 4091 
L 703 3866 
L 703 4441 
L 1819 4666 
L 2450 4666 
L 2450 531 
L 3481 531 
L 3481 0 
L 794 0 
L 794 531 
z
" transform="scale(0.015625)"/>
       </defs>
       <use xlink:href="#DejaVuSans-31"/>
       <use xlink:href="#DejaVuSans-2e" x="63.623047"/>
       <use xlink:href="#DejaVuSans-30" x="95.410156"/>
      </g>
     </g>
    </g>
    <g id="text_7">
     <!-- False Positive Rate -->
     <g transform="translate(186.756094 279.716563) scale(0.1 -0.1)">
      <defs>
       <path id="DejaVuSans-46" d="M 628 4666 
L 3309 4666 
L 3309 4134 
L 1259 4134 
L 1259 2759 
L 3109 2759 
L 3109 2228 
L 1259 2228 
L 1259 0 
L 628 0 
L 628 4666 
z
" transform="scale(0.015625)"/>
       <path id="DejaVuSans-61" d="M 2194 1759 
Q 1497 1759 1228 1600 
Q 959 1441 959 1056 
Q 959 750 1161 570 
Q 1363 391 1709 391 
Q 2188 391 2477 730 
Q 2766 1069 2766 1631 
L 2766 1759 
L 2194 1759 
z
M 3341 1997 
L 3341 0 
L 2766 0 
L 2766 531 
Q 2569 213 2275 61 
Q 1981 -91 1556 -91 
Q 1019 -91 701 211 
Q 384 513 384 1019 
Q 384 1609 779 1909 
Q 1175 2209 1959 2209 
L 2766 2209 
L 2766 2266 
Q 2766 2663 2505 2880 
Q 2244 3097 1772 3097 
Q 1472 3097 1187 3025 
Q 903 2953 641 2809 
L 641 3341 
Q 956 3463 1253 3523 
Q 1550 3584 1831 3584 
Q 2591 3584 2966 3190 
Q 3341 2797 3341 1997 
z
" transform="scale(0.015625)"/>
       <path id="DejaVuSans-6c" d="M 603 4863 
L 1178 4863 
L 1178 0 
L 603 0 
L 603 4863 
z
" transform="scale(0.015625)"/>
       <path id="DejaVuSans-73" d="M 2834 3397 
L 2834 2853 
Q 2591 2978 2328 3040 
Q 2066 3103 1784 3103 
Q 1356 3103 1142 2972 
Q 928 2841 928 2578 
Q 928 2378 1081 2264 
Q 1234 2150 1697 2047 
L 1894 2003 
Q 2506 1872 2764 1633 
Q 3022 1394 3022 966 
Q 3022 478 2636 193 
Q 2250 -91 1575 -91 
Q 1294 -91 989 -36 
Q 684 19 347 128 
L 347 722 
Q 666 556 975 473 
Q 1284 391 1588 391 
Q 1994 391 2212 530 
Q 2431 669 2431 922 
Q 2431 1156 2273 1281 
Q 2116 1406 1581 1522 
L 1381 1569 
Q 847 1681 609 1914 
Q 372 2147 372 2553 
Q 372 3047 722 3315 
Q 1072 3584 1716 3584 
Q 2034 3584 2315 3537 
Q 2597 3491 2834 3397 
z
" transform="scale(0.015625)"/>
       <path id="DejaVuSans-65" d="M 3597 1894 
L 3597 1613 
L 953 1613 
Q 991 1019 1311 708 
Q 1631 397 2203 397 
Q 2534 397 2845 478 
Q 3156 559 3463 722 
L 3463 178 
Q 3153 47 2828 -22 
Q 2503 -91 2169 -91 
Q 1331 -91 842 396 
Q 353 884 353 1716 
Q 353 2575 817 3079 
Q 1281 3584 2069 3584 
Q 2775 3584 3186 3129 
Q 3597 2675 3597 1894 
z
M 3022 2063 
Q 3016 2534 2758 2815 
Q 2500 3097 2075 3097 
Q 1594 3097 1305 2825 
Q 1016 2553 972 2059 
L 3022 2063 
z
" transform="scale(0.015625)"/>
       <path id="DejaVuSans-20" transform="scale(0.015625)"/>
       <path id="DejaVuSans-50" d="M 1259 4147 
L 1259 2394 
L 2053 2394 
Q 2494 2394 2734 2622 
Q 2975 2850 2975 3272 
Q 2975 3691 2734 3919 
Q 2494 4147 2053 4147 
L 1259 4147 
z
M 628 4666 
L 2053 4666 
Q 2838 4666 3239 4311 
Q 3641 3956 3641 3272 
Q 3641 2581 3239 2228 
Q 2838 1875 2053 1875 
L 1259 1875 
L 1259 0 
L 628 0 
L 628 4666 
z
" transform="scale(0.015625)"/>
       <path id="DejaVuSans-6f" d="M 1959 3097 
Q 1497 3097 1228 2736 
Q 959 2375 959 1747 
Q 959 1119 1226 758 
Q 1494 397 1959 397 
Q 2419 397 2687 759 
Q 2956 1122 2956 1747 
Q 2956 2369 2687 2733 
Q 2419 3097 1959 3097 
z
M 1959 3584 
Q 2709 3584 3137 3096 
Q 3566 2609 3566 1747 
Q 3566 888 3137 398 
Q 2709 -91 1959 -91 
Q 1206 -91 779 398 
Q 353 888 353 1747 
Q 353 2609 779 3096 
Q 1206 3584 1959 3584 
z
" transform="scale(0.015625)"/>
       <path id="DejaVuSans-69" d="M 603 3500 
L 1178 3500 
L 1178 0 
L 603 0 
L 603 3500 
z
M 603 4863 
L 1178 4863 
L 1178 4134 
L 603 4134 
L 603 4863 
z
" transform="scale(0.015625)"/>
       <path id="DejaVuSans-74" d="M 1172 4494 
L 1172 3500 
L 2356 3500 
L 2356 3053 
L 1172 3053 
L 1172 1153 
Q 1172 725 1289 603 
Q 1406 481 1766 481 
L 2356 481 
L 2356 0 
L 1766 0 
Q 1100 0 847 248 
Q 594 497 594 1153 
L 594 3053 
L 172 3053 
L 172 3500 
L 594 3500 
L 594 4494 
L 1172 4494 
z
" transform="scale(0.015625)"/>
       <path id="DejaVuSans-76" d="M 191 3500 
L 800 3500 
L 1894 563 
L 2988 3500 
L 3597 3500 
L 2284 0 
L 1503 0 
L 191 3500 
z
" transform="scale(0.015625)"/>
       <path id="DejaVuSans-52" d="M 2841 2188 
Q 3044 2119 3236 1894 
Q 3428 1669 3622 1275 
L 4263 0 
L 3584 0 
L 2988 1197 
Q 2756 1666 2539 1819 
Q 2322 1972 1947 1972 
L 1259 1972 
L 1259 0 
L 628 0 
L 628 4666 
L 2053 4666 
Q 2853 4666 3247 4331 
Q 3641 3997 3641 3322 
Q 3641 2881 3436 2590 
Q 3231 2300 2841 2188 
z
M 1259 4147 
L 1259 2491 
L 2053 2491 
Q 2509 2491 2742 2702 
Q 2975 2913 2975 3322 
Q 2975 3731 2742 3939 
Q 2509 4147 2053 4147 
L 1259 4147 
z
" transform="scale(0.015625)"/>
      </defs>
      <use xlink:href="#DejaVuSans-46"/>
      <use xlink:href="#DejaVuSans-61" x="48.394531"/>
      <use xlink:href="#DejaVuSans-6c" x="109.673828"/>
      <use xlink:href="#DejaVuSans-73" x="137.457031"/>
      <use xlink:href="#DejaVuSans-65" x="189.556641"/>
      <use xlink:href="#DejaVuSans-20" x="251.080078"/>
      <use xlink:href="#DejaVuSans-50" x="282.867188"/>
      <use xlink:href="#DejaVuSans-6f" x="339.544922"/>
      <use xlink:href="#DejaVuSans-73" x="400.726562"/>
      <use xlink:href="#DejaVuSans-69" x="452.826172"/>
      <use xlink:href="#DejaVuSans-74" x="480.609375"/>
      <use xlink:href="#DejaVuSans-69" x="519.818359"/>
      <use xlink:href="#DejaVuSans-76" x="547.601562"/>
      <use xlink:href="#DejaVuSans-65" x="606.78125"/>
      <use xlink:href="#DejaVuSans-20" x="668.304688"/>
      <use xlink:href="#DejaVuSans-52" x="700.091797"/>
      <use xlink:href="#DejaVuSans-61" x="767.324219"/>
      <use xlink:href="#DejaVuSans-74" x="828.603516"/>
      <use xlink:href="#DejaVuSans-65" x="867.8125"/>
     </g>
    </g>
   </g>
   <g id="matplotlib.axis_2">
    <g id="ytick_1">
     <g id="line2d_7">
      <defs>
       <path id="md14aba8cd6" d="M 0 0 
L -3.5 0 
" style="stroke: #000000; stroke-width: 0.8"/>
      </defs>
      <g>
       <use xlink:href="#md14aba8cd6" x="47.81" y="251.44" style="stroke: #000000; stroke-width: 0.8"/>
      </g>
     </g>
     <g id="text_8">
      <!-- 0.0 -->
      <g transform="translate(24.906875 255.239219) scale(0.1 -0.1)">
       <use xlink:href="#DejaVuSans-30"/>
       <use xlink:href="#DejaVuSans-2e" x="63.623047"/>
       <use xlink:href="#DejaVuSans-30" x="95.410156"/>
      </g>
     </g>
    </g>
    <g id="ytick_2">
     <g id="line2d_8">
      <g>
       <use xlink:href="#md14aba8cd6" x="47.81" y="208.392381" style="stroke: #000000; stroke-width: 0.8"/>
      </g>
     </g>
     <g id="text_9">
      <!-- 0.2 -->
      <g transform="translate(24.906875 212.1916) scale(0.1 -0.1)">
       <use xlink:href="#DejaVuSans-30"/>
       <use xlink:href="#DejaVuSans-2e" x="63.623047"/>
       <use xlink:href="#DejaVuSans-32" x="95.410156"/>
      </g>
     </g>
    </g>
    <g id="ytick_3">
     <g id="line2d_9">
      <g>
       <use xlink:href="#md14aba8cd6" x="47.81" y="165.344762" style="stroke: #000000; stroke-width: 0.8"/>
      </g>
     </g>
     <g id="text_10">
      <!-- 0.4 -->
      <g transform="translate(24.906875 169.143981) scale(0.1 -0.1)">
       <use xlink:href="#DejaVuSans-30"/>
       <use xlink:href="#DejaVuSans-2e" x="63.623047"/>
       <use xlink:href="#DejaVuSans-34" x="95.410156"/>
      </g>
     </g>
    </g>
    <g id="ytick_4">
     <g id="line2d_10">
      <g>
       <use xlink:href="#md14aba8cd6" x="47.81" y="122.297143" style="stroke: #000000; stroke-width: 0.8"/>
      </g>
     </g>
     <g id="text_11">
      <!-- 0.6 -->
      <g transform="translate(24.906875 126.096362) scale(0.1 -0.1)">
       <use xlink:href="#DejaVuSans-30"/>
       <use xlink:href="#DejaVuSans-2e" x="63.623047"/>
       <use xlink:href="#DejaVuSans-36" x="95.410156"/>
      </g>
     </g>
    </g>
    <g id="ytick_5">
     <g id="line2d_11">
      <g>
       <use xlink:href="#md14aba8cd6" x="47.81" y="79.249524" style="stroke: #000000; stroke-width: 0.8"/>
      </g>
     </g>
     <g id="text_12">
      <!-- 0.8 -->
      <g transform="translate(24.906875 83.048743) scale(0.1 -0.1)">
       <use xlink:href="#DejaVuSans-30"/>
       <use xlink:href="#DejaVuSans-2e" x="63.623047"/>
       <use xlink:href="#DejaVuSans-38" x="95.410156"/>
      </g>
     </g>
    </g>
    <g id="ytick_6">
     <g id="line2d_12">
      <g>
       <use xlink:href="#md14aba8cd6" x="47.81" y="36.201905" style="stroke: #000000; stroke-width: 0.8"/>
      </g>
     </g>
     <g id="text_13">
      <!-- 1.0 -->
      <g transform="translate(24.906875 40.001124) scale(0.1 -0.1)">
       <use xlink:href="#DejaVuSans-31"/>
       <use xlink:href="#DejaVuSans-2e" x="63.623047"/>
       <use xlink:href="#DejaVuSans-30" x="95.410156"/>
      </g>
     </g>
    </g>
    <g id="text_14">
     <!-- True Positive Rate -->
     <g transform="translate(18.827187 182.969687) rotate(-90) scale(0.1 -0.1)">
      <defs>
       <path id="DejaVuSans-54" d="M -19 4666 
L 3928 4666 
L 3928 4134 
L 2272 4134 
L 2272 0 
L 1638 0 
L 1638 4134 
L -19 4134 
L -19 4666 
z
" transform="scale(0.015625)"/>
       <path id="DejaVuSans-72" d="M 2631 2963 
Q 2534 3019 2420 3045 
Q 2306 3072 2169 3072 
Q 1681 3072 1420 2755 
Q 1159 2438 1159 1844 
L 1159 0 
L 581 0 
L 581 3500 
L 1159 3500 
L 1159 2956 
Q 1341 3275 1631 3429 
Q 1922 3584 2338 3584 
Q 2397 3584 2469 3576 
Q 2541 3569 2628 3553 
L 2631 2963 
z
" transform="scale(0.015625)"/>
       <path id="DejaVuSans-75" d="M 544 1381 
L 544 3500 
L 1119 3500 
L 1119 1403 
Q 1119 906 1312 657 
Q 1506 409 1894 409 
Q 2359 409 2629 706 
Q 2900 1003 2900 1516 
L 2900 3500 
L 3475 3500 
L 3475 0 
L 2900 0 
L 2900 538 
Q 2691 219 2414 64 
Q 2138 -91 1772 -91 
Q 1169 -91 856 284 
Q 544 659 544 1381 
z
M 1991 3584 
L 1991 3584 
z
" transform="scale(0.015625)"/>
      </defs>
      <use xlink:href="#DejaVuSans-54"/>
      <use xlink:href="#DejaVuSans-72" x="46.333984"/>
      <use xlink:href="#DejaVuSans-75" x="87.447266"/>
      <use xlink:href="#DejaVuSans-65" x="150.826172"/>
      <use xlink:href="#DejaVuSans-20" x="212.349609"/>
      <use xlink:href="#DejaVuSans-50" x="244.136719"/>
      <use xlink:href="#DejaVuSans-6f" x="300.814453"/>
      <use xlink:href="#DejaVuSans-73" x="361.996094"/>
      <use xlink:href="#DejaVuSans-69" x="414.095703"/>
      <use xlink:href="#DejaVuSans-74" x="441.878906"/>
      <use xlink:href="#DejaVuSans-69" x="481.087891"/>
      <use xlink:href="#DejaVuSans-76" x="508.871094"/>
      <use xlink:href="#DejaVuSans-65" x="568.050781"/>
      <use xlink:href="#DejaVuSans-20" x="629.574219"/>
      <use xlink:href="#DejaVuSans-52" x="661.361328"/>
      <use xlink:href="#DejaVuSans-61" x="728.59375"/>
      <use xlink:href="#DejaVuSans-74" x="789.873047"/>
      <use xlink:href="#DejaVuSans-65" x="829.082031"/>
     </g>
    </g>
   </g>
   <g id="line2d_13">
    <path d="M 47.81 251.44 
L 47.81 247.570551 
L 48.303775 247.570551 
L 48.303775 245.635827 
L 48.79755 245.635827 
L 48.79755 243.701102 
L 49.291325 243.701102 
L 49.291325 243.217421 
L 49.7851 243.217421 
L 49.7851 239.831653 
L 50.278875 239.831653 
L 50.278875 238.38061 
L 50.77265 238.38061 
L 50.77265 236.929567 
L 51.266425 236.929567 
L 51.266425 236.445886 
L 52.253975 236.445886 
L 52.253975 233.543799 
L 52.74775 233.543799 
L 52.74775 233.060118 
L 53.241525 233.060118 
L 53.241525 232.576437 
L 53.7353 232.576437 
L 53.7353 230.641712 
L 54.229075 230.641712 
L 54.229075 225.32122 
L 54.72285 225.32122 
L 54.72285 223.870177 
L 55.216625 223.870177 
L 55.216625 221.935452 
L 55.710399 221.935452 
L 55.710399 219.033365 
L 56.204174 219.033365 
L 56.204174 209.843424 
L 57.685499 209.843424 
L 57.685499 207.425019 
L 58.179274 207.425019 
L 58.179274 206.941338 
L 58.673049 206.941338 
L 58.673049 205.006613 
L 59.166824 205.006613 
L 59.166824 201.620845 
L 59.660599 201.620845 
L 59.660599 199.686121 
L 60.648149 199.686121 
L 60.648149 198.235078 
L 61.635699 198.235078 
L 61.635699 196.784034 
L 62.129474 196.784034 
L 62.129474 195.816672 
L 62.623249 195.816672 
L 62.623249 194.84931 
L 63.117024 194.84931 
L 63.117024 190.49618 
L 63.610799 190.49618 
L 63.610799 190.012499 
L 64.104574 190.012499 
L 64.104574 189.528818 
L 64.598349 189.528818 
L 64.598349 189.045136 
L 65.092124 189.045136 
L 65.092124 186.14305 
L 65.585899 186.14305 
L 65.585899 185.175688 
L 66.079674 185.175688 
L 66.079674 184.208325 
L 66.573449 184.208325 
L 66.573449 183.724644 
L 67.067224 183.724644 
L 67.067224 183.240963 
L 67.560999 183.240963 
L 67.560999 182.757282 
L 68.054774 182.757282 
L 68.054774 181.78992 
L 68.548549 181.78992 
L 68.548549 181.306239 
L 69.042324 181.306239 
L 69.042324 179.855195 
L 70.029874 179.855195 
L 70.029874 176.953109 
L 70.523648 176.953109 
L 70.523648 175.502065 
L 71.017423 175.502065 
L 71.017423 173.567341 
L 71.511198 173.567341 
L 71.511198 171.148935 
L 72.004973 171.148935 
L 72.004973 169.697892 
L 72.498748 169.697892 
L 72.498748 166.312124 
L 72.992523 166.312124 
L 72.992523 162.442675 
L 73.486298 162.442675 
L 73.486298 159.540589 
L 75.461398 159.540589 
L 75.461398 159.056907 
L 75.955173 159.056907 
L 75.955173 158.089545 
L 76.448948 158.089545 
L 76.448948 155.67114 
L 76.942723 155.67114 
L 76.942723 154.703777 
L 77.436498 154.703777 
L 77.436498 153.252734 
L 77.930273 153.252734 
L 77.930273 150.834329 
L 78.424048 150.834329 
L 78.424048 150.350647 
L 78.917823 150.350647 
L 78.917823 146.96488 
L 79.411598 146.96488 
L 79.411598 145.030155 
L 80.399148 145.030155 
L 80.399148 143.579112 
L 80.892923 143.579112 
L 80.892923 141.644387 
L 81.880473 141.644387 
L 81.880473 141.160706 
L 82.374248 141.160706 
L 82.374248 140.193344 
L 84.349348 140.193344 
L 84.349348 139.709663 
L 85.830672 139.709663 
L 85.830672 139.225982 
L 86.324447 139.225982 
L 86.324447 138.742301 
L 86.818222 138.742301 
L 86.818222 137.291257 
L 87.311997 137.291257 
L 87.311997 136.323895 
L 87.805772 136.323895 
L 87.805772 135.356533 
L 88.299547 135.356533 
L 88.299547 134.389171 
L 88.793322 134.389171 
L 88.793322 132.454446 
L 89.780872 132.454446 
L 89.780872 131.970765 
L 90.274647 131.970765 
L 90.274647 131.003403 
L 92.249747 131.003403 
L 92.249747 130.519722 
L 93.237297 130.519722 
L 93.237297 127.133954 
L 93.731072 127.133954 
L 93.731072 125.682911 
L 94.224847 125.682911 
L 94.224847 124.715548 
L 95.212397 124.715548 
L 95.212397 120.8461 
L 95.706172 120.8461 
L 95.706172 120.362418 
L 97.187497 120.362418 
L 97.187497 119.878737 
L 97.681272 119.878737 
L 97.681272 119.395056 
L 98.175047 119.395056 
L 98.175047 117.944013 
L 99.656372 117.944013 
L 99.656372 116.976651 
L 100.150146 116.976651 
L 100.150146 113.107202 
L 101.631471 113.107202 
L 101.631471 112.139839 
L 102.125246 112.139839 
L 102.125246 111.656158 
L 102.619021 111.656158 
L 102.619021 111.172477 
L 103.112796 111.172477 
L 103.112796 110.688796 
L 103.606571 110.688796 
L 103.606571 110.205115 
L 104.100346 110.205115 
L 104.100346 107.786709 
L 104.594121 107.786709 
L 104.594121 106.819347 
L 105.087896 106.819347 
L 105.087896 105.851985 
L 105.581671 105.851985 
L 105.581671 105.368304 
L 106.569221 105.368304 
L 106.569221 103.917261 
L 107.556771 103.917261 
L 107.556771 102.949898 
L 109.531871 102.949898 
L 109.531871 101.498855 
L 110.025646 101.498855 
L 110.025646 100.047812 
L 111.506971 100.047812 
L 111.506971 98.113087 
L 112.988296 98.113087 
L 112.988296 97.145725 
L 114.963395 97.145725 
L 114.963395 94.727319 
L 116.938495 94.727319 
L 116.938495 94.243638 
L 119.40737 94.243638 
L 119.40737 93.276276 
L 120.39492 93.276276 
L 120.39492 91.825233 
L 120.888695 91.825233 
L 120.888695 91.341552 
L 121.38247 91.341552 
L 121.38247 90.374189 
L 121.876245 90.374189 
L 121.876245 89.890508 
L 122.37002 89.890508 
L 122.37002 88.439465 
L 123.35757 88.439465 
L 123.35757 87.955784 
L 124.838895 87.955784 
L 124.838895 86.504741 
L 125.33267 86.504741 
L 125.33267 84.570016 
L 126.813995 84.570016 
L 126.813995 84.086335 
L 127.30777 84.086335 
L 127.30777 83.602654 
L 127.801545 83.602654 
L 127.801545 82.635292 
L 130.764194 82.635292 
L 130.764194 81.667929 
L 131.751744 81.667929 
L 131.751744 81.184248 
L 132.739294 81.184248 
L 132.739294 80.700567 
L 133.233069 80.700567 
L 133.233069 77.314799 
L 134.220619 77.314799 
L 134.220619 76.831118 
L 134.714394 76.831118 
L 134.714394 76.347437 
L 136.195719 76.347437 
L 136.195719 75.863756 
L 136.689494 75.863756 
L 136.689494 75.380075 
L 138.170819 75.380075 
L 138.170819 74.412713 
L 138.664594 74.412713 
L 138.664594 72.961669 
L 139.158369 72.961669 
L 139.158369 71.994307 
L 140.639694 71.994307 
L 140.639694 71.510626 
L 147.058768 71.510626 
L 147.058768 71.026945 
L 149.527643 71.026945 
L 149.527643 70.059583 
L 150.021418 70.059583 
L 150.021418 69.575902 
L 152.490293 69.575902 
L 152.490293 68.608539 
L 155.452943 68.608539 
L 155.452943 68.124858 
L 156.440493 68.124858 
L 156.440493 67.157496 
L 157.921818 67.157496 
L 157.921818 66.190134 
L 158.909368 66.190134 
L 158.909368 65.706453 
L 160.390692 65.706453 
L 160.390692 64.73909 
L 163.847117 64.73909 
L 163.847117 64.255409 
L 166.315992 64.255409 
L 166.315992 63.771728 
L 171.747517 63.771728 
L 171.747517 63.288047 
L 177.672816 63.288047 
L 177.672816 62.804366 
L 178.660366 62.804366 
L 178.660366 61.837004 
L 183.104341 61.837004 
L 183.104341 61.353323 
L 183.598116 61.353323 
L 183.598116 60.869642 
L 191.00474 60.869642 
L 191.00474 60.38596 
L 192.97984 60.38596 
L 192.97984 59.902279 
L 193.96739 59.902279 
L 193.96739 59.418598 
L 194.95494 59.418598 
L 194.95494 58.934917 
L 195.448715 58.934917 
L 195.448715 58.451236 
L 196.436265 58.451236 
L 196.436265 57.967555 
L 197.91759 57.967555 
L 197.91759 57.483874 
L 198.90514 57.483874 
L 198.90514 56.516512 
L 199.398915 56.516512 
L 199.398915 56.03283 
L 200.386465 56.03283 
L 200.386465 55.549149 
L 201.86779 55.549149 
L 201.86779 55.065468 
L 204.336664 55.065468 
L 204.336664 54.581787 
L 207.299314 54.581787 
L 207.299314 54.098106 
L 213.718389 54.098106 
L 213.718389 53.130744 
L 217.174814 53.130744 
L 217.174814 52.647063 
L 218.162364 52.647063 
L 218.162364 52.163381 
L 220.137463 52.163381 
L 220.137463 51.6797 
L 226.062763 51.6797 
L 226.062763 50.712338 
L 228.037863 50.712338 
L 228.037863 49.744976 
L 228.531638 49.744976 
L 228.531638 49.261295 
L 229.025413 49.261295 
L 229.025413 48.777614 
L 232.975613 48.777614 
L 232.975613 48.293933 
L 235.938262 48.293933 
L 235.938262 47.810251 
L 237.419587 47.810251 
L 237.419587 47.32657 
L 240.382237 47.32657 
L 240.382237 46.359208 
L 240.876012 46.359208 
L 240.876012 45.875527 
L 241.863562 45.875527 
L 241.863562 45.391846 
L 242.851112 45.391846 
L 242.851112 44.908165 
L 243.344887 44.908165 
L 243.344887 44.424484 
L 245.319987 44.424484 
L 245.319987 43.940803 
L 247.788862 43.940803 
L 247.788862 43.457121 
L 261.120786 43.457121 
L 261.120786 42.97344 
L 273.958935 42.97344 
L 273.958935 42.489759 
L 276.921585 42.489759 
L 276.921585 42.006078 
L 297.166358 42.006078 
L 297.166358 41.038716 
L 306.548083 41.038716 
L 306.548083 40.555035 
L 320.373782 40.555035 
L 320.373782 40.071354 
L 321.855107 40.071354 
L 321.855107 39.587673 
L 333.211931 39.587673 
L 333.211931 39.103991 
L 348.02518 39.103991 
L 348.02518 38.62031 
L 376.664128 38.62031 
L 376.664128 38.136629 
L 379.626778 38.136629 
L 379.626778 37.652948 
L 384.564527 37.652948 
L 384.564527 37.169267 
L 390.489827 37.169267 
L 390.489827 36.685586 
L 413.69725 36.685586 
L 413.69725 36.201905 
L 418.635 36.201905 
L 418.635 36.201905 
" clip-path="url(#p02ba049380)" style="fill: none; stroke: #1f77b4; stroke-width: 1.5; stroke-linecap: square"/>
   </g>
   <g id="line2d_14">
    <path d="M 47.81 251.44 
L 47.81 247.106347 
L 49.2933 247.106347 
L 49.2933 242.772694 
L 50.7766 242.772694 
L 50.7766 213.881675 
L 53.7432 213.881675 
L 53.7432 206.65892 
L 55.2265 206.65892 
L 55.2265 205.214369 
L 56.7098 205.214369 
L 56.7098 193.657961 
L 59.6764 193.657961 
L 59.6764 189.324308 
L 61.1597 189.324308 
L 61.1597 180.657002 
L 64.1263 180.657002 
L 64.1263 179.212451 
L 65.6096 179.212451 
L 65.6096 177.7679 
L 67.0929 177.7679 
L 67.0929 161.87784 
L 70.0595 161.87784 
L 70.0595 160.433289 
L 73.0261 160.433289 
L 73.0261 158.988738 
L 74.5094 158.988738 
L 74.5094 156.099636 
L 75.9927 156.099636 
L 75.9927 150.321432 
L 77.476 150.321432 
L 77.476 145.987779 
L 78.9593 145.987779 
L 78.9593 140.209575 
L 80.4426 140.209575 
L 80.4426 135.875922 
L 83.4092 135.875922 
L 83.4092 132.98682 
L 92.309 132.98682 
L 92.309 131.542269 
L 95.2756 131.542269 
L 95.2756 128.653167 
L 96.7589 128.653167 
L 96.7589 127.208616 
L 98.2422 127.208616 
L 98.2422 125.764065 
L 99.7255 125.764065 
L 99.7255 124.319514 
L 101.2088 124.319514 
L 101.2088 118.54131 
L 102.6921 118.54131 
L 102.6921 117.096759 
L 104.1754 117.096759 
L 104.1754 111.318555 
L 105.6587 111.318555 
L 105.6587 109.874004 
L 107.142 109.874004 
L 107.142 108.429453 
L 111.5919 108.429453 
L 111.5919 106.984903 
L 114.5585 106.984903 
L 114.5585 105.540352 
L 116.0418 105.540352 
L 116.0418 104.095801 
L 123.4583 104.095801 
L 123.4583 102.65125 
L 127.9082 102.65125 
L 127.9082 96.873046 
L 130.8748 96.873046 
L 130.8748 95.428495 
L 132.3581 95.428495 
L 132.3581 93.983944 
L 135.3247 93.983944 
L 135.3247 92.539393 
L 138.2913 92.539393 
L 138.2913 89.650291 
L 145.7078 89.650291 
L 145.7078 88.20574 
L 147.1911 88.20574 
L 147.1911 85.316638 
L 148.6744 85.316638 
L 148.6744 83.872087 
L 150.1577 83.872087 
L 150.1577 82.427536 
L 160.5408 82.427536 
L 160.5408 80.982985 
L 167.9573 80.982985 
L 167.9573 79.538434 
L 169.4406 79.538434 
L 169.4406 78.093883 
L 175.3738 78.093883 
L 175.3738 75.204781 
L 176.8571 75.204781 
L 176.8571 73.76023 
L 179.8237 73.76023 
L 179.8237 70.871128 
L 181.307 70.871128 
L 181.307 69.426577 
L 184.2736 69.426577 
L 184.2736 67.982026 
L 190.2068 67.982026 
L 190.2068 66.537475 
L 191.6901 66.537475 
L 191.6901 65.092924 
L 197.6233 65.092924 
L 197.6233 63.648373 
L 202.0732 63.648373 
L 202.0732 62.203822 
L 215.4229 62.203822 
L 215.4229 60.759271 
L 230.2559 60.759271 
L 230.2559 59.31472 
L 231.7392 59.31472 
L 231.7392 56.425618 
L 239.1557 56.425618 
L 239.1557 54.981067 
L 258.4386 54.981067 
L 258.4386 53.536516 
L 261.4052 53.536516 
L 261.4052 52.091965 
L 267.3384 52.091965 
L 267.3384 49.202864 
L 286.6213 49.202864 
L 286.6213 47.758313 
L 291.0712 47.758313 
L 291.0712 43.42466 
L 307.3875 43.42466 
L 307.3875 41.980109 
L 328.1537 41.980109 
L 328.1537 40.535558 
L 337.0535 40.535558 
L 337.0535 39.091007 
L 351.8865 39.091007 
L 351.8865 37.646456 
L 403.802 37.646456 
L 403.802 36.201905 
L 418.635 36.201905 
L 418.635 36.201905 
" clip-path="url(#p02ba049380)" style="fill: none; stroke: #ff7f0e; stroke-width: 1.5; stroke-linecap: square"/>
   </g>
   <g id="line2d_15">
    <path d="M 47.81 251.44 
L 418.635 36.201905 
" clip-path="url(#p02ba049380)" style="fill: none; stroke-dasharray: 5.55,2.4; stroke-dashoffset: 0; stroke: #000000; stroke-width: 1.5"/>
   </g>
   <g id="patch_3">
    <path d="M 47.81 251.44 
L 47.81 25.44 
" style="fill: none; stroke: #000000; stroke-width: 0.8; stroke-linejoin: miter; stroke-linecap: square"/>
   </g>
   <g id="patch_4">
    <path d="M 418.635 251.44 
L 418.635 25.44 
" style="fill: none; stroke: #000000; stroke-width: 0.8; stroke-linejoin: miter; stroke-linecap: square"/>
   </g>
   <g id="patch_5">
    <path d="M 47.81 251.44 
L 418.635 251.44 
" style="fill: none; stroke: #000000; stroke-width: 0.8; stroke-linejoin: miter; stroke-linecap: square"/>
   </g>
   <g id="patch_6">
    <path d="M 47.81 25.44 
L 418.635 25.44 
" style="fill: none; stroke: #000000; stroke-width: 0.8; stroke-linejoin: miter; stroke-linecap: square"/>
   </g>
   <g id="text_15">
    <!-- ROC Curve -->
    <g transform="translate(200.531875 19.44) scale(0.12 -0.12)">
     <defs>
      <path id="DejaVuSans-4f" d="M 2522 4238 
Q 1834 4238 1429 3725 
Q 1025 3213 1025 2328 
Q 1025 1447 1429 934 
Q 1834 422 2522 422 
Q 3209 422 3611 934 
Q 4013 1447 4013 2328 
Q 4013 3213 3611 3725 
Q 3209 4238 2522 4238 
z
M 2522 4750 
Q 3503 4750 4090 4092 
Q 4678 3434 4678 2328 
Q 4678 1225 4090 567 
Q 3503 -91 2522 -91 
Q 1538 -91 948 565 
Q 359 1222 359 2328 
Q 359 3434 948 4092 
Q 1538 4750 2522 4750 
z
" transform="scale(0.015625)"/>
      <path id="DejaVuSans-43" d="M 4122 4306 
L 4122 3641 
Q 3803 3938 3442 4084 
Q 3081 4231 2675 4231 
Q 1875 4231 1450 3742 
Q 1025 3253 1025 2328 
Q 1025 1406 1450 917 
Q 1875 428 2675 428 
Q 3081 428 3442 575 
Q 3803 722 4122 1019 
L 4122 359 
Q 3791 134 3420 21 
Q 3050 -91 2638 -91 
Q 1578 -91 968 557 
Q 359 1206 359 2328 
Q 359 3453 968 4101 
Q 1578 4750 2638 4750 
Q 3056 4750 3426 4639 
Q 3797 4528 4122 4306 
z
" transform="scale(0.015625)"/>
     </defs>
     <use xlink:href="#DejaVuSans-52"/>
     <use xlink:href="#DejaVuSans-4f" x="69.482422"/>
     <use xlink:href="#DejaVuSans-43" x="148.193359"/>
     <use xlink:href="#DejaVuSans-20" x="218.017578"/>
     <use xlink:href="#DejaVuSans-43" x="249.804688"/>
     <use xlink:href="#DejaVuSans-75" x="319.628906"/>
     <use xlink:href="#DejaVuSans-72" x="383.007812"/>
     <use xlink:href="#DejaVuSans-76" x="424.121094"/>
     <use xlink:href="#DejaVuSans-65" x="483.300781"/>
    </g>
   </g>
   <g id="legend_1">
    <g id="patch_7">
     <path d="M 287.235 246.44 
L 411.635 246.44 
Q 413.635 246.44 413.635 244.44 
L 413.635 216.08375 
Q 413.635 214.08375 411.635 214.08375 
L 287.235 214.08375 
Q 285.235 214.08375 285.235 216.08375 
L 285.235 244.44 
Q 285.235 246.44 287.235 246.44 
z
" style="fill: #ffffff; opacity: 0.8; stroke: #cccccc; stroke-linejoin: miter"/>
    </g>
    <g id="line2d_16">
     <path d="M 289.235 222.182187 
L 299.235 222.182187 
L 309.235 222.182187 
" style="fill: none; stroke: #1f77b4; stroke-width: 1.5; stroke-linecap: square"/>
    </g>
    <g id="text_16">
     <!-- train (AUC = 0.85) -->
     <g transform="translate(317.235 225.682187) scale(0.1 -0.1)">
      <defs>
       <path id="DejaVuSans-6e" d="M 3513 2113 
L 3513 0 
L 2938 0 
L 2938 2094 
Q 2938 2591 2744 2837 
Q 2550 3084 2163 3084 
Q 1697 3084 1428 2787 
Q 1159 2491 1159 1978 
L 1159 0 
L 581 0 
L 581 3500 
L 1159 3500 
L 1159 2956 
Q 1366 3272 1645 3428 
Q 1925 3584 2291 3584 
Q 2894 3584 3203 3211 
Q 3513 2838 3513 2113 
z
" transform="scale(0.015625)"/>
       <path id="DejaVuSans-28" d="M 1984 4856 
Q 1566 4138 1362 3434 
Q 1159 2731 1159 2009 
Q 1159 1288 1364 580 
Q 1569 -128 1984 -844 
L 1484 -844 
Q 1016 -109 783 600 
Q 550 1309 550 2009 
Q 550 2706 781 3412 
Q 1013 4119 1484 4856 
L 1984 4856 
z
" transform="scale(0.015625)"/>
       <path id="DejaVuSans-41" d="M 2188 4044 
L 1331 1722 
L 3047 1722 
L 2188 4044 
z
M 1831 4666 
L 2547 4666 
L 4325 0 
L 3669 0 
L 3244 1197 
L 1141 1197 
L 716 0 
L 50 0 
L 1831 4666 
z
" transform="scale(0.015625)"/>
       <path id="DejaVuSans-55" d="M 556 4666 
L 1191 4666 
L 1191 1831 
Q 1191 1081 1462 751 
Q 1734 422 2344 422 
Q 2950 422 3222 751 
Q 3494 1081 3494 1831 
L 3494 4666 
L 4128 4666 
L 4128 1753 
Q 4128 841 3676 375 
Q 3225 -91 2344 -91 
Q 1459 -91 1007 375 
Q 556 841 556 1753 
L 556 4666 
z
" transform="scale(0.015625)"/>
       <path id="DejaVuSans-3d" d="M 678 2906 
L 4684 2906 
L 4684 2381 
L 678 2381 
L 678 2906 
z
M 678 1631 
L 4684 1631 
L 4684 1100 
L 678 1100 
L 678 1631 
z
" transform="scale(0.015625)"/>
       <path id="DejaVuSans-35" d="M 691 4666 
L 3169 4666 
L 3169 4134 
L 1269 4134 
L 1269 2991 
Q 1406 3038 1543 3061 
Q 1681 3084 1819 3084 
Q 2600 3084 3056 2656 
Q 3513 2228 3513 1497 
Q 3513 744 3044 326 
Q 2575 -91 1722 -91 
Q 1428 -91 1123 -41 
Q 819 9 494 109 
L 494 744 
Q 775 591 1075 516 
Q 1375 441 1709 441 
Q 2250 441 2565 725 
Q 2881 1009 2881 1497 
Q 2881 1984 2565 2268 
Q 2250 2553 1709 2553 
Q 1456 2553 1204 2497 
Q 953 2441 691 2322 
L 691 4666 
z
" transform="scale(0.015625)"/>
       <path id="DejaVuSans-29" d="M 513 4856 
L 1013 4856 
Q 1481 4119 1714 3412 
Q 1947 2706 1947 2009 
Q 1947 1309 1714 600 
Q 1481 -109 1013 -844 
L 513 -844 
Q 928 -128 1133 580 
Q 1338 1288 1338 2009 
Q 1338 2731 1133 3434 
Q 928 4138 513 4856 
z
" transform="scale(0.015625)"/>
      </defs>
      <use xlink:href="#DejaVuSans-74"/>
      <use xlink:href="#DejaVuSans-72" x="39.208984"/>
      <use xlink:href="#DejaVuSans-61" x="80.322266"/>
      <use xlink:href="#DejaVuSans-69" x="141.601562"/>
      <use xlink:href="#DejaVuSans-6e" x="169.384766"/>
      <use xlink:href="#DejaVuSans-20" x="232.763672"/>
      <use xlink:href="#DejaVuSans-28" x="264.550781"/>
      <use xlink:href="#DejaVuSans-41" x="303.564453"/>
      <use xlink:href="#DejaVuSans-55" x="371.972656"/>
      <use xlink:href="#DejaVuSans-43" x="445.166016"/>
      <use xlink:href="#DejaVuSans-20" x="514.990234"/>
      <use xlink:href="#DejaVuSans-3d" x="546.777344"/>
      <use xlink:href="#DejaVuSans-20" x="630.566406"/>
      <use xlink:href="#DejaVuSans-30" x="662.353516"/>
      <use xlink:href="#DejaVuSans-2e" x="725.976562"/>
      <use xlink:href="#DejaVuSans-38" x="757.763672"/>
      <use xlink:href="#DejaVuSans-35" x="821.386719"/>
      <use xlink:href="#DejaVuSans-29" x="885.009766"/>
     </g>
    </g>
    <g id="line2d_17">
     <path d="M 289.235 236.860313 
L 299.235 236.860313 
L 309.235 236.860313 
" style="fill: none; stroke: #ff7f0e; stroke-width: 1.5; stroke-linecap: square"/>
    </g>
    <g id="text_17">
     <!-- test (AUC = 0.83) -->
     <g transform="translate(317.235 240.360313) scale(0.1 -0.1)">
      <defs>
       <path id="DejaVuSans-33" d="M 2597 2516 
Q 3050 2419 3304 2112 
Q 3559 1806 3559 1356 
Q 3559 666 3084 287 
Q 2609 -91 1734 -91 
Q 1441 -91 1130 -33 
Q 819 25 488 141 
L 488 750 
Q 750 597 1062 519 
Q 1375 441 1716 441 
Q 2309 441 2620 675 
Q 2931 909 2931 1356 
Q 2931 1769 2642 2001 
Q 2353 2234 1838 2234 
L 1294 2234 
L 1294 2753 
L 1863 2753 
Q 2328 2753 2575 2939 
Q 2822 3125 2822 3475 
Q 2822 3834 2567 4026 
Q 2313 4219 1838 4219 
Q 1578 4219 1281 4162 
Q 984 4106 628 3988 
L 628 4550 
Q 988 4650 1302 4700 
Q 1616 4750 1894 4750 
Q 2613 4750 3031 4423 
Q 3450 4097 3450 3541 
Q 3450 3153 3228 2886 
Q 3006 2619 2597 2516 
z
" transform="scale(0.015625)"/>
      </defs>
      <use xlink:href="#DejaVuSans-74"/>
      <use xlink:href="#DejaVuSans-65" x="39.208984"/>
      <use xlink:href="#DejaVuSans-73" x="100.732422"/>
      <use xlink:href="#DejaVuSans-74" x="152.832031"/>
      <use xlink:href="#DejaVuSans-20" x="192.041016"/>
      <use xlink:href="#DejaVuSans-28" x="223.828125"/>
      <use xlink:href="#DejaVuSans-41" x="262.841797"/>
      <use xlink:href="#DejaVuSans-55" x="331.25"/>
      <use xlink:href="#DejaVuSans-43" x="404.443359"/>
      <use xlink:href="#DejaVuSans-20" x="474.267578"/>
      <use xlink:href="#DejaVuSans-3d" x="506.054688"/>
      <use xlink:href="#DejaVuSans-20" x="589.84375"/>
      <use xlink:href="#DejaVuSans-30" x="621.630859"/>
      <use xlink:href="#DejaVuSans-2e" x="685.253906"/>
      <use xlink:href="#DejaVuSans-38" x="717.041016"/>
      <use xlink:href="#DejaVuSans-33" x="780.664062"/>
      <use xlink:href="#DejaVuSans-29" x="844.287109"/>
     </g>
    </g>
   </g>
  </g>
  <g id="axes_2">
   <g id="patch_8">
    <path d="M 474.41 251.44 
L 845.235 251.44 
L 845.235 25.44 
L 474.41 25.44 
z
" style="fill: #ffffff"/>
   </g>
   <g id="matplotlib.axis_3">
    <g id="xtick_7">
     <g id="line2d_18">
      <g>
       <use xlink:href="#m456c7a0894" x="474.41" y="251.44" style="stroke: #000000; stroke-width: 0.8"/>
      </g>
     </g>
     <g id="text_18">
      <!-- 0.0 -->
      <g transform="translate(466.458437 266.038437) scale(0.1 -0.1)">
       <use xlink:href="#DejaVuSans-30"/>
       <use xlink:href="#DejaVuSans-2e" x="63.623047"/>
       <use xlink:href="#DejaVuSans-30" x="95.410156"/>
      </g>
     </g>
    </g>
    <g id="xtick_8">
     <g id="line2d_19">
      <g>
       <use xlink:href="#m456c7a0894" x="548.575" y="251.44" style="stroke: #000000; stroke-width: 0.8"/>
      </g>
     </g>
     <g id="text_19">
      <!-- 0.2 -->
      <g transform="translate(540.623437 266.038437) scale(0.1 -0.1)">
       <use xlink:href="#DejaVuSans-30"/>
       <use xlink:href="#DejaVuSans-2e" x="63.623047"/>
       <use xlink:href="#DejaVuSans-32" x="95.410156"/>
      </g>
     </g>
    </g>
    <g id="xtick_9">
     <g id="line2d_20">
      <g>
       <use xlink:href="#m456c7a0894" x="622.74" y="251.44" style="stroke: #000000; stroke-width: 0.8"/>
      </g>
     </g>
     <g id="text_20">
      <!-- 0.4 -->
      <g transform="translate(614.788437 266.038437) scale(0.1 -0.1)">
       <use xlink:href="#DejaVuSans-30"/>
       <use xlink:href="#DejaVuSans-2e" x="63.623047"/>
       <use xlink:href="#DejaVuSans-34" x="95.410156"/>
      </g>
     </g>
    </g>
    <g id="xtick_10">
     <g id="line2d_21">
      <g>
       <use xlink:href="#m456c7a0894" x="696.905" y="251.44" style="stroke: #000000; stroke-width: 0.8"/>
      </g>
     </g>
     <g id="text_21">
      <!-- 0.6 -->
      <g transform="translate(688.953437 266.038437) scale(0.1 -0.1)">
       <use xlink:href="#DejaVuSans-30"/>
       <use xlink:href="#DejaVuSans-2e" x="63.623047"/>
       <use xlink:href="#DejaVuSans-36" x="95.410156"/>
      </g>
     </g>
    </g>
    <g id="xtick_11">
     <g id="line2d_22">
      <g>
       <use xlink:href="#m456c7a0894" x="771.07" y="251.44" style="stroke: #000000; stroke-width: 0.8"/>
      </g>
     </g>
     <g id="text_22">
      <!-- 0.8 -->
      <g transform="translate(763.118437 266.038437) scale(0.1 -0.1)">
       <use xlink:href="#DejaVuSans-30"/>
       <use xlink:href="#DejaVuSans-2e" x="63.623047"/>
       <use xlink:href="#DejaVuSans-38" x="95.410156"/>
      </g>
     </g>
    </g>
    <g id="xtick_12">
     <g id="line2d_23">
      <g>
       <use xlink:href="#m456c7a0894" x="845.235" y="251.44" style="stroke: #000000; stroke-width: 0.8"/>
      </g>
     </g>
     <g id="text_23">
      <!-- 1.0 -->
      <g transform="translate(837.283437 266.038437) scale(0.1 -0.1)">
       <use xlink:href="#DejaVuSans-31"/>
       <use xlink:href="#DejaVuSans-2e" x="63.623047"/>
       <use xlink:href="#DejaVuSans-30" x="95.410156"/>
      </g>
     </g>
    </g>
    <g id="text_24">
     <!-- Recall -->
     <g transform="translate(644.905313 279.716563) scale(0.1 -0.1)">
      <defs>
       <path id="DejaVuSans-63" d="M 3122 3366 
L 3122 2828 
Q 2878 2963 2633 3030 
Q 2388 3097 2138 3097 
Q 1578 3097 1268 2742 
Q 959 2388 959 1747 
Q 959 1106 1268 751 
Q 1578 397 2138 397 
Q 2388 397 2633 464 
Q 2878 531 3122 666 
L 3122 134 
Q 2881 22 2623 -34 
Q 2366 -91 2075 -91 
Q 1284 -91 818 406 
Q 353 903 353 1747 
Q 353 2603 823 3093 
Q 1294 3584 2113 3584 
Q 2378 3584 2631 3529 
Q 2884 3475 3122 3366 
z
" transform="scale(0.015625)"/>
      </defs>
      <use xlink:href="#DejaVuSans-52"/>
      <use xlink:href="#DejaVuSans-65" x="64.982422"/>
      <use xlink:href="#DejaVuSans-63" x="126.505859"/>
      <use xlink:href="#DejaVuSans-61" x="181.486328"/>
      <use xlink:href="#DejaVuSans-6c" x="242.765625"/>
      <use xlink:href="#DejaVuSans-6c" x="270.548828"/>
     </g>
    </g>
   </g>
   <g id="matplotlib.axis_4">
    <g id="ytick_7">
     <g id="line2d_24">
      <g>
       <use xlink:href="#md14aba8cd6" x="474.41" y="251.44" style="stroke: #000000; stroke-width: 0.8"/>
      </g>
     </g>
     <g id="text_25">
      <!-- 0.0 -->
      <g transform="translate(451.506875 255.239219) scale(0.1 -0.1)">
       <use xlink:href="#DejaVuSans-30"/>
       <use xlink:href="#DejaVuSans-2e" x="63.623047"/>
       <use xlink:href="#DejaVuSans-30" x="95.410156"/>
      </g>
     </g>
    </g>
    <g id="ytick_8">
     <g id="line2d_25">
      <g>
       <use xlink:href="#md14aba8cd6" x="474.41" y="208.392381" style="stroke: #000000; stroke-width: 0.8"/>
      </g>
     </g>
     <g id="text_26">
      <!-- 0.2 -->
      <g transform="translate(451.506875 212.1916) scale(0.1 -0.1)">
       <use xlink:href="#DejaVuSans-30"/>
       <use xlink:href="#DejaVuSans-2e" x="63.623047"/>
       <use xlink:href="#DejaVuSans-32" x="95.410156"/>
      </g>
     </g>
    </g>
    <g id="ytick_9">
     <g id="line2d_26">
      <g>
       <use xlink:href="#md14aba8cd6" x="474.41" y="165.344762" style="stroke: #000000; stroke-width: 0.8"/>
      </g>
     </g>
     <g id="text_27">
      <!-- 0.4 -->
      <g transform="translate(451.506875 169.143981) scale(0.1 -0.1)">
       <use xlink:href="#DejaVuSans-30"/>
       <use xlink:href="#DejaVuSans-2e" x="63.623047"/>
       <use xlink:href="#DejaVuSans-34" x="95.410156"/>
      </g>
     </g>
    </g>
    <g id="ytick_10">
     <g id="line2d_27">
      <g>
       <use xlink:href="#md14aba8cd6" x="474.41" y="122.297143" style="stroke: #000000; stroke-width: 0.8"/>
      </g>
     </g>
     <g id="text_28">
      <!-- 0.6 -->
      <g transform="translate(451.506875 126.096362) scale(0.1 -0.1)">
       <use xlink:href="#DejaVuSans-30"/>
       <use xlink:href="#DejaVuSans-2e" x="63.623047"/>
       <use xlink:href="#DejaVuSans-36" x="95.410156"/>
      </g>
     </g>
    </g>
    <g id="ytick_11">
     <g id="line2d_28">
      <g>
       <use xlink:href="#md14aba8cd6" x="474.41" y="79.249524" style="stroke: #000000; stroke-width: 0.8"/>
      </g>
     </g>
     <g id="text_29">
      <!-- 0.8 -->
      <g transform="translate(451.506875 83.048743) scale(0.1 -0.1)">
       <use xlink:href="#DejaVuSans-30"/>
       <use xlink:href="#DejaVuSans-2e" x="63.623047"/>
       <use xlink:href="#DejaVuSans-38" x="95.410156"/>
      </g>
     </g>
    </g>
    <g id="ytick_12">
     <g id="line2d_29">
      <g>
       <use xlink:href="#md14aba8cd6" x="474.41" y="36.201905" style="stroke: #000000; stroke-width: 0.8"/>
      </g>
     </g>
     <g id="text_30">
      <!-- 1.0 -->
      <g transform="translate(451.506875 40.001124) scale(0.1 -0.1)">
       <use xlink:href="#DejaVuSans-31"/>
       <use xlink:href="#DejaVuSans-2e" x="63.623047"/>
       <use xlink:href="#DejaVuSans-30" x="95.410156"/>
      </g>
     </g>
    </g>
    <g id="text_31">
     <!-- Precision -->
     <g transform="translate(445.427188 160.747031) rotate(-90) scale(0.1 -0.1)">
      <use xlink:href="#DejaVuSans-50"/>
      <use xlink:href="#DejaVuSans-72" x="58.552734"/>
      <use xlink:href="#DejaVuSans-65" x="97.416016"/>
      <use xlink:href="#DejaVuSans-63" x="158.939453"/>
      <use xlink:href="#DejaVuSans-69" x="213.919922"/>
      <use xlink:href="#DejaVuSans-73" x="241.703125"/>
      <use xlink:href="#DejaVuSans-69" x="293.802734"/>
      <use xlink:href="#DejaVuSans-6f" x="321.585938"/>
      <use xlink:href="#DejaVuSans-6e" x="382.767578"/>
     </g>
    </g>
   </g>
   <g id="line2d_30">
    <path d="M 845.235 171.355592 
L 845.235 170.680344 
L 844.401685 170.793828 
L 844.401685 170.725714 
L 844.401685 167.463098 
L 843.568371 167.578543 
L 843.568371 167.504722 
L 843.568371 166.684021 
L 842.735056 166.800108 
L 842.735056 166.724739 
L 842.735056 166.040325 
L 841.901742 166.156981 
L 841.901742 166.080288 
L 841.901742 165.694743 
L 841.068427 165.811825 
L 841.068427 165.734333 
L 841.068427 161.072861 
L 840.235112 161.192126 
L 840.235112 161.105847 
L 840.235112 158.529947 
L 839.401798 158.650349 
L 839.401798 158.55893 
L 839.401798 156.501142 
L 838.568483 156.622412 
L 838.568483 156.526733 
L 838.568483 156.334795 
L 837.735169 156.456387 
L 837.735169 156.360152 
L 837.735169 153.686032 
L 836.901854 153.808539 
L 836.901854 153.706627 
L 836.901854 151.835137 
L 835.235225 152.08169 
L 835.235225 151.975651 
L 835.235225 147.540228 
L 834.40191 147.66449 
L 834.40191 146.96488 
L 833.568596 147.089472 
L 833.568596 143.945656 
L 832.735281 144.070649 
L 832.735281 140.598825 
L 831.901966 140.724001 
L 831.901966 140.056233 
L 831.068652 140.181661 
L 831.068652 139.641572 
L 830.235337 139.767258 
L 830.235337 139.631403 
L 829.402022 139.757383 
L 829.402022 139.484654 
L 828.568708 139.610916 
L 828.568708 139.336825 
L 827.735393 139.463371 
L 827.735393 139.325808 
L 826.068764 139.579808 
L 826.068764 138.747102 
L 825.235449 138.874487 
L 825.235449 138.453419 
L 824.402135 138.581074 
L 824.402135 137.729308 
L 823.56882 137.857176 
L 823.56882 136.701117 
L 822.735506 136.829142 
L 822.735506 136.682954 
L 821.902191 136.811283 
L 821.902191 136.664699 
L 820.235562 136.922295 
L 820.235562 136.331998 
L 818.568933 136.590732 
L 818.568933 134.782082 
L 817.735618 134.911623 
L 817.735618 134.295885 
L 816.902303 134.425639 
L 816.902303 134.115256 
L 816.068989 134.245287 
L 816.068989 133.145604 
L 814.40236 133.406206 
L 814.40236 131.30711 
L 813.569045 131.437391 
L 813.569045 130.442894 
L 812.73573 130.573241 
L 812.73573 129.731551 
L 811.902416 129.861996 
L 811.902416 129.351164 
L 811.069101 129.481809 
L 811.069101 129.138748 
L 810.235787 129.269645 
L 810.235787 129.097331 
L 808.569157 129.360119 
L 808.569157 129.013793 
L 807.735843 129.145628 
L 807.735843 128.622257 
L 806.902528 128.754286 
L 806.902528 128.402751 
L 806.069213 128.535033 
L 806.069213 128.358446 
L 805.235899 128.491045 
L 805.235899 128.136214 
L 804.402584 128.269067 
L 804.402584 127.91205 
L 803.56927 128.045156 
L 803.56927 127.324602 
L 802.735955 127.457822 
L 802.735955 124.677953 
L 801.90264 124.810402 
L 801.90264 124.620553 
L 801.069326 124.753313 
L 801.069326 123.017879 
L 799.402697 123.282966 
L 799.402697 122.890448 
L 798.569382 123.023406 
L 798.569382 120.615595 
L 797.736067 120.747698 
L 797.736067 118.458502 
L 796.902753 118.589692 
L 796.902753 117.521764 
L 796.069438 117.652714 
L 796.069438 116.127452 
L 794.402809 116.388646 
L 794.402809 115.723369 
L 793.569494 115.85416 
L 793.569494 115.406682 
L 791.902865 115.66895 
L 791.902865 114.991224 
L 790.236236 115.254294 
L 790.236236 114.79806 
L 789.402921 114.929933 
L 789.402921 113.541695 
L 787.736292 113.804755 
L 787.736292 112.62435 
L 786.902978 112.75566 
L 786.902978 112.516961 
L 785.236348 112.780571 
L 785.236348 111.572736 
L 784.403034 111.704273 
L 784.403034 108.460408 
L 783.569719 108.589672 
L 783.569719 107.818897 
L 781.90309 108.077442 
L 781.90309 107.818197 
L 779.403146 108.208831 
L 779.403146 107.947937 
L 777.736517 108.210262 
L 777.736517 107.420392 
L 776.903202 107.55155 
L 776.903202 107.286073 
L 776.069888 107.417467 
L 776.069888 106.614367 
L 775.236573 106.745489 
L 775.236573 106.475537 
L 774.403258 106.606889 
L 774.403258 106.063425 
L 768.570056 106.993141 
L 768.570056 106.718005 
L 767.736742 106.852577 
L 767.736742 106.298602 
L 766.903427 106.433145 
L 766.903427 105.874352 
L 765.236798 106.143878 
L 765.236798 104.437857 
L 763.570169 104.705974 
L 763.570169 104.417128 
L 762.736854 104.551675 
L 762.736854 104.261382 
L 761.903539 104.396153 
L 761.903539 103.517405 
L 758.570281 104.058091 
L 758.570281 103.761548 
L 756.070337 104.17183 
L 756.070337 103.272024 
L 755.237022 103.408902 
L 755.237022 102.802217 
L 752.737079 103.214178 
L 752.737079 102.907926 
L 751.903764 103.046034 
L 751.903764 102.738162 
L 750.237135 103.015397 
L 750.237135 102.705533 
L 749.40382 102.844662 
L 749.40382 102.533142 
L 746.903876 102.95296 
L 746.903876 102.323777 
L 745.237247 102.605147 
L 745.237247 101.004772 
L 744.403933 101.144433 
L 744.403933 99.837516 
L 740.23736 100.536808 
L 740.23736 99.19842 
L 738.57073 99.479029 
L 738.57073 98.45687 
L 735.237472 99.020263 
L 735.237472 97.97867 
L 732.737528 98.40374 
L 732.737528 98.051932 
L 730.237584 98.481446 
L 730.237584 97.051927 
L 728.570955 97.337608 
L 728.570955 96.61071 
L 726.071011 97.041176 
L 726.071011 96.304189 
L 725.237697 96.447974 
L 725.237697 96.076291 
L 723.571067 96.364842 
L 723.571067 95.990265 
L 721.904438 96.280499 
L 721.904438 95.902982 
L 717.737865 96.638217 
L 717.737865 96.255991 
L 716.904551 96.404639 
L 716.904551 96.019936 
L 716.071236 96.168737 
L 716.071236 95.781527 
L 715.237921 95.930476 
L 715.237921 95.540728 
L 714.404607 95.689821 
L 714.404607 95.297503 
L 712.737978 95.596721 
L 712.737978 94.404043 
L 706.071461 95.616587 
L 706.071461 95.209738 
L 704.404831 95.51949 
L 704.404831 94.282026 
L 701.904888 94.746667 
L 701.904888 94.327701 
L 701.071573 94.483534 
L 701.071573 94.061608 
L 700.238258 94.217564 
L 700.238258 92.935859 
L 699.404944 93.090448 
L 699.404944 92.657799 
L 692.738427 93.919383 
L 692.738427 93.034436 
L 691.071798 93.355523 
L 691.071798 92.907692 
L 688.571854 93.393741 
L 688.571854 92.940887 
L 682.738652 94.102211 
L 682.738652 93.176695 
L 681.905337 93.344762 
L 681.905337 91.457058 
L 680.238708 91.78892 
L 680.238708 91.308044 
L 679.405393 91.474527 
L 679.405393 90.502093 
L 676.072135 91.170403 
L 676.072135 90.675744 
L 674.405506 91.014091 
L 674.405506 90.514321 
L 672.738876 90.854838 
L 672.738876 90.349853 
L 671.072247 90.692562 
L 671.072247 90.182252 
L 668.572303 90.701294 
L 668.572303 90.18445 
L 667.738989 90.358587 
L 667.738989 89.837288 
L 666.905674 90.011429 
L 666.905674 88.423607 
L 666.07236 88.595388 
L 666.07236 86.424127 
L 664.40573 86.761189 
L 664.40573 86.206715 
L 663.572416 86.37565 
L 663.572416 85.252763 
L 660.239157 85.929327 
L 660.239157 85.356625 
L 657.739213 85.872234 
L 657.739213 84.706264 
L 654.405955 85.399184 
L 654.405955 84.804055 
L 648.572753 86.054846 
L 648.572753 85.444569 
L 647.739438 85.626949 
L 647.739438 85.010543 
L 643.572865 85.934949 
L 643.572865 85.305653 
L 641.072921 85.872234 
L 641.072921 85.232977 
L 639.406292 85.614541 
L 639.406292 84.966786 
L 635.239719 85.938198 
L 635.239719 85.27619 
L 633.57309 85.671951 
L 633.57309 85.000825 
L 632.739775 85.199195 
L 632.739775 82.451413 
L 627.739888 83.627248 
L 627.739888 82.913151 
L 621.073371 84.559362 
L 621.073371 83.820952 
L 615.240169 85.343022 
L 615.240169 84.58111 
L 612.740225 85.256168 
L 612.740225 84.479608 
L 608.573652 85.634577 
L 608.573652 84.837436 
L 605.240393 85.791074 
L 605.240393 84.975069 
L 602.740449 85.706667 
L 602.740449 84.873836 
L 597.740562 86.386953 
L 597.740562 84.658649 
L 595.240618 85.431895 
L 595.240618 84.544151 
L 594.407303 84.804055 
L 594.407303 83.90332 
L 592.740674 84.424647 
L 592.740674 83.506981 
L 591.90736 83.768335 
L 591.90736 82.836825 
L 591.074045 83.097356 
L 591.074045 82.15161 
L 590.24073 82.411213 
L 590.24073 81.450823 
L 588.574101 81.970925 
L 588.574101 80.991335 
L 586.907472 81.515188 
L 586.907472 80.51563 
L 581.907584 82.136864 
L 581.907584 81.098195 
L 581.07427 81.375332 
L 581.07427 80.31903 
L 580.240955 80.594762 
L 580.240955 79.520264 
L 579.40764 79.79443 
L 579.40764 78.701146 
L 572.741124 80.982985 
L 571.907809 81.28556 
L 571.907809 80.128047 
L 570.24118 80.733924 
L 570.24118 79.548466 
L 568.574551 80.158981 
L 568.574551 78.944222 
L 566.074607 79.873402 
L 566.074607 77.350364 
L 563.574663 78.278525 
L 563.574663 75.634838 
L 560.241404 76.87682 
L 560.241404 75.491398 
L 554.408202 77.802545 
L 554.408202 76.331041 
L 551.074944 77.739081 
L 551.074944 76.201905 
L 550.241629 76.559048 
L 550.241629 74.983544 
L 546.075056 76.812866 
L 546.075056 71.726639 
L 541.075169 73.924045 
L 536.908596 75.974161 
L 532.742022 78.259923 
L 530.242079 79.761995 
L 530.242079 77.693586 
L 526.075506 80.353309 
L 525.242191 80.926704 
L 525.242191 78.683108 
L 521.908933 81.043175 
L 521.908933 78.643219 
L 519.408989 80.51563 
L 519.408989 77.96452 
L 516.07573 80.616115 
L 512.742472 83.627248 
L 510.242528 86.167891 
L 510.242528 83.162944 
L 507.742584 85.872234 
L 506.90927 86.846162 
L 506.90927 83.554286 
L 506.075955 84.520661 
L 506.075955 81.043175 
L 505.24264 81.997244 
L 505.24264 78.313706 
L 502.742697 81.251739 
L 500.242753 84.630476 
L 500.242753 75.851028 
L 499.409438 76.922625 
L 499.409438 72.074921 
L 497.742809 74.185098 
L 496.909494 75.336104 
L 496.909494 69.832857 
L 495.242865 72.074921 
L 494.409551 73.311921 
L 494.409551 66.950204 
L 492.742921 69.315458 
L 491.076292 72.074921 
L 489.409663 75.336104 
L 488.576348 77.199637 
L 488.576348 68.487619 
L 487.743034 70.186867 
L 487.743034 60.117249 
L 486.076404 63.106667 
L 484.409775 66.950204 
L 484.409775 52.758681 
L 483.576461 54.138413 
L 482.743146 55.769004 
L 481.909831 57.725714 
L 481.076517 60.117249 
L 481.076517 36.201905 
L 474.41 36.201905 
L 474.41 36.201905 
" clip-path="url(#p1d9af29515)" style="fill: none; stroke: #1f77b4; stroke-width: 1.5; stroke-linecap: square"/>
   </g>
   <g id="line2d_31">
    <path d="M 845.235 171.062867 
L 845.235 168.996616 
L 842.746242 169.338871 
L 842.746242 161.198532 
L 840.257483 161.553636 
L 840.257483 158.92538 
L 837.768725 159.285273 
L 837.768725 157.634741 
L 835.279966 157.998312 
L 835.279966 153.910238 
L 832.791208 154.27923 
L 832.791208 150.809202 
L 825.324933 151.936487 
L 825.324933 150.948042 
L 822.836174 151.329258 
L 822.836174 146.81037 
L 817.858658 147.583856 
L 817.858658 146.110719 
L 815.369899 146.501854 
L 815.369899 145.749609 
L 812.881141 146.143666 
L 812.881141 140.978185 
L 810.392383 141.375065 
L 810.392383 139.250259 
L 805.414866 140.052192 
L 805.414866 139.617083 
L 802.926107 140.022633 
L 802.926107 135.474985 
L 800.437349 135.881842 
L 800.437349 131.456211 
L 797.948591 131.86328 
L 797.948591 130.310336 
L 795.459832 130.719503 
L 795.459832 128.582857 
L 792.971074 128.993439 
L 792.971074 128.446803 
L 790.482315 128.860457 
L 790.482315 126.621561 
L 787.993557 127.03633 
L 787.993557 125.884444 
L 785.504799 126.301573 
L 785.504799 125.716814 
L 780.527282 126.561294 
L 780.527282 125.371973 
L 778.038523 125.798624 
L 778.038523 125.194579 
L 773.061007 126.058585 
L 773.061007 123.575785 
L 770.572248 124.010481 
L 770.572248 123.373333 
L 768.08349 123.811381 
L 768.08349 120.521983 
L 765.594732 120.958875 
L 765.594732 116.048295 
L 763.105973 116.479897 
L 763.105973 115.746418 
L 760.617215 116.181088 
L 760.617215 115.437907 
L 755.639698 116.318307 
L 755.639698 115.563437 
L 753.15094 116.009288 
L 753.15094 112.095106 
L 748.173423 112.982746 
L 748.173423 111.344198 
L 745.684664 111.791474 
L 745.684664 110.108962 
L 743.195906 110.556883 
L 743.195906 109.69784 
L 740.707148 110.148735 
L 740.707148 108.393564 
L 730.752114 110.232842 
L 730.752114 107.482053 
L 728.263356 107.947937 
L 728.263356 103.100232 
L 725.774597 103.555322 
L 725.774597 102.542414 
L 723.285839 102.999934 
L 723.285839 100.923849 
L 720.797081 101.379638 
L 720.797081 98.140925 
L 718.308322 98.589758 
L 718.308322 97.474063 
L 715.819564 97.924594 
L 715.819564 96.787443 
L 705.86453 98.637383 
L 705.86453 97.461978 
L 703.375772 97.936862 
L 703.375772 96.737619 
L 693.420738 98.690384 
L 693.420738 97.448517 
L 690.93198 97.950539 
L 690.93198 96.682031 
L 688.443221 97.186032 
L 688.443221 95.88978 
L 685.954463 96.395609 
L 685.954463 95.070444 
L 680.976946 96.094244 
L 680.976946 93.344762 
L 678.488188 93.854966 
L 678.488188 84.935058 
L 673.510671 85.872234 
L 673.510671 82.625808 
L 666.044396 84.032593 
L 666.044396 82.324354 
L 656.089362 84.287011 
L 656.089362 82.489667 
L 648.623087 84.032593 
L 648.623087 82.15161 
L 638.668054 84.31395 
L 638.668054 82.324354 
L 633.690537 83.449292 
L 633.690537 81.375332 
L 631.201779 81.94 
L 631.201779 77.593846 
L 628.71302 78.131404 
L 628.71302 73.509841 
L 618.757987 75.611697 
L 608.802953 77.96452 
L 601.336678 79.922143 
L 601.336678 77.199637 
L 598.847919 77.860891 
L 598.847919 75.015332 
L 596.359161 75.662222 
L 596.359161 69.60092 
L 588.892886 71.422684 
L 581.426611 73.454652 
L 581.426611 69.964743 
L 573.960336 72.074921 
L 573.960336 64.276439 
L 566.49406 66.235127 
L 559.027785 68.487619 
L 554.050268 70.186867 
L 554.050268 65.288134 
L 551.56151 66.096085 
L 551.56151 60.800544 
L 546.583993 62.291371 
L 541.606477 63.974562 
L 539.117718 64.900317 
L 539.117718 51.576054 
L 534.140201 52.758681 
L 529.162685 54.138413 
L 524.185168 55.769004 
L 519.207651 57.725714 
L 516.718893 58.858546 
L 514.230134 60.117249 
L 511.741376 61.524034 
L 509.252617 63.106667 
L 506.763859 64.900317 
L 504.275101 66.950204 
L 501.786342 69.315458 
L 499.297584 72.074921 
L 496.808826 75.336104 
L 494.320067 79.249524 
L 491.831309 84.032593 
L 489.34255 90.011429 
L 489.34255 66.950204 
L 486.853792 72.074921 
L 484.365034 79.249524 
L 481.876275 90.011429 
L 481.876275 36.201905 
L 474.41 36.201905 
L 474.41 36.201905 
" clip-path="url(#p1d9af29515)" style="fill: none; stroke: #ff7f0e; stroke-width: 1.5; stroke-linecap: square"/>
   </g>
   <g id="patch_9">
    <path d="M 474.41 251.44 
L 474.41 25.44 
" style="fill: none; stroke: #000000; stroke-width: 0.8; stroke-linejoin: miter; stroke-linecap: square"/>
   </g>
   <g id="patch_10">
    <path d="M 845.235 251.44 
L 845.235 25.44 
" style="fill: none; stroke: #000000; stroke-width: 0.8; stroke-linejoin: miter; stroke-linecap: square"/>
   </g>
   <g id="patch_11">
    <path d="M 474.41 251.44 
L 845.235 251.44 
" style="fill: none; stroke: #000000; stroke-width: 0.8; stroke-linejoin: miter; stroke-linecap: square"/>
   </g>
   <g id="patch_12">
    <path d="M 474.41 25.44 
L 845.235 25.44 
" style="fill: none; stroke: #000000; stroke-width: 0.8; stroke-linejoin: miter; stroke-linecap: square"/>
   </g>
   <g id="text_32">
    <!-- Precision-Recall Curve -->
    <g transform="translate(593.38 19.44) scale(0.12 -0.12)">
     <defs>
      <path id="DejaVuSans-2d" d="M 313 2009 
L 1997 2009 
L 1997 1497 
L 313 1497 
L 313 2009 
z
" transform="scale(0.015625)"/>
     </defs>
     <use xlink:href="#DejaVuSans-50"/>
     <use xlink:href="#DejaVuSans-72" x="58.552734"/>
     <use xlink:href="#DejaVuSans-65" x="97.416016"/>
     <use xlink:href="#DejaVuSans-63" x="158.939453"/>
     <use xlink:href="#DejaVuSans-69" x="213.919922"/>
     <use xlink:href="#DejaVuSans-73" x="241.703125"/>
     <use xlink:href="#DejaVuSans-69" x="293.802734"/>
     <use xlink:href="#DejaVuSans-6f" x="321.585938"/>
     <use xlink:href="#DejaVuSans-6e" x="382.767578"/>
     <use xlink:href="#DejaVuSans-2d" x="446.146484"/>
     <use xlink:href="#DejaVuSans-52" x="482.230469"/>
     <use xlink:href="#DejaVuSans-65" x="547.212891"/>
     <use xlink:href="#DejaVuSans-63" x="608.736328"/>
     <use xlink:href="#DejaVuSans-61" x="663.716797"/>
     <use xlink:href="#DejaVuSans-6c" x="724.996094"/>
     <use xlink:href="#DejaVuSans-6c" x="752.779297"/>
     <use xlink:href="#DejaVuSans-20" x="780.5625"/>
     <use xlink:href="#DejaVuSans-43" x="812.349609"/>
     <use xlink:href="#DejaVuSans-75" x="882.173828"/>
     <use xlink:href="#DejaVuSans-72" x="945.552734"/>
     <use xlink:href="#DejaVuSans-76" x="986.666016"/>
     <use xlink:href="#DejaVuSans-65" x="1045.845703"/>
    </g>
   </g>
   <g id="legend_2">
    <g id="patch_13">
     <path d="M 481.41 246.44 
L 605.81 246.44 
Q 607.81 246.44 607.81 244.44 
L 607.81 216.08375 
Q 607.81 214.08375 605.81 214.08375 
L 481.41 214.08375 
Q 479.41 214.08375 479.41 216.08375 
L 479.41 244.44 
Q 479.41 246.44 481.41 246.44 
z
" style="fill: #ffffff; opacity: 0.8; stroke: #cccccc; stroke-linejoin: miter"/>
    </g>
    <g id="line2d_32">
     <path d="M 483.41 222.182187 
L 493.41 222.182187 
L 503.41 222.182187 
" style="fill: none; stroke: #1f77b4; stroke-width: 1.5; stroke-linecap: square"/>
    </g>
    <g id="text_33">
     <!-- train (AUC = 0.73) -->
     <g transform="translate(511.41 225.682187) scale(0.1 -0.1)">
      <defs>
       <path id="DejaVuSans-37" d="M 525 4666 
L 3525 4666 
L 3525 4397 
L 1831 0 
L 1172 0 
L 2766 4134 
L 525 4134 
L 525 4666 
z
" transform="scale(0.015625)"/>
      </defs>
      <use xlink:href="#DejaVuSans-74"/>
      <use xlink:href="#DejaVuSans-72" x="39.208984"/>
      <use xlink:href="#DejaVuSans-61" x="80.322266"/>
      <use xlink:href="#DejaVuSans-69" x="141.601562"/>
      <use xlink:href="#DejaVuSans-6e" x="169.384766"/>
      <use xlink:href="#DejaVuSans-20" x="232.763672"/>
      <use xlink:href="#DejaVuSans-28" x="264.550781"/>
      <use xlink:href="#DejaVuSans-41" x="303.564453"/>
      <use xlink:href="#DejaVuSans-55" x="371.972656"/>
      <use xlink:href="#DejaVuSans-43" x="445.166016"/>
      <use xlink:href="#DejaVuSans-20" x="514.990234"/>
      <use xlink:href="#DejaVuSans-3d" x="546.777344"/>
      <use xlink:href="#DejaVuSans-20" x="630.566406"/>
      <use xlink:href="#DejaVuSans-30" x="662.353516"/>
      <use xlink:href="#DejaVuSans-2e" x="725.976562"/>
      <use xlink:href="#DejaVuSans-37" x="757.763672"/>
      <use xlink:href="#DejaVuSans-33" x="821.386719"/>
      <use xlink:href="#DejaVuSans-29" x="885.009766"/>
     </g>
    </g>
    <g id="line2d_33">
     <path d="M 483.41 236.860313 
L 493.41 236.860313 
L 503.41 236.860313 
" style="fill: none; stroke: #ff7f0e; stroke-width: 1.5; stroke-linecap: square"/>
    </g>
    <g id="text_34">
     <!-- test (AUC = 0.73) -->
     <g transform="translate(511.41 240.360313) scale(0.1 -0.1)">
      <use xlink:href="#DejaVuSans-74"/>
      <use xlink:href="#DejaVuSans-65" x="39.208984"/>
      <use xlink:href="#DejaVuSans-73" x="100.732422"/>
      <use xlink:href="#DejaVuSans-74" x="152.832031"/>
      <use xlink:href="#DejaVuSans-20" x="192.041016"/>
      <use xlink:href="#DejaVuSans-28" x="223.828125"/>
      <use xlink:href="#DejaVuSans-41" x="262.841797"/>
      <use xlink:href="#DejaVuSans-55" x="331.25"/>
      <use xlink:href="#DejaVuSans-43" x="404.443359"/>
      <use xlink:href="#DejaVuSans-20" x="474.267578"/>
      <use xlink:href="#DejaVuSans-3d" x="506.054688"/>
      <use xlink:href="#DejaVuSans-20" x="589.84375"/>
      <use xlink:href="#DejaVuSans-30" x="621.630859"/>
      <use xlink:href="#DejaVuSans-2e" x="685.253906"/>
      <use xlink:href="#DejaVuSans-37" x="717.041016"/>
      <use xlink:href="#DejaVuSans-33" x="780.664062"/>
      <use xlink:href="#DejaVuSans-29" x="844.287109"/>
     </g>
    </g>
   </g>
  </g>
  <g id="axes_3">
   <g id="patch_14">
    <path d="M 47.81 534.04 
L 418.635 534.04 
L 418.635 308.04 
L 47.81 308.04 
z
" style="fill: #ffffff"/>
   </g>
   <g id="matplotlib.axis_5">
    <g id="xtick_13">
     <g id="line2d_34">
      <g>
       <use xlink:href="#m456c7a0894" x="74.504491" y="534.04" style="stroke: #000000; stroke-width: 0.8"/>
      </g>
     </g>
     <g id="text_35">
      <!-- −0.2 -->
      <g transform="translate(62.363085 548.638438) scale(0.1 -0.1)">
       <defs>
        <path id="DejaVuSans-2212" d="M 678 2272 
L 4684 2272 
L 4684 1741 
L 678 1741 
L 678 2272 
z
" transform="scale(0.015625)"/>
       </defs>
       <use xlink:href="#DejaVuSans-2212"/>
       <use xlink:href="#DejaVuSans-30" x="83.789062"/>
       <use xlink:href="#DejaVuSans-2e" x="147.412109"/>
       <use xlink:href="#DejaVuSans-32" x="179.199219"/>
      </g>
     </g>
    </g>
    <g id="xtick_14">
     <g id="line2d_35">
      <g>
       <use xlink:href="#m456c7a0894" x="121.184275" y="534.04" style="stroke: #000000; stroke-width: 0.8"/>
      </g>
     </g>
     <g id="text_36">
      <!-- 0.0 -->
      <g transform="translate(113.232713 548.638438) scale(0.1 -0.1)">
       <use xlink:href="#DejaVuSans-30"/>
       <use xlink:href="#DejaVuSans-2e" x="63.623047"/>
       <use xlink:href="#DejaVuSans-30" x="95.410156"/>
      </g>
     </g>
    </g>
    <g id="xtick_15">
     <g id="line2d_36">
      <g>
       <use xlink:href="#m456c7a0894" x="167.86406" y="534.04" style="stroke: #000000; stroke-width: 0.8"/>
      </g>
     </g>
     <g id="text_37">
      <!-- 0.2 -->
      <g transform="translate(159.912498 548.638438) scale(0.1 -0.1)">
       <use xlink:href="#DejaVuSans-30"/>
       <use xlink:href="#DejaVuSans-2e" x="63.623047"/>
       <use xlink:href="#DejaVuSans-32" x="95.410156"/>
      </g>
     </g>
    </g>
    <g id="xtick_16">
     <g id="line2d_37">
      <g>
       <use xlink:href="#m456c7a0894" x="214.543845" y="534.04" style="stroke: #000000; stroke-width: 0.8"/>
      </g>
     </g>
     <g id="text_38">
      <!-- 0.4 -->
      <g transform="translate(206.592282 548.638438) scale(0.1 -0.1)">
       <use xlink:href="#DejaVuSans-30"/>
       <use xlink:href="#DejaVuSans-2e" x="63.623047"/>
       <use xlink:href="#DejaVuSans-34" x="95.410156"/>
      </g>
     </g>
    </g>
    <g id="xtick_17">
     <g id="line2d_38">
      <g>
       <use xlink:href="#m456c7a0894" x="261.22363" y="534.04" style="stroke: #000000; stroke-width: 0.8"/>
      </g>
     </g>
     <g id="text_39">
      <!-- 0.6 -->
      <g transform="translate(253.272067 548.638438) scale(0.1 -0.1)">
       <use xlink:href="#DejaVuSans-30"/>
       <use xlink:href="#DejaVuSans-2e" x="63.623047"/>
       <use xlink:href="#DejaVuSans-36" x="95.410156"/>
      </g>
     </g>
    </g>
    <g id="xtick_18">
     <g id="line2d_39">
      <g>
       <use xlink:href="#m456c7a0894" x="307.903414" y="534.04" style="stroke: #000000; stroke-width: 0.8"/>
      </g>
     </g>
     <g id="text_40">
      <!-- 0.8 -->
      <g transform="translate(299.951852 548.638438) scale(0.1 -0.1)">
       <use xlink:href="#DejaVuSans-30"/>
       <use xlink:href="#DejaVuSans-2e" x="63.623047"/>
       <use xlink:href="#DejaVuSans-38" x="95.410156"/>
      </g>
     </g>
    </g>
    <g id="xtick_19">
     <g id="line2d_40">
      <g>
       <use xlink:href="#m456c7a0894" x="354.583199" y="534.04" style="stroke: #000000; stroke-width: 0.8"/>
      </g>
     </g>
     <g id="text_41">
      <!-- 1.0 -->
      <g transform="translate(346.631637 548.638438) scale(0.1 -0.1)">
       <use xlink:href="#DejaVuSans-31"/>
       <use xlink:href="#DejaVuSans-2e" x="63.623047"/>
       <use xlink:href="#DejaVuSans-30" x="95.410156"/>
      </g>
     </g>
    </g>
    <g id="xtick_20">
     <g id="line2d_41">
      <g>
       <use xlink:href="#m456c7a0894" x="401.262984" y="534.04" style="stroke: #000000; stroke-width: 0.8"/>
      </g>
     </g>
     <g id="text_42">
      <!-- 1.2 -->
      <g transform="translate(393.311421 548.638438) scale(0.1 -0.1)">
       <use xlink:href="#DejaVuSans-31"/>
       <use xlink:href="#DejaVuSans-2e" x="63.623047"/>
       <use xlink:href="#DejaVuSans-32" x="95.410156"/>
      </g>
     </g>
    </g>
    <g id="text_43">
     <!-- Predicted Probability -->
     <g transform="translate(181.734219 562.316563) scale(0.1 -0.1)">
      <defs>
       <path id="DejaVuSans-64" d="M 2906 2969 
L 2906 4863 
L 3481 4863 
L 3481 0 
L 2906 0 
L 2906 525 
Q 2725 213 2448 61 
Q 2172 -91 1784 -91 
Q 1150 -91 751 415 
Q 353 922 353 1747 
Q 353 2572 751 3078 
Q 1150 3584 1784 3584 
Q 2172 3584 2448 3432 
Q 2725 3281 2906 2969 
z
M 947 1747 
Q 947 1113 1208 752 
Q 1469 391 1925 391 
Q 2381 391 2643 752 
Q 2906 1113 2906 1747 
Q 2906 2381 2643 2742 
Q 2381 3103 1925 3103 
Q 1469 3103 1208 2742 
Q 947 2381 947 1747 
z
" transform="scale(0.015625)"/>
       <path id="DejaVuSans-62" d="M 3116 1747 
Q 3116 2381 2855 2742 
Q 2594 3103 2138 3103 
Q 1681 3103 1420 2742 
Q 1159 2381 1159 1747 
Q 1159 1113 1420 752 
Q 1681 391 2138 391 
Q 2594 391 2855 752 
Q 3116 1113 3116 1747 
z
M 1159 2969 
Q 1341 3281 1617 3432 
Q 1894 3584 2278 3584 
Q 2916 3584 3314 3078 
Q 3713 2572 3713 1747 
Q 3713 922 3314 415 
Q 2916 -91 2278 -91 
Q 1894 -91 1617 61 
Q 1341 213 1159 525 
L 1159 0 
L 581 0 
L 581 4863 
L 1159 4863 
L 1159 2969 
z
" transform="scale(0.015625)"/>
       <path id="DejaVuSans-79" d="M 2059 -325 
Q 1816 -950 1584 -1140 
Q 1353 -1331 966 -1331 
L 506 -1331 
L 506 -850 
L 844 -850 
Q 1081 -850 1212 -737 
Q 1344 -625 1503 -206 
L 1606 56 
L 191 3500 
L 800 3500 
L 1894 763 
L 2988 3500 
L 3597 3500 
L 2059 -325 
z
" transform="scale(0.015625)"/>
      </defs>
      <use xlink:href="#DejaVuSans-50"/>
      <use xlink:href="#DejaVuSans-72" x="58.552734"/>
      <use xlink:href="#DejaVuSans-65" x="97.416016"/>
      <use xlink:href="#DejaVuSans-64" x="158.939453"/>
      <use xlink:href="#DejaVuSans-69" x="222.416016"/>
      <use xlink:href="#DejaVuSans-63" x="250.199219"/>
      <use xlink:href="#DejaVuSans-74" x="305.179688"/>
      <use xlink:href="#DejaVuSans-65" x="344.388672"/>
      <use xlink:href="#DejaVuSans-64" x="405.912109"/>
      <use xlink:href="#DejaVuSans-20" x="469.388672"/>
      <use xlink:href="#DejaVuSans-50" x="501.175781"/>
      <use xlink:href="#DejaVuSans-72" x="559.728516"/>
      <use xlink:href="#DejaVuSans-6f" x="598.591797"/>
      <use xlink:href="#DejaVuSans-62" x="659.773438"/>
      <use xlink:href="#DejaVuSans-61" x="723.25"/>
      <use xlink:href="#DejaVuSans-62" x="784.529297"/>
      <use xlink:href="#DejaVuSans-69" x="848.005859"/>
      <use xlink:href="#DejaVuSans-6c" x="875.789062"/>
      <use xlink:href="#DejaVuSans-69" x="903.572266"/>
      <use xlink:href="#DejaVuSans-74" x="931.355469"/>
      <use xlink:href="#DejaVuSans-79" x="970.564453"/>
     </g>
    </g>
   </g>
   <g id="matplotlib.axis_6">
    <g id="ytick_13">
     <g id="line2d_42">
      <g>
       <use xlink:href="#md14aba8cd6" x="47.81" y="534.04" style="stroke: #000000; stroke-width: 0.8"/>
      </g>
     </g>
     <g id="text_44">
      <!-- 0.0 -->
      <g transform="translate(24.906875 537.839219) scale(0.1 -0.1)">
       <use xlink:href="#DejaVuSans-30"/>
       <use xlink:href="#DejaVuSans-2e" x="63.623047"/>
       <use xlink:href="#DejaVuSans-30" x="95.410156"/>
      </g>
     </g>
    </g>
    <g id="ytick_14">
     <g id="line2d_43">
      <g>
       <use xlink:href="#md14aba8cd6" x="47.81" y="492.412503" style="stroke: #000000; stroke-width: 0.8"/>
      </g>
     </g>
     <g id="text_45">
      <!-- 0.5 -->
      <g transform="translate(24.906875 496.211722) scale(0.1 -0.1)">
       <use xlink:href="#DejaVuSans-30"/>
       <use xlink:href="#DejaVuSans-2e" x="63.623047"/>
       <use xlink:href="#DejaVuSans-35" x="95.410156"/>
      </g>
     </g>
    </g>
    <g id="ytick_15">
     <g id="line2d_44">
      <g>
       <use xlink:href="#md14aba8cd6" x="47.81" y="450.785007" style="stroke: #000000; stroke-width: 0.8"/>
      </g>
     </g>
     <g id="text_46">
      <!-- 1.0 -->
      <g transform="translate(24.906875 454.584226) scale(0.1 -0.1)">
       <use xlink:href="#DejaVuSans-31"/>
       <use xlink:href="#DejaVuSans-2e" x="63.623047"/>
       <use xlink:href="#DejaVuSans-30" x="95.410156"/>
      </g>
     </g>
    </g>
    <g id="ytick_16">
     <g id="line2d_45">
      <g>
       <use xlink:href="#md14aba8cd6" x="47.81" y="409.15751" style="stroke: #000000; stroke-width: 0.8"/>
      </g>
     </g>
     <g id="text_47">
      <!-- 1.5 -->
      <g transform="translate(24.906875 412.956729) scale(0.1 -0.1)">
       <use xlink:href="#DejaVuSans-31"/>
       <use xlink:href="#DejaVuSans-2e" x="63.623047"/>
       <use xlink:href="#DejaVuSans-35" x="95.410156"/>
      </g>
     </g>
    </g>
    <g id="ytick_17">
     <g id="line2d_46">
      <g>
       <use xlink:href="#md14aba8cd6" x="47.81" y="367.530014" style="stroke: #000000; stroke-width: 0.8"/>
      </g>
     </g>
     <g id="text_48">
      <!-- 2.0 -->
      <g transform="translate(24.906875 371.329232) scale(0.1 -0.1)">
       <use xlink:href="#DejaVuSans-32"/>
       <use xlink:href="#DejaVuSans-2e" x="63.623047"/>
       <use xlink:href="#DejaVuSans-30" x="95.410156"/>
      </g>
     </g>
    </g>
    <g id="ytick_18">
     <g id="line2d_47">
      <g>
       <use xlink:href="#md14aba8cd6" x="47.81" y="325.902517" style="stroke: #000000; stroke-width: 0.8"/>
      </g>
     </g>
     <g id="text_49">
      <!-- 2.5 -->
      <g transform="translate(24.906875 329.701736) scale(0.1 -0.1)">
       <use xlink:href="#DejaVuSans-32"/>
       <use xlink:href="#DejaVuSans-2e" x="63.623047"/>
       <use xlink:href="#DejaVuSans-35" x="95.410156"/>
      </g>
     </g>
    </g>
    <g id="text_50">
     <!-- Density -->
     <g transform="translate(18.827187 440.048594) rotate(-90) scale(0.1 -0.1)">
      <defs>
       <path id="DejaVuSans-44" d="M 1259 4147 
L 1259 519 
L 2022 519 
Q 2988 519 3436 956 
Q 3884 1394 3884 2338 
Q 3884 3275 3436 3711 
Q 2988 4147 2022 4147 
L 1259 4147 
z
M 628 4666 
L 1925 4666 
Q 3281 4666 3915 4102 
Q 4550 3538 4550 2338 
Q 4550 1131 3912 565 
Q 3275 0 1925 0 
L 628 0 
L 628 4666 
z
" transform="scale(0.015625)"/>
      </defs>
      <use xlink:href="#DejaVuSans-44"/>
      <use xlink:href="#DejaVuSans-65" x="77.001953"/>
      <use xlink:href="#DejaVuSans-6e" x="138.525391"/>
      <use xlink:href="#DejaVuSans-73" x="201.904297"/>
      <use xlink:href="#DejaVuSans-69" x="254.003906"/>
      <use xlink:href="#DejaVuSans-74" x="281.787109"/>
      <use xlink:href="#DejaVuSans-79" x="320.996094"/>
     </g>
    </g>
   </g>
   <g id="line2d_48">
    <path d="M 75.306196 534.015166 
L 85.024367 533.878792 
L 91.503147 533.578491 
L 96.362233 533.120498 
L 99.601623 532.649632 
L 102.841014 532.011537 
L 106.080404 531.181358 
L 109.319794 530.143151 
L 112.559185 528.892801 
L 115.798575 527.438573 
L 119.037965 525.798471 
L 123.897051 523.036876 
L 128.756136 519.954184 
L 133.615222 516.527586 
L 136.854612 514.003597 
L 140.094003 511.242647 
L 143.333393 508.215624 
L 146.572783 504.920134 
L 151.431869 499.568952 
L 159.530345 490.460869 
L 162.769735 487.173986 
L 166.009125 484.288747 
L 169.248516 481.874491 
L 172.487906 479.930346 
L 175.727297 478.380688 
L 180.586382 476.473931 
L 183.825772 475.203426 
L 187.065163 473.705159 
L 190.304553 471.818574 
L 193.543943 469.444447 
L 196.783334 466.560752 
L 200.022724 463.224051 
L 203.262114 459.555805 
L 212.980286 448.17459 
L 216.219676 444.71912 
L 219.459066 441.558305 
L 222.698457 438.695559 
L 225.937847 436.100444 
L 230.796932 432.600078 
L 237.275713 428.367079 
L 245.374189 423.10247 
L 250.233275 419.598134 
L 253.472665 417.031766 
L 258.33175 412.85302 
L 268.049922 404.194752 
L 271.289312 401.610932 
L 274.528702 399.344521 
L 277.768093 397.454764 
L 281.007483 395.967974 
L 284.246873 394.887339 
L 287.486264 394.211271 
L 290.725654 393.955413 
L 292.345349 393.999565 
L 293.965044 394.171889 
L 295.584739 394.486254 
L 297.204435 394.959321 
L 298.82413 395.610055 
L 300.443825 396.459017 
L 302.06352 397.527456 
L 303.683215 398.836263 
L 305.302911 400.404852 
L 306.922606 402.250032 
L 308.542301 404.384962 
L 310.161996 406.818237 
L 311.781691 409.553188 
L 313.401386 412.587431 
L 315.021082 415.912687 
L 318.260472 423.37454 
L 321.499862 431.764932 
L 324.739253 440.846468 
L 331.218033 459.990276 
L 336.077119 474.165614 
L 339.316509 483.110564 
L 342.5559 491.455309 
L 345.79529 499.077692 
L 349.03468 505.893568 
L 352.274071 511.854487 
L 353.893766 514.508548 
L 355.513461 516.946051 
L 357.133156 519.170247 
L 358.752851 521.186256 
L 360.372546 523.000941 
L 361.992242 524.622741 
L 363.611937 526.061477 
L 365.231632 527.328128 
L 366.851327 528.434581 
L 368.471022 529.393364 
L 371.710413 530.919648 
L 374.949803 532.010081 
L 378.189193 532.762233 
L 381.428584 533.262579 
L 386.287669 533.69457 
L 392.76645 533.936879 
L 397.625536 534.002262 
L 397.625536 534.002262 
" clip-path="url(#p7f5748441a)" style="fill: none; stroke: #1f77b4; stroke-width: 1.5; stroke-linecap: square"/>
   </g>
   <g id="line2d_49">
    <path d="M 80.632395 533.686124 
L 83.649702 533.324192 
L 86.667009 532.656483 
L 88.175663 532.148831 
L 89.684316 531.483697 
L 91.19297 530.622889 
L 92.701623 529.522473 
L 94.210277 528.132966 
L 95.71893 526.399895 
L 97.227584 524.264777 
L 98.736237 521.666571 
L 100.244891 518.543609 
L 101.753544 514.835991 
L 103.262198 510.488389 
L 104.770851 505.453151 
L 106.279505 499.693566 
L 107.788158 493.187091 
L 109.296812 485.928361 
L 110.805466 477.931723 
L 113.822773 459.890989 
L 116.84008 439.621903 
L 125.892001 375.445588 
L 128.909308 356.906287 
L 130.417961 348.783847 
L 131.926615 341.555137 
L 133.435268 335.288594 
L 134.943922 330.028729 
L 136.452575 325.79624 
L 137.961229 322.589088 
L 139.469882 320.384353 
L 140.978536 319.140698 
L 142.48719 318.801236 
L 143.995843 319.296611 
L 145.504497 320.548104 
L 147.01315 322.470646 
L 148.521804 324.975618 
L 150.030457 327.973371 
L 151.539111 331.375447 
L 154.556418 339.055802 
L 159.082378 351.653626 
L 163.608339 364.177026 
L 166.625646 372.020789 
L 169.642953 379.34705 
L 172.66026 386.201265 
L 177.186221 395.908693 
L 184.729488 411.992707 
L 190.764102 425.568726 
L 196.798716 439.194244 
L 199.816023 445.62142 
L 202.833331 451.586688 
L 205.850638 456.991743 
L 208.867945 461.795954 
L 211.885252 466.012619 
L 214.902559 469.6967 
L 217.919866 472.92851 
L 220.937173 475.796864 
L 223.95448 478.383875 
L 228.48044 481.868089 
L 233.006401 484.954585 
L 236.023708 486.780126 
L 239.041015 488.389457 
L 242.058322 489.759063 
L 245.075629 490.885818 
L 248.092936 491.798701 
L 252.618897 492.913714 
L 258.653511 494.410528 
L 261.670818 495.344171 
L 266.196779 497.049689 
L 278.266007 502.046976 
L 282.791967 503.469787 
L 288.826581 505.000622 
L 294.861196 506.59459 
L 299.387156 508.088613 
L 303.913117 509.871843 
L 309.947731 512.539567 
L 322.016959 518.169134 
L 329.560227 521.951353 
L 340.120801 527.379188 
L 344.646762 529.388421 
L 347.664069 530.521395 
L 350.681376 531.466464 
L 353.698683 532.222344 
L 356.71599 532.801727 
L 361.241951 533.390753 
L 365.767911 533.727848 
L 371.802525 533.937757 
L 380.854446 534.025966 
L 380.854446 534.025966 
" clip-path="url(#p7f5748441a)" style="fill: none; stroke: #ff7f0e; stroke-width: 1.5; stroke-linecap: square"/>
   </g>
   <g id="line2d_50">
    <path d="M 64.665682 534.002422 
L 76.52395 533.82816 
L 83.300104 533.538063 
L 88.382219 533.134196 
L 93.464334 532.479482 
L 96.852411 531.852354 
L 100.240488 531.031549 
L 103.628564 529.979321 
L 107.016641 528.657728 
L 110.404718 527.031048 
L 113.792795 525.068608 
L 117.180871 522.747857 
L 120.568948 520.057349 
L 123.957025 516.999283 
L 127.345102 513.591175 
L 130.733178 509.86633 
L 134.121255 505.872875 
L 139.20337 499.514091 
L 152.755677 482.116127 
L 157.837792 476.10018 
L 161.225869 472.403999 
L 164.613946 469.013589 
L 168.002023 465.96734 
L 171.390099 463.295118 
L 174.778176 461.015715 
L 178.166253 459.133345 
L 181.55433 457.634022 
L 184.942406 456.482925 
L 188.330483 455.623891 
L 191.71856 454.981769 
L 205.270867 452.763567 
L 208.658944 451.87303 
L 212.04702 450.727846 
L 215.435097 449.301047 
L 218.823174 447.583322 
L 222.211251 445.579882 
L 225.599327 443.307428 
L 228.987404 440.792199 
L 234.069519 436.643832 
L 240.845673 430.67436 
L 247.621826 424.688299 
L 251.009903 421.879097 
L 254.39798 419.28953 
L 257.786056 416.976867 
L 261.174133 414.978203 
L 264.56221 413.307427 
L 267.950287 411.95663 
L 271.338363 410.902315 
L 274.72644 410.115655 
L 278.114517 409.574989 
L 281.502594 409.278045 
L 284.89067 409.251174 
L 288.278747 409.553324 
L 289.972786 409.854621 
L 291.666824 410.273461 
L 293.360862 410.824151 
L 295.054901 411.521431 
L 296.748939 412.379938 
L 298.442977 413.413655 
L 300.137016 414.635359 
L 301.831054 416.056101 
L 303.525093 417.684738 
L 305.219131 419.527536 
L 306.913169 421.587862 
L 308.607208 423.865972 
L 310.301246 426.358908 
L 313.689323 431.961452 
L 317.077399 438.309972 
L 320.465476 445.277082 
L 325.547591 456.536803 
L 337.40586 483.508275 
L 340.793937 490.668977 
L 344.182013 497.355294 
L 347.57009 503.482057 
L 350.958167 508.99095 
L 354.346244 513.849884 
L 357.73432 518.051561 
L 361.122397 521.611212 
L 364.510474 524.563504 
L 367.898551 526.958642 
L 371.286627 528.857892 
L 374.674704 530.328827 
L 378.062781 531.440748 
L 381.450858 532.260653 
L 384.838934 532.850086 
L 389.92105 533.417839 
L 395.003165 533.732136 
L 401.779318 533.929626 
L 401.779318 533.929626 
" clip-path="url(#p7f5748441a)" style="fill: none; stroke: #2ca02c; stroke-width: 1.5; stroke-linecap: square"/>
   </g>
   <g id="line2d_51">
    <path d="M 74.76068 533.758376 
L 77.853361 533.511127 
L 80.946043 533.081737 
L 84.038724 532.364128 
L 85.585064 531.852694 
L 87.131405 531.209882 
L 88.677746 530.409626 
L 90.224086 529.422823 
L 91.770427 528.217523 
L 93.316767 526.759289 
L 94.863108 525.011733 
L 96.409448 522.937252 
L 97.955789 520.497955 
L 99.50213 517.656788 
L 101.04847 514.37882 
L 102.594811 510.632676 
L 104.141151 506.392048 
L 105.687492 501.637238 
L 107.233833 496.356664 
L 108.780173 490.548246 
L 110.326514 484.22059 
L 113.419195 470.100538 
L 116.511876 454.304485 
L 121.150898 428.597659 
L 125.78992 402.543494 
L 128.882601 386.248234 
L 131.975282 371.636646 
L 133.521622 365.141795 
L 135.067963 359.259652 
L 136.614304 354.02727 
L 138.160644 349.467454 
L 139.706985 345.588883 
L 141.253325 342.386785 
L 142.799666 339.844098 
L 144.346007 337.933059 
L 145.892347 336.617112 
L 147.438688 335.853047 
L 148.985028 335.593227 
L 150.531369 335.787819 
L 152.07771 336.386895 
L 153.62405 337.34233 
L 155.170391 338.609404 
L 156.716731 340.148064 
L 158.263072 341.923801 
L 159.809412 343.90814 
L 162.902094 348.419206 
L 165.994775 353.569949 
L 169.087456 359.32059 
L 172.180137 365.670633 
L 175.272818 372.623002 
L 178.365499 380.151931 
L 181.458181 388.180217 
L 187.643543 405.123493 
L 192.282565 417.746041 
L 195.375246 425.669033 
L 198.467927 432.959147 
L 201.560608 439.485849 
L 204.653289 445.205241 
L 207.745971 450.160416 
L 210.838652 454.463481 
L 213.931333 458.263069 
L 217.024014 461.705685 
L 221.663036 466.426124 
L 226.302058 470.711519 
L 229.394739 473.280794 
L 232.48742 475.561903 
L 235.580101 477.527535 
L 238.672782 479.196422 
L 243.311804 481.312905 
L 249.497166 484.0601 
L 252.589848 485.675926 
L 255.682529 487.552032 
L 258.77521 489.694652 
L 263.414232 493.293894 
L 271.145935 499.519643 
L 274.238616 501.807756 
L 277.331297 503.888896 
L 280.423978 505.751902 
L 285.063 508.197596 
L 292.794703 511.828203 
L 298.980065 514.850163 
L 306.711768 518.982726 
L 312.89713 522.206362 
L 315.989812 523.637581 
L 319.082493 524.895006 
L 322.175174 525.966623 
L 326.814196 527.258144 
L 331.453217 528.278169 
L 343.823942 530.607783 
L 353.101986 532.22171 
L 359.287348 533.032716 
L 365.47271 533.557885 
L 371.658073 533.841578 
L 380.936116 534.000719 
L 382.482457 534.01101 
L 382.482457 534.01101 
" clip-path="url(#p7f5748441a)" style="fill: none; stroke: #d62728; stroke-width: 1.5; stroke-linecap: square"/>
   </g>
   <g id="patch_15">
    <path d="M 47.81 534.04 
L 47.81 308.04 
" style="fill: none; stroke: #000000; stroke-width: 0.8; stroke-linejoin: miter; stroke-linecap: square"/>
   </g>
   <g id="patch_16">
    <path d="M 418.635 534.04 
L 418.635 308.04 
" style="fill: none; stroke: #000000; stroke-width: 0.8; stroke-linejoin: miter; stroke-linecap: square"/>
   </g>
   <g id="patch_17">
    <path d="M 47.81 534.04 
L 418.635 534.04 
" style="fill: none; stroke: #000000; stroke-width: 0.8; stroke-linejoin: miter; stroke-linecap: square"/>
   </g>
   <g id="patch_18">
    <path d="M 47.81 308.04 
L 418.635 308.04 
" style="fill: none; stroke: #000000; stroke-width: 0.8; stroke-linejoin: miter; stroke-linecap: square"/>
   </g>
   <g id="text_51">
    <!-- Probability Distribution -->
    <g transform="translate(164.598437 302.04) scale(0.12 -0.12)">
     <use xlink:href="#DejaVuSans-50"/>
     <use xlink:href="#DejaVuSans-72" x="58.552734"/>
     <use xlink:href="#DejaVuSans-6f" x="97.416016"/>
     <use xlink:href="#DejaVuSans-62" x="158.597656"/>
     <use xlink:href="#DejaVuSans-61" x="222.074219"/>
     <use xlink:href="#DejaVuSans-62" x="283.353516"/>
     <use xlink:href="#DejaVuSans-69" x="346.830078"/>
     <use xlink:href="#DejaVuSans-6c" x="374.613281"/>
     <use xlink:href="#DejaVuSans-69" x="402.396484"/>
     <use xlink:href="#DejaVuSans-74" x="430.179688"/>
     <use xlink:href="#DejaVuSans-79" x="469.388672"/>
     <use xlink:href="#DejaVuSans-20" x="528.568359"/>
     <use xlink:href="#DejaVuSans-44" x="560.355469"/>
     <use xlink:href="#DejaVuSans-69" x="637.357422"/>
     <use xlink:href="#DejaVuSans-73" x="665.140625"/>
     <use xlink:href="#DejaVuSans-74" x="717.240234"/>
     <use xlink:href="#DejaVuSans-72" x="756.449219"/>
     <use xlink:href="#DejaVuSans-69" x="797.5625"/>
     <use xlink:href="#DejaVuSans-62" x="825.345703"/>
     <use xlink:href="#DejaVuSans-75" x="888.822266"/>
     <use xlink:href="#DejaVuSans-74" x="952.201172"/>
     <use xlink:href="#DejaVuSans-69" x="991.410156"/>
     <use xlink:href="#DejaVuSans-6f" x="1019.193359"/>
     <use xlink:href="#DejaVuSans-6e" x="1080.375"/>
    </g>
   </g>
   <g id="legend_3">
    <g id="patch_19">
     <path d="M 313.669375 374.7525 
L 411.635 374.7525 
Q 413.635 374.7525 413.635 372.7525 
L 413.635 315.04 
Q 413.635 313.04 411.635 313.04 
L 313.669375 313.04 
Q 311.669375 313.04 311.669375 315.04 
L 311.669375 372.7525 
Q 311.669375 374.7525 313.669375 374.7525 
z
" style="fill: #ffffff; opacity: 0.8; stroke: #cccccc; stroke-linejoin: miter"/>
    </g>
    <g id="line2d_52">
     <path d="M 315.669375 321.138438 
L 325.669375 321.138438 
L 335.669375 321.138438 
" style="fill: none; stroke: #1f77b4; stroke-width: 1.5; stroke-linecap: square"/>
    </g>
    <g id="text_52">
     <!-- train active -->
     <g transform="translate(343.669375 324.638438) scale(0.1 -0.1)">
      <use xlink:href="#DejaVuSans-74"/>
      <use xlink:href="#DejaVuSans-72" x="39.208984"/>
      <use xlink:href="#DejaVuSans-61" x="80.322266"/>
      <use xlink:href="#DejaVuSans-69" x="141.601562"/>
      <use xlink:href="#DejaVuSans-6e" x="169.384766"/>
      <use xlink:href="#DejaVuSans-20" x="232.763672"/>
      <use xlink:href="#DejaVuSans-61" x="264.550781"/>
      <use xlink:href="#DejaVuSans-63" x="325.830078"/>
      <use xlink:href="#DejaVuSans-74" x="380.810547"/>
      <use xlink:href="#DejaVuSans-69" x="420.019531"/>
      <use xlink:href="#DejaVuSans-76" x="447.802734"/>
      <use xlink:href="#DejaVuSans-65" x="506.982422"/>
     </g>
    </g>
    <g id="line2d_53">
     <path d="M 315.669375 335.816563 
L 325.669375 335.816563 
L 335.669375 335.816563 
" style="fill: none; stroke: #ff7f0e; stroke-width: 1.5; stroke-linecap: square"/>
    </g>
    <g id="text_53">
     <!-- train inactive -->
     <g transform="translate(343.669375 339.316563) scale(0.1 -0.1)">
      <use xlink:href="#DejaVuSans-74"/>
      <use xlink:href="#DejaVuSans-72" x="39.208984"/>
      <use xlink:href="#DejaVuSans-61" x="80.322266"/>
      <use xlink:href="#DejaVuSans-69" x="141.601562"/>
      <use xlink:href="#DejaVuSans-6e" x="169.384766"/>
      <use xlink:href="#DejaVuSans-20" x="232.763672"/>
      <use xlink:href="#DejaVuSans-69" x="264.550781"/>
      <use xlink:href="#DejaVuSans-6e" x="292.333984"/>
      <use xlink:href="#DejaVuSans-61" x="355.712891"/>
      <use xlink:href="#DejaVuSans-63" x="416.992188"/>
      <use xlink:href="#DejaVuSans-74" x="471.972656"/>
      <use xlink:href="#DejaVuSans-69" x="511.181641"/>
      <use xlink:href="#DejaVuSans-76" x="538.964844"/>
      <use xlink:href="#DejaVuSans-65" x="598.144531"/>
     </g>
    </g>
    <g id="line2d_54">
     <path d="M 315.669375 350.494687 
L 325.669375 350.494687 
L 335.669375 350.494687 
" style="fill: none; stroke: #2ca02c; stroke-width: 1.5; stroke-linecap: square"/>
    </g>
    <g id="text_54">
     <!-- test active -->
     <g transform="translate(343.669375 353.994687) scale(0.1 -0.1)">
      <use xlink:href="#DejaVuSans-74"/>
      <use xlink:href="#DejaVuSans-65" x="39.208984"/>
      <use xlink:href="#DejaVuSans-73" x="100.732422"/>
      <use xlink:href="#DejaVuSans-74" x="152.832031"/>
      <use xlink:href="#DejaVuSans-20" x="192.041016"/>
      <use xlink:href="#DejaVuSans-61" x="223.828125"/>
      <use xlink:href="#DejaVuSans-63" x="285.107422"/>
      <use xlink:href="#DejaVuSans-74" x="340.087891"/>
      <use xlink:href="#DejaVuSans-69" x="379.296875"/>
      <use xlink:href="#DejaVuSans-76" x="407.080078"/>
      <use xlink:href="#DejaVuSans-65" x="466.259766"/>
     </g>
    </g>
    <g id="line2d_55">
     <path d="M 315.669375 365.172813 
L 325.669375 365.172813 
L 335.669375 365.172813 
" style="fill: none; stroke: #d62728; stroke-width: 1.5; stroke-linecap: square"/>
    </g>
    <g id="text_55">
     <!-- test inactive -->
     <g transform="translate(343.669375 368.672813) scale(0.1 -0.1)">
      <use xlink:href="#DejaVuSans-74"/>
      <use xlink:href="#DejaVuSans-65" x="39.208984"/>
      <use xlink:href="#DejaVuSans-73" x="100.732422"/>
      <use xlink:href="#DejaVuSans-74" x="152.832031"/>
      <use xlink:href="#DejaVuSans-20" x="192.041016"/>
      <use xlink:href="#DejaVuSans-69" x="223.828125"/>
      <use xlink:href="#DejaVuSans-6e" x="251.611328"/>
      <use xlink:href="#DejaVuSans-61" x="314.990234"/>
      <use xlink:href="#DejaVuSans-63" x="376.269531"/>
      <use xlink:href="#DejaVuSans-74" x="431.25"/>
      <use xlink:href="#DejaVuSans-69" x="470.458984"/>
      <use xlink:href="#DejaVuSans-76" x="498.242188"/>
      <use xlink:href="#DejaVuSans-65" x="557.421875"/>
     </g>
    </g>
   </g>
  </g>
  <g id="axes_4">
   <g id="table_1">
    <g id="patch_20">
     <path d="M 474.41 421.04 
L 548.575 421.04 
L 548.575 407.587619 
L 474.41 407.587619 
z
" style="fill: #ffffff; stroke: #000000; stroke-linejoin: miter"/>
    </g>
    <g id="text_56">
     <!-- Accuracy -->
     <g transform="translate(488.664375 417.073185) scale(0.1 -0.1)">
      <use xlink:href="#DejaVuSans-41"/>
      <use xlink:href="#DejaVuSans-63" x="66.658203"/>
      <use xlink:href="#DejaVuSans-63" x="121.638672"/>
      <use xlink:href="#DejaVuSans-75" x="176.619141"/>
      <use xlink:href="#DejaVuSans-72" x="239.998047"/>
      <use xlink:href="#DejaVuSans-61" x="281.111328"/>
      <use xlink:href="#DejaVuSans-63" x="342.390625"/>
      <use xlink:href="#DejaVuSans-79" x="397.371094"/>
     </g>
    </g>
    <g id="patch_21">
     <path d="M 548.575 421.04 
L 622.74 421.04 
L 622.74 407.587619 
L 548.575 407.587619 
z
" style="fill: #ffffff; stroke: #000000; stroke-linejoin: miter"/>
    </g>
    <g id="text_57">
     <!-- Precision -->
     <g transform="translate(563.350469 417.073185) scale(0.1 -0.1)">
      <use xlink:href="#DejaVuSans-50"/>
      <use xlink:href="#DejaVuSans-72" x="58.552734"/>
      <use xlink:href="#DejaVuSans-65" x="97.416016"/>
      <use xlink:href="#DejaVuSans-63" x="158.939453"/>
      <use xlink:href="#DejaVuSans-69" x="213.919922"/>
      <use xlink:href="#DejaVuSans-73" x="241.703125"/>
      <use xlink:href="#DejaVuSans-69" x="293.802734"/>
      <use xlink:href="#DejaVuSans-6f" x="321.585938"/>
      <use xlink:href="#DejaVuSans-6e" x="382.767578"/>
     </g>
    </g>
    <g id="patch_22">
     <path d="M 622.74 421.04 
L 696.905 421.04 
L 696.905 407.587619 
L 622.74 407.587619 
z
" style="fill: #ffffff; stroke: #000000; stroke-linejoin: miter"/>
    </g>
    <g id="text_58">
     <!-- Recall -->
     <g transform="translate(644.905313 417.073185) scale(0.1 -0.1)">
      <use xlink:href="#DejaVuSans-52"/>
      <use xlink:href="#DejaVuSans-65" x="64.982422"/>
      <use xlink:href="#DejaVuSans-63" x="126.505859"/>
      <use xlink:href="#DejaVuSans-61" x="181.486328"/>
      <use xlink:href="#DejaVuSans-6c" x="242.765625"/>
      <use xlink:href="#DejaVuSans-6c" x="270.548828"/>
     </g>
    </g>
    <g id="patch_23">
     <path d="M 696.905 421.04 
L 771.07 421.04 
L 771.07 407.587619 
L 696.905 407.587619 
z
" style="fill: #ffffff; stroke: #000000; stroke-linejoin: miter"/>
    </g>
    <g id="text_59">
     <!-- F1 -->
     <g transform="translate(727.930469 417.073185) scale(0.1 -0.1)">
      <use xlink:href="#DejaVuSans-46"/>
      <use xlink:href="#DejaVuSans-31" x="57.519531"/>
     </g>
    </g>
    <g id="patch_24">
     <path d="M 771.07 421.04 
L 845.235 421.04 
L 845.235 407.587619 
L 771.07 407.587619 
z
" style="fill: #ffffff; stroke: #000000; stroke-linejoin: miter"/>
    </g>
    <g id="text_60">
     <!-- ROC AUC -->
     <g transform="translate(785.090781 417.073185) scale(0.1 -0.1)">
      <use xlink:href="#DejaVuSans-52"/>
      <use xlink:href="#DejaVuSans-4f" x="69.482422"/>
      <use xlink:href="#DejaVuSans-43" x="148.193359"/>
      <use xlink:href="#DejaVuSans-20" x="218.017578"/>
      <use xlink:href="#DejaVuSans-41" x="249.804688"/>
      <use xlink:href="#DejaVuSans-55" x="318.212891"/>
      <use xlink:href="#DejaVuSans-43" x="391.40625"/>
     </g>
    </g>
    <g id="patch_25">
     <path d="M 450.78125 434.492381 
L 474.41 434.492381 
L 474.41 421.04 
L 450.78125 421.04 
z
" style="fill: #ffffff; stroke: #000000; stroke-linejoin: miter"/>
    </g>
    <g id="text_61">
     <!-- Test -->
     <g transform="translate(453.144125 430.525565) scale(0.1 -0.1)">
      <use xlink:href="#DejaVuSans-54"/>
      <use xlink:href="#DejaVuSans-65" x="44.083984"/>
      <use xlink:href="#DejaVuSans-73" x="105.607422"/>
      <use xlink:href="#DejaVuSans-74" x="157.707031"/>
     </g>
    </g>
    <g id="patch_26">
     <path d="M 474.41 434.492381 
L 548.575 434.492381 
L 548.575 421.04 
L 474.41 421.04 
z
" style="fill: #ffffff; stroke: #000000; stroke-linejoin: miter"/>
    </g>
    <g id="text_62">
     <!-- 0.76 -->
     <g transform="translate(518.892875 430.525565) scale(0.1 -0.1)">
      <use xlink:href="#DejaVuSans-30"/>
      <use xlink:href="#DejaVuSans-2e" x="63.623047"/>
      <use xlink:href="#DejaVuSans-37" x="95.410156"/>
      <use xlink:href="#DejaVuSans-36" x="159.033203"/>
     </g>
    </g>
    <g id="patch_27">
     <path d="M 548.575 434.492381 
L 622.74 434.492381 
L 622.74 421.04 
L 548.575 421.04 
z
" style="fill: #ffffff; stroke: #000000; stroke-linejoin: miter"/>
    </g>
    <g id="text_63">
     <!-- 0.71 -->
     <g transform="translate(593.057875 430.525565) scale(0.1 -0.1)">
      <use xlink:href="#DejaVuSans-30"/>
      <use xlink:href="#DejaVuSans-2e" x="63.623047"/>
      <use xlink:href="#DejaVuSans-37" x="95.410156"/>
      <use xlink:href="#DejaVuSans-31" x="159.033203"/>
     </g>
    </g>
    <g id="patch_28">
     <path d="M 622.74 434.492381 
L 696.905 434.492381 
L 696.905 421.04 
L 622.74 421.04 
z
" style="fill: #ffffff; stroke: #000000; stroke-linejoin: miter"/>
    </g>
    <g id="text_64">
     <!-- 0.60 -->
     <g transform="translate(667.222875 430.525565) scale(0.1 -0.1)">
      <use xlink:href="#DejaVuSans-30"/>
      <use xlink:href="#DejaVuSans-2e" x="63.623047"/>
      <use xlink:href="#DejaVuSans-36" x="95.410156"/>
      <use xlink:href="#DejaVuSans-30" x="159.033203"/>
     </g>
    </g>
    <g id="patch_29">
     <path d="M 696.905 434.492381 
L 771.07 434.492381 
L 771.07 421.04 
L 696.905 421.04 
z
" style="fill: #ffffff; stroke: #000000; stroke-linejoin: miter"/>
    </g>
    <g id="text_65">
     <!-- 0.65 -->
     <g transform="translate(741.387875 430.525565) scale(0.1 -0.1)">
      <use xlink:href="#DejaVuSans-30"/>
      <use xlink:href="#DejaVuSans-2e" x="63.623047"/>
      <use xlink:href="#DejaVuSans-36" x="95.410156"/>
      <use xlink:href="#DejaVuSans-35" x="159.033203"/>
     </g>
    </g>
    <g id="patch_30">
     <path d="M 771.07 434.492381 
L 845.235 434.492381 
L 845.235 421.04 
L 771.07 421.04 
z
" style="fill: #ffffff; stroke: #000000; stroke-linejoin: miter"/>
    </g>
    <g id="text_66">
     <!-- 0.17 -->
     <g transform="translate(815.552875 430.525565) scale(0.1 -0.1)">
      <use xlink:href="#DejaVuSans-30"/>
      <use xlink:href="#DejaVuSans-2e" x="63.623047"/>
      <use xlink:href="#DejaVuSans-31" x="95.410156"/>
      <use xlink:href="#DejaVuSans-37" x="159.033203"/>
     </g>
    </g>
   </g>
  </g>
 </g>
 <defs>
  <clipPath id="p02ba049380">
   <rect x="47.81" y="25.44" width="370.825" height="226"/>
  </clipPath>
  <clipPath id="p1d9af29515">
   <rect x="474.41" y="25.44" width="370.825" height="226"/>
  </clipPath>
  <clipPath id="p7f5748441a">
   <rect x="47.81" y="308.04" width="370.825" height="226"/>
  </clipPath>
 </defs>
</svg>
